<?xml version="1.0" encoding="utf-8"?><!-- Generator: Adobe Illustrator 15.0.0, SVG Export Plug-In . SVG Version: 6.00 Build 0)  --><!DOCTYPE svg PUBLIC "-//W3C//DTD SVG 1.1//EN" "http://www.w3.org/Graphics/SVG/1.1/DTD/svg11.dtd"><svg xmlns="http://www.w3.org/2000/svg" xmlns:xlink="http://www.w3.org/1999/xlink" version="1.1" x="0px" y="0px" width="500" height="500" viewBox="0 0 48 48" enable-background="new 0 0 48 48" xml:space="preserve">
<g>
	
		<line fill="#DD2C00" stroke="#DD2C00" stroke-width="2" stroke-linecap="round" stroke-linejoin="round" x1="26.063" y1="32.063" x2="27.063" y2="40"/>
	<path fill="#DD2C00" stroke="#DD2C00" stroke-width="2" stroke-linecap="round" stroke-linejoin="round" d="M25,40h2c0,0,3,0,5,1"/>
</g>
<g>
	
		<line fill="none" stroke="#FF3D00" stroke-width="2" stroke-linecap="round" stroke-linejoin="round" x1="24.063" y1="33" x2="25.063" y2="40.938"/>
	<path fill="#DD2C00" stroke="#FF3D00" stroke-width="2" stroke-linecap="round" stroke-linejoin="round" d="M23,41h2c0,0,3,0,5,1"/>
</g>
<g>
	<path fill="#CFD8DC" d="M36.99,16.277c-0.773-1.224,0.451-1.224,1.482-3.285L34.929,7C29.774,7,28.031,14.938,27,17   c-4.124,0-11,4-11,4c-2.062,0-4.42-6.041-5.708-6.75c0,0-2.635,4.173-3.542,10.5c0.719,0.493,1.58,1.025,2.636,1.44   C12.907,34.345,20.971,37,25.65,37c5.154,0,7.35-3,7.35-3S44.206,30.709,36.99,16.277z"/>
	<circle fill="#CFD8DC" cx="9.5" cy="15.5" r="1.5"/>
	<circle fill="#CFD8DC" cx="7.546" cy="20.5" r="1.5"/>
	<circle fill="#CFD8DC" cx="7.5" cy="23.5" r="1.5"/>
	<circle fill="#CFD8DC" cx="8" cy="17.666" r="1.5"/>
</g>
<path fill="#B0BEC5" d="M29.039,12.267c-0.941,1.945-1.551,3.882-1.977,4.733C23.063,17,16,21,16,21c2,2,5.063,2,5.063,2  S19.506,24.959,16,26c2,1,5,1,5,1s-1,2-4,3c2,1,5.484,0.884,7.556,0.043c8-3.25,7.5-10.997,7.5-10.997  C31.832,16.344,30.373,13.039,29.039,12.267z"/>
<g>
	<path fill="#FF3D00" d="M34.063,7.5c0-0.828,1-3.5,1.5-3.5s1.5,2.672,1.5,3.5S36.391,9,35.563,9S34.063,8.328,34.063,7.5z"/>
	<path fill="#FF3D00" d="M35.224,6.467c0.373-0.738,2.47-2.674,2.915-2.449c0.447,0.226,0.137,3.061-0.236,3.801   c-0.373,0.738-1.275,1.037-2.016,0.664C35.147,8.109,34.852,7.206,35.224,6.467z"/>
	<path fill="#FF3D00" d="M33.813,8.788c-0.442-0.699-1.026-3.492-0.604-3.76s2.697,1.455,3.139,2.155   c0.443,0.699,0.236,1.627-0.464,2.069C35.184,9.696,34.257,9.487,33.813,8.788z"/>
	<path fill="#FF3D00" d="M37.248,6.095c0.775-0.291,3.629-0.293,3.805,0.175c0.176,0.469-1.975,2.344-2.751,2.634   c-0.774,0.291-1.64-0.102-1.931-0.877C36.08,7.25,36.473,6.386,37.248,6.095z"/>
	<path fill="#FF3D00" d="M38.791,8.018c0.818,0.125,3.307,1.519,3.232,2.013c-0.076,0.494-2.869,1.078-3.688,0.952   c-0.818-0.125-1.381-0.891-1.256-1.709C37.206,8.453,37.972,7.893,38.791,8.018z"/>
	<path fill="#FF3D00" d="M39.063,14.5c0,1.381-1.119,2.5-2.5,2.5c-1.268,0-2.316-0.944-2.479-2.168   c0.013-0.024,2.562,0.002,2.979-1.832c0,0,0.905-0.584,0.897-0.573C38.625,12.877,39.063,13.637,39.063,14.5z"/>
</g>
<g>
	<circle fill="#607D8B" cx="35.063" cy="11" r="4"/>
	<path fill="#607D8B" d="M35.063,7C30,7,28,14,27.063,17l3-2l1.5,2.313l2.594-2.469L35.063,7z"/>
</g>
<circle cx="36.063" cy="11" r="1"/>
<path fill="#FFC107" d="M39.063,11l-2,2l2,1c0,0,2-1,4,0C42.063,11,39.063,11,39.063,11z"/>
</svg>