<?xml version="1.0" encoding="utf-8"?><!-- Generator: Adobe Illustrator 15.0.0, SVG Export Plug-In . SVG Version: 6.00 Build 0)  --><!DOCTYPE svg PUBLIC "-//W3C//DTD SVG 1.1//EN" "http://www.w3.org/Graphics/SVG/1.1/DTD/svg11.dtd"><svg xmlns="http://www.w3.org/2000/svg" xmlns:xlink="http://www.w3.org/1999/xlink" version="1.1" x="0px" y="0px" width="500" height="500" viewBox="0 0 48 48" enable-background="new 0 0 48 48" xml:space="preserve">
<path fill="#6D4C41" d="M29,40c0,3.162-3,5-5,5s-5-1.838-5-5c0-2.611-3.216-8.416-4-12.938c0,0,0-1.416,0-2.063c0-2,2-4,5-6  c0,0,2-1,4-1s4,1,4,1c3,2,5,4,5,6c0,0.848,0,2,0,2C32.252,32.366,29,36.485,29,40z"/>
<g>
	<path fill="#4E342E" d="M18.79,19.854C18.036,20.24,17.019,20.509,16,20c-2-1-8-3-8-3s-0.479,3.381,2,6   c1.824,1.927,4.851,1.057,5.199,0.949C15.657,22.583,16.95,21.218,18.79,19.854z"/>
	<path fill="#4E342E" d="M40,17c0,0-6,2-8,3c-1.019,0.509-2.035,0.24-2.79-0.146c1.857,1.378,3.159,2.756,3.604,4.134l-0.002-0.035   c0,0,3.109,1.141,5.188-0.953C40.54,20.44,40,17,40,17z"/>
	<path fill="#4E342E" d="M21,21c0.553,0,2-0.447,2-1c0-1.729-2.254-5-7-5c-1.901,0-9-1.357-9-8c0-0.553-0.447-1-1-1S5,6.447,5,7   c0,7.556,6.411,10,10,10c3.954,0,4,2.878,4,3C19,20.553,20.447,21,21,21z"/>
	<path fill="none" stroke="#4E342E" stroke-width="2" stroke-linecap="round" d="M17,16c-2-2-2-5-1-7"/>
	<path fill="#4E342E" d="M16.001,17c0.48,0,0.904-0.347,0.985-0.836c0.091-0.543-0.275-1.058-0.818-1.149   c-0.519-0.093-5.008-1.062-4.178-6.873c0.078-0.547-0.302-1.054-0.849-1.132c-0.546-0.082-1.054,0.302-1.132,0.849   c-1.125,7.876,5.756,9.116,5.826,9.128C15.892,16.996,15.946,17,16.001,17z"/>
	<path fill="#4E342E" d="M27,21c-0.553,0-2-0.447-2-1c0-1.729,2.254-5,7-5c1.901,0,9-1.357,9-8c0-0.553,0.447-1,1-1s1,0.447,1,1   c0,7.556-6.411,10-10,10c-3.954,0-4,2.878-4,3C29,20.553,27.553,21,27,21z"/>
	<path fill="none" stroke="#4E342E" stroke-width="2" stroke-linecap="round" d="M31,16c2-2,2-5,1-7"/>
	<path fill="#4E342E" d="M31.999,17c-0.48,0-0.904-0.347-0.985-0.836c-0.091-0.543,0.275-1.058,0.818-1.149   c0.519-0.093,5.008-1.062,4.178-6.873c-0.078-0.547,0.302-1.054,0.849-1.132c0.546-0.082,1.054,0.302,1.132,0.849   c1.125,7.876-5.756,9.116-5.826,9.128C32.108,16.996,32.054,17,31.999,17z"/>
</g>
<path fill="#A1887F" d="M29,23c-1,0-3,3-5,3s-4-3-5-3c-0.901,0-3.671,2.947-4,4c0.352,4.785,4,10,4,14c0,0,3,4,5,4s5-3,5-4  c0-4,3.645-9.168,4-14C32.671,25.947,29.901,23,29,23z"/>
<path fill="#BCAAA4" d="M28,37c0,0-0.396-2-2-2h-4c-1.698,0-2,2-2,2l-1,4c0,1.104,1.896,4,3,4h4c1.104,0,3-2.896,3-4L28,37z"/>
<g>
	<circle cx="29.5" cy="27.5" r="1.5"/>
	<circle cx="18.5" cy="27.5" r="1.5"/>
</g>
<g>
	<path fill="#8D6E63" d="M37.395,23.496c-0.577,0.39-1.198,0.594-1.787,0.687c0.193-0.062,2.377-1.589,2.159-3.829l-5.808,2.073   c0.396,0.521,0.688,1.041,0.855,1.562l-0.002-0.035C32.813,23.953,35.368,24.883,37.395,23.496z"/>
	<path fill="#8D6E63" d="M10.233,20.354c-0.294,2.054,1.933,3.742,2.153,3.826c1.351,0.196,2.597-0.164,2.813-0.23   c0.17-0.507,0.457-1.015,0.843-1.522L10.233,20.354z"/>
	<path fill="#8D6E63" d="M24.707,40.334l-0.706,0.709L24,41.041v1.313c0.001-0.001,0.001-0.002,0.002-0.002   c0.827,0.615,2.311,1.367,3.67,1.383c0.484-0.594,0.925-1.339,1.219-2.203C26.828,42.313,24.796,40.422,24.707,40.334z"/>
	<path fill="#8D6E63" d="M23.293,40.334l0.706,0.709L24,41.041v1.313c-0.001-0.001-0.001-0.002-0.002-0.002   c-0.827,0.615-2.311,1.367-3.67,1.383c-0.484-0.594-0.925-1.339-1.219-2.203C21.172,42.313,23.204,40.422,23.293,40.334z"/>
</g>
<path fill="#3E2723" d="M26,40c0,0.553-1.447,2-2,2l0,0c-0.553,0-2-1.447-2-2v-1c0-0.553,0.447-1,1-1h2c0.553,0,1,0.447,1,1V40z"/>
</svg>