<?xml version="1.0" encoding="iso-8859-1"?><!-- Generator: Adobe Illustrator 19.2.0, SVG Export Plug-In . SVG Version: 6.00 Build 0)  --><svg xmlns="http://www.w3.org/2000/svg" xmlns:xlink="http://www.w3.org/1999/xlink" version="1.1" x="0px" y="0px" viewBox="0 0 48 48" style="enable-background:new 0 0 48 48;" xml:space="preserve" width="500" height="500">
<metadata><?xpacket begin="﻿" ?>
<x:xmpmeta xmlns:x="adobe:ns:meta/" x:xmptk="Adobe XMP Core 5.6-c111 79.158366, 2015/09/25-01:12:00        ">
   <rdf:RDF xmlns:rdf="http://www.w3.org/1999/02/22-rdf-syntax-ns#">
      <rdf:Description rdf:about=""/>
   </rdf:RDF>
</x:xmpmeta>
                                                                                                    
                                                                                                    
                                                                                                    
                                                                                                    
                                                                                                    
                                                                                                    
                                                                                                    
                                                                                                    
                                                                                                    
                                                                                                    
                                                                                                    
                                                                                                    
                                                                                                    
                                                                                                    
                                                                                                    
                                                                                                    
                                                                                                    
                                                                                                    
                                                                                                    
                                                                                                    
                           
<?xpacket end="w"?></metadata>
<path style="fill:#AD1456;" d="M13.227,36.757c-1.417-0.171-2.955-0.123-2.955-0.123l-1.219-3.08l1.507-6.027l-4.926-1.029  l0.898,8.038l1.741,4.056c1.973,1.973,4.816,1.766,4.816,1.766c0-0.767-0.592-1.358-0.592-1.358h2.955  C15.453,39,15.02,36.973,13.227,36.757z"/>
<path style="fill:#FF8A80;" d="M36.218,25.065c0,0,3.911,5.606,4.99,7.5c2.393,4.201,3.189,6.775,3.572,6.692  c0.351-0.076,0.611-1.026-1.949-6.786c-2.539-5.712-3.712-8.743-3.712-8.743L36.218,25.065z"/>
<path style="fill:#EC407A;" d="M24.227,38.757c-1.417-0.171-4.049-0.123-4.049-0.123l-3.16-3.481l-0.78-4.87l-5.46-1.955  l2.871,7.502c0.099,0.259,0.265,0.486,0.482,0.659l5.143,4.102c1.973,1.973,4.816,1.766,4.816,1.766  c0-0.767-0.592-1.358-0.592-1.358h2.955C26.453,41,26.02,38.973,24.227,38.757z"/>
<path style="fill:#8D6E63;" d="M3,21.673C3,17.603,6.15,10,15.382,10c8.189,0,12.866,7.223,14.123,7.223s2.352-1.031,4.806-1.031  c3.92,0,6.318,3.227,6.318,5.771c0,2.799-2.057,4.548-3.314,4.548c-2.574,0-3.498-1.032-4.991-1.032c-1.368,0-2.713,4.12-6.552,4.12  c-4.888,0-7.734,2.326-8.965,5.133c-2.659,0-4.766-2.128-4.766-2.128S3,30.361,3,21.673z"/>
<path style="fill:#795548;" d="M20.867,11.129c4.829,2.031,7.695,6.094,8.638,6.094c1.258,0,2.352-1.031,4.806-1.031  c-2.777,1.767-2.87,5.015-1.987,9.287c-1.368,0-2.713,4.12-6.552,4.12c-4.888,0-7.734,2.326-8.965,5.133  C16.54,23.968,30.7,27.682,20.867,11.129z"/>
<circle style="fill:#212121;" cx="37.053" cy="22.383" r="1.032"/>
</svg>