<?xml version="1.0" encoding="utf-8"?><!-- Generator: Adobe Illustrator 15.0.0, SVG Export Plug-In . SVG Version: 6.00 Build 0)  --><!DOCTYPE svg PUBLIC "-//W3C//DTD SVG 1.1//EN" "http://www.w3.org/Graphics/SVG/1.1/DTD/svg11.dtd"><svg xmlns="http://www.w3.org/2000/svg" xmlns:xlink="http://www.w3.org/1999/xlink" version="1.1" x="0px" y="0px" width="500" height="500" viewBox="0 0 48 48" enable-background="new 0 0 48 48" xml:space="preserve">
<path fill="#CFD8DC" d="M42,26c0,9.941-8.059,16-18,16S6,35.941,6,26S14.059,6,24,6S42,16.059,42,26z"/>
<path fill="#37474F" d="M29,32.5c0,1.5-5,2.369-5,3.37c0-1.001-5-1.87-5-3.37c0-1.314,1-1.5,2-1.5c0.203,0,5.873,0,6,0  C28,31,29,31,29,32.5z"/>
<g>
	<path fill="#455A64" d="M39.71,16.729c0.146-0.123,0.29-0.249,0.428-0.387c2.539-2.537,2.539-6.653,0-9.191   C37.6,4.611,36.58,6.707,34.042,9.246c-0.084,0.084-0.17,0.167-0.256,0.25C36.237,11.38,38.276,13.896,39.71,16.729z"/>
	<path fill="#455A64" d="M8.304,16.703c1.437-2.832,3.479-5.345,5.934-7.225C14.158,9.401,14.078,9.324,14,9.246   c-2.538-2.539-3.558-4.635-6.096-2.096c-2.539,2.538-2.539,6.654,0,9.191C8.033,16.47,8.167,16.587,8.304,16.703z"/>
	<path fill="#455A64" d="M27.182,20.842c0,0,2.155,7.94,6,8c3.833,0.058,4-3,3.169-4.002c-1.013-1.22-2.377-2.832-3.169-3.998   c-0.792-1.168-1.875-4.003-4.312-4.002C26.182,16.842,27.182,20.842,27.182,20.842z"/>
	<path fill="#455A64" d="M20.818,20.842c0,0-2.155,7.94-6,8c-3.833,0.058-4-3-3.169-4.002c1.013-1.22,2.377-2.832,3.169-3.998   c0.792-1.168,1.875-4.003,4.312-4.002C21.818,16.842,20.818,20.842,20.818,20.842z"/>
</g>
<g>
	<g>
		<circle cx="29.5" cy="20.5" r="1.5"/>
	</g>
	<g>
		<circle cx="18.5" cy="20.5" r="1.5"/>
	</g>
</g>
<g>
	<path fill="none" stroke="#607D8B" stroke-width="2" stroke-linecap="round" d="M24,37c0,0,3,3,6,0"/>
	<path fill="none" stroke="#607D8B" stroke-width="2" stroke-linecap="round" d="M24,37c0,0-3,3-6,0"/>
	<rect x="23" y="35" fill="#607D8B" width="2" height="3"/>
</g>
</svg>