<?xml version="1.0" encoding="utf-8"?><!-- Generator: Adobe Illustrator 15.0.0, SVG Export Plug-In . SVG Version: 6.00 Build 0)  --><!DOCTYPE svg PUBLIC "-//W3C//DTD SVG 1.1//EN" "http://www.w3.org/Graphics/SVG/1.1/DTD/svg11.dtd"><svg xmlns="http://www.w3.org/2000/svg" xmlns:xlink="http://www.w3.org/1999/xlink" version="1.1" x="0px" y="0px" width="500" height="500" viewBox="0 0 48 48" enable-background="new 0 0 48 48" xml:space="preserve">
<g>
	
		<path fill="none" stroke="#BF360C" stroke-width="1.8405" stroke-linecap="round" stroke-linejoin="round" stroke-miterlimit="10" d="   M23.33,30.464c-0.642-1.578-1.814-2.933-3.321-3.736"/>
	
		<path fill="none" stroke="#BF360C" stroke-width="1.8405" stroke-linecap="round" stroke-linejoin="round" stroke-miterlimit="10" d="   M30.33,25c-1.21-1.77-4.521-4.625-7.5-4.957"/>
	
		<path fill="none" stroke="#BF360C" stroke-width="1.8405" stroke-linecap="round" stroke-linejoin="round" stroke-miterlimit="10" d="   M26.872,28c-0.933-1.998-2.621-3.59-4.65-4.445"/>
</g>
<path fill="#DD2C00" d="M36.461,33.244c-0.277,0.139-4.17,2.362-5.56,3.196c-1.808,0.974-3.614,1.668-4.587,1.668  c-0.071,0-0.139-0.012-0.209-0.014c0,0,0,0,0.001,0l-0.01,0.043c-0.275,1.263-0.81,2.461-1.541,3.523  C25.656,41.885,26.721,42,27.704,42c3.197,0,5.838-0.277,7.784-0.834c1.092-0.135,3.058-1.111,3.058-1.111  c1.021-0.511,1.409-2.805-1.216-2.055C40.736,34.719,39.435,31.436,36.461,33.244z"/>
<g>
	<path fill="#FF5722" d="M24.143,37.711c-0.002-0.001-0.004-0.002-0.006-0.002c0.003,0.001,0.007,0.002,0.01,0.003   c-3.279-1.214-5.206-5.01-5.199-7.665c0.006-2.203,1.869-5.148,3.624-6.809C23.244,22.602,24.146,20.5,22.33,20   c-1.771-3.521-3.471-3.059-5.278-8.063C14.455,11,11.581,17.12,11.581,17.12C6.473,30.778,14.725,38.621,22.48,41.117l-0.002-0.001   C23.285,40.148,23.864,38.986,24.143,37.711z"/>
	<path fill="#FF5722" d="M37.174,38.094c0,0-4.947,2.726-11.734,1.997c-0.249,0.548-0.543,1.075-0.884,1.57   C25.656,41.885,26.721,42,27.704,42c3.197,0,5.838-0.277,7.784-0.834c1.092-0.135,3.058-1.111,3.058-1.111   c1.021-0.511,1.409-2.805-1.216-2.055c0.007-0.007,0.013-0.014,0.02-0.021L37.174,38.094z"/>
	<path fill="#FF5722" d="M34.372,11.959l7.628-5c0,0-4.012,0.723-6.67,1.041c0.834-0.416,4.133-2,3.993-2   c-18.069,1.946-20.098,2.919-21.766,4.588C15.194,12.672,20.55,21.277,23.33,21c5.571-2.875,12.985-6.356,15-9L34.372,11.959z"/>
</g>
<g>
	<path fill="#FFCCBC" d="M26.106,38.095C26.105,38.095,26.105,38.095,26.106,38.095c-0.339-0.011-0.665-0.051-0.982-0.112   c-0.025-0.005-0.051-0.01-0.075-0.016c-0.311-0.064-0.612-0.147-0.902-0.255c-0.003-0.001-0.007-0.002-0.01-0.003   c0.002,0,0.004,0.001,0.006,0.002c-0.278,1.275-0.857,2.438-1.664,3.405l0.002,0.001c0.313,0.102,0.627,0.194,0.938,0.277   c0.284,0.071,0.653,0.158,1.133,0.266c0.002,0,0.003,0,0.005,0.001c0.731-1.063,1.266-2.261,1.541-3.523L26.106,38.095z"/>
	<path fill="#FFCCBC" d="M21.276,35.705c-0.459-0.512-0.858-1.074-1.187-1.662l0.001,0.002c-1.171,1.428-2.662,2.577-4.357,3.361   c0.566,0.479,1.159,0.918,1.769,1.32C18.925,37.937,20.206,36.912,21.276,35.705z"/>
	<path fill="#FFCCBC" d="M18.947,30.047c0.001-0.306,0.046-0.628,0.113-0.957c-1.479,0.307-3.009,0.47-4.577,0.47   c-1.361,0-2.691-0.128-3.985-0.36c0.188,0.736,0.424,1.439,0.704,2.111c1.098,0.149,2.197,0.249,3.281,0.249   c1.528,0,3.06-0.151,4.563-0.435C18.984,30.752,18.946,30.389,18.947,30.047z"/>
	<path fill="#FFCCBC" d="M20.089,26.483c0.349-0.627,0.753-1.237,1.187-1.796c-0.002,0.001-0.003,0.002-0.004,0.004   c-4.02-0.695-7.622-2.594-10.412-5.332c-0.215,0.764-0.386,1.509-0.516,2.233C13.124,24.037,16.457,25.709,20.089,26.483z"/>
	<path fill="#FFCCBC" d="M23.196,21.007c-2.385,0-6.431-5.998-6.199-9.08c-0.673-0.218-1.361,0.032-2.014,0.519   c0.032,0.783,0.216,1.713,0.633,2.814c1.132,2.994,4.143,7.354,7.185,7.712c0.37-0.498,0.706-1.317,0.56-1.987   c-0.01,0.006-0.021,0.011-0.03,0.016C23.286,21.004,23.241,21.007,23.196,21.007z"/>
</g>
<circle fill="#3E2723" cx="33.33" cy="8" r="2"/>
</svg>