<?xml version="1.0" encoding="utf-8"?><!-- Generator: Adobe Illustrator 15.0.0, SVG Export Plug-In . SVG Version: 6.00 Build 0)  --><!DOCTYPE svg PUBLIC "-//W3C//DTD SVG 1.1//EN" "http://www.w3.org/Graphics/SVG/1.1/DTD/svg11.dtd"><svg xmlns="http://www.w3.org/2000/svg" xmlns:xlink="http://www.w3.org/1999/xlink" version="1.1" x="0px" y="0px" width="500" height="500" viewBox="0 0 48 48" enable-background="new 0 0 48 48" xml:space="preserve">
<g>
	
		<line fill="#DD2C00" stroke="#DD2C00" stroke-width="2" stroke-linecap="round" stroke-linejoin="round" x1="23" y1="30" x2="24" y2="37.938"/>
	<path fill="#DD2C00" d="M31,38.938c-1,0-2,1-2,2l-4.5-1c-0.5,0-1.5-0.672-1.5-1.5l0,0c0-0.828,0.672-1.5,1.5-1.5H30   C29,37.938,31,38.938,31,38.938z"/>
</g>
<g>
	
		<line fill="none" stroke="#FF3D00" stroke-width="2" stroke-linecap="round" stroke-linejoin="round" x1="21" y1="32" x2="22" y2="39.938"/>
	<path fill="#FF3D00" d="M29,41c-1,0-2,1-2,2l-4.5-1C22,42,21,41.328,21,40.5l0,0c0-0.828,0.672-1.5,1.5-1.5H28C27,40,29,41,29,41z"/>
</g>
<path fill="#78909C" d="M6.192,32.029C5.741,33.256,5.336,34.57,5,36c22,0,22.063-11.71,22.039-15.141  C26.987,23.684,25.279,32.465,6.192,32.029z"/>
<path fill="#FF5722" d="M33,7.082c0,0,6-1,8,4c-3,4-8,2.84-8,2.84V7.082z"/>
<g>
	<path fill="#455A64" d="M35,20l-2-6.078L23,10v6c-0.954,0.954-12.83,2.83-17.391,17.771c0.185-0.6,0.377-1.183,0.583-1.742   c19.087,0.436,20.795-8.346,20.847-11.17c0.003,0.381-0.014,0.881-0.069,1.457C27.104,20.922,27,20,27,20H35z"/>
	<circle fill="#455A64" cx="29" cy="10" r="6"/>
</g>
<g>
	<path fill="#CFD8DC" d="M35,20h-8c0,0,0.036,0.333,0.038,0.894c0-0.011,0.001-0.024,0.001-0.035C27.063,24.29,27,36,5,36   C44.862,39.322,35,20,35,20z"/>
	<path fill="#CFD8DC" d="M35,10c0,2.21-1.79,4-4,4s-7-4-7-4s4.79-4,7-4S35,7.791,35,10z"/>
</g>
<path fill="#263238" d="M31,9c0,0.553-0.447,1-1,1s-1-0.447-1-1s1-2,1-2S31,8.447,31,9z"/>
</svg>