<svg xmlns="http://www.w3.org/2000/svg" xmlns:xlink="http://www.w3.org/1999/xlink" viewBox="0 0 344.51 386.04"><defs><style>.cls-1,.cls-14{fill:none;}.cls-2{clip-path:url(#clip-path);}.cls-3{fill:#ffea29;}.cls-4{fill:#1c222c;}.cls-5{fill:#35414d;}.cls-6{fill:#9fa9ae;}.cls-7{fill:#4d5b63;}.cls-8{fill:#d6d8e5;}.cls-9{fill:#95674f;}.cls-10{fill:#ffe8df;}.cls-11{fill:#c5a595;}.cls-12{fill:#7f674f;}.cls-13{fill:#c46e4f;}.cls-14{stroke:#f2f2f2;stroke-miterlimit:10;stroke-width:3px;}.cls-15{fill:#c7cccf;}.cls-16{fill:#ab5731;}.cls-17{fill:#1a2a1f;}.cls-18{fill:#a7837d;}.cls-19{fill:#d9e7f7;}.cls-20{fill:#25373f;}.cls-21{fill:#424c4f;}.cls-22{fill:#eff2f1;}.cls-23{fill:#fff;}</style><clipPath id="clip-path" transform="translate(-87.52 -84.18)"><rect class="cls-1" width="512" height="512"/></clipPath></defs><title>Asset 6</title><g id="Layer_2" data-name="Layer 2"><g id="Layer_1-2" data-name="Layer 1"><g class="cls-2"><g class="cls-2"><path class="cls-3" d="M88.66,258.26c8-32,77.85-95.68,108.3-97.33,22.15-1.19,25.17,19,54.37,28.25,52.71,16.75,87.91-34.69,126.39-17,26.75,12.34,61.06,74.77,53.16,100.27-17.61,56.83-78.74,52.69-95.91,94.92-26.31,64.69-68.32,65.06-92.74,65-42.8-.06-34.85-83.64-49.66-105.93-12.74-19.19-117-15.49-103.91-68.26" transform="translate(-87.52 -84.18)"/><path class="cls-4" d="M183.4,122.08c-.75.89.69,3.55,3.57,8.87,2.25,4.14,4.21,6.72,5.62,11.56.29,1,.49,1.86.61,2.42a18.32,18.32,0,0,1,1-2.92,18.78,18.78,0,0,1,3.19-5A13.9,13.9,0,0,0,200,147.19c.84-1.43,3.91-7,2.09-13.22-3-10.21-16.85-14-18.66-11.89" transform="translate(-87.52 -84.18)"/><path class="cls-5" d="M289.31,464.22c0,3.31-30.73,6-68.63,6s-68.64-2.69-68.64-6,30.73-6,68.64-6,68.63,2.69,68.63,6" transform="translate(-87.52 -84.18)"/><polygon class="cls-6" points="175.77 77.67 176.95 78.43 175.77 79.9 175.14 78.03 175.77 77.67"/><rect class="cls-7" x="154.71" y="203.3" width="154.59" height="5.72"/><path class="cls-8" d="M392.25,267H303a4.57,4.57,0,0,1-4.57-4.57V204.8a4.58,4.58,0,0,1,4.57-4.57h89.26a4.58,4.58,0,0,1,4.57,4.57v57.66a4.57,4.57,0,0,1-4.57,4.57" transform="translate(-87.52 -84.18)"/><path class="cls-9" d="M268.05,270.58a19.87,19.87,0,0,0,4.13,3.58,27.92,27.92,0,0,0,4,2.09c4,1.85,6.53,2,8.65,1.85A76.47,76.47,0,0,0,295,273.94c-3.56-3.3-9.9-5.47-13.46-8.77l-13.45,5.41" transform="translate(-87.52 -84.18)"/><path class="cls-4" d="M235.41,112.54a34.56,34.56,0,0,1,.41,9.6c-.62,4.21-1.44,9.33-3.39,12.94s-7.7,6.76-7.7,6.76Z" transform="translate(-87.52 -84.18)"/><path class="cls-10" d="M183.26,268.17c-7.21,8.93-4.81,20.59-3.26,38.11a362.87,362.87,0,0,1-.12,63.84c5.88,2.37,14.89,3.57,20.78,5.94,4.38-16.34,8.44-34.29,11.76-53.72a593.86,593.86,0,0,0,7.47-65.44c-9.5-.58-28.4,1.09-36.63,11.27" transform="translate(-87.52 -84.18)"/><path class="cls-10" d="M214.11,266.5a80.57,80.57,0,0,0-3.69,37.89,81.54,81.54,0,0,0,3.73,14.48c3.78,11.5,8.17,28.93,10.13,54l26,3.34a377.64,377.64,0,0,0,.23-41,376.88,376.88,0,0,0-8.89-64.85l-27.49-3.82" transform="translate(-87.52 -84.18)"/><path class="cls-9" d="M204.1,368.16c-.24,1.92-.65,4.74-1.38,8.1a89.53,89.53,0,0,1-3,10.7c-1.73,5-4.85,20.77-10.73,61.2l-14.08.78c.43-15.51.41-28,.32-36.39-.12-11.86-.41-17.19.8-25.13a92.21,92.21,0,0,1,8.57-27.08l19.5,7.82" transform="translate(-87.52 -84.18)"/><path class="cls-9" d="M248.38,368.58c.15,1.92.31,4.76.27,8.21a89.43,89.43,0,0,1-.8,11.08c-.69,5.27-.6,21.32,1.73,62.11l-13.64,3.58c-2.68-15.28-5.19-27.49-7-35.72-2.5-11.59-3.84-16.76-4.25-24.78a92.27,92.27,0,0,1,3-28.25l20.67,3.77" transform="translate(-87.52 -84.18)"/><path class="cls-11" d="M177.08,279.13l42.81-1,26.42.39,2,25-70,6.34s-3.85-10.09-3.08-15.86,1.82-14.88,1.82-14.88" transform="translate(-87.52 -84.18)"/><path class="cls-11" d="M248.32,303.53a147.74,147.74,0,0,1,2.62,28.89c0,16.72.22,18.63.37,26.26.18,9.61-.83,20.28-.83,20.28l-32.54,2s1.29-.59.85-16.73.59-9.7-2-27.57-5.75-36-5.75-36Z" transform="translate(-87.52 -84.18)"/><path class="cls-11" d="M215.43,304s-2.85,19.72-6.35,40.48-4,18.78-4.08,28.39-.51,7.83-.51,7.83H174.7s-.74-3.65.8-24.59,3.23-14,1.05-36.42c-1.29-13.26,1.37-19,1.37-19Z" transform="translate(-87.52 -84.18)"/><path class="cls-12" d="M198.31,130.48A28.63,28.63,0,0,1,190.38,159c4.56,5.16,21.49,13.77,26.05,18.93,5.09-4.33.29-15.47,5.38-19.8-1.28-1.81-5.26-1.12-6.05-4.58-2.12-9.16,2.35-16.72,3.56-18.63l-21-4.46" transform="translate(-87.52 -84.18)"/><path class="cls-9" d="M230.1,232.7c-1.41-2.94-2.52-6.82,3.92-11.38s10.12-.5,12.09,1.76,14.07,19.11,19.21,25.34,16.22,16.78,16.22,16.78l-12.9,6.05s-5.17-4.84-12.24-11.6-22.11-18.18-26.3-26.95" transform="translate(-87.52 -84.18)"/><path class="cls-9" d="M224.87,170.57c.79-3.7,4.28-8.44,9.63-8.71,5.83-.28,9.19,5,9.43,5.36a11.31,11.31,0,0,1,1.61,5.66,221.17,221.17,0,0,1-.72,22.36c-.45,8.48-1.48,14,0,22.47.08.48.65,9,.36,10.62-.9,5.06-6.55,9.3-11.79,7.72-4.24-1.29-5.84-6.47-6.91-9.93-2.26-7.32-.23-9.76,0-22.24.32-14.6.48-21.89-1.35-28.42a9.86,9.86,0,0,1-.27-4.89" transform="translate(-87.52 -84.18)"/><path class="cls-13" d="M227.39,157.5s10.68,3.11,13,4.7,4.34,4.32,5.58,10.45-.57,30.47-.57,30.47a5,5,0,0,0-5.11-2.87c-4,.15-9.79,2.62-9.79,2.62l-1-26.87-5.12-12.54Z" transform="translate(-87.52 -84.18)"/><path class="cls-13" d="M176,160.87q4.74-1.69,9.67-3.65c2.29-.91,4.53-1.82,6.72-2.75a55.65,55.65,0,0,0,9.36,10.25,55,55,0,0,0,11.78,7.68A26.94,26.94,0,0,0,217.23,155c2.32,1.05,7.13,0,10.38,3.14,5.09,4.85,5.84,13.13,7.1,16.72C241.62,194.37,243,222,243,222c.54,11.22,1,25,1.05,40.71-6.78.5-13.83.86-21.13,1a409.35,409.35,0,0,1-44.46-1.41c.49-12,.64-34.58-.83-46.82-2.71-22.52-1.86-34.61-1.6-54.58" transform="translate(-87.52 -84.18)"/><path class="cls-9" d="M235.43,112a25.67,25.67,0,1,1-25.67-25.67A25.66,25.66,0,0,1,235.43,112" transform="translate(-87.52 -84.18)"/><path class="cls-14" d="M251,189c-6.06,24-12.43,51.39-.15,66.5,16.87,20.74,53.44,16.38,56.55,15.75,31-6.27,43.9-31.71,45.07-34.44" transform="translate(-87.52 -84.18)"/><path class="cls-9" d="M234.56,118.58c-1,3.89-1.64,7-2.36,10.88-.66,3.5-.51,4.34-1.3,6.38-1.67,4.34-5.69,7-7.38,8.38-3.42,2.81-6.83,4.84-9.27,4.78-4.12-.1-9.11-3.49-14.55-7.27-4.66-3.24-10.24-7-14.26-14.26a34.68,34.68,0,0,1-4.29-14.56c-.61-11.9,6.17-23.18,21.07-25.77,15,10,17.32,21.44,32.34,31.44" transform="translate(-87.52 -84.18)"/><path class="cls-9" d="M201.79,213.81c4.59-5.43,18-11.28,21.7-13.93,4.19-3,16.74-14.08,16.74-14.08l6.7,7.41s-10.55,11.45-15,16.47-14.74,12.24-19.62,14.52c-4.59,2.14-7,4-12.27,3.35-2.88-.37-7.35-5-7.44-6.77s9.22-7,9.22-7" transform="translate(-87.52 -84.18)"/><path class="cls-9" d="M239.58,186.62s1.1-6.66,2-8.1a38.7,38.7,0,0,1,4.71-4.84c.29-.22,2.56,3,2.56,3l-3.17,15.78Z" transform="translate(-87.52 -84.18)"/><polygon class="cls-6" points="160.7 77.67 175.77 77.67 170.06 102.57 155.56 102.57 160.7 77.67"/><polygon class="cls-15" points="161.88 78.43 176.95 78.43 171.24 103.32 156.74 103.32 161.88 78.43"/><path class="cls-9" d="M243.92,181.46a17.35,17.35,0,0,0,8.39-3.13c2.68-2,5.54-3.71,8.23-5.67.44-.32,1-.74,1.44-.55,1.35.59.39,6.35-1.25,10.64-.94,2.46-2.92,7.67-7,9.76a19.92,19.92,0,0,1-5.26,2,11.89,11.89,0,0,0-2.49.61,11.32,11.32,0,0,0-2.41,1.21c.06-2.25-1.35-4.66-1.29-6.91.07-2.69,1.61-5.23,1.68-7.92" transform="translate(-87.52 -84.18)"/><path class="cls-16" d="M196.51,189.78c-1.63-4-2-6.43-3.34-10.68-.35-1.16-.88-2.84-1.62-4.86,1,2.5,2.19,4.39,3.21,6.9.41,1,1.15,2.65,1.56,3.66q-.45-2.93-.94-5.89c-.12-.78-.25-1.55-.38-2.31.53,1.67,1,3.49,1.46,5.46.75,3.46,1.3,5.76.79,9.44-.18-.39-.44-1-.74-1.72" transform="translate(-87.52 -84.18)"/><path class="cls-13" d="M178.47,254.56s-.15,12.53-.91,18.08-2.21,13.68-2.21,13.68,22.17-.91,29.56-.84c10.2.08,43.29,1.86,43.29,1.86l-4.75-34.18Z" transform="translate(-87.52 -84.18)"/><path class="cls-8" d="M362.5,278.07c-4.56-7.22-21-24-22-25l-14.79.13c2.29,4.25,4.29,7.9,6,11,4.56,5,9.34,10.53,11.48,13.93,1.33,2.1,2.14,4.17,1.54,6.14a6.12,6.12,0,0,1-2.75,3.27h19.25a6.07,6.07,0,0,0,2.75-3.27c.61-2-.2-4-1.53-6.14" transform="translate(-87.52 -84.18)"/><path class="cls-17" d="M388.25,262.21H299a4.58,4.58,0,0,1-4.57-4.57V204.8a4.58,4.58,0,0,1,4.57-4.57h89.26a4.58,4.58,0,0,1,4.57,4.57v52.84a4.58,4.58,0,0,1-4.57,4.57" transform="translate(-87.52 -84.18)"/><path class="cls-16" d="M178.54,202.06c3.3,4.65,10.11,6.64,14.78,3.85a10.82,10.82,0,0,0,4.42-13l-5.33-10.52-17,6.67c1.22,4.57,1.92,8.46,3.14,13" transform="translate(-87.52 -84.18)"/><path class="cls-9" d="M169.8,175.35c-1.42-3.78.14-10,4.09-12.78s9.94-.18,11.45,2.46,6.83,12.49,8.93,20c2,7.37,15.28,34.83,15.28,34.83l-15.4,3.88s-6.31-10.87-13-20.31-9.69-23.54-11.38-28.1" transform="translate(-87.52 -84.18)"/><path class="cls-13" d="M178.54,202.06c-.67-6.26,3.12-11.8,8.33-13.13a11.54,11.54,0,0,1,11,3.52c-2.77-6.77-4.84-12.21-6.15-15.69-3.9-10.43-4.94-14.17-8.84-16.08a10.71,10.71,0,0,0-9.6.13c-4.25,2.34-5.13,7.25-5.38,8.71-.81,4.52,1.65,12.47,3.5,16.93,1.79,4.29,4.57,13.82,7.13,15.61" transform="translate(-87.52 -84.18)"/><path class="cls-18" d="M216.46,311.09a29.43,29.43,0,0,0,1.86-6.86c1.05,8.37,1.72,15.41,2.14,20.63a360.09,360.09,0,0,1,1.44,38.62c-.13,7-.48,12.83-.76,16.82l-3.94.38A112.24,112.24,0,0,0,218.54,360c-.24-8.29-1.32-12.95-3.07-28.34-.77-6.66-1.29-12.11-1.61-15.66a28.92,28.92,0,0,0,2.6-4.93" transform="translate(-87.52 -84.18)"/><path class="cls-19" d="M174.91,445.27a38.88,38.88,0,0,1-2.36,12.06c-1.56,3.83.92,5.62.92,5.62h40.81a2.82,2.82,0,0,0,0-4c-1.82-2.31-9.8-4-13.22-4.85-2.78-.67-8.24-2.13-10-5.59s-1.34-5.48-1.34-5.48a71.47,71.47,0,0,1-7.84,2.3,32.8,32.8,0,0,1-7-.09" transform="translate(-87.52 -84.18)"/><path class="cls-19" d="M234.46,445.27a39.22,39.22,0,0,1-2.36,12.06c-1.56,3.83.91,5.62.91,5.62h40.82a2.82,2.82,0,0,0,0-4c-1.82-2.31-9.8-4-13.22-4.85-2.78-.67-8.25-2.13-10-5.59s-1.34-5.48-1.34-5.48a71,71,0,0,1-7.83,2.3,32.77,32.77,0,0,1-7-.09" transform="translate(-87.52 -84.18)"/><path class="cls-20" d="M233.6,119.74C234.86,124,236.15,130,236,132.1c1.84-5.76,3.21-15.25,3-18.33-.15-2.61-1.05-17.88-12.51-24.91a25.38,25.38,0,0,0-9.17-3.23,35.32,35.32,0,0,0-19.29,1.87c-4.91,1.83-9.15,4.71-13.26,11a24.8,24.8,0,0,0-3.44,16.78c.22-.86,2.7-9.66,11.78-13.13s16.17,1.41,17,1.47c6.65.52,9,1.6,11.16,2.82A31.53,31.53,0,0,1,229,112a23.63,23.63,0,0,1,4.65,7.78" transform="translate(-87.52 -84.18)"/><path class="cls-20" d="M210.2,103.67c-2.17.7-7.15,4.72-11.41,10a25.13,25.13,0,0,0-5.37,16c-.21-.45-2.81-6-3-6.48,0,0-.48-1-.48-1a24,24,0,0,0-.49,5.37,25.88,25.88,0,0,0,4,13.09,33.12,33.12,0,0,1-9.67-12.79c-4.75-11.31-3.15-18.47-2.17-21.23,8.2-9.21,15.82-10.75,19.85-10.42,5,.42,8.33.93,8.77,7.46" transform="translate(-87.52 -84.18)"/><path class="cls-20" d="M187.58,98.08c-.49-.75.22-1,.78-3.92.67-3.45,2.78-6.06,4-6.81a29.92,29.92,0,0,1,8-3C213,83.17,219,87.85,219,87.85c3.8,1.88,13.21,6.51,16.53,16.44.74,2.23.74,6.28.84,7.67-.36-1.33-1.17-6.58-4.19-9-5.49-4.36-12.38-2.24-13-2a38.38,38.38,0,0,0-31.58-2.85" transform="translate(-87.52 -84.18)"/><rect class="cls-21" x="210.9" y="120.31" width="90.4" height="50.24"/><path class="cls-22" d="M388.35,267H298.89a4.47,4.47,0,0,1-4.47-4.47v-4.19h98.4v4.19a4.47,4.47,0,0,1-4.47,4.47" transform="translate(-87.52 -84.18)"/><path class="cls-9" d="M272.35,264.44a21.84,21.84,0,0,1,3.55,2.41c2,1.66,2.65,2.83,4.74,3.81a4.18,4.18,0,0,0,2.89.51,3.74,3.74,0,0,0,2-1.34A33.92,33.92,0,0,0,273.08,260c-.24,1.48-.49,3-.73,4.42" transform="translate(-87.52 -84.18)"/><path class="cls-9" d="M285.17,273.77a9.94,9.94,0,0,1,3.36-1.45,9.3,9.3,0,0,1,6.43,1.62c.19.13.63.16.72.43.18.62-1.45,1.62-2,2-2,1.23-4.52,3-8.64,1.8a9.77,9.77,0,0,1-3.17-1.59l3.32-2.78" transform="translate(-87.52 -84.18)"/><path class="cls-23" d="M359,212.28H306.32a1.58,1.58,0,0,1,0-3.15H359a1.58,1.58,0,0,1,0,3.15" transform="translate(-87.52 -84.18)"/><path class="cls-23" d="M345.53,217.89H306.32a1.58,1.58,0,0,1,0-3.15h39.21a1.58,1.58,0,0,1,0,3.15" transform="translate(-87.52 -84.18)"/><path class="cls-23" d="M350.57,223.51H306.32a1.58,1.58,0,0,1,0-3.15h44.25a1.58,1.58,0,0,1,0,3.15" transform="translate(-87.52 -84.18)"/><path class="cls-23" d="M333.39,229.12H306.32a1.58,1.58,0,0,1,0-3.15h27.07a1.58,1.58,0,1,1,0,3.15" transform="translate(-87.52 -84.18)"/><path class="cls-23" d="M340.29,234.63h-34a1.57,1.57,0,0,1,0-3.14h34a1.57,1.57,0,0,1,0,3.14" transform="translate(-87.52 -84.18)"/></g></g></g></g></svg>