<svg xmlns="http://www.w3.org/2000/svg" xmlns:xlink="http://www.w3.org/1999/xlink" viewBox="0 0 350.3 337.19"><defs><style>.cls-1{fill:none;}.cls-2{clip-path:url(#clip-path);}.cls-3{fill:#ff6fbd;}.cls-4{fill:#e6e6e6;}.cls-5{fill:#2c3633;}.cls-6{fill:#35414d;}.cls-7{fill:#f8d9cf;}.cls-8{fill:#c58c4f;}.cls-9{fill:#dfb17b;}.cls-10{fill:#cdd9e9;}.cls-11{fill:#656e95;}.cls-12{fill:#ffe8df;}.cls-13{fill:#d4a583;}.cls-14{fill:#c79887;}.cls-15{fill:#d9e7f7;}.cls-16{fill:#5c7279;}.cls-17{fill:#f2f2f2;}.cls-18{fill:#959aae;}.cls-19{clip-path:url(#clip-path-3);}.cls-20{fill:url(#linear-gradient);}.cls-21{fill:#e5e8f9;}.cls-22{clip-path:url(#clip-path-5);}.cls-23{fill:url(#linear-gradient-2);}.cls-24{clip-path:url(#clip-path-7);}.cls-25{fill:url(#linear-gradient-3);}.cls-26{fill:#db9722;}.cls-27{fill:#34394a;}.cls-28{fill:#181f27;}.cls-29{fill:#1f95ff;}.cls-30{fill:#ffb53d;}.cls-31{fill:#54b3ff;}.cls-32{fill:#368bd8;}.cls-33{fill:#7f7e8b;}.cls-34{fill:#222d3d;}</style><clipPath id="clip-path" transform="translate(-98.62 -134.61)"><rect class="cls-1" width="512" height="512"/></clipPath><clipPath id="clip-path-3" transform="translate(-98.62 -134.61)"><path class="cls-1" d="M225.7,261.81a20.71,20.71,0,0,0,1.76,8.89,21.22,21.22,0,0,0,2.31,4,9.17,9.17,0,0,1,1.48-6.36,10.71,10.71,0,0,1,4-3.49q-1.65-7.95-3.32-15.9l-6.24,12.88"/></clipPath><linearGradient id="linear-gradient" y1="512" x2="1" y2="512" gradientTransform="matrix(9.58, 0, 0, -9.58, 127.07, 5030.04)" gradientUnits="userSpaceOnUse"><stop offset="0" stop-color="#656e95"/><stop offset="1" stop-color="#3b4877"/></linearGradient><clipPath id="clip-path-5" transform="translate(-98.62 -134.61)"><path class="cls-1" d="M153.63,341.17c4.52,8.26,16.2,9.34,27.75,10.4a83.91,83.91,0,0,0,25.1-1.49A149.45,149.45,0,0,0,203,381.46c0,14.65,2.57,21.33,1.49,35.34a149.41,149.41,0,0,1-4.63,27.08l4.38-1.71c5.14-18.14,5.26-32.16,4.38-41.72-.61-6.57-1.86-12.7-1.65-23.56a108.36,108.36,0,0,1,3-24.11,102.61,102.61,0,0,1,3.85-12.33l-4.62,5.84q1.86-4.74,3.74-9.47l-3.41,4.51c-1.74.28-4.74.71-8.48,1-8.06.61-19.11,1.34-30.5-3.3a27,27,0,0,1-8.14-4.62,26.3,26.3,0,0,1-7.82-12.22c-2.06,4.7-4.43,12.58-.94,19"/></clipPath><linearGradient id="linear-gradient-2" y1="512.15" x2="1" y2="512.15" gradientTransform="matrix(0, -125.06, -125.06, 0, 64229.62, 444.3)" gradientUnits="userSpaceOnUse"><stop offset="0" stop-color="#d4a583"/><stop offset="0.51" stop-color="#a0746d"/><stop offset="1" stop-color="#d4a583"/></linearGradient><clipPath id="clip-path-7" transform="translate(-98.62 -134.61)"><path class="cls-1" d="M165.77,242.08c1.14,5,1.81,6,2.81,11.07,1.21,6.08.86,7.65,1.74,12.3a55.67,55.67,0,0,0,4.7,14,27.4,27.4,0,0,1-1.73-8.09c-.21-3.65.48-4.72.58-8.26.13-5.12-1.15-9-2.32-12.63-1.58-4.86-2.64-5.58-4.62-10.66a61.63,61.63,0,0,1-3.3-11.72,96.85,96.85,0,0,0,2.14,14"/></clipPath><linearGradient id="linear-gradient-3" y1="511.98" y2="511.98" gradientTransform="matrix(0, 52.8, 52.8, 0, -26862.12, 212.8)" xlink:href="#linear-gradient"/></defs><title>login5</title><g id="Layer_2" data-name="Layer 2"><g id="Layer_1-2" data-name="Layer 1"><g class="cls-2"><g class="cls-2"><path class="cls-3" d="M103.15,380.31c3.55,12.55,10.34,36.55,32.7,50.53,18.05,11.29,37.13,10.36,42.61,9.91,49.41-4.07,59.23-57.47,96.11-58.46,33.75-.9,39.84,43.46,76.29,46.57,43.1,3.69,100.84-52.68,93.14-104-5.18-34.53-38.28-55.77-42.61-58.46-28.59-17.8-45.66-6.34-77.28-24.77-29.91-17.44-25.41-34-46.57-44.59-45-22.56-130.51,19.25-163.49,85.21-4,8.12-24.33,50.62-10.9,98.09" transform="translate(-98.62 -134.61)"/><rect class="cls-4" x="89.56" y="223.77" width="9.16" height="66.88"/><rect class="cls-4" x="113.88" y="290.65" width="9.16" height="21.27"/><rect class="cls-4" x="155.78" y="427.87" width="41.74" height="9.16" transform="matrix(0.79, -0.61, 0.61, 0.79, -324.8, 61.31)"/><path class="cls-5" d="M219.36,364.26H164.64a7.18,7.18,0,0,1-7.18-7.17V344.52a7.18,7.18,0,0,1,7.18-7.18h54.72a7.17,7.17,0,0,1,7.17,7.18v12.57a7.17,7.17,0,0,1-7.17,7.17" transform="translate(-98.62 -134.61)"/><rect class="cls-4" x="204.28" y="411.58" width="9.16" height="41.74" transform="translate(-360.23 201.47) rotate(-52.64)"/><path class="cls-4" d="M167.89,451.42a11.67,11.67,0,1,0-11.67,11.67,11.67,11.67,0,0,0,11.67-11.67" transform="translate(-98.62 -134.61)"/><path class="cls-6" d="M304.41,465.2c0,3.64-33.75,6.6-75.38,6.6s-75.38-3-75.38-6.6,33.74-6.6,75.38-6.6,75.38,3,75.38,6.6" transform="translate(-98.62 -134.61)"/><path class="cls-7" d="M278.23,337.45a213,213,0,0,1-10.67,39.67c-2.31,6.15-4.16,10.19-5.42,13.07-5.11,11.68-12,31.8-17.48,58.82-6.45-.73-14.78,5.11-21.23,4.38,2-8.27,6.85-29.3,8.08-44.5,1.06-13.24.34-18.9,1.06-28,.91-11.45,4-27.58,14-47l31.66,3.58" transform="translate(-98.62 -134.61)"/><path class="cls-8" d="M232.6,185.32a12.15,12.15,0,0,1-2.45,6.86c-2.45,3.08-5.44,3.16-6.07,5.78-.54,2.27,1.48,3.16,1,5.63-.55,2.94-3.67,3-4.76,5.63-1.81,4.28,2.85,13.13,8.3,12.79,4.17-.26,6.69-5.74,6.86-6.14q-1.44-15.27-2.89-30.55" transform="translate(-98.62 -134.61)"/><path class="cls-9" d="M189.4,151.08a163.07,163.07,0,0,0-6.47,16.15c-5.32,16.61.15,14.05-1.19,24.59-1.19,9.31,1.06,3.85-.55,12.55-1.2,6.45,6.3,22.88,8.89,35.14,11.6,3.12,11.21-3.17,16.25-13.35a24.66,24.66,0,0,0-4.55-27.73c-4.77-15.35-7.61-32-12.38-47.35" transform="translate(-98.62 -134.61)"/><path class="cls-9" d="M243.94,180.12c.16,5.17-1.84,6-2.38,12.56-.64,7.91,2,9.29,0,13.87-1.34,3-3.39,4.4-3.25,7.59.11,2.38,1.32,3,1.3,5s-1.09,4.41-6.28,7.58a5.63,5.63,0,0,0,1.95-4c-.13-3.21-4.47-3.95-5.06-7.22s3.5-4.85,3.9-8.67c.24-2.28-.79-5.74-7.22-10.54l13.72-26.94a22.39,22.39,0,0,1,3.32,10.76" transform="translate(-98.62 -134.61)"/><path class="cls-8" d="M192,185.32a71.1,71.1,0,0,0-.22,27.08c11.85-3.72,16.67-14.33,14-20.37-1.87-4.18-7.57-6.66-13.76-6.71" transform="translate(-98.62 -134.61)"/><path class="cls-10" d="M246,443.33c-2.29.73-4.15,5.84-7.6,6.16a40.6,40.6,0,0,1-10-.29,22.14,22.14,0,0,0-1.08,8c.1,4.06,0,5.37.88,9.27l45.91.23c.09-1,.18-2,.26-3a9.46,9.46,0,0,0-1.83-4.33,10.41,10.41,0,0,0-5-3.28c-7.46-2.7-10.92-.71-15.47-3.27-1.4-.8-7.09-4.75-6.07-9.51" transform="translate(-98.62 -134.61)"/><path class="cls-7" d="M193.05,313.07c4-1,14.85,0,22.19,1,13.11,1.84,22.66,3.36,37.88,6.57a57.87,57.87,0,0,1,17.12,6c4.43,2.41,4.14,4.88,4.36,6.88a13.32,13.32,0,0,1-2.15,9.24c-2.42,5.56-7.22,10.54-12.92,11.48a13.48,13.48,0,0,1-5.06-.21c-8.57-1.58-15-3.75-22.29-3.65-6.67.09-17.32-.93-39.54-4.74,1.25-10.62-.84-22,.41-32.59" transform="translate(-98.62 -134.61)"/><path class="cls-11" d="M231.86,225.42c1.9,2.66.66,10.61-.54,21.69-.6,5.62-1.31,13.15-3.85,21.22,0,0-6.6,15.19-16.48,22.16a25.37,25.37,0,0,1-3.79,2.17,25.83,25.83,0,0,1-4.76,1.52c-29,6-36.59-2.6-36.59-2.6-.61-.61.08-1.82-.78-3.06-12.62-18.18,1.86-62.19,11.21-69.44.19-.53,4.53-2.62,6.13-3.52,2.41-1.34,5.56,3.06,6.41,3.39,10.6,4.25,36-3.46,43,6.47" transform="translate(-98.62 -134.61)"/><path class="cls-12" d="M215.08,204.85c-.42,2.47-.85,5.25.32,6.26,4.65,4,10.93,6.52,19.23,7.91-.56,6.14-17,23.32-17.56,29.46C200,248,194.8,230.66,177.74,230.17c-.32-5.67-3.79-7.77-4.11-13.44.8.4,8.69-1.79,14.35-3.95a14.84,14.84,0,0,0,8.51-7.64l18.59-.29" transform="translate(-98.62 -134.61)"/><path class="cls-7" d="M221.48,192.37a28,28,0,0,0-5.82,10.27c-2.67,8.65-.26,8.47,2.29,10.41-5.75-1.26-7.18-1.48-14.28-3.43a15.07,15.07,0,0,1-7.18-4.48c2-6,1.75-6.2,4.69-16.79,3.27-11.78-.86-11.37-1.5-17.68l21.8,21.7" transform="translate(-98.62 -134.61)"/><path class="cls-12" d="M231.64,219c3.47-.74,7.51,1.74,9.71,6s3.06,9.92,3.38,16.06-.41,14.47.45,20.15,3.81,16,4.14,17.94-4.88,11.29-4.88,11.29l-12.36-5.75s-4-19.46-4.8-26-.73-11.16-2.95-16-5.88-20.92,7.31-23.72" transform="translate(-98.62 -134.61)"/><path class="cls-13" d="M158.88,309.35c-.76.78-6.6,6.52-7.2,18.62-.51,10.21,2.45,13.64,7.54,16.62,19.86-8.2,38-15.43,57.85-23.63-.14-3-.65-10.87-.79-13.87-1.61-.7-10.21-.22-13.33-.43-11.56-.81-8,.19-19.5-.79-10.75-.91-11.29-1.22-19.54.71-3.11.74-3.09.76-5,2.77" transform="translate(-98.62 -134.61)"/><path class="cls-11" d="M162.36,260.43c-2.78,10.26-3.25,21.05-4.88,26.62-5,17-4.8,18.88-6.1,26.76-1.46,8.8-4.51,19.17.68,23.4-1.21-9.32.36-19.42,5.82-24.85,4.73-4.7,9.61-5.86,10.69-5.92,3.62-.18,7.52-.11,11.93.07,7.72.33,9.13.68,16.38.87a111.8,111.8,0,0,1,19.82,1.76c1.28-1.76,6.6-3.27,5.4-8.69s0-9.21,0-12.89c0-5.08-.31-8.71,8.19-25.21l-67.93-1.92" transform="translate(-98.62 -134.61)"/><path class="cls-12" d="M186.55,165.75a27.89,27.89,0,1,1,27.89,27.89,27.89,27.89,0,0,1-27.89-27.89" transform="translate(-98.62 -134.61)"/><path class="cls-12" d="M240.5,173.58c-2.53,7.15-4.41,9.78-5.63,14.8S227,199,221.66,201.46a71.67,71.67,0,0,1-9.91,3.67s-11.13-5.5-14.31-9.54-8-11-9.91-15.1A40.47,40.47,0,0,1,184,163.18c.24-6.48,2.2-15.66,11.56-20.92,8.51-4.78,13.57-5.13,20.55-3.92,9,1.58,15.47,12.12,15.47,12.12Z" transform="translate(-98.62 -134.61)"/><path class="cls-12" d="M181.43,311.25c8.65,0,7.68,1.15,28.38,3.9,3,.41,16.18,2.13,28.6,7.59a11.34,11.34,0,0,1,4.12,2.81c5.37,5.91,3.08,17.21-1.08,23.62a8.41,8.41,0,0,1-1.74,2.17c-2.89,2.43-6.37-2-15.31-2.5-2-.11-3.9-.1-5.85-.22-17-1-28.86,3.4-44.64-.22-7.31-1.67-13.5-3.09-17.33-8.66-5.57-8.11-4-17.95,3.4-24.37,4.73-4.1,10.3-4.1,21.45-4.12" transform="translate(-98.62 -134.61)"/><path class="cls-12" d="M179.82,217.67a17.06,17.06,0,0,1,9.59,13.88c.75,6.84-.11,18.14.79,24.3s4.8,23.21,4.8,23.21l-7.29,8.21s-6,.84-7.11-.33c-5.67-6.11-7.53-15.37-9.45-26.58s-2.67-15.83-4.51-21.09c-.79-2.24-5.1-11.4-1.63-16.6s9.05-7.54,14.81-5" transform="translate(-98.62 -134.61)"/><path class="cls-12" d="M239.44,274.88s4.48-1.74,9.82,4.18,5.49,9.77,9.39,17.53,13,19,13,19l-14.88,1.95a62.55,62.55,0,0,0-10-11.48c-6.36-5.78-16.11-19.58-14.95-24.06s7.58-7.14,7.58-7.14" transform="translate(-98.62 -134.61)"/><path class="cls-12" d="M243.56,333.66a215.59,215.59,0,0,1-5,40.76c-1.42,6.4-2.68,10.66-3.51,13.68-3.4,12.27-7.3,32.07-8.94,59.58-6.39.16-12.22,4.17-18.62,4.33.85-8.46,1.07-25.95.2-41.17-.77-13.26-2.24-18.77-2.78-27.91-.68-11.46.16-27.86,7.26-48.47l31.4-.8" transform="translate(-98.62 -134.61)"/><path class="cls-14" d="M254.56,444.61a120.81,120.81,0,0,1,3.18-33.08c.7-2.93,1.26-4.78,11.85-33.37,0,0,1.89-5.12,10-38.71.67-2.79,1.88-8.16-.86-12.71-2.18-3.6-5.88-5.13-9-6.21-13.87-4.88-18.36-4.58-25.28-6.07-7.68-1.66-16.91-4.51-33.51-4.51,6.83,7.74,8.16,26.22,14,40,16.9,39.91,6.44,77.61,2.17,90.57l27.44,4.05" transform="translate(-98.62 -134.61)"/><path class="cls-15" d="M224.85,444.4c-2.28.73-5.37,2.84-8.82,3.16-4,.38-5.36.54-8,.14a33.67,33.67,0,0,1-1.7,9.48c-.59,1.63-3.53,6.23.2,9.13l45.91.23c.09-1,.17-2,.26-3a9.39,9.39,0,0,0-1.83-4.32,10.38,10.38,0,0,0-5-3.28c-7.46-2.7-10.92-.71-15.47-3.28-1.4-.79-6.45-3.54-5.61-8.24" transform="translate(-98.62 -134.61)"/><path class="cls-13" d="M161,345.55c5.06,3,12.7,3.82,21.13,4.77a99.21,99.21,0,0,0,25.57-.44c-2,7.73-4.2,17.37-4.17,21.64.08,10.75,2.67,17.64,1.44,32.79-.06.75-.14,1.52-.29,3-.88,8.85-2.29,20.77-4.62,35.54a57,57,0,0,1,13.72-1.16,57.56,57.56,0,0,1,13.15,2c1.68-13.58,3.76-24.54,5.34-32.07,3.92-18.53,5.65-19.82,7.8-34.23,1.52-10.12,1.51-15.21,3.9-28.75.6-3.38,4-8.93,3.33-16.32-.5-5.53-2.54-8.19-3.33-9.1-1.84-2.16-4.19-3.37-8.37-4.62-13.28-4-28.48-3.43-32.51-5.49a8.28,8.28,0,0,0-2.45-.87,10.37,10.37,0,0,0-4,.14c-2.65.45-4.41-.61-7.22-1.44-3.11-.92-5.73-.94-11-1-7.22-.09-11.68-.15-16,2.17-6.51,3.46-10.82,11.19-11,19.06-.21,10.21,8.33,13.57,9.62,14.34" transform="translate(-98.62 -134.61)"/><polygon class="cls-16" points="125.12 191.92 90.02 184.81 90.41 183.48 190.17 190.58 189.19 191.92 125.12 191.92"/><polygon class="cls-17" points="125.51 190.58 90.41 183.47 155.65 183.47 159.36 188.88 125.51 190.58"/><path class="cls-18" d="M215.26,321.56a27.13,27.13,0,0,0,9.66,2.72c.55.05,1.09.07,1.61.08q6.94-4.22,6.44-5.49-.74-1.87-17.71,2.69" transform="translate(-98.62 -134.61)"/><path class="cls-11" d="M237.76,219.69c4.46,2.86,3.74,4.33,4.57,6,2.59,5.3,2.46,17.86,2.89,27.45.15,3.35,4.75,15,2.39,19-.86-4.78.08-8.88-5.89-8.93-8.33-.07-12.3,4.6-11.63,11.35-4.28-1.62-4.6-18.36-6-23.87-2.24-9-4.57-11.67-1.44-13.07,4.64-2.07,6.62-11.3,6.4-18.56-.07-2.17-1.11-1.91-2.1-1.89,2.49-2.37,8.23.81,10.79,2.46" transform="translate(-98.62 -134.61)"/></g><g class="cls-19"><rect class="cls-20" x="127.03" y="114.33" width="9.62" height="25.74"/></g><g class="cls-2"><path class="cls-11" d="M233.54,218.69,229,216.74a18.5,18.5,0,0,1-1.84,9.86c-4.65,9.13-10,11.84-18.47,10.86-10.86-1.27-23.59-23.63-29.82-23.78-1.3.25-3.5,3.35-4.8,3.6-.42,3.95-1.41,17.84,7.8,30.12,7.64,10.17,22.78,19.9,32.83,15.38,6.86-3.09,9.95-13.43,16.14-34.13,1.21-4,2.1-7.46,2.71-10" transform="translate(-98.62 -134.61)"/><path class="cls-11" d="M182.62,227.93c-3.54-3.29-3.76-14.25-3.76-14.25s-9.93,3.49-12.49,6c-3,2.94-3.67,5.75-2.69,12.78.45,3.22,2.25,5.91,3.77,14.68,1.27,7.34,1.84,11,2.66,14.42a164.54,164.54,0,0,0,4.71,15.92c-2.16-5.18,0-10.3,4.22-12.4,5.22-2.61,12.4.28,14.85,7a21.48,21.48,0,0,0-.08-3.83c-.2-1.63-.68-3.61-1.12-6.47-1.22-8-3.15-13-2.7-19.5.35-5.1.61-8.27.61-8.27s-5.85-4.12-8-6.1" transform="translate(-98.62 -134.61)"/><path class="cls-12" d="M194.48,278.39a40,40,0,0,1,8.26,7c3.33,3.86,8.2,9.95,10.8,13.17a97.11,97.11,0,0,0,15.39,15l-16.09,6.23s-8.19-8.46-14.87-15.23-11.43-10.27-13.08-12.18c-3.6-4.2-4.39-5.3-4.39-5.3Z" transform="translate(-98.62 -134.61)"/><path class="cls-12" d="M223.28,310.59a20.09,20.09,0,0,1,11.49-1.4,19.69,19.69,0,0,1,7.8,3.25q-3.31,5.25-6.61,10.5c-8-3.54-12.47-3.16-15.06-2.05-.92.39-3.2,1.55-5.53.75a6.14,6.14,0,0,1-3-2.49Z" transform="translate(-98.62 -134.61)"/><path class="cls-9" d="M225.38,154.55a38.35,38.35,0,0,1,9,11.12A38.74,38.74,0,0,1,238.82,184a33.7,33.7,0,0,0,4.62-11.41c.47-2.39,3.22-17.56-7.08-28-8.39-8.52-20.42-10.1-25.57-10s-14.88,2.29-21.81,9.68c-8,8.54-6.84,21.57-6.07,30.19.44,4.88,7,16.45,7.81,19.16,2.09-4.52,1.11-20.61,10.39-28a56.27,56.27,0,0,1,24.27-11.12" transform="translate(-98.62 -134.61)"/><path class="cls-9" d="M240.8,205.54a11,11,0,0,0-1.81,6.57c.37,4.58,4.09,6.19,4.48,9.75.26,2.36-.93,5.77-7.22,10.41.56-.58,4.76-4.9,3.54-7.08-.13-.22-.44-.66-2.64-1.41-4-1.37-6.05-.94-6.36-1.77-.49-1.37,4.81-3.16,5-6.28.14-2,1.8-3.51-.49-5,3.06-1.61,2.42-3.6,5.48-5.2" transform="translate(-98.62 -134.61)"/><polygon class="cls-21" points="207.13 150.51 141.65 150.51 125.52 190.58 190.17 190.58 207.13 150.51"/></g><g class="cls-22"><rect class="cls-23" x="126.44" y="314.37" width="111.05" height="137.32" transform="translate(-249.67 -14.1) rotate(-26.34)"/></g><g class="cls-2"><path class="cls-11" d="M232.12,243.69a33,33,0,0,1,1.67,10.42,27.17,27.17,0,0,1-2.89,13.24,25.39,25.39,0,0,1-6.78,8.13c-6-2.5-10.59-7.4-11.23-13-.95-8.35,7-18,19.23-18.84" transform="translate(-98.62 -134.61)"/></g><g class="cls-24"><rect class="cls-25" x="159.16" y="227.53" width="20.32" height="52.57" transform="translate(-140.95 -100.55) rotate(-10.22)"/></g><g class="cls-2"><rect class="cls-26" x="324.08" y="275.37" width="3.59" height="20.5"/><rect class="cls-27" x="295.32" y="284.39" width="5.42" height="44.23"/><path class="cls-27" d="M379.39,441.11c0,12.22,8.94,22.12,20,22.12s20-9.9,20-22.12-8.94-22.11-20-22.11-20,9.9-20,22.11" transform="translate(-98.62 -134.61)"/><path class="cls-28" d="M374,441.11c0,12.22,8.94,22.12,20,22.12s20-9.9,20-22.12S405,419,393.93,419s-20,9.9-20,22.11" transform="translate(-98.62 -134.61)"/><path class="cls-27" d="M412.33,456.25a7,7,0,1,0,7-7,7,7,0,0,0-7,7" transform="translate(-98.62 -134.61)"/><path class="cls-17" d="M377.25,441.11c0,10.21,7.47,18.48,16.68,18.48s16.68-8.27,16.68-18.48-7.46-18.48-16.68-18.48-16.68,8.28-16.68,18.48" transform="translate(-98.62 -134.61)"/><rect class="cls-29" x="268.17" y="295.87" width="68.13" height="6"/><rect class="cls-30" x="296.33" y="275.37" width="3.67" height="20.5"/><rect class="cls-30" x="262.23" y="275.37" width="3.67" height="20.5"/><rect class="cls-26" x="288.07" y="275.37" width="3.67" height="20.5"/><path class="cls-29" d="M377.52,451.75H440.6a8.32,8.32,0,0,0,0-16.64H377.52Z" transform="translate(-98.62 -134.61)"/><rect class="cls-27" x="250.95" y="284.39" width="5.42" height="44.23"/><rect class="cls-31" x="236.96" y="295.87" width="68.13" height="6"/><path class="cls-31" d="M340.31,451.75h63.08a8.32,8.32,0,0,0,0-16.64H340.31Z" transform="translate(-98.62 -134.61)"/><path class="cls-27" d="M335,441.11c0,12.22,8.94,22.12,20,22.12s20-9.9,20-22.12S366,419,355,419s-20,9.9-20,22.11" transform="translate(-98.62 -134.61)"/><path class="cls-28" d="M329.6,441.11c0,12.22,8.94,22.12,20,22.12s20-9.9,20-22.12-8.94-22.11-20-22.11-20,9.9-20,22.11" transform="translate(-98.62 -134.61)"/><path class="cls-17" d="M332.88,441.11c0,10.21,7.47,18.48,16.68,18.48s16.69-8.27,16.69-18.48-7.47-18.48-16.69-18.48-16.68,8.28-16.68,18.48" transform="translate(-98.62 -134.61)"/><rect class="cls-32" x="305.09" y="295.87" width="31.21" height="4.64"/><rect class="cls-33" x="262.23" y="274.39" width="65.44" height="2.42"/><rect class="cls-34" x="305.09" y="278.81" width="23.38" height="17.06"/><rect class="cls-34" x="302.23" y="265.86" width="14.55" height="8.53"/><rect class="cls-34" x="271.63" y="265.86" width="14.55" height="8.53"/></g></g></g></g></svg>