<svg xmlns="http://www.w3.org/2000/svg" xmlns:xlink="http://www.w3.org/1999/xlink" viewBox="0 0 304.07 391.54"><defs><style>.cls-1{fill:none;}.cls-2{clip-path:url(#clip-path);}.cls-3{fill:#9cea29;}.cls-4{fill:#35414d;}.cls-5{fill:#cdd9e9;}.cls-6{fill:#4f7169;}.cls-7{fill:#b5a9b3;}.cls-8{fill:#fff7f7;}.cls-9{fill:#a27c65;}.cls-10{fill:#d5d9e1;}.cls-11{fill:#878d97;}.cls-12{fill:#4b575d;}.cls-13{fill:#896d55;}.cls-14{clip-path:url(#clip-path-3);}.cls-15{fill:url(#linear-gradient);}.cls-16{fill:#918f9b;}.cls-17{fill:#876d60;}.cls-18{fill:#d9e7f7;}.cls-19{fill:#738b63;}.cls-20{fill:#4b7563;}.cls-21{fill:#fff;}.cls-22{fill:#c9d5e3;}.cls-23{fill:#596163;}.cls-24{fill:#37404a;}.cls-25{fill:#232937;}.cls-26{fill:#88868d;}.cls-27{fill:#9ca9ab;}.cls-28{fill:#1d1f24;}.cls-29{fill:#32383f;}.cls-30{fill:#404f57;}.cls-31{fill:#333f45;}.cls-32{fill:#999;}.cls-33{fill:gray;}.cls-34{fill:#1a1a1a;}.cls-35{fill:#ccc;}.cls-36{fill:#4f5256;}.cls-37{fill:#dbe6e3;}.cls-38{fill:#1b252c;}.cls-39{fill:#34373e;}</style><clipPath id="clip-path" transform="translate(-94.04 -78.69)"><rect class="cls-1" width="512" height="512"/></clipPath><clipPath id="clip-path-3" transform="translate(-94.04 -78.69)"><path class="cls-1" d="M303.71,277.26,286,278.66a117.19,117.19,0,0,0-2.72,21.3,109.46,109.46,0,0,0,1.85,24.84c2.59,13,4.82,24.22,13.27,28.75.64.34,7.74,4,14.38.78a16,16,0,0,0,6.09-5.67c8.45-12.27,6.51-32.81,5.34-38.34-.37-1.76-1.25-4.81,0-7.82a13.61,13.61,0,0,0,1.48-3.72,9.34,9.34,0,0,0-.55-4.69c-.79-2.25-1.7-7-2.22-18Z"/></clipPath><linearGradient id="linear-gradient" y1="511.97" x2="1" y2="511.97" gradientTransform="matrix(58.39, 0, 0, -58.39, 278.62, 30208.54)" gradientUnits="userSpaceOnUse"><stop offset="0" stop-color="#4f7169"/><stop offset="0.11" stop-color="#5f7c66"/><stop offset="0.25" stop-color="#6a8564"/><stop offset="0.45" stop-color="#718a63"/><stop offset="1" stop-color="#738b63"/></linearGradient></defs><title>login3</title><g id="Layer_2" data-name="Layer 2"><g id="Layer_1-2" data-name="Layer 1"><g class="cls-2"><g class="cls-2"><path class="cls-3" d="M362.2,178.6c2.41,2.48,48.94,51.75,32.34,108.53-10,34.07-41.71,67.61-67.56,64-18.21-2.56-18.75-21.49-37.38-25.15-27.29-5.37-41.46,32.27-86.24,51.75-29.83,13-78.68,20.26-98.47-2.16-23.58-26.7-4.47-93.92,34.5-118.59,30-19,58-4,73.31-24.44,18.42-24.57-13.45-57.94,2.16-79.77,19.44-27.2,101.58-21.1,147.34,25.87" transform="translate(-94.04 -78.69)"/><path class="cls-4" d="M368.67,465.2c0,2.77-25.7,5-57.4,5s-57.39-2.25-57.39-5,25.7-5,57.39-5,57.4,2.24,57.4,5" transform="translate(-94.04 -78.69)"/><path class="cls-5" d="M290.69,345c3.83-5.25,14.84-2.48,16.94,2.93s1.41,19,0,21.41S304,389.63,302.42,392s-11.13-1.84-13-7.25c-.62-1.74,1.57-13,1.83-16.49.6-8.19-2-8.92-2.43-14.22-.21-2.27.8-7.57,1.9-9.09" transform="translate(-94.04 -78.69)"/><path class="cls-6" d="M287.61,330.78a48.17,48.17,0,0,0,.59,30.9,11.67,11.67,0,0,0,2.34,4.11c1.17,1.29,2.73,2.37,6.46,3.62,5.62,1.88,11.14,3.72,15.16,1a8.36,8.36,0,0,0,2.25-2.35c4.84-7.2,8.67-24.19,9.68-28.85l-36.48-8.41" transform="translate(-94.04 -78.69)"/><path class="cls-7" d="M348.77,105.73c2.42,11.44-5.77,16.27-2.09,27.13,1.74,5.13,5.65,10.16,3.65,14.6-.44,1-2,3.81-.91,5.35.5.69,1.19.64,1.44,1.17.36.79-.43,2.5-5.61,6.52l-26.87-.78a132.43,132.43,0,0,0,11.74-23.34,134.39,134.39,0,0,0,8.87-46c6.8,6,9,11.62,9.78,15.39" transform="translate(-94.04 -78.69)"/><path class="cls-7" d="M290.48,118.9a35.27,35.27,0,0,0,2.21,16.3c2.51,6.13,5.76,8.36,8.22,15.65a38.8,38.8,0,0,1,2,10.3l16-6.26-18-60.37c-3.07,3.55-9.61,12.16-10.43,24.38" transform="translate(-94.04 -78.69)"/><path class="cls-8" d="M293.48,169.16c-5.43,6.76-5,15-4.31,27.92.84,15.82,5.09,20.42,6.46,34.72a87.3,87.3,0,0,1-2.94,31.59l61-1.29a80.89,80.89,0,0,1-8.41-32.33c-.49-11.23,3.24-14.72,4.5-30.12,1.42-17.33,2.19-26.75-3.91-33.43-11.18-12.25-41.38-10.84-52.42,2.94" transform="translate(-94.04 -78.69)"/><path class="cls-9" d="M342.64,164.85c1.79-1.56,8.7-3.19,11.74-.52,5.56,4.89,3.65,12.82,5.21,19.07s9.13,28,9.39,29.31,2.61,11.61,1.83,14.48-5.22,3.39-8.09,3.26-6.2-4.17-7.21-6.39-1.39-9.78-3-15.52-7.43-11.74-8.08-19.56-1.83-24.13-1.83-24.13" transform="translate(-94.04 -78.69)"/><path class="cls-10" d="M346.42,161.41a8.34,8.34,0,0,1,5.61-.91c1.45.34,4.71,1.66,7.82,10.56,2.92,8.35,1.17,10.38,3,18.13,1.46,6.15,2.67,5.34,9.65,22.69,2.12,5.27,3.93,10.11,1.7,14a10.07,10.07,0,0,1-3.78,3.52c-2.91,1.73-7.06,2.57-10.44,1.18-3.89-1.61-5.54-5.67-6.65-8.61-6.84-18.19-7.82-30.38-7.82-30.38a137.8,137.8,0,0,1,.91-30.13" transform="translate(-94.04 -78.69)"/><path class="cls-11" d="M350.28,204.36c1.47-3.93,5.74-4.77,6.29-4.86,3.73-.67-.24,11.08,2.05,14.76,1,2,4.6,5.28,5.57,7.24-2.59,3.13.11-4.86-2.48-1.73l-9.2-6.83a8.07,8.07,0,0,1-2.23-8.58" transform="translate(-94.04 -78.69)"/><path class="cls-9" d="M364.81,230.46c5.08-.15,8.48-4.76,8.54-8S372,214.29,371,211.31a21.71,21.71,0,0,0-4.52-7.5L356,205s-.13,5.6-.46,8.67-1.76,10.1,1.58,13.39,5.4,3.43,7.68,3.37" transform="translate(-94.04 -78.69)"/><path class="cls-12" d="M310.4,430.24c.54,6.19,4.41,11.34,9.48,12.82,6.87,2,15.48-2.89,17.61-11.84q-5.34-14.18-10.66-28.36L310.4,430.24" transform="translate(-94.04 -78.69)"/><path class="cls-9" d="M325.21,279.92c-2.6,10.61-4.31,21.06-4.14,29.44.45,22,1.72,23.52.24,37a18.68,18.68,0,0,0,1.18,9.6,13.18,13.18,0,0,0,4.93,6.33c5,3.18,11.62,1.51,15.53-1.23a15.1,15.1,0,0,0,4.33-4.78c12.8-21.9,12.16-50.33,12.16-50.33a132.79,132.79,0,0,0-3.26-26.23c-9.63.84-21.34-.68-31,.16" transform="translate(-94.04 -78.69)"/><path class="cls-13" d="M285.79,278.48s-.56,9.4,0,23.31,4.87,38.3,6.36,40.83,1.46,7,9.62,8.49,11.22-.18,15.3-3.43,6.88-36.86,5.76-42.82.25-26.38.25-26.38Z" transform="translate(-94.04 -78.69)"/></g><g class="cls-14"><rect class="cls-15" x="261.73" y="289.41" width="86.62" height="54.83" transform="translate(-143.27 498.75) rotate(-82.43)"/></g><g class="cls-2"><path class="cls-16" d="M341.4,115.85c1.46.91-.16,4.18.55,13,.64,8.11,2.23,8.19,1.31,11.82-1.1,4.35-2.65,4.81-3.5,10.74a21.91,21.91,0,0,0-.22,3.72L326.3,151.1l-3.4-19.81c13.73-15.68,17-16.41,18.5-15.44" transform="translate(-94.04 -78.69)"/><path class="cls-16" d="M296.08,123.94a57.43,57.43,0,0,0,10.85,26.72c14.43,10.72,18.91,9.47,20.48,8.3,6.06-4.52-4.31-27.79-8.22-36.15l-23.11,1.13" transform="translate(-94.04 -78.69)"/><path class="cls-17" d="M321.23,135.22l-12,.5s3.24,10.15,2.54,14.1-11,15.23-11,15.23,12.83,16.64,21.15,16.36Z" transform="translate(-94.04 -78.69)"/><path class="cls-17" d="M318.48,135.22l12,.5s-3.24,10.15-2.54,14.1,11,15.23,11,15.23-12.83,16.64-21.15,16.36Z" transform="translate(-94.04 -78.69)"/><path class="cls-9" d="M345.31,107.35a26.8,26.8,0,1,0-26.8,26.8,26.79,26.79,0,0,0,26.8-26.8" transform="translate(-94.04 -78.69)"/><path class="cls-9" d="M292.34,113.13s4.34,17.8,7.46,22.07c5.67,7.76,19.89,12.16,19.89,12.16s12.77-4.5,17.4-10.75c3.27-4.43,7.6-23.48,7.6-23.48Z" transform="translate(-94.04 -78.69)"/><path class="cls-9" d="M291,162a11.82,11.82,0,0,0-8.61,2.33c-3.14,2.58-4.33,6.47-4.43,11.68-.19,10,1,16.2,1.25,23.77.25,6.9-2.49,20.25-2.43,27.1a7.82,7.82,0,0,0,.13,1.29c.65,3.3,3.92,7.65,9,7.79,5.38.15,8.71-4.53,9.52-7.79a9.19,9.19,0,0,0-.13-4.67c-1.79-6.89-3.64-21.89-.78-32.18,2.65-9.54,8-10,7.17-16.74-.61-5.22-4.6-11.63-10.69-12.58" transform="translate(-94.04 -78.69)"/><path class="cls-9" d="M281.41,234.2c-4.26-4.77.72-12.91,4.31-15.91s15.71-8,19.88-11.15a115.8,115.8,0,0,0,10.57-9.84l4.89,9.58a49.29,49.29,0,0,0-9.46,7c-5.41,5-11.15,14.8-16.17,18.13s-11.28,5.21-14,2.15" transform="translate(-94.04 -78.69)"/><path class="cls-9" d="M321.14,349.92s-1.12,7.88-1.55,11.62,1.44,11.29.57,14.07-7.27,66.66-7.27,66.66l8.16,3.39s15.73-17.67,18-35-.4-29.15,1.86-36.1S345,359.72,345,359.72Z" transform="translate(-94.04 -78.69)"/><path class="cls-18" d="M312.46,453.14c.39-4.43-2.06-14.27,0-17.92s7.13-7.29,11.41-3.48,7.45,5.39,8.72,8.24-3.17,8.24-2.85,13.16-3.17,13.94-10.23,13.47-7.68-6.34-7.05-13.47" transform="translate(-94.04 -78.69)"/><path class="cls-19" d="M292.91,256.25q-1.77,5.07-3.43,10.56c-2,6.61-3.58,13-4.89,19,25.66.81,49.87,1.63,75.52,2.44a109.39,109.39,0,0,0-2.23-14.62c-1.9-8.06-3-11.16-5.7-15.7-10.18-.28-20.31.16-30.49-.13-9.57-.27-19.21-1.26-28.78-1.53" transform="translate(-94.04 -78.69)"/><path class="cls-20" d="M315.18,290.15a77.72,77.72,0,0,1,4.66,12.78,79.11,79.11,0,0,1,1.37,33.76l12-43.66-18.06-2.88" transform="translate(-94.04 -78.69)"/><path class="cls-19" d="M286.57,285.3a87.5,87.5,0,0,1,40.94,9.91c4.55-10.54,2-14.74,1.18-15.91-4.84-6.58-21.76-4.91-42.12,6" transform="translate(-94.04 -78.69)"/><path class="cls-19" d="M323.47,282.43c12.48,0,22.89-1.17,35.36-1.17a136.7,136.7,0,0,1,.33,35.34,269.12,269.12,0,0,1-10.72,47.33c-1.09,3-2,5.42-3.13,9.39-3.51,12.82-.06,17.33-3.13,30.32-1.19,5.06-2,5.64-3.13,11.54a84.2,84.2,0,0,0-1.56,14.87,16.14,16.14,0,0,0-9.59-7.43c-6.16-1.56-13,1.14-17.21,6.84a169.5,169.5,0,0,0,4.3-24.25,175,175,0,0,0,.79-23.48c-.25-11.53,1.05-30.75,4-55.35,1.91-15.78,2.53-25.43,3.65-43.95" transform="translate(-94.04 -78.69)"/><path class="cls-8" d="M304.82,161.19a23.15,23.15,0,0,0,13.89,5.57c10.59.44,17.36-7,18.29-8l4.4,8.22-22.2,21.71c-9.5,0-17.17-6.13-18.58-13.69-1.34-7.16,3.44-12.91,4.2-13.79" transform="translate(-94.04 -78.69)"/><path class="cls-10" d="M284,160.11c-3.85,2.19-5.42,5.81-6.26,7.82-2.59,6.2-.86,10.46-.52,20.35a107.9,107.9,0,0,1-.79,15.65c-1.37,14-3.94,19.92-.39,26.73a17.54,17.54,0,0,0,3.52,4.69,9.79,9.79,0,0,0,2.48,1.18c2.85.93,6.49,1,8.22.26,5-2.21,1-14.67,3.91-33.91,1.28-8.61,2.45-8.66,3.39-16.69a87.5,87.5,0,0,0-1-26.73c-1.2-.43-7.11-2.44-12.52.65" transform="translate(-94.04 -78.69)"/><path class="cls-10" d="M292.83,170.93c.73-2.78-2.09-9.7-1.35-12.48,3.08-1.74,14-1.13,17.09-2.87,1.27,4.1-1.44,12.06-.88,19.66a86.53,86.53,0,0,1-1.43,22.3c-4.43,27.19,4.2,36.07.13,68.39a166.36,166.36,0,0,1-3.52,19c-.49-.45-6.81-6-15.26-3.92-7.94,2-11,9-11.35,9.79q3.06-16.74,6.26-33.65,5.18-27.18,10.57-53.79-.13-16.2-.26-32.41" transform="translate(-94.04 -78.69)"/><path class="cls-10" d="M287.87,215.92c.33-4.47,1.05-5.62,1.69-5.73.91-.16,1.61,1.72,2.87,1.56,1-.13,1.13-1.45,2.61-2.35a5.57,5.57,0,0,1,2.87-.65c3.48-.2,5.54-3.07,14.35-9.26l1.69-1.17c-.27.28-2.89,3-2.22,6.39s4.56,6.14,9.13,5.61a56.88,56.88,0,0,0-9.39,7.43c-7.24,7.1-8.42,12.11-14.6,15.65a23.48,23.48,0,0,1-12.26,2.87q1.63-10.17,3.26-20.35" transform="translate(-94.04 -78.69)"/><path class="cls-10" d="M295.17,162.78a80.53,80.53,0,0,0-3.52,16,88.69,88.69,0,0,0,.72,24.32c.2,1.28.39,2.34.52,3.06q3.64-14.7,7.3-29.4-2.51-7-5-14" transform="translate(-94.04 -78.69)"/><path class="cls-10" d="M336.38,157.05c1.75.65,4.3,2.22,6.19,2.54s2.76.84,6.33,1.31c.38,3.86-.71,7.64-.26,13.81.22,3,.93,12.93,1.17,22,.52,20-1.7,19.36-.78,30.52.86,10.39,3,13.1,8.34,33.25,3.2,12,5.34,21.83,6.66,28.3-4.7,1.76-8,1.42-10.18.78-4-1.17-5.52-3.8-10.43-5.08a19.18,19.18,0,0,0-6.52-.53,219.62,219.62,0,0,1-5.21-31.94c-1-11.51-.21-12.64-.92-34.56-.58-17.93-1.26-21.57-1.82-41-.29-9.72,1.68-16.77,1.65-21.71,1.59.06,3.1,1.22,5.78,2.22" transform="translate(-94.04 -78.69)"/><path class="cls-7" d="M347.61,189.48c-.2-3.24-.52-5.85-.79-7.72-.08-.62-.16-1.11-.2-1.33-.46-2.93-1-5.27-1.36-6.89a49.16,49.16,0,0,1,2.67,9c.26,1.34.45,2.63.59,3.85l.42-8.12c.19,1,.36,2,.49,3a49.31,49.31,0,0,1,.23,10.34l-2.05-2.19" transform="translate(-94.04 -78.69)"/><path class="cls-7" d="M293.35,198.84a42.78,42.78,0,0,0,.26-9.45,50.8,50.8,0,0,1,2.67-18.26c-.74,1.66-1.47,3.51-2.15,5.54s-1.22,4-1.63,5.74a21.78,21.78,0,0,0-.78-12.85c0,2.17,0,4.48-.13,6.92-.15,2.64-.35,3.41-.79,8.08a64,64,0,0,0-.52,8.22c.21,3.26.83,3.92,1.11,7.23a29.89,29.89,0,0,1-.26,7.18,39.37,39.37,0,0,0,2.22-8.35" transform="translate(-94.04 -78.69)"/><path class="cls-9" d="M315.63,198.15a44.09,44.09,0,0,1,2.79-5c1.57-2.45,2.24-3,2.54-3.18.64-.46,2.63-1.68,6.36-.93.18.68.36,1.37.53,2.05q-6.15,7.17-12.32,14.33c0-2.43.07-4.86.1-7.29" transform="translate(-94.04 -78.69)"/><path class="cls-21" d="M325.24,186l-2.14,19a4,4,0,0,0,3.81,4.48l24.73,1.26a4,4,0,0,0,4.21-3.48l2.73-19.75a4,4,0,0,0-3.9-4.58l-25.34-.56a4.05,4.05,0,0,0-4.1,3.59" transform="translate(-94.04 -78.69)"/><path class="cls-9" d="M366.57,205.82c1-1.64-1.37-3.12-3.65-9.33-1.56-4.23-1.47-6.26-3.65-7.89-1-.74-3.19-1.92-4.37-1-.85.69-1,2.31-.33,4a9.45,9.45,0,0,1,4.24,4c2.28,4.45-1,8.79,1.17,10.89,1.65,1.58,5.57,1.08,6.59-.65" transform="translate(-94.04 -78.69)"/><path class="cls-22" d="M328.72,187.24l-2.14,19a4,4,0,0,0,3.81,4.48L355.12,212a4,4,0,0,0,4.21-3.47l2.73-19.75a4,4,0,0,0-3.91-4.59l-25.33-.55a4,4,0,0,0-4.1,3.58" transform="translate(-94.04 -78.69)"/><path class="cls-9" d="M314.5,199.67a20.1,20.1,0,0,1,5.82-4.84c4.1-2.24,7.87-2.33,14.19-2.49a5,5,0,0,1,1.22.09,6.9,6.9,0,0,1,4.79,4.16,7.5,7.5,0,0,1-3.13,8.75c-.68.39-1.18.47-3.57.79-4.59.61-6.88.92-7.87,1a45.87,45.87,0,0,0-9.78,2.2c-.56-3.22-1.11-6.45-1.67-9.68" transform="translate(-94.04 -78.69)"/><path class="cls-9" d="M360.77,197.6a7.87,7.87,0,0,0-1.9-3.19c-2.4-2.43-7.14-3.78-10.62-1.18-3,2.24-3.94,6.57-2.55,9.07s4.12,1.77,7.05,4.56a12.48,12.48,0,0,1,3.39,6.45,11,11,0,0,0,5.21-5c2.54-5.15-.33-10.25-.58-10.69" transform="translate(-94.04 -78.69)"/><path class="cls-10" d="M314.57,198.12c2.48-.91,6,.47,7.63,3.17a7.41,7.41,0,0,1-1.08,8.63l-4.4,2.48-8.67-4.86a19.14,19.14,0,0,1,4.76-8.21,4.82,4.82,0,0,1,1.76-1.21" transform="translate(-94.04 -78.69)"/><path class="cls-10" d="M370.35,230.07a11.22,11.22,0,0,0,3.85-6.91c.49-2.9-.61-6.12-3.26-12.26-1.29-3-3-6.85-5.28-11.34,2.48,5.74,1.29,11.47-1.57,13.23-3.34,2.06-10.72,1-14.19-6.54a36.86,36.86,0,0,0,2.06,14.5c1.59,4.92,2.67,8.12,5.94,10a11.42,11.42,0,0,0,12.45-.72" transform="translate(-94.04 -78.69)"/><path class="cls-17" d="M301.31,110.76c2.84-3.62,9.55-12.17,18.79-12.42,10-.28,20.41,9.22,24.36,23.56q.09-11.7.16-23.4L317.07,85.6,295.58,96.74q-1.2,17.2-2.39,34.4a39.8,39.8,0,0,1,8.12-20.38" transform="translate(-94.04 -78.69)"/><path class="cls-22" d="M330.39,210.76,355.12,212c2.09.11-5.14-4.51-4.85-6.58" transform="translate(-94.04 -78.69)"/><path class="cls-7" d="M303.38,102.54c2-3,10.86-9.62,21.52-7.5,10.21,2,16.7,17.3,18.88,28.86.64-1.6,6.7-19.38.42-30.69a28.84,28.84,0,0,0-26.86-14.47c-12.9.77-23.81,10.2-26.47,21.77-5,21.74,4.9,36,6.12,38.78.43-2.52.27-27.48,6.39-36.75" transform="translate(-94.04 -78.69)"/><path class="cls-7" d="M295.82,142.9a43.9,43.9,0,0,0,.92,8.08,34,34,0,0,0,3.78,10.3c1.67,2.89,4.73,8.14,9.91,10.17,5.49,2.16,7.7-1.52,20.6-3.91,10.56-1.95,18-1.14,18.91-4.3a5,5,0,0,0-1-3.91,6,6,0,0,0-3.52-2c-3.78-.87-7.41-2.36-11.22-3.13,0,0-1.7-.34-11-3.26-4.5-1.42-13.16-4.94-27.12-15a50.29,50.29,0,0,0-.27,6.92" transform="translate(-94.04 -78.69)"/><polygon class="cls-21" points="248.66 104.44 251.66 66.1 253.89 66.1 250.68 104.44 248.66 104.44"/><polygon class="cls-23" points="114.45 196.26 141.86 186.38 144.61 213.31 122.43 217.8 114.45 196.26"/><rect class="cls-24" x="126.68" y="278" width="5.03" height="4.1" transform="translate(-148.93 -46.09) rotate(-11.88)"/><path class="cls-25" d="M127.2,278.62a40.2,40.2,0,0,0-5.72.35,42.14,42.14,0,0,0-9.94,2.62A146.34,146.34,0,0,1,94,286.83l2.32.57c4.3-1.07,9-2.06,14-2.87,5.5-.89,10.68-1.45,15.45-1.78l1.38-4.13" transform="translate(-94.04 -78.69)"/><path class="cls-25" d="M130.81,277.86a40.75,40.75,0,0,1,5.38-2,42,42,0,0,1,10.15-1.6A145.76,145.76,0,0,0,164.47,272l-1.9,1.46c-4.36.75-9,1.74-14,3-5.4,1.41-10.36,3-14.87,4.6-1-1.07-1.94-2.15-2.92-3.22" transform="translate(-94.04 -78.69)"/><rect class="cls-26" x="125.64" y="281.08" width="10.72" height="12.52" transform="translate(-150.41 -45.55) rotate(-11.89)"/><polygon class="cls-27" points="123.42 215.42 133.81 213.23 133.98 214.05 123.02 216.35 123.42 215.42"/><polygon class="cls-28" points="134.58 216.9 125.2 218.87 123.81 216.19 133.98 214.05 134.58 216.9"/><path class="cls-29" d="M205.49,280.47l8.6,15a3.38,3.38,0,0,0,2.12,1.64,10.07,10.07,0,0,0,3,.46l-3.32-15.79Z" transform="translate(-94.04 -78.69)"/><polygon class="cls-25" points="102.73 200.7 121.88 203.08 118.47 194.74 102.73 200.7"/><polygon class="cls-26" points="43.71 210.59 48.92 201.24 96.24 188.37 106.02 188.19 105.03 193.7 43.71 210.59"/><polygon class="cls-30" points="102.76 189.91 50.08 204.39 43.71 210.59 30.81 213.3 31.76 217.8 47.94 214.39 103.33 198.68 102.76 189.91"/><path class="cls-31" d="M200.49,258.59a19.39,19.39,0,0,1-3.38,6.13,16,16,0,0,1-2.85,2.68l.27,1.25,14-2.94-8-7.12" transform="translate(-94.04 -78.69)"/><rect class="cls-32" x="205.44" y="264.44" width="17.6" height="11.14" transform="translate(-145.06 -28.77) rotate(-11.89)"/><path class="cls-33" d="M205.89,266.07a17.37,17.37,0,0,1-3-3.2,20.73,20.73,0,0,1-2.39-4.28,62.58,62.58,0,0,1,10.54-5,51.51,51.51,0,0,1,8.26-2.33c.79,3.74,1.62,7.72,2.41,11.46l-15.81,3.33" transform="translate(-94.04 -78.69)"/><rect class="cls-34" x="195.49" y="267.16" width="11.6" height="11.14" transform="translate(-145.91 -31.36) rotate(-11.89)"/><rect class="cls-31" x="196.94" y="268.58" width="8.79" height="8.28" transform="translate(-145.9 -31.36) rotate(-11.89)"/><rect class="cls-35" x="198.34" y="269.9" width="5.99" height="5.65" transform="translate(-145.9 -31.36) rotate(-11.89)"/><path class="cls-34" d="M203,272.38a1.66,1.66,0,0,0-3.24.68,1.66,1.66,0,1,0,3.24-.68" transform="translate(-94.04 -78.69)"/><rect class="cls-24" x="310.49" y="239.3" width="5.03" height="4.1" transform="translate(-137.03 -9.06) rotate(-11.88)"/><path class="cls-25" d="M314.26,239.24a41.07,41.07,0,0,1,5.37-2,42.08,42.08,0,0,1,10.15-1.6,145.76,145.76,0,0,0,18.13-2.27L346,234.84c-4.36.76-9,1.74-14,3-5.39,1.41-10.36,3-14.86,4.6l-2.92-3.22" transform="translate(-94.04 -78.69)"/><path class="cls-25" d="M310.64,240A40.72,40.72,0,0,0,295,243a146,146,0,0,1-17.51,5.24l2.33.57c4.29-1.07,9-2.05,14-2.87,5.51-.89,10.69-1.45,15.46-1.78.46-1.38.92-2.75,1.37-4.13" transform="translate(-94.04 -78.69)"/><rect class="cls-26" x="308.93" y="242.49" width="10.72" height="12.52" transform="translate(-138.53 -8.62) rotate(-11.89)"/><polygon class="cls-27" points="143.87 211.11 133.48 213.3 133.65 214.12 144.61 211.81 143.87 211.11"/><polygon class="cls-28" points="134.25 216.97 143.63 215 143.82 211.98 133.65 214.12 134.25 216.97"/><rect class="cls-36" x="219.54" y="282.16" width="13.24" height="3.53" transform="translate(-147.67 -26.01) rotate(-11.89)"/><path class="cls-36" d="M219.32,283.56a6.62,6.62,0,1,0,5.12-7.84,6.62,6.62,0,0,0-5.12,7.84" transform="translate(-94.04 -78.69)"/><path class="cls-29" d="M243.35,272.5l-1.81,17.18a3.35,3.35,0,0,1-1.29,2.35,10.09,10.09,0,0,1-2.59,1.65l-3.32-15.79Z" transform="translate(-94.04 -78.69)"/><polygon class="cls-25" points="156.86 189.3 140.3 199.21 140.06 190.2 156.86 189.3"/><polygon class="cls-26" points="214.87 174.56 206.33 168.1 157.84 175.4 148.81 179.18 151.94 183.83 214.87 174.56"/><polygon class="cls-30" points="152.48 179.44 206.53 171.46 214.87 174.56 227.76 171.84 228.71 176.34 212.53 179.74 155.5 187.69 152.48 179.44"/><path class="cls-31" d="M239.11,250.46a19.52,19.52,0,0,0,5.56,4.25,16.14,16.14,0,0,0,3.69,1.3l.27,1.25-14,2.94,4.44-9.74" transform="translate(-94.04 -78.69)"/><rect class="cls-32" x="222.33" y="260.88" width="17.6" height="11.14" transform="translate(-143.96 -25.37) rotate(-11.89)"/><path class="cls-33" d="M237.18,259.48a17.19,17.19,0,0,0,1.47-4.14,20.71,20.71,0,0,0,.46-4.88,62.49,62.49,0,0,0-11.65-.31,50.83,50.83,0,0,0-8.5,1.2c.79,3.74,1.62,7.72,2.41,11.46l15.81-3.33" transform="translate(-94.04 -78.69)"/><rect class="cls-34" x="238.28" y="258.15" width="11.6" height="11.14" transform="translate(-143.12 -22.76) rotate(-11.89)"/><rect class="cls-31" x="239.64" y="259.59" width="8.79" height="8.28" transform="translate(-143.13 -22.77) rotate(-11.89)"/><rect class="cls-35" x="241.04" y="260.91" width="5.99" height="5.65" transform="translate(-143.14 -22.74) rotate(-11.89)"/><path class="cls-34" d="M242.41,264.08a1.66,1.66,0,1,1,2,1.28,1.67,1.67,0,0,1-2-1.28" transform="translate(-94.04 -78.69)"/><path class="cls-27" d="M220,286.74a6.62,6.62,0,1,0,5.11-7.85,6.61,6.61,0,0,0-5.11,7.85" transform="translate(-94.04 -78.69)"/><path class="cls-37" d="M220.89,286.55a5.7,5.7,0,1,0,4.4-6.75,5.7,5.7,0,0,0-4.4,6.75" transform="translate(-94.04 -78.69)"/><path class="cls-38" d="M221.58,286.4a5,5,0,1,0,3.86-5.92,5,5,0,0,0-3.86,5.92" transform="translate(-94.04 -78.69)"/><path class="cls-39" d="M223.77,285.94a2.75,2.75,0,1,0,2.13-3.26,2.77,2.77,0,0,0-2.13,3.26" transform="translate(-94.04 -78.69)"/></g></g></g></g></svg>