<svg xmlns="http://www.w3.org/2000/svg" xmlns:xlink="http://www.w3.org/1999/xlink" viewBox="0 0 378.63 357.68"><defs><style>.cls-1,.cls-13{fill:none;}.cls-2{clip-path:url(#clip-path);}.cls-3{fill:#5bccff;}.cls-4{fill:#4d5b63;}.cls-5{fill:#333f45;}.cls-6{fill:#3b434d;}.cls-7{fill:#434d55;}.cls-8{fill:#616b71;}.cls-9{fill:#77878d;}.cls-10{fill:#1f292f;}.cls-11{fill:#39494f;}.cls-12{fill:#314149;}.cls-13{stroke:#354749;stroke-miterlimit:10;stroke-width:3px;}.cls-14{fill:#35414d;}.cls-15{fill:#ffe1c9;}.cls-16{fill:#ebc5c1;}.cls-17{fill:#ccc;}.cls-18{fill:#eff3ff;}.cls-19{fill:#ffe4d5;}.cls-20{fill:#f8d9cf;}.cls-21{fill:#352f3b;}.cls-22{fill:#1d1905;}.cls-23{fill:#f76b69;}.cls-24{fill:#df4f51;}.cls-25{fill:#002931;}.cls-26{fill:#1a2d3b;}.cls-27{fill:#2d3b4d;}</style><clipPath id="clip-path" transform="translate(-75.59 -106.8)"><rect class="cls-1" width="512" height="512"/></clipPath></defs><title>login2</title><g id="Layer_2" data-name="Layer 2"><g id="Layer_1-2" data-name="Layer 1"><g class="cls-2"><g class="cls-2"><path class="cls-3" d="M103.77,394.48c-15.74-16.39-36.15-49.32-25-72.91,8.69-18.33,27.56-12.24,40-31.7C133.91,266.33,114,245.43,122,213c6.82-27.57,32.23-56.95,60.63-63,43.48-9.27,59.34,43.52,147,77.66,54.18,21.1,74,11,96.69,35.66C455.79,295.37,464.94,358.87,439,383c-45.21,42-171-59.6-231-7.53-19.27,16.72-23.4,42-47.95,46-26.33,4.22-49.95-20.37-56.26-26.94" transform="translate(-75.59 -106.8)"/><rect class="cls-4" x="337.31" y="254" width="24.92" height="89.62"/><rect class="cls-5" x="264.38" y="254" width="63.27" height="89.62"/><polygon class="cls-6" points="270.97 243.96 334.24 243.96 327.65 254 264.38 254 270.97 243.96"/><rect class="cls-7" x="327.65" y="254" width="9.66" height="89.62"/><rect class="cls-8" x="362.23" y="254.79" width="4.59" height="88.82"/><polygon class="cls-9" points="324.88 243.96 326.66 254 327.65 255.35 337.31 261.35 362.23 261.35 366.82 254.81 365.79 253.37 354.65 243.96 324.88 243.96"/><polygon class="cls-6" points="323.48 351.64 333.19 351.64 327.64 343.62 317.94 343.62 323.48 351.64"/><polygon class="cls-6" points="269.93 351.64 279.64 351.64 274.09 343.62 264.38 343.62 269.93 351.64"/><polygon class="cls-10" points="304.6 351.64 294.89 351.64 300.44 343.62 310.15 343.62 304.6 351.64"/><polygon class="cls-11" points="337.31 343.62 327.65 343.62 333.15 351.64 337.31 343.62"/><polygon class="cls-12" points="358.07 351.64 333.15 351.64 337.31 343.62 362.23 343.62 358.07 351.64"/><polygon class="cls-6" points="357.97 351.64 357.97 351.64 362.13 343.62 366.82 343.62 357.97 351.64"/><rect class="cls-6" x="272.36" y="350.95" width="32.24" height="0.69"/><path class="cls-13" d="M271.59,153.67c15.88,6.28,41,18.06,41,33C312.77,225.79,141,239,138.15,278.19c-1.28,18.11,33.1,46.5,202.09,90" transform="translate(-75.59 -106.8)"/><path class="cls-14" d="M308.93,459.45c0,2.78-25.7,5-57.4,5s-57.39-2.25-57.39-5,25.69-5,57.39-5,57.4,2.25,57.4,5" transform="translate(-75.59 -106.8)"/><path class="cls-15" d="M237.92,186c-4.3-3.21-22.24,3.95-40.24,8.64-4.67,1.21-9,3.46-13.54,5.1a11.28,11.28,0,0,0-4.57,2.68c-1.86,1.91-3.64,5.38-2.71,8.68,1.47,5.15,8.58,6.32,9.2,6.42,5.52.82,8.46-2.29,16.56-6.41,15.3-7.78,24.77-3.17,27.37-9.4,1.65-3.94,11-13.4,7.93-15.71" transform="translate(-75.59 -106.8)"/><path class="cls-16" d="M230.48,175.12a10.48,10.48,0,0,1,5.66,7c.67,3.24-2.1,10.28-2.52,11.07,8.58,1.71,18.69-1,27.28.66a39.85,39.85,0,0,1-2.38-32.24l-28,13.53" transform="translate(-75.59 -106.8)"/><polygon class="cls-16" points="160.06 89.15 157.63 80.5 160.71 77.83 166.13 80.11 160.06 89.15"/><path class="cls-15" d="M217.9,140.3c-.26,2.69.34,5-.41,10.77-.82,6.37-1.92,6.63-1.77,9.87a18.41,18.41,0,0,0,9,14.33c4.35,2.53,8.58,2.38,12.12,2.2,2.7-.13,14.34-.7,22.85-10.38,1.3-1.48,15.83-5.31,12.92-28.31-2.66-21-23.91-23.46-37.19-20.16-9.25,2.3-16.76,13.82-17.54,21.68" transform="translate(-75.59 -106.8)"/><path class="cls-16" d="M217.6,153.59a15.79,15.79,0,0,0-1.14,3.36,15.37,15.37,0,0,0-.29,2.13,21.05,21.05,0,0,1,10-3.71c6.58-.55,10.91,2.66,15.41,4.31,5.32,1.95,13.74,2.75,26.84-3.32,1.3-3.91.87-6.44.05-8.12-4-8.24-23.66-8.82-49.23-2.08-.55,2.47-1.09,5-1.64,7.43" transform="translate(-75.59 -106.8)"/><path class="cls-17" d="M251.85,115.53c-4.91-1.88-6.37-3.44-8.17-4.32a51.38,51.38,0,0,1-7.35-4.41,6.82,6.82,0,0,0,2.21,4.41,4.2,4.2,0,0,1,1.57,2.57,19.79,19.79,0,0,0-8.19,1.1c-5.13,1.71-6.23,4-14.69,9.55-3.08,2-5.69,3.5-7.35,4.41l8.08-1.47a32,32,0,0,0-3.67,6.61,32.74,32.74,0,0,0-2.2,15.43c.3-3.39,1.53-11.66,8.08-16.9,2.76-2.21,5.52-3.12,9.55-4.4a62.66,62.66,0,0,1,18.37-2.94,74.14,74.14,0,0,1-11,5.14c-3.68,1.36-5.94,1.87-5.88,2.2.1.57,6.75.15,13.22-1.47a55,55,0,0,0,10.29-3.67c.55.69,2.6,2.6,3.67,3.67a17,17,0,0,1,4.41,11c-.73,13.23,5.88,8.82,5.14,12.49s-.73,6.62-7.34,11.76c6.61-3.67,7.29-5.06,11.75-12.49,2.21-3.67,1.86-12.63,1.47-14l8.82,2.94a34.63,34.63,0,0,1-8.08-8.08,27.8,27.8,0,0,1-5.15-11,26,26,0,0,1,0-10.29c-2.27,3.18-4.51,4.09-5.88,4.41-1.6.37-2.08.1-6.18-1.17-1.35-.41-3.22-.26-5.48-1.12" transform="translate(-75.59 -106.8)"/><path class="cls-18" d="M287,321.66c.1-3.45,1.28-3.84,2.56-5.12,1.63-1.64,6.45-2.09,9.6,0s1.72,4.29,5.76,10.24c2.58,3.79,4.24,4.49,5.76,8.32a14.07,14.07,0,0,1,1.28,5.76c-.07,4.95-3.31,10.76-7,10.88-2.15.08-3.83-1.77-5.12-3.2-3.4-3.75-2.17-6.16-5.12-11.52-2.81-5.11-4.6-4.71-6.4-8.32-.64-1.28-1.4-3-1.28-7" transform="translate(-75.59 -106.8)"/><path class="cls-15" d="M196.57,162.93c-2.13,6.66-8.07,18.82-10.12,22.23-.36.61-6.57,10.93-10.71,20a9.49,9.49,0,0,0-1,4.35c.08,3.85,2.72,8.25,6.09,9.19,5.5,1.53,11.86-6.45,14.66-11.67,3-5.53,2.63-9.28,3.9-16.7,1-5.66,4.64-18,8.95-27.45-4.48,1-7.31-.91-11.78.06" transform="translate(-75.59 -106.8)"/><path class="cls-19" d="M253.45,332.6c-4.92,2.11-5.52,10.24-5.79,14-.95,12.94,4.53,21.88,13.17,39,3.59,7.09,15.43,36.08,21.29,49.36,3-1.15,9.33-4.37,12.31-5.52-7.4-18.47-13.28-33.17-14-42.72-.22-2.94-1-13.33-.73-17.63.56-10.79-5.37-21.57-9.13-27.49-5.63-7.4-12.63-10.92-17.1-9" transform="translate(-75.59 -106.8)"/><path class="cls-20" d="M211.55,346c1.41,4.84,9,5.82,12.58,6.28,12.15,1.56,21.3-3.28,38.57-10.75,7.15-3.09,17.77-7.53,31.07-12.51-.73-2.93-3-9.2-3.75-12.13-17.77,6.72-25.2,7.95-32.68,7.17-2.77-.28-11.37.43-15.42,0-10.16-1.08-13.71,2.59-19.77,5.92-7.7,5.05-11.88,11.61-10.6,16" transform="translate(-75.59 -106.8)"/><path class="cls-19" d="M239.74,331.25a62.61,62.61,0,0,0,8.42,18.13,12.2,12.2,0,0,0,2.46,2.73c4.76,3.81,13,4,18-.2a12.46,12.46,0,0,0,3-3.9c3.21-6.39,1.88-16.68-4.68-21.89-7.34-5.82-20-4.34-27.22,5.13" transform="translate(-75.59 -106.8)"/><path class="cls-19" d="M202.41,329.15A39.88,39.88,0,0,0,209,345.67a21.56,21.56,0,0,0,4.59,5.19c5.16,4.08,13.45,6.22,19.85,2.83,1-.53,5.41-2.87,5.82-6.7.33-3.07-2.11-5-5.65-9.34-7.88-9.68-6.6-13.47-10.74-15.46-6.41-3.06-15.57,3.09-20.46,7" transform="translate(-75.59 -106.8)"/><path class="cls-21" d="M202.18,273.13a118.76,118.76,0,0,0-4.5,25.49c-.87,13.36,3.62,34.22,5.42,42.48a28.33,28.33,0,0,0,13,5.38c10.74,1.49,18.79-3.93,20.75-5.33,2.83-19.86,2.72-49.26,5.55-69.11l-40.18,1.09" transform="translate(-75.59 -106.8)"/><path class="cls-22" d="M231.07,306.74s1.07,14.86.91,19.82c-.16,4.65-2.1,18.48-2.1,18.48l7.13-4.73s1.43-11.07,1.54-14.78c.14-5-.91-19.82-.91-19.82Z" transform="translate(-75.59 -106.8)"/><path class="cls-21" d="M231.4,289.93a79.27,79.27,0,0,0,.66,27.08c1.5,7.53,8.29,21.81,10.52,26.51,1.88,1.24,7.94,7.11,19.32,4.55a28.12,28.12,0,0,0,12.52-6.53c1.23-6,2.1-29.36-5.25-45.68-3.85-8.54-6.3-17-10.15-20.72-8.3,4.11-19.33,10.68-27.62,14.79" transform="translate(-75.59 -106.8)"/><path class="cls-23" d="M236.31,184.63c-5.48.57-10.55,3.71-14.29,7a36.49,36.49,0,0,0-7.93,9.84c-10.68,18.64-13.27,51.49-13.27,51.49-.47,5.92-2.19,18.72-2,28.74,4.87,1.78,13.62,3.2,19.84,4.41,16.57,3.22,34.6-1.83,44.82-3.68-2-5.78-6.27-15.37-5.45-26.91,1.07-15,9-33.37,11.78-38.32,3.23-5.69,6.61-10.87,5.41-17.35-1-5.36-6.44-11.76-12.26-13.08-7.88-1.32-14.09,5.81-21.19,5-8.49-1-7.91-4.43-5.5-7.1" transform="translate(-75.59 -106.8)"/><path class="cls-24" d="M262.64,203.73a104.26,104.26,0,0,0-11,32.77c-3.17,20,.92,38.3,3.61,47.55,2-.33,6.22-1.33,8.25-1.66-2.29-6.46-5.27-22.55-3.82-33.43,2.24-16.72,10.08-34.65,15.09-41.57-3.17-1-9-2.68-12.15-3.66" transform="translate(-75.59 -106.8)"/><path class="cls-15" d="M251.35,198.29a15.39,15.39,0,0,0-4.18,9.29c-.23,4.82,2.39,10.63,8.38,12,7,1.57,14.73-3.75,18-9.4,3.34-5.82,3.23-14.33-3.2-17.4-6.24-3-14.69.93-19,5.52" transform="translate(-75.59 -106.8)"/><path class="cls-16" d="M259.15,193.52a13.51,13.51,0,0,1,4.08-1.54,13.35,13.35,0,0,1,3.75-.2,11.77,11.77,0,0,1,.6,4c-.17,6.59-6,10.76-7,11.44l-1.47-13.72" transform="translate(-75.59 -106.8)"/><path class="cls-15" d="M250.61,180.72l.32-18.38,10.27.6c0,7.65.24,15.78.8,24.33.65,9.87,5.12,15.74,2.32,23.68-.67,1.9-2.6,7.36-7.11,8.42-4.09,1-8.82-2.05-10.71-5.77s-.23-7.23,1.67-16.09a129.82,129.82,0,0,0,2.44-16.79" transform="translate(-75.59 -106.8)"/><path class="cls-18" d="M280.13,434.73a14.86,14.86,0,0,1,1.54,6.17,14.24,14.24,0,0,1-1.54,6.93c-1.18,2.25-2.64,3.38-8.48,10-.46.53-.87,1-.77,1.54.44,2.35,10,2.33,13.1,2.32,4.95,0,7.43,0,8.48-.77,4.27-3,1.39-9.52,6.94-16.19,1.26-1.52,1.93-1.81,2.31-3.08,1.19-4-3-8.78-6.94-12.34l-14.64,5.4" transform="translate(-75.59 -106.8)"/><path class="cls-25" d="M253.12,129.68c.26,0,.85-.07,4.38,2.16,2,1.26,1.26,1.49,5.61,4.94a7.94,7.94,0,0,1,2.65,6.54c-.77,6.76-2.19,9.8-5.41,12.64a7.62,7.62,0,0,1-.69.7c-3.28,2.24-9.92-1.06-14.12-8.26a9,9,0,0,1-.69-1.34c-2.84-6.91,3.33-17.44,8.27-17.38" transform="translate(-75.59 -106.8)"/><path class="cls-26" d="M220.13,155.34c3.44-.78,3.38-2.43,6-3.12a9.1,9.1,0,0,1,8.26,1.55,21.11,21.11,0,0,1,1.93,1.44c2.56,2.11,8.18,3.65,21.25,1.73-4.76-3.56-7.32-5.67-12.07-9.23H204.43a15.16,15.16,0,0,0,1.39,2.52c.81,1.21,3.37,5,7.33,5.6a14.56,14.56,0,0,0,3.07,0,29.3,29.3,0,0,0,3.91-.49" transform="translate(-75.59 -106.8)"/><path class="cls-27" d="M246.48,150.71a332.35,332.35,0,0,1-40.41-.67,3.13,3.13,0,0,1-2.87-4.18q1.73-5.82,3.45-12a6.31,6.31,0,0,1,5.18-4.41,332.21,332.21,0,0,1,40.41,0,3.2,3.2,0,0,1,2.87,4.31c-1.15,4-2.3,8.19-3.45,12.41a6.23,6.23,0,0,1-5.18,4.48" transform="translate(-75.59 -106.8)"/><path class="cls-15" d="M196.57,162.93c.52-2.48,2.36-9.14,4.5-12.78a23.28,23.28,0,0,1,6.3-7.59c-.2,1,2.78-.15,2.51,1.71-.85,6-1.24,9,0,10.29,2,2.09,6.27.16,7.74.21,1,0,2.16.22,2.45,1.89a20.54,20.54,0,0,0-6.51,2.3,20.8,20.8,0,0,0-7.35,6.62c-2.94-2-6.7-.69-9.64-2.65" transform="translate(-75.59 -106.8)"/><path class="cls-15" d="M256.17,143.53c1.65,1.78.79,3.32,2.94,7.35,1.12,2.11,1.62,2.17,2.2,3.68a11.13,11.13,0,0,1,0,7.34l-9.55-.73a53,53,0,0,1-2.94-9.55c-1-4.93-1.69-8.18,0-9.56s5.47-.55,7.35,1.47" transform="translate(-75.59 -106.8)"/><path class="cls-15" d="M204.91,145.06s3.13-3.6,5-4.2,5.56.55,6,1.45c.53,1.19-2.13,6.05-2.48,6.59-1.78,2.73-5.23,6.69-6.06,8.31s-2.37-12.15-2.37-12.15" transform="translate(-75.59 -106.8)"/><path class="cls-26" d="M232.15,129.12a23,23,0,0,1,7.25-10,18.62,18.62,0,0,1,12.3-3.58,26,26,0,0,1,5.63,1.12,21.93,21.93,0,0,0-13.62,4.49,22.28,22.28,0,0,0-6.06,7.88l-5.5.1" transform="translate(-75.59 -106.8)"/><path class="cls-26" d="M269.83,156.15a6,6,0,0,1-1,3.41l4-6.8a1.86,1.86,0,0,0-.16-.6c-.12-.2-.81-.93-.51-1.69s1.81-3.86,1.81-3.86v-5.09a23.12,23.12,0,0,0-2.08,2.78c-1.15,1.78-1.39,2.27-2.25,2.3s-3.14-1.81-3.14-1.81l-1.61,4.36a12.12,12.12,0,0,1,3.36,2.21,7.72,7.72,0,0,1,1.56,4.79" transform="translate(-75.59 -106.8)"/><polygon class="cls-27" points="181.46 30.17 191.66 37.25 190.01 43.03 179.68 36.15 181.46 30.17"/><path class="cls-26" d="M211.71,132.39a1,1,0,1,0-1,1,1,1,0,0,0,1-1" transform="translate(-75.59 -106.8)"/><path class="cls-26" d="M252.52,132.39a1,1,0,1,0-1,1,1,1,0,0,0,1-1" transform="translate(-75.59 -106.8)"/><path class="cls-26" d="M227.86,148.24a1,1,0,1,0-1,1,1,1,0,0,0,1-1" transform="translate(-75.59 -106.8)"/><path class="cls-13" d="M271.59,153.67c15.88,6.28,41,18.06,41,33C312.77,225.79,141,239,138.15,278.19" transform="translate(-75.59 -106.8)"/></g></g></g></g></svg>