<svg xmlns="http://www.w3.org/2000/svg" xmlns:xlink="http://www.w3.org/1999/xlink" viewBox="0 0 503.97 527.05"><defs><style>.cls-1,.cls-4{fill:none;}.cls-2{clip-path:url(#clip-path);}.cls-3{fill:#ff6a59;}.cls-4{stroke:#00c7ff;stroke-miterlimit:10;stroke-width:4px;stroke-dasharray:12 12;}.cls-5{fill:#53bdf3;}.cls-6{fill:#42474a;}.cls-7{fill:#191f31;}.cls-8{fill:#53ddd9;}.cls-9{fill:#1f3948;}.cls-10{clip-path:url(#clip-path-3);}.cls-11{fill:url(#linear-gradient);}.cls-12{fill:#9be9e1;}.cls-13{clip-path:url(#clip-path-5);}.cls-14{fill:url(#linear-gradient-2);}.cls-15{clip-path:url(#clip-path-6);}.cls-16{fill:url(#linear-gradient-3);}.cls-17{clip-path:url(#clip-path-7);}.cls-18{fill:url(#linear-gradient-4);}.cls-19{clip-path:url(#clip-path-8);}.cls-20{fill:url(#linear-gradient-5);}.cls-21{fill:#ffb597;}.cls-22{fill:#876d60;}.cls-23{fill:#1d1f15;}.cls-24{fill:#f1e1d3;}.cls-25{fill:#dfd3cb;}.cls-26{fill:#a27c65;}.cls-27{fill:#e5a99f;}.cls-28{fill:#2d2b23;}.cls-29{fill:#dd6b69;}.cls-30{fill:#d75369;}.cls-31{clip-path:url(#clip-path-10);}.cls-32{fill:url(#linear-gradient-6);}.cls-33{fill:#dd555b;}.cls-34{fill:#eff3ff;}.cls-35{fill:#77898f;}.cls-36{fill:#d9dddd;}.cls-37{fill:#bdcbcd;}</style><clipPath id="clip-path" transform="translate(-133.84 -177.41)"><rect class="cls-1" width="674.76" height="674.76"/></clipPath><clipPath id="clip-path-3" transform="translate(-133.84 -177.41)"><path class="cls-1" d="M271.17,517.34a62,62,0,0,1,26.6-2.23,62.87,62.87,0,0,1,32.32,14.66c4.56-16.46,11.22-22.23,16.66-24.36,3.52-1.38,5.2-.72,9.45-2.49,9.05-3.77,17-13.33,16.16-18.64C371.33,478,356.9,472,307,470.36l-35.8,47"/></clipPath><linearGradient id="linear-gradient" x1="128.36" y1="665.57" x2="129.68" y2="665.57" gradientTransform="matrix(51.63, 0, 0, -51.63, -6341.21, 34860.63)" gradientUnits="userSpaceOnUse"><stop offset="0" stop-color="#81dbdb"/><stop offset="1" stop-color="#4babc9"/></linearGradient><clipPath id="clip-path-5" transform="translate(-133.84 -177.41)"><path class="cls-1" d="M285.32,528.63a102,102,0,0,1-10.41,27.19l15.62.58a66.75,66.75,0,0,0,9.25-13.3c9.3-17.68,8.11-35.12,6.94-43.39,11.57,16.2,28,44.18,39.61,60.37,8.82-8.7,4.51-28.11,2.53-34.67-1.35-4.51-7.26-19.67-1.52-27.25,4.73-6.26,10.5-5.29,16.87-4.33a37.55,37.55,0,0,0,9.65.57c-26.42-3.47-63.86-14.35-90.27-17.83a105.06,105.06,0,0,1,1.73,52.06"/></clipPath><linearGradient id="linear-gradient-2" x1="128.42" y1="665.08" x2="129.74" y2="665.08" gradientTransform="matrix(75.38, 0, 0, -75.38, -9394.75, 50652.33)" gradientUnits="userSpaceOnUse"><stop offset="0" stop-color="#9be9e1"/><stop offset="1" stop-color="#4babc9"/></linearGradient><clipPath id="clip-path-6" transform="translate(-133.84 -177.41)"><path class="cls-1" d="M514.47,431.14c-.38,3.43-7,57.67-40.87,101.55-50.75,65.82-138.18,76.08-148.84,76.94,13,4.83,50.65,2.5,75.8-.83,59-7.81,82-41.81,92.06-54.26,0,0,38.35-47.41,37-101.8-.12-4.8-.64-25-.64-25-2.43-16.43.68-27.81-15.45-58.09-.13,3.2,1.55,55.93.92,61.47"/></clipPath><linearGradient id="linear-gradient-3" x1="128.19" y1="664.07" x2="129.5" y2="664.07" gradientTransform="matrix(-186.54, 0, 0, 186.54, 24453.6, -123386.82)" xlink:href="#linear-gradient"/><clipPath id="clip-path-7" transform="translate(-133.84 -177.41)"><path class="cls-1" d="M403.76,479.45l22.59,20.08c14-10.6,18.44-16.58,22.82-22.42,6.71-8.95,7.19-20.22,4.8-38.17-.73-5.51-7.28-19.33-6.53-34.89,1.13-23.34,7-25.26,6-40-.44-6.63-.86-17-11.21-28.08Q423,407.73,403.76,479.45"/></clipPath><linearGradient id="linear-gradient-4" x1="129.34" y1="661.31" x2="130.66" y2="661.31" gradientTransform="matrix(-17.41, 0, 0, 17.41, 2698.14, -11094.75)" xlink:href="#linear-gradient"/><clipPath id="clip-path-8" transform="translate(-133.84 -177.41)"><path class="cls-1" d="M251.27,523.17c-1.67,8.19-3,17.24-7.2,30.3a189.42,189.42,0,0,1-12.89,30.63c5.69.16,10.07,4.68,15.76,4.85,7.3-23.91,18.69-43.76,26.92-53.73,4.94-6,11.83-13.11,17.24-25.44a83.29,83.29,0,0,0,6.7-27.44l-28.12-13.06a232.57,232.57,0,0,0-18.41,53.89"/></clipPath><linearGradient id="linear-gradient-5" x1="128.08" y1="665" x2="129.4" y2="665" gradientTransform="matrix(101.03, 0, 0, -101.03, -12708.29, 67711.66)" gradientUnits="userSpaceOnUse"><stop offset="0" stop-color="#a27c65"/><stop offset="1" stop-color="#876d60"/></linearGradient><clipPath id="clip-path-10" transform="translate(-133.84 -177.41)"><path class="cls-1" d="M312.61,453.17a186.27,186.27,0,0,1-21.17,5.52c-5.11,1.09-9.68,1.49-15.65,4.69a14.48,14.48,0,0,0-4.94,3.6c-3.78,4.95-1.05,13.9,5.61,23.52l28.11-5.7,41.76-28a14,14,0,0,0-6.86-6.69,11.77,11.77,0,0,0-3.6-.84c-.64-.06-1.31-.08-2-.08-8.44,0-20.19,3.68-21.26,4"/></clipPath><linearGradient id="linear-gradient-6" x1="128.08" y1="665.03" x2="129.4" y2="665.03" gradientTransform="matrix(101.02, 0, 0, -101.02, -12736.93, 67648.95)" xlink:href="#linear-gradient-5"/></defs><title>login1_2</title><g id="Layer_2" data-name="Layer 2"><g id="Layer_1-2" data-name="Layer 1"><g class="cls-2"><g class="cls-2"><path class="cls-3" d="M577.45,357.74c-27.77-13-48.3-2.4-62.47-19.41-12.57-15.09-1.65-29.7-8-57.42-7.13-31-33.51-68.16-73-77.25-38.44-8.83-75.52,12.1-95,33.35-22.74,24.83-12.46,40.27-33.35,58.68-29,25.52-57.24,3.36-103,24.06-5.28,2.39-63.28,29.65-68.38,81.9-3.33,34,16.29,73.3,47.7,89.07,52.2,26.19,93.51-34.41,163.79-13.09,42.21,12.81,38.27,38,91.18,55.3,16.88,5.52,62,19.57,110.6.85,6-2.3,84.16-33.64,84.43-93.72.16-34.47-25.39-68.67-54.46-82.32" transform="translate(-133.84 -177.41)"/><line class="cls-4" x1="142.88" y1="38.54" x2="201.38" y2="152.56"/><line class="cls-4" x1="142.88" y1="38.54" x2="51.58" y2="233.42"/><rect class="cls-5" x="110.18" y="44.98" width="68.34" height="10.42"/><path class="cls-6" d="M174.29,448.55h28.62A14.57,14.57,0,0,0,217.48,434V386.64a14.57,14.57,0,0,0-14.57-14.57H174.29a14.57,14.57,0,0,0-14.57,14.57V434a14.57,14.57,0,0,0,14.57,14.57" transform="translate(-133.84 -177.41)"/><path class="cls-7" d="M200.87,374.73V439a5,5,0,0,1-1.78,4c-2,1.86-10,4.12-10,4.12h17.45s3.44-.5,5.16-2,3.57-3.15,3.57-5.79V382.42s-.57-3.11-5.72-5.74a21.1,21.1,0,0,0-8.73-1.95" transform="translate(-133.84 -177.41)"/><path class="cls-7" d="M201.54,432.36a13.21,13.21,0,0,1-2.86,6.2c-3.67,4.24-9.48,4.65-13.35,4.86-14.68.79-13.56.11-19.9-.19l3.26,4c15.48-.25,14.19-.12,29-.12,4.07-2.67,8.24-6,12.31-8.65-2.83-1.5-5.66-4.59-8.49-6.08" transform="translate(-133.84 -177.41)"/><path class="cls-5" d="M244,202.07a24.65,24.65,0,1,1,24.65,24.65A24.65,24.65,0,0,1,244,202.07" transform="translate(-133.84 -177.41)"/><path class="cls-8" d="M276.72,211.12a16.49,16.49,0,1,1,16.48,16.49,16.48,16.48,0,0,1-16.48-16.49" transform="translate(-133.84 -177.41)"/><path class="cls-8" d="M227.16,216A16.87,16.87,0,1,1,244,232.82,16.87,16.87,0,0,1,227.16,216" transform="translate(-133.84 -177.41)"/><path class="cls-5" d="M300.52,221a11.85,11.85,0,1,1,11.85,11.85A11.84,11.84,0,0,1,300.52,221" transform="translate(-133.84 -177.41)"/><path class="cls-9" d="M224.91,606.21c0,6.14,56.82,11.11,126.91,11.11s126.91-5,126.91-11.11S421.91,595.1,351.82,595.1s-126.91,5-126.91,11.11" transform="translate(-133.84 -177.41)"/></g><g class="cls-10"><rect class="cls-11" x="272.86" y="441.15" width="98.67" height="117.83" transform="translate(-402.9 388.16) rotate(-63.53)"/></g><g class="cls-2"><path class="cls-12" d="M528.62,462.76c2.43-13,2.83-46.31-10.88-82.92-3.8-10.14-15.61-40.38-46.7-61-36.82-24.43-95.39-31.85-124.27-5.27-26.92,24.77-8,60.58-40.3,99.8-14.07,17.07-20.77,11.19-49,34.27-27.08,22.16-53.76,44-55.36,69.66-2.55,41,46.45,90.36,102.43,91.51,46.57,1,120.42,13,164.45-30.77,26.41-26.25,47.19-48.91,59.58-115.27" transform="translate(-133.84 -177.41)"/></g><g class="cls-13"><rect class="cls-14" x="268.6" y="457.81" width="111.58" height="121.03" transform="translate(-405.99 475.23) rotate(-70.65)"/></g><g class="cls-15"><rect class="cls-16" x="270.13" y="341.2" width="315.48" height="301.73" transform="translate(-346.9 434.69) rotate(-59.6)"/></g><g class="cls-17"><rect class="cls-18" x="396.62" y="334.01" width="66.87" height="167.54" transform="translate(-169.14 -137.7) rotate(-5.08)"/></g><g class="cls-19"><rect class="cls-20" x="198.16" y="463.77" width="132.66" height="130.7" transform="translate(-435.22 179.34) rotate(-46.5)"/></g><g class="cls-2"><path class="cls-21" d="M355.33,378.67c-.76,2.55-1.73,5.74-2.89,9.42-2,6.43-2.75,8.32-4.64,10.17a11.27,11.27,0,0,1-5.52,3.13c-5.14.83-11.58-4.54-15.07-13.55l15.57-34.4,12.55,25.23" transform="translate(-133.84 -177.41)"/><path class="cls-22" d="M351.82,379.55a70.85,70.85,0,0,0-4.9,11.93c-1.75,5.72-1.9,8.88-4.52,12.68a20.9,20.9,0,0,1-6.78,6.15l-9.8-5.14a1.78,1.78,0,0,1-.74-.39c-2.78-2.32,1.88-12.11,3.76-16.06A95.6,95.6,0,0,1,343,367.25l8.79,12.3" transform="translate(-133.84 -177.41)"/><path class="cls-21" d="M345.73,396.25A11.71,11.71,0,0,0,347,391a12.05,12.05,0,0,0-2.32-6.91,15.08,15.08,0,0,0-9.73-6c5.21-1.15,11.36-2.3,16.57-3.45-.71,6.42-2.36,12.84-3.08,19.27Z" transform="translate(-133.84 -177.41)"/><path class="cls-23" d="M440.16,315.88c.7,4-2.11,6.78-2.12,10.43,0,4-4.13,13.53-5.83,15.37-6,6.48-16,1.35-24.36-8.46S402,307,411,300.1c.67-.51,7.16-5.37,13.77-3.42,3.83,1.12,11.62-2.91,15.44,19.2" transform="translate(-133.84 -177.41)"/><path class="cls-23" d="M365.05,282c2.37,11.34,2.95,19.71,1.79,25.44-.83,4.16-1.76,5.57-2.86,11.94-1.43,8.24-2.35,13.91,0,19.94a23.86,23.86,0,0,0,7.28,9.8l25.8-13.26a48.55,48.55,0,0,0,.95-19c-3-19.67-18.71-51-22.57-53.8-3.86-.32-6.53,19.25-10.39,18.93" transform="translate(-133.84 -177.41)"/><path class="cls-22" d="M419.06,303.33a32,32,0,0,0-.59,26.78l-36.4,18.16c2.2-1.53,12.83-9.24,14.81-23.1A32.35,32.35,0,0,0,395.37,310l23.69-6.7" transform="translate(-133.84 -177.41)"/><path class="cls-24" d="M404.52,323a55.58,55.58,0,0,0-28.75,4.34,27.67,27.67,0,0,0,19.83,1.4,18.68,18.68,0,0,0,8.92-5.74" transform="translate(-133.84 -177.41)"/><path class="cls-24" d="M441.63,343.36c.1,6,1.1,18.9-1.65,29.81-4.83,19.15-11.56,21.55-12.72,37.32-.76,10.34-1.57,21.31,3.85,29.79,1.12,1.76,4.15,6,4.35,11.89a28,28,0,0,1-1.93,10.06c-22.65-.67-45-2.87-67.7-3.53-2.15-.68-12.23-3.52-19.65-12.93a13.67,13.67,0,0,1-2.71-5.07c-.58-7.64,3.59-17.37,4.29-18.76,3-5.95,5.73-24.52,6.91-60.42,30.57-5.41,56.39-12.75,87-18.16" transform="translate(-133.84 -177.41)"/><path class="cls-25" d="M423.22,362.86c-2.27,12.92-4.51,27.12-6.55,42.49-2.1,15.8-2.61,22.55.45,28.48a93,93,0,0,1,6.78,15.59c.63,1.91,1.08,3.49,1.36,4.52,2.92,4.6,6.22,7.07,8.36,6.33s2.55-4.11,2.71-5.2c1.46-9.57-6.94-13.7-9.26-25.31-.46-2.26.07-7.23,1.13-17.18,1.62-15.3,2.92-17.44,2.93-23.5s-1.31-15.13-7.91-26.22" transform="translate(-133.84 -177.41)"/><path class="cls-22" d="M397.89,321.58a21.85,21.85,0,0,1-3.46,2.32,22.24,22.24,0,0,1-8.66,2.57c-5.71,3.61-9.58,9.24-9,14.38.89,7.52,11.54,15,24.79,11.86q8.63-13.93,17.26-27.87l-21-3.26" transform="translate(-133.84 -177.41)"/><path class="cls-24" d="M425.75,325.63a66.39,66.39,0,0,0-9.27-1.82,15,15,0,0,1-9.68,12.58c-3.64,1.44-7.33,3-14.19.44-8.49-3.14-1.25-13-1.25-13s-6.13.81-8.25,1.16a48.27,48.27,0,0,0-21.38,11c-11,10.3-10.44,23.56-10.42,26.11,29.85-4.74,60.83-11.66,90.68-16.4-.05-2.14-.49-10.78-6.7-15.73-3.26-2.61-7.68-3.84-9.54-4.36" transform="translate(-133.84 -177.41)"/><path class="cls-21" d="M442,330.91c6.24,4.45,7.13,12.22,7.44,15,.66,5.75-1,10.86-4.43,21.09-3.51,10.57-5,11.07-5.61,17.07-.5,5.33.42,8-1.5,11.46-2.29,4.1-6.77,6-10.21,6.95l-11.13-15.9a63.27,63.27,0,0,1-.67-12.22c.36-8.19,2.07-9.89,4.1-23,1-6.22.85-7.66,2.09-11.22,1.61-4.63,3.46-10,8.2-11.71,5.12-1.89,10.42,1.58,11.72,2.51" transform="translate(-133.84 -177.41)"/><path class="cls-26" d="M422.4,368.06A84.33,84.33,0,0,0,417,379,83.42,83.42,0,0,0,412,396.1q2.3,7.62,4.6,15.23a20.95,20.95,0,0,0,13.72-11,74.91,74.91,0,0,0,7-20.59l-15-11.72" transform="translate(-133.84 -177.41)"/><path class="cls-21" d="M432.24,397.06a19.9,19.9,0,0,0,1-9.41c-.15-1.16-1.49-10.9-7.86-12.39-3.57-.83-6.88,1.35-8.2,2.34q2.14-6.75,4.31-13.51l17.74,12.18q-2.34,10.35-4.69,20.71l-2.34.08" transform="translate(-133.84 -177.41)"/><path class="cls-26" d="M372.78,276.51c.37,3.81.86,5.71,1.25,11.55.43,6.28.1,7.74,1.13,10.55,1.48,4,4.09,6.31,7.28,9.16,4.52,4,8.27,7.37,13.44,8,1.76.23,5.8.42,16.06-6a98.7,98.7,0,0,0,19.34-15.94q-2.4-19.79-4.78-39.55c-5.25-4.28-14.66-10.51-27.32-11.63a45.28,45.28,0,0,0-6.86-.08l-18.66,11.88a87.34,87.34,0,0,0-.88,22" transform="translate(-133.84 -177.41)"/><path class="cls-27" d="M432.72,336.51a18.77,18.77,0,0,1,7.88,6.42c6.36,9.37,1,22.37.74,23-2.14,5-4.59,6.42-5.78,12.2-.48,2.31.34,4.56-.21,9.15a25.76,25.76,0,0,1-1.06,5.47c-.6,1.72-2.39,5.79-8.2,9.25-.5.3,6.42.12,10.62-4.07,4-4,1.8-8.22,4.38-16.94,1.2-4.09.68-1.41,3.2-8.85,2.83-8.38,4.24-11.6,4.94-16.08.88-5.67,1.57-10.15,0-15.25C446.7,332.66,439.9,328,436.4,326c-1.23,3.82-2.46,6.68-3.68,10.5" transform="translate(-133.84 -177.41)"/><path class="cls-26" d="M417.38,391.66a83.88,83.88,0,0,0-8.78-8.45,145.07,145.07,0,0,0-16.15-12c-6-3.52-10.55-7.28-20.42-15.48-1.37,2.68-4.66,7.36-6,10,8.1,8.14,13.7,13.52,17.83,18.75,5.12,6.49,7.56,10.21,13.43,15.9a85.51,85.51,0,0,0,9,8c2.89,2.28,4.79,4.29,8.25,4.87a10.1,10.1,0,0,0,5.19-.58c6.46-2.34,8.52-10,8.78-11.05l-11.13-10" transform="translate(-133.84 -177.41)"/><path class="cls-28" d="M391.92,257.47a40.22,40.22,0,0,0-25.67,30c-1.25-4.54-2.52-13.54.86-24.95,1.44-4.87,6.47-19.55,21.47-25,10.81-3.9,19.74-2.19,23.17-.71,3.52.09,4.3,0,8.82,2.15,16.68,7.82,19.56,28,19.7,29.14.48,3.83,4.1,12.37,1.33,21.25-.86,2.79-2.9,5.17-3.46,9.56-.41,3.24,0,5.78.84,10.75,1.1,6.63,2.39,9.46.83,12.89a10.53,10.53,0,0,1-2.43,3.25C433.12,321,429,316,424.76,311.21q6.21-18.45,12.42-36.9l-37.26-23.53-8,6.69" transform="translate(-133.84 -177.41)"/><path class="cls-28" d="M389.65,256.51a43.15,43.15,0,0,1,21.26,11c2.57,2.45,11.21,11,12.66,25a39.9,39.9,0,0,1-4.66,22.93c1.51,2.37,5.78,8.61,9.44,7.88,3.94-.79,6.47-9.55,5.85-22.09l5-27.59a37.9,37.9,0,0,0-10.38-18.51C415,241.8,396,244.88,393.71,245.29q-2,5.61-4.06,11.22" transform="translate(-133.84 -177.41)"/><path class="cls-26" d="M363.17,348.54a16.31,16.31,0,0,1,8.95,7.36l-2.27,9-7.43-2.3c-5.06,3.89-11.45,3.07-14.12-.46-2.34-3.09-1.44-7.73.59-10.49,3.47-4.73,10.44-4.29,14.28-3.09" transform="translate(-133.84 -177.41)"/><path class="cls-29" d="M386.09,495.18c1.38,2,27.64,5,39.41-5.52,8.7-7.76,9.52-15,9.62-17.32.18-3.85.47-10.21-3.76-14.31-3.77-3.66-5.27-6.7-11.88-7.54-4.29-.54-5.45.33-10.34-.58a127.17,127.17,0,0,0-13.26-2.23c-.89-.08-16.24-2.59-27.24.55-2.27.65-5.05,3-8,6.53,12.26,13.48,13.22,26.95,25.49,40.42" transform="translate(-133.84 -177.41)"/><path class="cls-29" d="M424.37,452.69a68.85,68.85,0,0,0-13.56-4.46c-4.36-.93-6.17-.86-13.74-1.94-8.84-1.27-8.29-1.65-13.37-2.26-6.35-.76-8.85-.37-21.78-.32-3.68,0-9.15,0-15.88-.12a10.62,10.62,0,0,0-4,1.13,12.13,12.13,0,0,0-5.78,7.53L417.15,458l7.22-5.34" transform="translate(-133.84 -177.41)"/><path class="cls-30" d="M376.55,447.48c-1.21-1.25-6.6-1.56-17.33-2.13-5.61-.3-18.53-.91-30.12,2.13a15.84,15.84,0,0,0-3.64,1.38c-5.87,3.15-9.14,9.9-9.29,13.56-.51,11.69,29,32,47.95,21.59,13.68-7.56,19-29.67,12.43-36.53" transform="translate(-133.84 -177.41)"/><path class="cls-29" d="M366.53,448.45a21.23,21.23,0,0,0-8.28,2.83,20.73,20.73,0,0,0-8.5,11.48l30.75-4.26c4.58-2.84,6.16-6.85,5.08-8.54-.9-1.41-3.93-1.64-7.12-.66a27.15,27.15,0,0,0-11.93-.85" transform="translate(-133.84 -177.41)"/><path class="cls-30" d="M380.34,443.7c-6.34-.76-5.49,0-18.42,0-3.68,0-9.15,0-15.88-.13a10.62,10.62,0,0,0-4,1.13,12.13,12.13,0,0,0-5.78,7.53c26.95,1.93,13.83-6.05,40.78-4.13Z" transform="translate(-133.84 -177.41)"/></g><g class="cls-31"><rect class="cls-32" x="264.43" y="426.85" width="84.55" height="85.95" transform="translate(-379.06 191.48) rotate(-46.5)"/></g><g class="cls-2"><path class="cls-26" d="M387.34,450.74a83.41,83.41,0,0,0-19.58.26c-6.54.87-9,2-16.95,3.13-5.25.73-6.73.58-16.57,1.13-24.56,1.4-28.49,3.11-31.51,5.65A22.38,22.38,0,0,0,296,471.58l32.51,18.33a172.78,172.78,0,0,0,76.07,3.51c-2.18-21.63-11.47-28.45-17.2-42.68" transform="translate(-133.84 -177.41)"/><path class="cls-29" d="M391.36,495.68c4.88-2,5.77-5.92,6.79-11.91,2.12-12.41-7.62-22.38-10.81-25.75-2.2-2.31-7-7.29-14.81-9.16a26.5,26.5,0,0,0-3.89-.63c7.45-.5,16.09.88,23.53.38,8.25,7.91,15.3,13.93,23.54,21.84-3.81,6.36-5.48,16.87-9.29,23.23-4.31,2.13-9.65,2.13-15.06,2" transform="translate(-133.84 -177.41)"/><path class="cls-33" d="M416.72,449.79c4.9,2.76,11.52,6.09,11.79,16.21.22,7.92-1.67,10.08-9.45,15.48-5.82,4-19.08,4.53-21.27,4.32l-3.53,9.89c3.1.84,14.85,3.6,26.57-2.79,2.84-1.55,12.95-7.06,15.42-18.41.4-1.82,3.08-13.62-4.87-19.9-4.16-3.28-13.21-5-14.66-4.8" transform="translate(-133.84 -177.41)"/><path class="cls-26" d="M326.77,483.82a101.56,101.56,0,0,1,13.31,24.86c4.45,12.13,4.52,19.68,6.9,30.5A129.64,129.64,0,0,0,363.3,579c.71.85,4,5,3.14,10-1.19,6.89-9.61,12.48-15.94,9.8-3.74-1.59-6.16-5.8-6.53-10.55a289.2,289.2,0,0,1-28.49-47.07c-12.42-25.77-9-26-17.83-47.08-1.13-2.69-4-9.42-2.76-17.7a27.53,27.53,0,0,1,1.63-6l30.25,13.43" transform="translate(-133.84 -177.41)"/><path class="cls-21" d="M377.05,329.07a30.87,30.87,0,0,0-5.27,7.78C369.7,341,366.34,349.57,363,361l-15.65-3.68A145.92,145.92,0,0,0,360.39,337a19.2,19.2,0,0,1,5.11-6.7c3.91-3.14,9.82-4.42,16.34-5.23-.63.52-3.81,2.94-4.79,4" transform="translate(-133.84 -177.41)"/><path class="cls-34" d="M360.6,575.09c.35.74,4.41,5.17,1.89,10.09-3.07,6-10.52,6.35-11.68,6.41a15.83,15.83,0,0,1-7.15-1.38,40.3,40.3,0,0,1-.38,16.32c-4,16.61-6.28,21.59-6.28,21.59-.41.9-1.05,2.23-.5,3.39,1.52,3.19,11.59,3.9,17.95-.51s3-10,11.17-20.83c4-5.26,6.75-6.53,8.67-12.06.75-2.17,2.24-6.65.75-11.67-2.52-8.49-13.28-11-14.44-11.35" transform="translate(-133.84 -177.41)"/><path class="cls-34" d="M256.89,574.42a31.76,31.76,0,0,1,3.46,8.8c.78,4.26.15,5.46-.71,7.53-1.82,4.35-6,4.45-11.55,8.37-4.88,3.45-3.43,4.66-10.63,12.55-4.84,5.31-13.24,14.5-19.67,12.47a3.92,3.92,0,0,1-1.92-1c-1.46-1.57-.86-4.39-.42-6,2.05-7.59,8.46-18.56,9.79-20.92a60.88,60.88,0,0,0,6.53-17.74c1.47,5,3.92,6,4.52,6.19,4.24,1.47,12.71-3.48,17.08-13.49a6.79,6.79,0,0,1,3.52,3.27" transform="translate(-133.84 -177.41)"/><path class="cls-12" d="M442.64,488.93a94.83,94.83,0,0,0-33.48-6.35,123.35,123.35,0,0,0-36,5.58c-4.31,1.37-16.69,2.23-18.94,11.24-.87,3.49,5.43,9.08,3.48,9.24,27,3.46,36.94-6.63,63.94-3.17l21-16.54" transform="translate(-133.84 -177.41)"/><path class="cls-28" d="M376.11,263c-.81,2.85-4,19.08-4.65,24.8-1,8.1-1.35,8.14.22,19.56,1.68,12.17,2.45,18.34-1.26,22.8-3.06,3.69-7.89,4.69-11.13,5a115,115,0,0,1,1.9-14.48c1.54-7.92,2.7-9.51,3.35-15.56.81-7.7-.19-20.15.43-26.41.43-4.26,6.93-8.6,11.14-15.69" transform="translate(-133.84 -177.41)"/><path class="cls-35" d="M339.88,383.44h34.26a3.6,3.6,0,0,0,3.62-4.49l-9.67-49.75a5.71,5.71,0,0,0-5.36-4.49H328.46a3.6,3.6,0,0,0-3.62,4.49L334.51,379a5.73,5.73,0,0,0,5.37,4.49" transform="translate(-133.84 -177.41)"/><path class="cls-36" d="M337.44,385.45h34.27a3.59,3.59,0,0,0,3.61-4.49l-9.67-49.74a5.72,5.72,0,0,0-5.36-4.5H326a3.6,3.6,0,0,0-3.62,4.5L332.08,381a5.71,5.71,0,0,0,5.36,4.49" transform="translate(-133.84 -177.41)"/><path class="cls-26" d="M366.69,340.3c.83,2,2.71,3.28,1.32,10.65a14.4,14.4,0,0,1-.44,1.82c-1.1,3.27-5.91,5.42-9.48,7.68a61.32,61.32,0,0,0-7.47,5.58l-6.52-11.29a12.48,12.48,0,0,1,2.76-9.61,10.52,10.52,0,0,1,5.9-3.64,19.72,19.72,0,0,1,4,.09,15.24,15.24,0,0,1,3.73-2.79c.31-.17,3.15-1.53,5-.18a3.7,3.7,0,0,1,1.19,1.69" transform="translate(-133.84 -177.41)"/><path class="cls-26" d="M347.26,345.38c-1.1,2.82-3.39,6.61-5.36,11.16a194.56,194.56,0,0,1-8.95,17.8c-6.07,11-6.56,10.24-9.38,18a31.72,31.72,0,0,0-.83,16.57,5.18,5.18,0,0,0,1,2.05c2.31,2.85,8,3.29,11.46.9a12.75,12.75,0,0,0,1.09-.9c1.41-1.22,3.81-3.32,4.86-5.66.93-2.09.73-4.45.83-5.58.76-8.12,2.73-21.57,8-33.06a19.67,19.67,0,0,1,3.34-4q-3-8.61-6.1-17.23" transform="translate(-133.84 -177.41)"/><path class="cls-28" d="M422.17,307a26,26,0,0,0-3.16,8c-.58,2.73-1.33,6.25.14,10a17.65,17.65,0,0,0,3.23,4.89c3.1,3.8,4.69,4.07,5.63,5.91s1.12,5.35-3,11.72a26.41,26.41,0,0,0,11.63-9.6c6.81-10.35,3.3-21.81,2.77-23.45L422.17,307" transform="translate(-133.84 -177.41)"/><path class="cls-26" d="M417,379A84,84,0,0,0,412,396.1q2.3,7.62,4.6,15.23a20.95,20.95,0,0,0,13.72-11c3.93-7.21,2.89-7.29,1.84-12.95" transform="translate(-133.84 -177.41)"/><path class="cls-23" d="M400.51,242.53a20.85,20.85,0,0,1,9.88-4.75,22,22,0,0,1,14.12,2.57c9.62,5,13.27,14.71,15.79,21.44,2,5.23,3.88,10.35,3.08,16.94-.84,6.94-3.76,7.87-4.88,15.15s1.24,10.09,1.93,18a50.58,50.58,0,0,1-3.47,22.6,56.56,56.56,0,0,0-1.28-14.38c-1.8-8.16-4.2-10.28-5.39-16.56-1.53-8.07,1.51-9.43,2.18-20.67.5-8.39,1.13-18.9-5.39-27.86A32.39,32.39,0,0,0,410,243.43a30.4,30.4,0,0,0-9.49-.9" transform="translate(-133.84 -177.41)"/><path class="cls-37" d="M250.65,572.53a21.66,21.66,0,0,1,.61,13c-.54,1.85-1.33,3.52-4.51,8.29a125.61,125.61,0,0,1-9,12.43,122.85,122.85,0,0,1-16.45,16.2,10,10,0,0,0,6.46,1c6.82-1.49,6.46-10.74,16.32-18.65,2.54-2,3-1.78,7.84-5.45,5.51-4.19,8.29-6.34,9.46-9.17,2.46-5.92-.5-12.05-1.09-13.28a19.34,19.34,0,0,0-7.56-8.16l-2.07,3.78" transform="translate(-133.84 -177.41)"/></g></g></g></g></svg>