<svg xmlns="http://www.w3.org/2000/svg" width="400" height="401" fill="none" viewBox="0 0 400 401"><g clip-path="url(#clip0)"><path fill="#5EDA12" d="M143.431 56.7311C174.673 25.4892 225.327 25.4892 256.569 56.7311L343.431 143.594C374.673 174.836 374.673 225.489 343.431 256.731L256.569 343.594C225.327 374.836 174.673 374.836 143.431 343.594L56.5686 256.731C25.3266 225.489 25.3267 174.836 56.5686 143.594L143.431 56.7311Z"/><path fill="#fff" d="M232.567 225.899C264.664 225.899 290.726 200.055 291.078 168.041L231.909 225.895C232.128 225.898 232.347 225.899 232.567 225.899Z"/><path fill="#fff" d="M269.375 147.001C237.277 147.001 211.216 172.844 210.863 204.858L270.032 147.005C269.813 147.002 269.594 147.001 269.375 147.001Z"/><path fill="#fff" d="M291.078 147H270.039V168.039H291.078V147Z"/><rect width="21.039" height="21.039" fill="#fff" transform="matrix(-1 0 0 1 231.911 204.858)"/><path fill="#fff" d="M270.039 147L291.078 168.039L231.906 225.897L210.866 204.858L270.039 147Z"/><path stroke="#fff" stroke-width="12.486" d="M217.111 220.439V232.054C217.111 244.385 210.587 255.797 199.959 262.052L197.499 263.5"/><path fill="#fff" d="M173.93 228.095C142.16 228.095 116.365 202.515 116.016 170.827L174.581 228.091C174.364 228.094 174.148 228.095 173.93 228.095Z"/><path fill="#fff" d="M137.468 150.005C169.238 150.005 195.034 175.585 195.383 207.273L136.817 150.009C137.034 150.007 137.251 150.005 137.468 150.005Z"/><path fill="#fff" d="M116.001 150.004H136.825V170.828H116.001V150.004Z"/><rect width="20.825" height="20.825" x="174.574" y="207.273" fill="#fff"/><path fill="#fff" d="M136.825 150.004L116 170.829L174.569 228.096L195.393 207.272L136.825 150.004Z"/><path fill="#5EDA12" fill-rule="evenodd" d="M174.801 209.85C172.941 211.709 169.927 211.709 168.067 209.85L137.594 179.377C135.735 177.517 135.735 174.503 137.594 172.643C139.454 170.784 142.468 170.784 144.328 172.643L174.801 203.116C176.66 204.976 176.66 207.99 174.801 209.85Z" clip-rule="evenodd"/><path fill="#5EDA12" fill-rule="evenodd" d="M232.562 206.849C234.421 208.709 237.436 208.709 239.295 206.849L269.768 176.377C271.628 174.517 271.628 171.502 269.768 169.643C267.909 167.783 264.894 167.783 263.035 169.643L232.562 200.116C230.702 201.975 230.702 204.99 232.562 206.849Z" clip-rule="evenodd"/><path fill="#fff" fill-rule="evenodd" d="M183 280.573C188.287 280.573 192.573 276.287 192.573 271C192.573 265.713 188.287 261.427 183 261.427C177.713 261.427 173.427 265.713 173.427 271C173.427 276.287 177.713 280.573 183 280.573ZM183 292C194.598 292 204 282.598 204 271C204 259.402 194.598 250 183 250C171.402 250 162 259.402 162 271C162 282.598 171.402 292 183 292Z" clip-rule="evenodd"/><path fill="#fff" d="M210 239C204.5 251 195.4 250 183 250L207 263L210 239Z"/><path fill="#fff" d="M215 257C212.167 260.5 206 268 203 277.5L197 258L215 257Z"/></g><defs><clipPath id="clip0"><rect width="400" height="400" fill="#fff" transform="translate(0 0.162598)"/></clipPath></defs></svg>
