<svg width="200" height="200" viewBox="0 0 200 200" fill="none" xmlns="http://www.w3.org/2000/svg">
<path d="M195.653 110.51L110.51 195.653C104.714 201.449 95.2863 201.449 89.4897 195.653L4.34736 110.51C-1.44912 104.714 -1.44912 95.2864 4.34736 89.4898L89.4897 4.34736C95.2863 -1.44913 104.714 -1.44913 110.51 4.34736L195.653 89.4898C201.449 95.2864 201.449 104.714 195.653 110.51Z" fill="#A1D900"/>
<path d="M90.4285 142.393C92.2085 131.972 94.584 109.731 89.8434 104.133" stroke="white" stroke-width="4"/>
<path d="M89.6772 102.981L89.6709 103.992L88.644 104.094C81.6538 104.786 71.4652 103.885 63.7475 98.774C59.8635 96.2017 56.6098 92.5638 54.7364 87.5576C52.8666 82.5604 52.4012 76.2785 53.9521 68.4531L54.1435 67.487L55.146 67.5441C68.6829 68.3152 77.4646 71.3695 82.7903 77.3192C88.1023 83.2537 89.7406 91.8119 89.6772 102.981Z" fill="white" stroke="white" stroke-width="4"/>
<path d="M85.7766 100.157C82.7492 87.9418 70.6806 75.0898 58.9143 71.8226" stroke="#A1D900" stroke-width="4"/>
<path d="M92.1268 142.395C94.44 131.776 100.821 109.612 107.839 105.906" stroke="white" stroke-width="4"/>
<path d="M107.585 104.406L107.222 105.362L108.149 105.815C114.251 108.799 123.819 111.407 132.624 109.344C137.055 108.306 141.29 106.082 144.751 102.145C148.207 98.2147 150.838 92.6395 152.179 84.9808L152.35 84.0028L151.391 83.709C138.835 79.8565 129.787 79.6836 122.857 83.3186C115.945 86.9446 111.45 94.2023 107.585 104.406Z" fill="white" stroke="white" stroke-width="4"/>
<path d="M111.097 103.476C118.727 93.0582 135.349 85.174 147.988 86.1842" stroke="#A1D900" stroke-width="4"/>
</svg>
