<?xml version="1.0" encoding="utf-8"?>
<!-- Generator: Adobe Illustrator 16.0.4, SVG Export Plug-In . SVG Version: 6.00 Build 0)  -->
<!DOCTYPE svg PUBLIC "-//W3C//DTD SVG 1.1//EN" "http://www.w3.org/Graphics/SVG/1.1/DTD/svg11.dtd">
<svg version="1.1" id="Layer_1" xmlns="http://www.w3.org/2000/svg" xmlns:xlink="http://www.w3.org/1999/xlink" x="0px" y="0px"
	 width="200px" height="200px" viewBox="0 0 200 200" enable-background="new 0 0 200 200" xml:space="preserve">
<path fill="#272134" d="M195.652,110.51l-85.143,85.143c-5.796,5.797-15.224,5.797-21.02,0L4.347,110.51
	c-5.796-5.796-5.796-15.223,0-21.02L89.49,4.347c5.796-5.796,15.224-5.796,21.02,0l85.143,85.143
	C201.449,95.287,201.449,104.714,195.652,110.51z"/>
<path fill="none" stroke="#FFFFFF" stroke-width="4" d="M90.429,142.393c1.78-10.42,4.155-32.662-0.585-38.26"/>
<path fill="#FFFFFF" stroke="#FFFFFF" stroke-width="4" d="M89.677,102.98l-0.006,1.012l-1.027,0.102
	c-6.99,0.692-17.179-0.209-24.896-5.32c-3.884-2.572-7.138-6.21-9.011-11.216c-1.87-4.997-2.335-11.279-0.784-19.104l0.191-0.966
	l1.002,0.057c13.537,0.771,22.319,3.826,27.645,9.775C88.103,83.254,89.741,91.812,89.677,102.98z"/>
<path fill="none" stroke="#272134" stroke-width="4" d="M85.776,100.157C82.749,87.942,70.681,75.09,58.914,71.823"/>
<path fill="none" stroke="#FFFFFF" stroke-width="4" d="M92.127,142.395c2.313-10.619,8.693-32.783,15.712-36.488"/>
<path fill="#FFFFFF" stroke="#FFFFFF" stroke-width="4" d="M107.585,104.406l-0.362,0.955l0.926,0.453
	c6.103,2.984,15.67,5.593,24.476,3.529c4.431-1.037,8.666-3.262,12.127-7.199c3.456-3.93,6.087-9.505,7.429-17.164l0.17-0.978
	l-0.959-0.294c-12.556-3.853-21.604-4.025-28.533-0.391C115.945,86.945,111.45,94.202,107.585,104.406z"/>
<path fill="none" stroke="#272134" stroke-width="4" d="M111.098,103.477c7.629-10.418,24.252-18.303,36.891-17.292"/>
</svg>
