<?xml version="1.0" encoding="utf-8"?><!-- Generator: Adobe Illustrator 15.0.0, SVG Export Plug-In . SVG Version: 6.00 Build 0)  --><!DOCTYPE svg PUBLIC "-//W3C//DTD SVG 1.1//EN" "http://www.w3.org/Graphics/SVG/1.1/DTD/svg11.dtd"><svg xmlns="http://www.w3.org/2000/svg" xmlns:xlink="http://www.w3.org/1999/xlink" version="1.1" x="0px" y="0px" width="500" height="500" viewBox="0 0 48 48" enable-background="new 0 0 48 48" xml:space="preserve">
<g>
	<path fill="#795548" d="M19,36c0,3.867,3,7,5,7s5-3.133,5-7c0-3.866-1-7-5-7S19,32.134,19,36z"/>
	<path fill="#795548" d="M21,21c0,1.656,1,10,3,10s3-8.344,3-10s-1.344-3-3-3C22.343,18,21,19.344,21,21z"/>
	<path fill="#795548" d="M29,13c0,5-3,3-5,3s-5,2-5-3c0-2.762,2-7,5-7S29,10.238,29,13z"/>
</g>
<g>
	<path fill="#5D4037" d="M14.345,18.803l6.693,2.975C21.014,21.453,21,21.183,21,21c0-0.465,0.115-0.9,0.304-1.292l-5.648-2.511   l-4.841-6.778c-0.321-0.45-0.947-0.554-1.395-0.233c-0.45,0.321-0.554,0.946-0.233,1.395L14.345,18.803z"/>
	<path fill="#5D4037" d="M27,21c0,0.183-0.014,0.453-0.038,0.778l6.693-2.975l5.158-7.222c0.321-0.449,0.217-1.074-0.232-1.395   c-0.448-0.32-1.073-0.217-1.395,0.233l-4.842,6.778l-5.648,2.511C26.885,20.1,27,20.535,27,21z"/>
	<path fill="#5D4037" d="M21.625,26c-0.134-0.68-0.248-1.361-0.338-2h-6.051l-5.789-2.895c-0.496-0.247-1.095-0.047-1.342,0.447   s-0.047,1.095,0.447,1.342L14.764,26H21.625z"/>
	<path fill="#5D4037" d="M39.895,21.553c-0.247-0.495-0.848-0.695-1.342-0.447L32.764,24h-6.051c-0.091,0.639-0.205,1.32-0.339,2   h6.862l6.211-3.105C39.941,22.647,40.142,22.047,39.895,21.553z"/>
	<path fill="#5D4037" d="M22.488,29.186c-0.188-0.483-0.358-1.037-0.51-1.623l-8.679,2.604l-4.193,8.387   c-0.247,0.494-0.047,1.095,0.447,1.342C9.696,39.966,9.849,40,9.999,40c0.367,0,0.72-0.202,0.896-0.553l3.807-7.613l6.277-1.884   C21.4,29.613,21.889,29.343,22.488,29.186z"/>
	<path fill="#5D4037" d="M34.701,30.166l-8.68-2.604c-0.152,0.586-0.322,1.14-0.51,1.623c0.6,0.157,1.088,0.428,1.51,0.765   l6.277,1.884l3.807,7.613C37.281,39.798,37.634,40,38.001,40c0.15,0,0.303-0.034,0.446-0.105c0.494-0.247,0.694-0.848,0.447-1.342   L34.701,30.166z"/>
	<polyline fill="none" stroke="#5D4037" stroke-width="2" stroke-linecap="round" points="26,9 32,9 36,5  "/>
	<polyline fill="none" stroke="#5D4037" stroke-width="2" stroke-linecap="round" points="22,9 16,9 12,5  "/>
</g>
<g>
	<path fill="#4E342E" d="M20.691,30.168C21.677,30.698,22.803,31,24,31s2.323-0.302,3.309-0.832C26.549,29.432,25.48,29,24,29   C22.519,29,21.451,29.432,20.691,30.168z"/>
	<path fill="#4E342E" d="M24,35c1.689,0,3.361-0.408,4.87-1.155c-0.097-0.72-0.255-1.386-0.487-1.983l-0.127,0.068   C26.955,32.63,25.482,33,24,33c-1.483,0-2.955-0.37-4.256-1.07l-0.127-0.068c-0.232,0.598-0.391,1.264-0.486,1.982   C20.64,34.592,22.311,35,24,35z"/>
	<path fill="#4E342E" d="M24,37c-1.696,0-3.403-0.371-5-1.041c0,0.014,0,0.027,0,0.041c0,0.771,0.123,1.511,0.33,2.205   C20.868,38.719,22.459,39,24,39c1.539,0,3.131-0.281,4.67-0.795C28.877,37.512,29,36.771,29,36c0-0.014,0-0.026,0-0.04   C27.403,36.629,25.696,37,24,37z"/>
	<path fill="#4E342E" d="M28.174,39.471c-0.195,0.398-0.418,0.772-0.66,1.117C26.33,40.854,25.154,41,24,41s-2.33-0.146-3.513-0.411   C21.523,42.063,22.909,43,24,43C25.346,43,27.142,41.578,28.174,39.471z"/>
	<path fill="#4E342E" d="M24,18c-1.449,0-2.658,1.027-2.938,2.394c0.01,0,0.021,0.001,0.03,0.001c0.668,0,1.31-0.127,1.877-0.238   C23.356,20.079,23.757,20,24,20s0.644,0.079,1.031,0.156c0.566,0.111,1.209,0.238,1.877,0.238c0.01,0,0.021-0.001,0.03-0.001   C26.658,19.027,25.449,18,24,18z"/>
	<path fill="#4E342E" d="M24,16c-0.313,0-0.653,0.051-1,0.114V19h2v-2.886C24.653,16.051,24.313,16,24,16z"/>
	<path fill="#4E342E" d="M26.059,5.918c0.048,0.282,0.065,0.567,0.067,0.852c0.438,0.331,0.834,0.75,1.183,1.228L28,7.994   c-0.095-0.499-0.234-0.889-0.402-1.309c-0.169-0.407-0.375-0.799-0.62-1.163C26.494,4.797,25.783,4.193,25,4   C25.632,4.505,25.938,5.215,26.059,5.918z"/>
	<path fill="#4E342E" d="M21.875,6.77c0.001-0.285,0.018-0.569,0.066-0.852C22.062,5.215,22.368,4.505,23,4   c-0.783,0.193-1.494,0.797-1.978,1.522c-0.246,0.364-0.451,0.756-0.62,1.163c-0.168,0.42-0.308,0.81-0.402,1.309l0.691,0.004   C21.04,7.52,21.437,7.101,21.875,6.77z"/>
</g>
<g>
	<circle cx="21" cy="12" r="1"/>
	<circle cx="27" cy="12" r="1"/>
</g>
</svg>