<?xml version="1.0" encoding="utf-8"?><!-- Generator: Adobe Illustrator 15.0.0, SVG Export Plug-In . SVG Version: 6.00 Build 0)  --><!DOCTYPE svg PUBLIC "-//W3C//DTD SVG 1.1//EN" "http://www.w3.org/Graphics/SVG/1.1/DTD/svg11.dtd"><svg xmlns="http://www.w3.org/2000/svg" xmlns:xlink="http://www.w3.org/1999/xlink" version="1.1" x="0px" y="0px" width="500" height="500" viewBox="0 0 48 48" enable-background="new 0 0 48 48" xml:space="preserve">
<g>
	<path fill="#795548" d="M17,11c0-2-6-6-10-3c-2.885,2.163,0,11,0,11L17,11z"/>
	<path fill="#795548" d="M31,11c0-2,6-6,10-3c2.885,2.163,0,11,0,11L31,11z"/>
	<path fill="#795548" d="M43,25c0,3-6,18-19,18S5,28,5,25C7,13,17,6,24,11C31,6,41,13,43,25z"/>
</g>
<g>
	<path fill="#4E342E" d="M41.074,18.763c0.341-1.121,1.747-6.056,0.978-9.001c-2.503-0.846-5.345,0.261-7.028,1.624   C37.415,13.01,39.56,15.547,41.074,18.763z"/>
	<path fill="#4E342E" d="M12.977,11.386c-1.684-1.363-4.526-2.47-7.029-1.624c-0.769,2.946,0.637,7.88,0.979,9.001   C8.44,15.547,10.585,13.01,12.977,11.386z"/>
</g>
<g>
	<path fill="#BCAAA4" d="M18.5,20c-1.93,0-3.5,1.57-3.5,3.5s1.57,3.5,3.5,3.5s3.5-1.57,3.5-3.5S20.43,20,18.5,20L18.5,20z"/>
	<path fill="#BCAAA4" d="M29.5,20c-1.93,0-3.5,1.57-3.5,3.5s1.57,3.5,3.5,3.5s3.5-1.57,3.5-3.5S31.43,20,29.5,20L29.5,20z"/>
	<path fill="#BCAAA4" d="M30,20H18c1,0,2,1.447,2,2l-2,12c0,2,1,3,2,3h3v-2h2v2h3c1,0,2-1,2-3l-2-12C28,21.447,29,20,30,20z"/>
</g>
<g>
	<path fill="#3E2723" d="M28,37h-8c-0.206,0-0.41-0.053-0.607-0.138C20.151,38.118,21.929,39,24,39s3.849-0.882,4.607-2.138   C28.41,36.947,28.206,37,28,37z"/>
	<path fill="#3E2723" d="M27,34c0,0.553-1.447,2-2,2h-2c-0.552,0-2-1.447-2-2v-2c0-0.553,0.448-1,1-1h4c0.553,0,1,0.447,1,1V34z"/>
</g>
<g>
	<path fill="#212121" d="M10.316,13.689c0.833-0.896,1.725-1.667,2.656-2.3c-0.851-0.688-1.993-1.311-3.246-1.649   C9.278,10.191,9,10.813,9,11.5C9,12.45,9.536,13.266,10.316,13.689z"/>
	<path fill="#212121" d="M37.685,13.689C38.464,13.266,39,12.45,39,11.5c0-0.688-0.278-1.309-0.726-1.761   c-1.254,0.339-2.396,0.961-3.247,1.649C35.959,12.021,36.851,12.792,37.685,13.689z"/>
</g>
<g>
	<circle fill="#212121" cx="18.5" cy="23.5" r="1.5"/>
	<circle fill="#212121" cx="29.5" cy="23.5" r="1.5"/>
</g>
</svg>