<?xml version="1.0" encoding="utf-8"?><!-- Generator: Adobe Illustrator 19.1.1, SVG Export Plug-In . SVG Version: 6.00 Build 0)  --><svg xmlns="http://www.w3.org/2000/svg" xmlns:xlink="http://www.w3.org/1999/xlink" version="1.1" x="0px" y="0px" viewBox="0 0 48 48" enable-background="new 0 0 48 48" xml:space="preserve" width="500" height="500">
<path fill="#3E2723" d="M33,10c0,0,0.4-3,5-3s-2,8-2,8L33,10z M15,10c0,0-0.4-3-5-3s2,8,2,8L15,10z"/>
<path fill="#6D4C41" d="M38,7c1.7,0,3,1.3,3,3c0,2.3-3.3,5-5,5c-1.7,0-1-3.3-1-5S36.3,7,38,7z M10,7c-1.7,0-3,1.3-3,3  c0,2.3,3.3,5,5,5s1-3.3,1-5S11.7,7,10,7z"/>
<path fill="#E65100" d="M39,21C35.8,8.6,31.6,6.1,28,6c-2.3,0-4,1-4,1c0,0-1.7-1-4-1c-3.6,0.1-7.8,2.6-11,15c-2,5.1-3.1,3.7-3,6  c0,0-0.5,15,18,15c0,0,0,0,0,0c0,0,0,0,0,0s0,0,0,0c0,0,0,0,0,0c18.5,0,18-15,18-15C42.1,24.7,41,26.1,39,21z"/>
<path d="M31.5,14c0.8,0,1.5,0.7,1.5,1.5c0,0.8-0.7,1.5-1.5,1.5c-0.8,0-1.5-0.7-1.5-1.5C30,14.7,30.7,14,31.5,14z M16.5,14  c-0.8,0-1.5,0.7-1.5,1.5c0,0.8,0.7,1.5,1.5,1.5c0.8,0,1.5-0.7,1.5-1.5C18,14.7,17.3,14,16.5,14z"/>
<path fill="#FFB74D" d="M24,17c-3.3,0-7.1,2.9-7,6s0.3,5.3,1,8c1.4,5.6,2.7,5,6,5s4.9,0,6-5c0.6-2.7,0.9-4.9,1-8S27.3,17,24,17z"/>
<path fill="#3E2723" d="M29,34c0,1.7-1.9,4-5,4s-5-2.3-5-4c1,0,4.4,0,5-3C24.7,34,27.8,34,29,34z"/>
<polygon fill="#795548" points="23,23 24,31 25,23 "/>
<path fill="#6D4C41" d="M28,22.2c0,0.5-0.3,0.9-0.7,1.1C26.6,23.7,25.5,24,24,24s-2.6-0.3-3.3-0.6c-0.5-0.2-0.7-0.6-0.7-1.1v-3.4  c0-0.5,0.3-1,0.8-1.2C21.7,17.4,23,17,24,17c1,0,2.3,0.4,3.2,0.7c0.5,0.2,0.8,0.6,0.8,1.2V22.2z"/>
<path fill="#3E2723" d="M28,22.2c0,0-2-1.2-2-2.2s2-1.1,2-1.1V22.2z M20,22.2c0,0,2-1.2,2-2.2s-2-1.1-2-1.1V22.2z"/>
<path fill="#FFF8E1" d="M24,31L24,31L24,31c-0.4,1.8-1.8,2.5-3,2.8V40h3h3v-6.2C25.8,33.5,24.4,32.8,24,31z"/>
<polygon fill="#D7CCC8" points="23,40 24,31 25,40 "/>
</svg>