<?xml version="1.0" encoding="utf-8"?><!-- Generator: Adobe Illustrator 15.0.0, SVG Export Plug-In . SVG Version: 6.00 Build 0)  --><!DOCTYPE svg PUBLIC "-//W3C//DTD SVG 1.1//EN" "http://www.w3.org/Graphics/SVG/1.1/DTD/svg11.dtd"><svg xmlns="http://www.w3.org/2000/svg" xmlns:xlink="http://www.w3.org/1999/xlink" version="1.1" x="0px" y="0px" width="500" height="500" viewBox="0 0 48 48" enable-background="new 0 0 48 48" xml:space="preserve">
<path fill="#42A5F5" d="M29.44,21.011L29.451,21c0,0-6.745-13.732-9.691-14.883c-1.862-0.728-3.477,6.157-0.842,10.407  C21.154,20.13,28,22.313,28,22.313l0.015-0.014c0.066,0.049,0.127,0.103,0.207,0.134c0.515,0.2,1.094-0.054,1.295-0.567  C29.631,21.572,29.586,21.265,29.44,21.011z"/>
<g>
	<path fill="#5D4037" d="M29.506,31.901c0.004-0.009,0.006-0.017,0.009-0.024c0.079-0.193,0.149-0.39,0.209-0.591   c0.004-0.013,0.007-0.025,0.01-0.038C29.904,30.668,30,30.053,30,29.416c0-2.709-1.658-5.029-4.014-6.006h-0.001   c-3.577-2.237-6.358-0.247-7.979,2.541c-0.195,0.311-0.37,0.635-0.512,0.977l-0.001,0.003c-3.91,8.487,1.673,14.153,2.507,15.069   c1.386-5.14,6.918-4.307,9.345-9.756c0.055-0.113,0.11-0.225,0.159-0.34L29.506,31.901z"/>
	<polyline fill="none" stroke="#5D4037" stroke-width="2" stroke-linecap="round" points="35,13.002 36,11.002 41,10.002  "/>
	<polyline fill="none" stroke="#5D4037" stroke-width="2" stroke-linecap="round" points="33,12.002 32,9.002 38,7.002  "/>
</g>
<g>
	<path fill="#FFC107" d="M26.801,35.55c0.191-0.156,0.378-0.323,0.562-0.497c-2.128,0.484-4.286,0.527-6.342,0.195   c-1.132-0.182-2.235-0.465-3.298-0.834c-0.517-0.18-1.052-0.391-1.557-0.617c0.105,1.325,0.413,2.516,0.822,3.551   c0.06,0.005,0.119,0.011,0.18,0.015c1.287,0.071,2.568,0.036,3.827-0.114C23.042,37.006,25.019,36.427,26.801,35.55z"/>
	<path fill="#FFC107" d="M18.729,24.875c0.433,0.518,0.879,1.02,1.355,1.488c1.076,1.057,2.268,1.992,3.559,2.742   c1.289,0.75,2.68,1.309,4.102,1.615c0.68,0.148,1.364,0.234,2.046,0.269c0.042-0.167,0.083-0.333,0.112-0.505   c-1.946-0.583-3.685-1.634-5.068-2.984c-0.941-0.906-1.746-1.936-2.424-3.031c-0.338-0.549-0.646-1.113-0.918-1.688   c-0.009-0.019-0.018-0.038-0.025-0.056C20.399,23.116,19.479,23.896,18.729,24.875z"/>
	<path fill="#FFC107" d="M22.817,31.293c-1.238-0.623-2.407-1.373-3.505-2.202c-0.69-0.523-1.379-1.103-2.007-1.69   c-0.53,1.248-0.859,2.434-1.027,3.548c0.502,0.257,1.007,0.502,1.527,0.737c1.403,0.621,2.851,1.132,4.334,1.489   c2.128,0.521,4.374,0.69,6.491,0.356c0.111-0.171,0.222-0.346,0.326-0.531C26.783,32.905,24.697,32.241,22.817,31.293z"/>
</g>
<path fill="#795548" d="M32.768,25.766c-2.08,2.081-4.7,1.328-6.78-0.753c-2.081-2.081-2.833-4.7-0.754-6.778  c2.08-2.081,4.7-1.328,6.779,0.753C34.094,21.068,34.847,23.688,32.768,25.766z"/>
<path fill="#8D6E63" d="M37.827,18.89C36.948,20.939,33,20,30.386,18.78c-1.97-0.919-2.858-3.317-1.98-5.368  c0.879-2.051,3.06-2.605,5.162-2.06C36.066,12.002,38.706,16.839,37.827,18.89z"/>
<path fill="#4E342E" d="M32.578,19.611c-0.769-0.229-1.524-0.52-2.192-0.831c-0.8-0.373-1.409-0.996-1.807-1.735  c-0.7-0.104-2.235,0.018-2.923,0.861c0.551,1.398,0.802,3.537,2.281,4.094c2.906,1.094,4.781,0.656,5.922-0.043  C33.647,21.152,33.197,20.357,32.578,19.611z"/>
<path fill="#3E2723" d="M35.423,17.295c-0.457,0.745-2.017,0.477-3.481-0.6s-2.282-2.553-1.825-3.299  c0.456-0.744,2.017-0.476,3.481,0.601S35.88,16.549,35.423,17.295z"/>
<path fill="#90CAF9" d="M28.618,20.232l0.007-0.014C28.625,20.219,12.162,6,9,6c-2,0-1,7,3,10c3.395,2.546,15.75,5.969,15.75,5.969  l0.009-0.018C27.838,21.972,27.914,22,28,22c0.553,0,1-0.447,1-1C29,20.686,28.846,20.416,28.618,20.232z"/>
</svg>