<?xml version="1.0" encoding="utf-8"?><!-- Generator: Adobe Illustrator 15.0.0, SVG Export Plug-In . SVG Version: 6.00 Build 0)  --><!DOCTYPE svg PUBLIC "-//W3C//DTD SVG 1.1//EN" "http://www.w3.org/Graphics/SVG/1.1/DTD/svg11.dtd"><svg xmlns="http://www.w3.org/2000/svg" xmlns:xlink="http://www.w3.org/1999/xlink" version="1.1" x="0px" y="0px" width="500" height="500" viewBox="0 0 48 48" enable-background="new 0 0 48 48" xml:space="preserve">
<g>
	
		<line fill="none" stroke="#5D4037" stroke-width="2" stroke-linecap="round" stroke-linejoin="round" x1="21.528" y1="30.063" x2="22.528" y2="38"/>
	<path fill="none" stroke="#5D4037" stroke-width="2" stroke-linecap="round" stroke-linejoin="round" d="M20.466,38h2c0,0,3,0,5,1"/>
</g>
<g>
	
		<line fill="none" stroke="#795548" stroke-width="2" stroke-linecap="round" stroke-linejoin="round" x1="19.528" y1="31" x2="20.528" y2="38.938"/>
	<path fill="none" stroke="#795548" stroke-width="2" stroke-linecap="round" stroke-linejoin="round" d="M18.466,39h2c0,0,3,0,5,1"/>
</g>
<g>
	<path fill="#FFC107" d="M16.495,22c0,0,7.035,0.035,10.035-2.965c1.951-1.951,1.953-5.117,0-7.07c-1.952-1.953-5.117-1.953-7.07,0   C15.96,15.465,16.495,22,16.495,22z"/>
	<path fill="#FFC107" d="M29.336,31.029C25.415,34.949,12.466,36,12.466,36s1.051-11.949,5.471-16.369   c3.148-3.148,8.252-3.148,11.399,0C32.484,22.777,32.484,27.881,29.336,31.029z"/>
</g>
<polygon fill="#455A64" points="27.829,14.043 30.995,10.5 26.649,12.11 25.246,14.918 27.925,16.221 31.995,14.5 "/>
<path fill="#795548" d="M22.124,12.68c0.084,0.186,0.133,0.39,0.133,0.605c0,0.814-0.661,1.477-1.477,1.477  c-0.216,0-0.42-0.049-0.605-0.133c0.232,0.512,0.745,0.871,1.344,0.871c0.815,0,1.477-0.662,1.477-1.477  C22.995,13.425,22.637,12.912,22.124,12.68z"/>
<path fill="#FF1744" d="M39.582,5c-0.642,0-1.685-0.038-1.688,0.551v5.699c0,0-0.244-0.146-0.815-0.08  c-1.152,0.135-2.081,1.037-2.084,1.957c-0.005,0.928,0.926,1.495,2.074,1.339c1.148-0.161,2.005-1.011,2.011-1.939  c0,0,0-4.296,0-4.704c0-0.41,0.32-0.586,0.492-0.586c3.66,0,3.367,2.053,3.367,2.053S43.733,5,39.582,5z"/>
<path fill="#90A4AE" d="M23.263,28.266c-1.977,1.977-6.243,4.07-11.757,5.245c1.646-6.354,3.124-9.925,5.1-11.901  c1.977-1.977,5.069-2.088,6.907-0.249C25.351,23.197,25.238,26.289,23.263,28.266z"/>
<g>
	<path fill="#607D8B" d="M12.466,36c0,0,0.045-0.491,0.146-1.285L4.995,37c0,5,6,4,6,4l3-5l0.084-0.168   C13.08,35.95,12.466,36,12.466,36z"/>
	<path fill="#607D8B" d="M14.083,25.579c-0.878,1.981-1.704,4.563-2.577,7.932c5.514-1.175,9.78-3.269,11.757-5.245   c0.982-0.982,1.502-2.242,1.553-3.484C20.226,24,16.502,24.742,14.083,25.579z"/>
</g>
<g>
	<path fill="#37474F" d="M21.968,24.494c-0.16,0.221-0.326,0.438-0.525,0.636c-1.609,1.608-4.752,3.288-8.834,4.493   c-0.203,0.65-0.405,1.33-0.61,2.063c4.869-1.211,8.63-3.115,10.444-4.931c0.619-0.619,1.033-1.354,1.283-2.119   C23.121,24.563,22.539,24.521,21.968,24.494z"/>
	<path fill="#37474F" d="M13.259,27.674c2.705-0.916,4.907-2.032,6.419-3.167c-2.263,0.126-4.162,0.577-5.595,1.072   C13.804,26.209,13.53,26.912,13.259,27.674z"/>
</g>
</svg>