<?xml version="1.0" encoding="utf-8"?><!-- Generator: Adobe Illustrator 15.0.0, SVG Export Plug-In . SVG Version: 6.00 Build 0)  --><!DOCTYPE svg PUBLIC "-//W3C//DTD SVG 1.1//EN" "http://www.w3.org/Graphics/SVG/1.1/DTD/svg11.dtd"><svg xmlns="http://www.w3.org/2000/svg" xmlns:xlink="http://www.w3.org/1999/xlink" version="1.1" x="0px" y="0px" width="500" height="500" viewBox="0 0 48 48" enable-background="new 0 0 48 48" xml:space="preserve">
<path fill="#FF3D00" d="M13.107,25.292C9.946,24.278,10,22.282,10,22.282c-0.032-3.01,3.939-10.234,3.939-10.234  s-1.987-0.896,1.217-3.992C18.305,5.015,20.464,4,23.484,4s5.07,1.015,8.36,4.056c3.271,3.025,1.217,3.992,1.217,3.992  S37.031,19.272,37,22.282c0,0-0.087,1.996-3.107,3.01c0,0-4.899,4.896-4.899,9.965c0,2.504-1.335,3.743-5.008,3.743  c-3.672,0-5.026-1.531-5.026-4.097C18.958,29.834,13.107,25.292,13.107,25.292z"/>
<g>
	<path fill="#A01C02" d="M32.732,12.587c-1.338,0.962,0.983,2.816,0.983,2.816S36.967,18.96,41,15.509   C38.461,15.115,38.623,12.654,32.732,12.587z"/>
	<path fill="#A01C02" d="M5.984,15.509c4.033,3.451,7.284-0.105,7.284-0.105s2.322-1.854,0.983-2.816   C8.361,12.654,8.523,15.115,5.984,15.509z"/>
</g>
<g>
	<path fill="#FFCC80" d="M31.994,9.521c3.291,1.089,6.271,0.214,6.271-2.063c0-2.963-1.709-4.442-1.709-4.442S41,4.495,41,8.938   c0,2.962-3.145,5.077-6.106,5.077c-1.48,0-2.623-0.259-3.456-0.656C28.219,11.766,30.469,9.016,31.994,9.521z"/>
	<path fill="#FFCC80" d="M15.546,13.359c-0.833,0.397-1.976,0.656-3.456,0.656c-2.962,0-6.106-2.115-6.106-5.077   c0-4.443,4.443-5.923,4.443-5.923S8.718,4.495,8.718,7.458c0,2.276,2.981,3.151,6.272,2.063   C16.515,9.016,18.765,11.766,15.546,13.359z"/>
</g>
<g>
	<path d="M17.792,22.348c-2.254-0.878-1.69-3.508-1.69-3.508l4.32,2.88C20.422,21.72,19.192,22.89,17.792,22.348z"/>
	<path d="M28.812,22.348c-1.4,0.542-2.63-0.628-2.63-0.628l4.32-2.88C30.502,18.84,31.064,21.47,28.812,22.348z"/>
</g>
<g>
	<path fill="#DD2C00" d="M34.227,13.986c-1.154-0.066-2.088-0.293-2.789-0.627c-2.954-1.463-1.301-3.9,0.17-3.9   c0.131,0,0.262,0.02,0.387,0.062c0.653,0.217,1.292,0.35,1.9,0.415c-0.218-0.553-0.881-1.175-2.012-1.894   C31.585,7.853,31.291,7.687,31,7.531c-1.519,0.22-2.742,1.396-3.106,2.958c-0.339,1.45,1.134,2.432,1.763,2.663   C32,14.016,34,14.016,34,14.016C34.093,14.016,34.521,14.585,34.227,13.986z"/>
	<path fill="#DD2C00" d="M12.757,13.986c1.155-0.066,2.089-0.293,2.79-0.627c2.954-1.463,1.301-3.9-0.169-3.9   c-0.132,0-0.262,0.02-0.387,0.062c-0.653,0.217-1.292,0.35-1.9,0.415c0.217-0.553,0.646-1.222,1.777-1.94   c0.298-0.189,0.591-0.355,0.883-0.511c1.519,0.22,2.976,1.443,3.34,3.005c0.339,1.45-1.134,2.432-1.763,2.663   c-2.344,0.863-4.344,0.863-4.344,0.863C12.891,14.016,12.463,14.585,12.757,13.986z"/>
	<path fill="#DD2C00" d="M18,34.317C18,37.249,19.166,39,23.943,39C28.722,39,30,37.179,30,34.317C30,32.479,28.554,32,27.221,32   c-0.778,0-1.883,0.471-3.417,0.471c-1.094,0-2.695-0.471-3.25-0.471C19.22,32,18,32.479,18,34.317z"/>
</g>
<g>
	<path fill="#A01C02" d="M22.809,34.159C22.491,33.477,21.803,33,21,33c-1.104,0-2,0.896-2,2c0,0.603,0.272,1.137,0.694,1.504   C20.367,35.348,21.478,34.487,22.809,34.159z"/>
	<path fill="#A01C02" d="M28.307,36.504C28.729,36.137,29,35.603,29,35c0-1.104-0.896-2-2-2c-0.803,0-1.49,0.477-1.809,1.159   C26.521,34.487,27.633,35.348,28.307,36.504z"/>
</g>
<path fill="#FFC107" d="M28.955,38.373c-0.006-0.043-0.014-0.086-0.021-0.129c-0.027-0.181-0.066-0.358-0.114-0.534  c-0.004-0.015-0.008-0.028-0.012-0.043c-0.262-0.923-0.784-1.769-1.53-2.42c-0.029-0.026-0.068-0.035-0.101-0.058  c-0.57-0.479-1.237-0.846-1.985-1.03C25.071,34.416,25,34.699,25,35c0,0.695,0.355,1.307,0.895,1.665  c0.025,0.028,0.038,0.063,0.066,0.088c0.143,0.124,0.262,0.261,0.376,0.402c0.042,0.052,0.082,0.104,0.12,0.158  c0.07,0.101,0.131,0.207,0.189,0.315c0.037,0.071,0.078,0.143,0.11,0.217c0.048,0.11,0.081,0.226,0.114,0.341  c0.021,0.073,0.049,0.144,0.064,0.219C26.976,38.599,27,38.797,27,39c0,1.654-1.346,3-3,3s-3-1.346-3-3  c0-0.203,0.024-0.401,0.064-0.595c0.016-0.075,0.043-0.146,0.064-0.219c0.034-0.115,0.067-0.23,0.115-0.341  c0.032-0.074,0.073-0.146,0.111-0.217c0.058-0.108,0.118-0.215,0.189-0.315c0.038-0.055,0.078-0.106,0.12-0.158  c0.114-0.142,0.234-0.278,0.375-0.402c0.029-0.025,0.042-0.06,0.067-0.088C22.645,36.307,23,35.695,23,35  c0-0.301-0.071-0.584-0.191-0.841c-0.749,0.185-1.416,0.552-1.986,1.03c-0.033,0.022-0.071,0.031-0.101,0.058  c-0.746,0.651-1.268,1.497-1.53,2.42c-0.004,0.015-0.008,0.028-0.012,0.043c-0.048,0.176-0.086,0.354-0.115,0.534  c-0.007,0.043-0.015,0.086-0.021,0.129C19.018,38.58,19,38.789,19,39c0,2.757,2.243,5,5,5s5-2.243,5-5  C29,38.789,28.982,38.58,28.955,38.373z"/>
</svg>