<?xml version="1.0" encoding="utf-8"?><!-- Generator: Adobe Illustrator 15.0.0, SVG Export Plug-In . SVG Version: 6.00 Build 0)  --><!DOCTYPE svg PUBLIC "-//W3C//DTD SVG 1.1//EN" "http://www.w3.org/Graphics/SVG/1.1/DTD/svg11.dtd"><svg xmlns="http://www.w3.org/2000/svg" xmlns:xlink="http://www.w3.org/1999/xlink" version="1.1" x="0px" y="0px" width="500" height="500" viewBox="0 0 48 48" enable-background="new 0 0 48 48" xml:space="preserve">
<g>
	<path fill="#FFC107" d="M29.259,38.961c0.225-0.254,0.441-0.519,0.648-0.793l0,0c-5.845,0.678-12.433-4.313-14.076-9.744   c0,0.002,0,0.002,0,0.002c-0.075,0.331-0.133,0.661-0.175,0.99c-0.003,0.023-0.008,0.047-0.011,0.069   c-0.041,0.342-0.064,0.681-0.064,1.015c0,4.694,3.306,11.5,8,11.5c0.296,0,0.59-0.025,0.882-0.074   c0.076-0.012,0.15-0.039,0.226-0.055c0.216-0.044,0.431-0.089,0.643-0.157c0.071-0.022,0.14-0.058,0.211-0.083   c0.214-0.078,0.428-0.156,0.638-0.258c0.058-0.027,0.112-0.063,0.169-0.092c0.221-0.113,0.44-0.229,0.654-0.365   c0.038-0.023,0.074-0.053,0.111-0.078c0.23-0.15,0.459-0.309,0.68-0.482c0.021-0.018,0.041-0.037,0.063-0.054   c0.236-0.189,0.467-0.388,0.691-0.602c0.007-0.007,0.014-0.015,0.021-0.022c0.234-0.225,0.464-0.462,0.684-0.711   C29.255,38.965,29.257,38.963,29.259,38.961z"/>
	<path fill="#FFC107" d="M26.874,25.448c-1.179-1.064-2.058-2.28-2.552-3.528c-0.186-0.063-0.373-0.128-0.556-0.172   c-0.077-0.018-0.153-0.035-0.229-0.049c-0.223-0.043-0.443-0.072-0.661-0.086c-0.091-0.005-0.182-0.008-0.271-0.008   c-0.182-0.001-0.361,0.008-0.539,0.025c-0.123,0.014-0.246,0.03-0.367,0.053c-0.098,0.017-0.194,0.041-0.291,0.064   c-0.279,0.068-0.553,0.154-0.818,0.268c-0.023,0.01-0.047,0.018-0.07,0.027c-0.168,0.074-0.334,0.156-0.496,0.246   c0.665,4.979,5.881,10.056,12.454,9.959c0.027-0.187,0.049-0.371,0.066-0.555c0.02-0.233,0.038-0.467,0.038-0.693   c0-1.175-0.228-2.216-0.638-3.144C30.24,27.736,28.45,26.871,26.874,25.448z"/>
	<path fill="#FFC107" d="M37.515,23.111c0.047-0.578-0.006-1.168-0.149-1.755c-0.009-0.033-0.018-0.067-0.026-0.101   c-0.075-0.287-0.168-0.574-0.284-0.858v-0.001c-0.115-0.28-0.255-0.559-0.409-0.835c-0.027-0.052-0.058-0.103-0.088-0.153   c-0.152-0.262-0.318-0.521-0.504-0.775c-0.007-0.01-0.012-0.019-0.019-0.027c-0.189-0.258-0.399-0.509-0.62-0.756   c-0.052-0.059-0.105-0.116-0.158-0.174c-0.229-0.244-0.465-0.485-0.722-0.717c-0.271-0.244-0.548-0.465-0.829-0.676   c-0.057-0.042-0.112-0.084-0.169-0.125c-0.28-0.201-0.565-0.389-0.854-0.555c-0.03-0.018-0.061-0.033-0.091-0.05   c-0.284-0.16-0.572-0.304-0.86-0.427c-0.026-0.012-0.054-0.025-0.08-0.036c-0.309-0.128-0.618-0.235-0.928-0.319   c-0.026-0.008-0.053-0.014-0.079-0.021c-0.636-0.166-1.269-0.238-1.884-0.203c-0.014,0.001-0.026,0.002-0.04,0.002   c-0.63,0.041-1.24,0.189-1.816,0.462c-0.001,0.001-0.002,0.001-0.003,0.001c0.513,3.281,3.68,9.156,10.45,9.033v-0.002   c0.08-0.286,0.131-0.576,0.158-0.87C37.513,23.152,37.514,23.131,37.515,23.111z"/>
</g>
<g>
	<path fill="#5D4037" d="M29.907,38.168c1.465-1.939,2.455-4.326,2.636-6.475c-0.018,0.184-0.039,0.368-0.066,0.555   c-6.573,0.097-11.789-4.98-12.454-9.959c0.162-0.09,0.328-0.172,0.496-0.246c-2.336,1.02-4.073,3.666-4.688,6.381   C17.475,33.855,24.063,38.846,29.907,38.168z"/>
	<path fill="#5D4037" d="M26.902,15.012c-0.601,0.284-1.164,0.693-1.67,1.254c-2.468,2.736-1.38,6.455,1.642,9.183   c3.022,2.729,6.834,3.431,9.303,0.694c0.588-0.652,0.969-1.36,1.176-2.098C30.582,24.168,27.415,18.293,26.902,15.012z"/>
	<polyline fill="none" stroke="#5D4037" stroke-width="2" stroke-linecap="round" points="36.581,13.002 37.581,11.002    42.581,10.002  "/>
	<polyline fill="none" stroke="#5D4037" stroke-width="2" stroke-linecap="round" points="34.581,12.002 33.581,9.002 39.581,7.002     "/>
</g>
<path fill="#42A5F5" d="M24.069,21.141c-0.445-1.706-0.142-3.428,1.164-4.875c0.158-0.175,0.331-0.31,0.5-0.457  c-2.214-4.021-5.246-9.018-6.973-9.692c-1.862-0.728-3.477,6.157-0.842,10.407C19.184,18.566,21.927,20.15,24.069,21.141z"/>
<path fill="#8D6E63" d="M39.408,18.89c-0.879,2.05-4.827,1.11-7.441-0.109c-1.97-0.919-2.858-3.317-1.98-5.368  c0.879-2.051,3.06-2.605,5.162-2.06C37.647,12.002,40.287,16.839,39.408,18.89z"/>
<path fill="#3E2723" d="M37.004,17.295c-0.457,0.745-2.017,0.477-3.481-0.6s-2.282-2.553-1.825-3.299  c0.456-0.744,2.017-0.476,3.481,0.601S37.461,16.549,37.004,17.295z"/>
<g>
	<path fill="#90CAF9" d="M27.618,20.232l0.007-0.014C27.625,20.219,11.162,6,8,6c-2,0-1,7,3,10c3.395,2.546,15.75,5.969,15.75,5.969   l0.009-0.018C26.838,21.972,26.914,22,27,22c0.553,0,1-0.447,1-1C28,20.686,27.846,20.416,27.618,20.232z"/>
	<path fill="#90CAF9" d="M27.419,20.523l0.001-0.01c0,0-14.022-5.199-16.06-4.438c-1.288,0.48,0.769,4.75,4.14,5.424   C18,22,27,22,27,22l0,0c0.056-0.006,0.392-0.169,0.446-0.189c0.355-0.133,0.536-0.528,0.403-0.885   C27.773,20.723,27.609,20.588,27.419,20.523z"/>
</g>
<path fill="#64B5F6" d="M10.66,14.203c-0.324,0.121-0.648,0.322-0.927,0.604C10.117,15.246,10.536,15.652,11,16  c0.071,0.053,0.151,0.107,0.23,0.161c0.041-0.03,0.078-0.065,0.13-0.085C11.5,16.023,11.694,16,11.937,16  c3.311,0,15.483,4.514,15.483,4.514C25.156,19.375,16.938,14.375,11.937,14C11.443,13.963,11.025,14.066,10.66,14.203z"/>
</svg>