<?xml version="1.0" encoding="utf-8"?><!-- Generator: Adobe Illustrator 15.0.0, SVG Export Plug-In . SVG Version: 6.00 Build 0)  --><!DOCTYPE svg PUBLIC "-//W3C//DTD SVG 1.1//EN" "http://www.w3.org/Graphics/SVG/1.1/DTD/svg11.dtd"><svg xmlns="http://www.w3.org/2000/svg" xmlns:xlink="http://www.w3.org/1999/xlink" version="1.1" x="0px" y="0px" width="500" height="500" viewBox="0 0 48 48" enable-background="new 0 0 48 48" xml:space="preserve">
<g>
	<path fill="#37474F" d="M25,29c0,0.553-0.447,1-1,1l0,0c-0.553,0-1-0.447-1-1V19c0-0.553,0.447-1,1-1l0,0c0.553,0,1,0.447,1,1V29z"/>
	<circle fill="#37474F" cx="24" cy="17" r="1"/>
</g>
<g>
	<path fill="#2962FF" d="M25,20h6c0,0,6,0,6,5s-3,7-3,7s-2.705,3.25-3.251,2.336C28.628,30.782,25,22.795,25,22V20z"/>
	<path fill="#2962FF" d="M23.082,20h-6c0,0-6,0-6,5s3,7,3,7s2.705,3.25,3.251,2.336c2.121-3.554,5.749-11.541,5.749-12.336V20z"/>
</g>
<g>
	<path fill="#448AFF" d="M36.792,6.918C37,6.625,38.609,6,39,6c-8,0-14,11-14,13c0,0.5,0,0.813,0,1c0,0,7.802,0,11,0   c0-0.637,0-1.363,0-2C36,18,37.5,14.418,36.792,6.918z"/>
	<path fill="#448AFF" d="M11.29,6.918C11.082,6.625,9.473,6,9.082,6c8,0,14,11,14,13c0,0.5,0,0.813,0,1c0,0-7.802,0-11,0   c0-0.637,0-1.363,0-2C12.082,18,10.582,14.418,11.29,6.918z"/>
</g>
<g>
	<path fill="#263238" d="M39,6c-0.391,0-2,0.625-2.208,0.918C37.5,14.418,36,18,36,18c0,0.637,0,1.363,0,2c0.422,0,0.767,0,1,0   c3,0,3-2,3-2s0.418-4.707,1.417-6.707C42.583,8.959,43,8,43,8S44,6,39,6z"/>
	<path fill="#263238" d="M9.082,6c0.391,0,2,0.625,2.208,0.918C10.582,14.418,12.082,18,12.082,18c0,0.637,0,1.363,0,2   c-0.422,0-0.767,0-1,0c-3,0-3-2-3-2s-0.418-4.707-1.417-6.707C5.499,8.959,5.082,8,5.082,8S4.082,6,9.082,6z"/>
</g>
<g>
	<g>
		<path fill="#455A64" d="M33.25,19.043c0.607-0.296,1.144-0.428,1.672-0.529c0.525-0.092,1.031-0.127,1.533-0.121    c0.501,0.006,0.997,0.057,1.51,0.15c0.517,0.105,1.037,0.229,1.661,0.5c-0.413,0.541-0.95,0.85-1.5,1.064    c-0.553,0.205-1.13,0.294-1.699,0.284c-0.57-0.009-1.135-0.114-1.675-0.32C34.216,19.852,33.689,19.563,33.25,19.043z"/>
	</g>
	<g>
		<path fill="#455A64" d="M33.542,17c0.48-0.643,0.979-0.982,1.481-1.232c0.503-0.236,1.012-0.354,1.523-0.368    c0.513-0.015,1.029,0.079,1.546,0.294c0.516,0.226,1.036,0.549,1.533,1.182c-0.517,0.615-1.011,0.939-1.51,1.176    c-0.497,0.226-0.995,0.338-1.497,0.348s-1.007-0.078-1.518-0.281C34.59,17.902,34.074,17.599,33.542,17z"/>
	</g>
	<g>
		<path fill="#455A64" d="M33.667,15c0.309-0.787,0.742-1.293,1.21-1.709c0.474-0.404,0.995-0.693,1.554-0.879    c0.558-0.187,1.156-0.266,1.788-0.217c0.631,0.061,1.303,0.223,1.99,0.723c-0.437,0.724-0.874,1.171-1.345,1.545    c-0.47,0.363-0.966,0.625-1.495,0.797c-0.529,0.173-1.091,0.26-1.695,0.243C35.065,15.476,34.425,15.369,33.667,15z"/>
	</g>
	<g>
		<path fill="#455A64" d="M34,12c0.355-0.805,0.829-1.328,1.335-1.766c0.511-0.426,1.066-0.739,1.659-0.953    c0.593-0.215,1.224-0.328,1.892-0.322c0.672,0.017,1.377,0.127,2.156,0.541c-0.411,0.779-0.891,1.276-1.399,1.693    c-0.511,0.404-1.056,0.705-1.636,0.91c-0.58,0.207-1.193,0.322-1.85,0.332C35.497,12.436,34.805,12.353,34,12z"/>
	</g>
	<g>
		<path fill="#455A64" d="M33,10c0.233-1.002,0.813-1.75,1.468-2.363c0.668-0.604,1.454-1.053,2.298-1.336    c0.843-0.285,1.748-0.395,2.646-0.312C40.309,6.089,41.205,6.358,42,7c-0.818,0.609-1.535,0.984-2.233,1.32    C39.07,8.653,38.4,8.918,37.715,9.146c-0.687,0.227-1.388,0.414-2.145,0.566C34.805,9.861,34.008,9.971,33,10z"/>
	</g>
	<g>
		<path fill="#455A64" d="M14.832,19.043c-0.439,0.521-0.966,0.809-1.502,1.028c-0.54,0.206-1.104,0.312-1.675,0.32    c-0.569,0.01-1.146-0.079-1.699-0.284c-0.55-0.215-1.087-0.523-1.5-1.064c0.624-0.271,1.145-0.395,1.661-0.5    c0.513-0.094,1.009-0.145,1.51-0.15c0.502-0.006,1.008,0.029,1.533,0.121C13.688,18.615,14.225,18.747,14.832,19.043z"/>
	</g>
	<g>
		<path fill="#455A64" d="M14.54,17c-0.532,0.599-1.048,0.902-1.56,1.117c-0.511,0.203-1.016,0.291-1.518,0.281    s-1-0.122-1.497-0.348c-0.499-0.236-0.993-0.561-1.51-1.176c0.497-0.633,1.018-0.956,1.533-1.182    c0.517-0.215,1.033-0.309,1.546-0.294c0.512,0.015,1.021,0.132,1.523,0.368C13.561,16.018,14.06,16.357,14.54,17z"/>
	</g>
	<g>
		<path fill="#455A64" d="M14.415,15c-0.758,0.369-1.398,0.476-2.007,0.503c-0.604,0.017-1.166-0.07-1.695-0.243    c-0.529-0.172-1.025-0.434-1.495-0.797c-0.471-0.374-0.908-0.821-1.345-1.545c0.688-0.5,1.359-0.662,1.99-0.723    c0.632-0.049,1.23,0.03,1.788,0.217c0.559,0.186,1.08,0.475,1.554,0.879C13.673,13.707,14.106,14.213,14.415,15z"/>
	</g>
	<g>
		<path fill="#455A64" d="M14.082,12c-0.805,0.353-1.497,0.436-2.157,0.436c-0.656-0.01-1.27-0.125-1.85-0.332    c-0.58-0.205-1.125-0.506-1.636-0.91C7.931,10.776,7.451,10.279,7.04,9.5c0.779-0.414,1.484-0.524,2.156-0.541    c0.668-0.006,1.299,0.107,1.892,0.322c0.593,0.214,1.148,0.527,1.659,0.953C13.253,10.672,13.727,11.195,14.082,12z"/>
	</g>
	<g>
		<path fill="#455A64" d="M15.082,10c-1.008-0.029-1.805-0.139-2.57-0.287c-0.757-0.152-1.458-0.34-2.145-0.566    C9.682,8.918,9.012,8.653,8.315,8.32C7.617,7.984,6.9,7.609,6.082,7c0.795-0.642,1.691-0.911,2.589-1.011    c0.897-0.083,1.803,0.026,2.646,0.312c0.844,0.283,1.63,0.732,2.298,1.336C14.269,8.25,14.849,8.998,15.082,10z"/>
	</g>
</g>
<g>
	<path fill="#37474F" d="M14.082,32c0,0-3-2-3-7s6-5,6-5h-4c0,0-4,0-4,5s3,9,3,9s2,3,4,2c0.258-0.129,0.703-0.751,1.246-1.659   C16.772,35.231,14.082,32,14.082,32z"/>
	<path fill="#37474F" d="M35,20h-4c0,0,6,0,6,5s-3,7-3,7s-2.69,3.231-3.246,2.341C31.297,35.249,31.742,35.871,32,36c2,1,4-2,4-2   s3-4,3-9S35,20,35,20z"/>
	<path fill="#37474F" d="M41.561,38.439c0.604,0.568,0.586,1.535,0,2.121s-1.54,0.591-2.121,0c-0.643-0.654-0.783-3.107-0.783-3.107   S40.828,37.75,41.561,38.439z"/>
	<path fill="#37474F" d="M39,39.641c-0.578-2.031-3.75-4.531-5.109-3.703c-0.859,0.234,3.828-6.063,3.609-4.547   c-1.188,2.156,1.938,5.969,3.625,6.766C40.953,38.625,39.594,39.75,39,39.641z"/>
	<g>
		<path fill="#37474F" d="M35,26c0.42-0.562,0.862-0.784,1.289-0.889c0.427-0.092,0.851-0.03,1.232,0.179    c0.379,0.206,0.726,0.576,0.895,1.085C38.579,26.873,38.543,27.542,38,28c-0.689-0.16-1.047-0.061-1.317-0.025    c-0.262,0.042-0.439,0.04-0.614-0.061c-0.172-0.098-0.338-0.28-0.513-0.569C35.38,27.044,35.206,26.662,35,26z"/>
	</g>
	<g>
		<path fill="#37474F" d="M34,28c0.646-0.323,1.14-0.384,1.583-0.365c0.437,0.029,0.811,0.163,1.125,0.385    c0.314,0.223,0.569,0.538,0.744,0.954c0.162,0.423,0.282,0.94,0.11,1.651c-0.696,0.19-1.149,0.24-1.566,0.205    c-0.407-0.04-0.746-0.163-1.032-0.37s-0.521-0.493-0.695-0.877C34.099,29.188,33.976,28.721,34,28z"/>
	</g>
	<g>
		<path fill="#37474F" d="M33,30c0.728-0.069,1.219,0.043,1.638,0.209c0.409,0.174,0.726,0.419,0.961,0.726    c0.236,0.306,0.389,0.675,0.448,1.116c0.051,0.447,0.028,0.95-0.234,1.637c-0.731,0.071-1.223-0.04-1.641-0.207    c-0.409-0.174-0.726-0.419-0.958-0.728c-0.233-0.309-0.386-0.678-0.445-1.118C32.719,31.187,32.741,30.684,33,30z"/>
	</g>
	<g>
		<path fill="#37474F" d="M31,31c0.666,0.355,1.076,0.613,1.415,0.865c0.33,0.248,0.562,0.471,0.734,0.711    c0.175,0.241,0.281,0.506,0.397,0.869L34,35c-0.619,0.447-1.282,0.488-1.871,0.33c-0.588-0.164-1.096-0.544-1.428-1.021    c-0.337-0.477-0.506-1.045-0.487-1.618C30.248,32.118,30.433,31.519,31,31z"/>
	</g>
	<path fill="#37474F" d="M6.521,38.439c-0.604,0.568-0.586,1.535,0,2.121s1.54,0.591,2.121,0c0.643-0.654,0.783-3.107,0.783-3.107   S7.254,37.75,6.521,38.439z"/>
	<path fill="#37474F" d="M9.082,39.641c0.578-2.031,3.75-4.531,5.109-3.703c0.859,0.234-3.828-6.063-3.609-4.547   c1.188,2.156-1.938,5.969-3.625,6.766C7.129,38.625,8.488,39.75,9.082,39.641z"/>
	<g>
		<path fill="#37474F" d="M13.082,26c-0.206,0.662-0.38,1.044-0.556,1.345c-0.175,0.289-0.34,0.472-0.513,0.569    c-0.174,0.101-0.353,0.103-0.613,0.061c-0.271-0.035-0.628-0.135-1.318,0.025c-0.543-0.458-0.579-1.127-0.416-1.625    c0.169-0.509,0.516-0.879,0.895-1.085c0.382-0.209,0.805-0.271,1.232-0.179C12.22,25.216,12.662,25.438,13.082,26z"/>
	</g>
	<g>
		<path fill="#37474F" d="M14.082,28c0.024,0.721-0.099,1.188-0.268,1.583c-0.176,0.384-0.41,0.67-0.696,0.877    s-0.625,0.33-1.032,0.37c-0.417,0.035-0.87-0.015-1.566-0.205c-0.171-0.711-0.052-1.229,0.11-1.651    c0.175-0.416,0.43-0.731,0.744-0.954c0.315-0.222,0.688-0.355,1.125-0.385C12.942,27.616,13.436,27.677,14.082,28z"/>
	</g>
	<g>
		<path fill="#37474F" d="M15.082,30c0.259,0.684,0.281,1.187,0.231,1.635c-0.06,0.44-0.212,0.81-0.445,1.118    c-0.232,0.309-0.548,0.554-0.958,0.728c-0.418,0.167-0.91,0.278-1.641,0.207c-0.262-0.687-0.285-1.189-0.235-1.637    c0.06-0.441,0.212-0.811,0.449-1.116c0.236-0.307,0.552-0.552,0.961-0.726C13.864,30.043,14.354,29.931,15.082,30z"/>
	</g>
	<g>
		<path fill="#37474F" d="M17.082,31c0.567,0.519,0.752,1.118,0.786,1.69c0.02,0.573-0.15,1.142-0.487,1.618    c-0.332,0.478-0.839,0.857-1.427,1.021c-0.589,0.158-1.252,0.117-1.871-0.33l0.454-1.555c0.115-0.363,0.222-0.628,0.396-0.869    c0.173-0.24,0.405-0.463,0.734-0.711C16.006,31.613,16.417,31.355,17.082,31z"/>
	</g>
	<path fill="#37474F" d="M34.962,21.108c-0.694-0.454-1.455-0.796-2.273-1.011C32.533,20.06,32.375,20.03,32.216,20H30   c0.44,0.904,0.965,1.554,1.522,2.139c0.562,0.574,1.159,1.058,1.794,1.477c0.635,0.419,1.308,0.769,2.039,1.06   c0.742,0.285,1.517,0.522,2.52,0.637c-0.125-1.006-0.558-1.807-1.069-2.499C36.282,22.129,35.655,21.561,34.962,21.108z"/>
	<path fill="#37474F" d="M15.394,20.098c-0.819,0.214-1.58,0.557-2.273,1.011c-0.694,0.453-1.321,1.021-1.844,1.706   c-0.513,0.692-0.945,1.493-1.07,2.499c1.003-0.115,1.777-0.352,2.519-0.637c0.732-0.291,1.405-0.64,2.04-1.06   c0.635-0.418,1.232-0.903,1.794-1.477c0.558-0.585,1.083-1.235,1.522-2.139h-2.215C15.708,20.03,15.549,20.06,15.394,20.098z"/>
</g>
</svg>