<?xml version="1.0" encoding="utf-8"?><!-- Generator: Adobe Illustrator 15.0.0, SVG Export Plug-In . SVG Version: 6.00 Build 0)  --><!DOCTYPE svg PUBLIC "-//W3C//DTD SVG 1.1//EN" "http://www.w3.org/Graphics/SVG/1.1/DTD/svg11.dtd"><svg xmlns="http://www.w3.org/2000/svg" xmlns:xlink="http://www.w3.org/1999/xlink" version="1.1" x="0px" y="0px" width="500" height="500" viewBox="0 0 48 48" enable-background="new 0 0 48 48" xml:space="preserve">
<g>
	<path fill="#37474F" d="M28.28,8l4,3l-3,5C29.28,16,27.28,11,28.28,8z"/>
	<path fill="#37474F" d="M41,8l-4,3l3,5C40,16,42,11,41,8z"/>
</g>
<g>
	<path fill="#455A64" d="M27,30l5,10.004c0,0,0,1.996,2,1.996s4,0,4,0s0-2-2-2l-3-7l2-8L27,30z"/>
	<path fill="#455A64" d="M10,33.002l2,7.002c0,0,0.25,1.996,2,1.996c2,0,4,0,4,0s0-2-2-2l-2-5.999L10,33.002z"/>
	<path fill="#455A64" d="M19,31.002c-2,3-5,5-5,5l-4-3c0,0,1-4,1-9L19,31.002z"/>
	<path fill="#455A64" d="M27,31c-4.203-1.528-8,0.002-8,0.002L11,31V19c7-12,25,2,25,2s0.035,0.383,0.026,0.999   C35.99,24.686,35.135,31.813,27,31z"/>
	<path fill="#455A64" d="M12.1,21.6H10.7c-3.196,0-5.7-2.504-5.7-5.7S7.504,10.2,10.7,10.2H12.1c1.539,0,2.7-1.161,2.7-2.7   c0-0.828,0.672-1.5,1.5-1.5s1.5,0.672,1.5,1.5c0,3.196-2.504,5.7-5.7,5.7H10.7c-1.539,0-2.7,1.16-2.7,2.699s1.161,2.7,2.7,2.7H12.1   c0.828,0,1.5,0.672,1.5,1.5S12.928,21.6,12.1,21.6z"/>
	<circle fill="#455A64" cx="34.5" cy="16.5" r="6.5"/>
</g>
<g>
	<path fill="#263238" d="M12,40.004l-1.372-4.803L9,39c0,0,0,3,2,3c1.122,0,2.231,0,3,0C12.25,42,12,40.004,12,40.004z"/>
	<path fill="#263238" d="M32.023,40.254c-0.266-0.146-0.59-0.252-1.023-0.252v-1.999l-3.489-6.98C27.338,31.012,27.18,31.018,27,31   v9.006c0,0,0,1.996,2,1.996s4,0,4,0s-0.004-0.105-0.024-0.254C32.279,41.363,32.076,40.638,32.023,40.254z"/>
	<path fill="#263238" d="M19,31.002c-1.367,2.051-3.182,3.615-4.205,4.411c0,0-0.06,0.042-0.111,0.088   c-0.011,0.009-0.026,0.02-0.037,0.028l0.001,0.002c-0.054,0.043-0.105,0.078-0.111,0.083L14.8,36.4L15,36c0,0,4-1.998,6-4.998   l0.483-0.58C19.976,30.61,19,31.002,19,31.002z"/>
	<path fill="#263238" d="M34.5,23c-3.59,0-6.5-2.91-6.5-6.5c0-0.076,0.009-0.149,0.012-0.225c-0.631-0.282-1.281-0.551-1.944-0.795   C26.027,15.814,26,16.154,26,16.5c0,4.688,3.813,8.5,8.5,8.5c0.402,0,0.796-0.038,1.184-0.092c0.172-0.759,0.263-1.474,0.305-2.086   C35.51,22.935,35.014,23,34.5,23z"/>
	<path fill="#263238" d="M35,19c0,0-0.542,0.75-1,0l-1-0.999v-1L36.001,17v1L35,19z"/>
</g>
<g>
	<path fill="#FFEB3B" d="M39,14c0,0,0.292,2.999-1.5,2.999c-0.827,0-1.499,0.001-1.499,0.001s-0.334-3,1.499-3   C38.328,14,39,14,39,14z"/>
	<path fill="#FFEB3B" d="M30,14.001c0,0-0.374,2.999,1.5,2.999c0.828,0,1.5,0.001,1.5,0.001S33.376,14,31.5,14   C30.672,14,30,14.001,30,14.001z"/>
</g>
</svg>