<?xml version="1.0" encoding="utf-8"?><!-- Generator: Adobe Illustrator 15.0.0, SVG Export Plug-In . SVG Version: 6.00 Build 0)  --><!DOCTYPE svg PUBLIC "-//W3C//DTD SVG 1.1//EN" "http://www.w3.org/Graphics/SVG/1.1/DTD/svg11.dtd"><svg xmlns="http://www.w3.org/2000/svg" xmlns:xlink="http://www.w3.org/1999/xlink" version="1.1" x="0px" y="0px" width="500" height="500" viewBox="0 0 48 48" enable-background="new 0 0 48 48" xml:space="preserve">
<g>
	<path fill="#37474F" d="M33.906,30.969C33.906,30.969,31,36,27,36c-4.123,0-2.875-4.984-2.875-4.984L33.906,30.969z"/>
	<path fill="#37474F" d="M32.75,15.844c0,0-2.656-4.906-5.75-4.844c-4.122,0.084-3.077,4.273-3.077,4.273L32.75,15.844z"/>
	<path fill="#37474F" d="M13.392,20.008c-0.037,0.013-3.059-10.049,8.046-4.133C21.438,15.875,13.783,20.016,13.392,20.008z"/>
	<path fill="#37474F" d="M13.375,27.875c-0.037-0.013-3.011,10.198,8.094,4.281C21.469,32.156,13.767,27.867,13.375,27.875z"/>
	<path fill="#37474F" d="M6,24c0-2.67,0.618-3.926,1.485-4.38C5.74,19.004,4,19.513,4,24c0,4.529,1.77,5.041,3.529,4.436   C6.64,27.984,6,26.719,6,24z"/>
</g>
<path fill="#E64A19" d="M21.47,32.132c-9.016,1.582-8.17-3.893-8.1-4.28C13.926,28.252,17.951,31.024,21.47,32.132z M21.447,15.87  c-8.883-1.562-8.138,3.577-8.039,4.104C14.114,19.422,17.402,17.096,21.447,15.87z M27,33c-1.062,0-2.071-0.103-3.044-0.269  l-0.003,0.003c0,0,1.141,1.313,3.1,1.266c3.59-0.086,6.012-2.09,6.471-2.5C31.309,32.408,29.028,33,27,33z M27,15  c1.809,0,3.816,0.335,5.801,0.882c-0.277-0.263-2.523-2.978-5.616-2.882c-2.381,0.074-3.135,2.037-3.215,2.268  C24.949,15.102,25.96,15,27,15z"/>
<g>
	<path fill="#FF5722" d="M11,22c0,0-1.76-1.76-3.515-2.38C6.618,20.074,6,21.33,6,24c0,2.719,0.64,3.984,1.529,4.436   c1.738-0.598,3.466-2.287,3.471-2.284C11,26.151,12,24.002,11,22z"/>
	<path fill="#FF5722" d="M21.495,15.854c-5.094,1.531-9.016,4.831-8.104,4.154C13.142,21.302,13,22.635,13,24   c0,1.314,0.137,2.598,0.369,3.846c-0.701-0.491,4.058,3.021,8.123,4.294C20.531,29.607,20,26.865,20,24   C20,21.133,20.532,18.388,21.495,15.854z"/>
	<path fill="#FF5722" d="M44,23c0-1.968-4.303-4.796-9.238-6.509C33.648,18.408,33,20.625,33,23.002   c0,2.846,0.928,5.471,2.479,7.612C40.107,28.3,44,24.872,44,23z"/>
	<path fill="#FF5722" d="M32.801,15.882C30.816,15.335,28.809,15,27,15c-1.057,0-2.083,0.104-3.077,0.274   C22.7,17.936,22,20.885,22,24c0,3.116,0.701,6.065,1.924,8.728C24.906,32.896,25.927,33,27,33c2.06,0,4.378-0.608,6.625-1.54   C31.972,29.049,31,26.138,31,23.002C31,20.426,31.652,18.001,32.801,15.882z"/>
</g>
<g>
	<path fill="#FFFFFF" d="M23.923,15.274c-0.002,0-0.005,0-0.007,0.001c-0.348,0.06-0.687,0.135-1.025,0.213   c-0.089,0.02-0.179,0.039-0.268,0.06c-0.378,0.093-0.75,0.194-1.117,0.303c-0.004,0.001-0.008,0.002-0.011,0.003   C20.532,18.388,20,21.133,20,24c0,2.865,0.531,5.607,1.492,8.14c0.001,0,0.002,0.001,0.004,0.001   c0.388,0.121,0.782,0.231,1.185,0.329c0.003,0,0.006,0.001,0.008,0.002c0.401,0.097,0.811,0.183,1.228,0.255   c0.002,0,0.005,0,0.007,0.001C22.701,30.065,22,27.116,22,24C22,20.885,22.7,17.936,23.923,15.274z"/>
	<path fill="#FFFFFF" d="M13,24c0-1.365,0.142-2.698,0.392-3.992c-0.912,0.677-1.593,1.259-1.989,1.616   c-0.003,0.002-0.007,0.006-0.01,0.009c-0.129,0.117-0.229,0.209-0.293,0.271C11.037,22.595,11,23.293,11,24   c0,0.752,0.039,1.496,0.109,2.229c0.083,0.06,0.167,0.12,0.25,0.18c0.647,0.464,1.309,0.945,2.01,1.437   C13.137,26.598,13,25.314,13,24z"/>
	<path fill="#FFFFFF" d="M34.762,16.491c-0.646-0.224-1.302-0.427-1.961-0.609C31.652,18.001,31,20.426,31,23.002   c0,3.136,0.972,6.047,2.625,8.458c0.114-0.047,0.229-0.094,0.342-0.143c0.209-0.088,0.42-0.188,0.63-0.281   c0.297-0.136,0.592-0.276,0.883-0.422C33.928,28.473,33,25.848,33,23.002C33,20.625,33.648,18.408,34.762,16.491z"/>
</g>
<circle fill="#3E2723" cx="37.5" cy="21.5" r="1.5"/>
</svg>