<?xml version="1.0" encoding="utf-8"?><!-- Generator: Adobe Illustrator 19.1.1, SVG Export Plug-In . SVG Version: 6.00 Build 0)  --><svg xmlns="http://www.w3.org/2000/svg" xmlns:xlink="http://www.w3.org/1999/xlink" version="1.1" x="0px" y="0px" viewBox="0 0 48 48" enable-background="new 0 0 48 48" xml:space="preserve" width="500" height="500">
<path fill="#B0BEC5" d="M35.9,28v13c2,0,2,2,2,2s-2,0-4,0s-2-2-2-2V31L35.9,28z M8.9,34v7c0,0,0,2,2,2s4,0,4,0s0-2-2-2v-4L8.9,34z"/>
<path fill="#BF360C" d="M18.9,23c0,0-11-3.3-11,6c0,1.9,1,7,1,7v4l4-1v-1c0.9-1.4,4.3-0.8,7-3C21.6,33.7,18.9,23,18.9,23z"/>
<path fill="#E65100" d="M1.1,30L2,31l1.7-1c1-1.8,2.2-2,2.2-2l2-5C7.9,23,2.1,23.3,1.1,30z"/>
<path fill="#CFD8DC" d="M9.9,34v7c2,0,2,2,2,2s-2,0-4,0s-2-2-2-2v-7H9.9z M41,15c0,0-0.3-0.9-0.9-1.8c-0.3-0.5-0.7-1-1.1-1.2  c-1.4-1-3.1-1-3.1-1s-1.8-6.3-4-6s-2,8-2,8c-0.6,0.9-1,2-1,2c-1.2,3.2-3.9,7-5.9,7s-2,0-2,0l-4,13c0,0,3.4,1.8,11.4,2l0.6,4  c0,0,0,2,2,2s4,0,4,0s0-2-2-2v-4.4C39.1,34.9,39,28,39,28s-0.6-3.3-1-5c-0.6-2.5,7.5-1.4,9-5v-2L41,15z M1.1,30  c-0.1,0.6-0.2,1.3-0.2,2c0,0.6,0.4,1,1,1s1-0.4,1-1c0.2-0.8,0.5-1.5,0.8-2H1.1z"/>
<path fill="#F57F17" d="M27.9,34l0.4,3c-7.8,0-11.4-2-11.4-2s-0.4-0.1-1-0.4c-2.6,1.5-5.6,1.3-6,3.4v1l-4,1v-4c0,0-1-5.1-1-7  c0-9.3,11-7,11-7H23c0,0,0.8,2.2,2.9,4C34.7,33.2,27.9,34,27.9,34z M35.9,11c0,0-1.8-6.3-4-6s0,8,0,8s-4,8,0,8c0.8-1.8,8.3-2,9-3  s0.1-3,0.1-3s-0.6-2-2-3C37.6,11,35.9,11,35.9,11z"/>
<path fill="#3E2723" d="M37.9,14c-0.6,0-1,0.4-1,1v1h1c0.6,0,1-0.4,1-1C38.9,14.4,38.5,14,37.9,14z"/>
<path fill="#4E342E" d="M44.9,15.7c0,0.1,0,0.2,0,0.3c0,1.8,2.1,2,2.1,2v-2L44.9,15.7z"/>
<path fill="#BF360C" d="M31.9,13c0,0-0.3-0.9-0.4-1.6c-0.2-0.7-0.4-1.7-0.6-2.7c-0.1-1-0.2-2.1,0.1-2.8c0.1-0.4,0.4-0.6,0.6-0.7  C31.8,5,32,5,31.9,5c0,0-0.1,0-0.3,0.2c-0.1,0.1-0.3,0.4-0.3,0.7c-0.1,0.7,0.2,1.6,0.6,2.5c0.4,0.9,0.8,1.7,1.1,2.3  c0.4,0.6,0.6,1,0.6,1S32.6,12,31.9,13z"/>
</svg>