<?xml version="1.0" encoding="utf-8"?><!-- Generator: Adobe Illustrator 15.0.0, SVG Export Plug-In . SVG Version: 6.00 Build 0)  --><!DOCTYPE svg PUBLIC "-//W3C//DTD SVG 1.1//EN" "http://www.w3.org/Graphics/SVG/1.1/DTD/svg11.dtd"><svg xmlns="http://www.w3.org/2000/svg" xmlns:xlink="http://www.w3.org/1999/xlink" version="1.1" x="0px" y="0px" width="500" height="500" viewBox="0 0 48 48" enable-background="new 0 0 48 48" xml:space="preserve">
<g>
	<g>
		<path fill="#FFD54F" d="M19.755,12.85l-3.716-0.963l-1.858-0.481l-0.929-0.241l-0.571-0.146c-0.213-0.071-0.392-0.151-0.572-0.242    c-0.707-0.358-1.322-0.88-1.76-1.522C9.909,8.613,9.677,7.877,9.617,7.172C9.544,6.453,9.676,5.794,9.75,5.174l0.125-0.952    l0.008-0.06l0.002-0.015l0.001-0.007l0.001-0.004c0.101-0.003-0.227,0,0.227,0.001l-0.004,0.03l-0.016,0.119l-0.031,0.237L10,5    L9.938,4.524L9.906,4.287L9.891,4.168l-0.004-0.03c0.453-0.001,0.126-0.004,0.227-0.001l0.001,0.004l0.001,0.007l0.002,0.015    l0.008,0.06l0.125,0.952c0.089,0.644,0.138,1.266,0.347,1.793c0.382,1.089,1.259,1.762,2.225,1.941    c0.116,0.021,0.24,0.039,0.336,0.039c0.008,0,0.026,0.001,0.022-0.002l-0.002-0.003l0.008,0.001    c-0.106-0.017-0.025-0.005-0.047-0.009h0.029l0.12-0.001l0.24-0.002l0.959-0.008l1.92-0.014l3.838-0.029L19.755,12.85z"/>
	</g>
	<g>
		<path fill="#FFD54F" d="M27.755,8.881l3.838,0.029l1.92,0.014l0.959,0.008l0.24,0.002l0.12,0.001h0.029    c-0.021,0.004,0.06-0.008-0.047,0.009l0.008-0.001L34.82,8.945c-0.004,0.003,0.015,0.002,0.022,0.002    c0.096,0,0.22-0.018,0.336-0.039c0.966-0.18,1.843-0.853,2.225-1.941c0.209-0.527,0.258-1.149,0.347-1.793l0.125-0.952l0.008-0.06    l0.002-0.015l0.001-0.007l0.001-0.004c0.101-0.003-0.227,0,0.227,0.001l-0.004,0.03l-0.016,0.119l-0.031,0.237L38,5l-0.063-0.476    l-0.031-0.237l-0.016-0.119l-0.004-0.03c0.453-0.001,0.126-0.004,0.227-0.001l0.001,0.004l0.001,0.007l0.002,0.015l0.008,0.06    l0.125,0.952c0.074,0.62,0.206,1.279,0.133,1.998c-0.06,0.705-0.292,1.441-0.731,2.082c-0.438,0.643-1.053,1.164-1.76,1.522    c-0.181,0.091-0.359,0.171-0.572,0.242l-0.571,0.146l-0.929,0.241l-1.858,0.481l-3.716,0.963L27.755,8.881z"/>
	</g>
</g>
<path fill="#5D4037" d="M34,18c0,0-0.084-1.834,0.834-1.834C35.75,16.166,35.75,18,38.5,18s5.5-3.669,5.5-4.584  c0-0.916-3.666-1.835-5.5-1.835s-3.666,1.835-4.584,1.835C33,13.416,29,10,29,10H19c0,0-4,3.416-4.916,3.416  c-0.918,0-2.75-1.835-4.584-1.835S4,12.5,4,13.416C4,14.331,6.75,18,9.5,18s2.75-1.834,3.666-1.834C14.084,16.166,14,18,14,18H34z"/>
<path fill="#795548" d="M32,13H16c0,0-2,2-2,4c0,5,4,20,5,21c0.354,0.354,2,0.5,4,0.375c2,0.125,5.646-0.021,6-0.375c1-1,5-17,5-21  C34,15,32,13,32,13z"/>
<path fill="#CFD8DC" d="M27,7h-6c-2.209,0-3,2-4,4l-1,2c0,0,5,4,5,14c0,3-1.84,9.107-2,10h10c-0.16-0.893-2.268-7-2.268-10  C26.732,17,32,13,32,13l-1-2C30,9,29.209,7,27,7z"/>
<path fill="#78909C" d="M29,42.5c0,0.828-0.671,1.5-1.497,1.5h-7.006C19.671,44,19,43.328,19,42.5l0,0c0-0.828,0.671-1.5,1.497-1.5  h7.006C28.329,41,29,41.672,29,42.5L29,42.5z"/>
<path fill="#B0BEC5" d="M30,41c0,0.553-0.447,1-1,1H19c-0.553,0-1-0.447-1-1l1-4c0.141-0.625,0.594-2,2-2h6c1.359,0,1.813,1.344,2,2  L30,41z"/>
<g>
	<path fill="#455A64" d="M26,39c0-0.553,2-2,2-2s0,1.447,0,2s-0.447,1-1,1S26,39.553,26,39z"/>
	<path fill="#455A64" d="M22,39c0-0.553-2-2-2-2s0,1.447,0,2s0.447,1,1,1S22,39.553,22,39z"/>
</g>
<g>
	<path fill="#FFFFFF" d="M31.99,20.275c-0.104-0.294-0.162-0.617-0.162-0.956c0-0.872,0.383-1.633,0.955-2.069   C31.952,17.571,31,18.31,31,20c0,0,0.464,0.1,1.006,0.281C32.001,20.279,31.995,20.277,31.99,20.275z"/>
	<path fill="#FFFFFF" d="M15.963,20.275c0.104-0.294,0.162-0.617,0.162-0.956c0-0.872-0.383-1.633-0.955-2.069   c0.831,0.321,1.783,1.06,1.783,2.75c0,0-0.464,0.1-1.006,0.281C15.952,20.279,15.958,20.277,15.963,20.275z"/>
</g>
<g>
	<path fill="#263238" d="M34,17c0,0-0.572,0-1.217,0.25c-0.572,0.437-0.955,1.197-0.955,2.069c0,0.339,0.058,0.662,0.162,0.956   c0.517,0.171,1.109,0.417,1.447,0.725C33.792,20.709,35.438,18.812,34,17z"/>
	<path fill="#263238" d="M13.953,17c0,0,0.572,0,1.217,0.25c0.572,0.437,0.955,1.197,0.955,2.069c0,0.339-0.058,0.662-0.162,0.956   c-0.517,0.171-1.109,0.417-1.447,0.725C14.161,20.709,12.516,18.812,13.953,17z"/>
</g>
</svg>