<?xml version="1.0" encoding="utf-8"?><!-- Generator: Adobe Illustrator 15.0.0, SVG Export Plug-In . SVG Version: 6.00 Build 0)  --><!DOCTYPE svg PUBLIC "-//W3C//DTD SVG 1.1//EN" "http://www.w3.org/Graphics/SVG/1.1/DTD/svg11.dtd"><svg xmlns="http://www.w3.org/2000/svg" xmlns:xlink="http://www.w3.org/1999/xlink" version="1.1" x="0px" y="0px" width="500" height="500" viewBox="0 0 48 48" enable-background="new 0 0 48 48" xml:space="preserve">
<g>
	<g>
		<path fill="#FFC107" d="M34.099,26.722c0.092,0.449,0.081,0.894,0.067,1.353c-0.032,0.453-0.116,0.908-0.255,1.353    c-0.135,0.438-0.174,0.994-0.591,1.288c-0.395,0.293-0.9,0.504-1.581,0.361l-0.129-0.152c-0.053-0.685,0.02-1.074,0.132-1.438    c0.094-0.361,0.5-0.51,0.752-0.805c0.246-0.289,0.489-0.6,0.726-0.932c0.253-0.326,0.461-0.686,0.682-1.056L34.099,26.722z"/>
	</g>
	<g>
		<path fill="#FFC107" d="M36.424,28.722c0.092,0.449,0.081,0.894,0.067,1.353c-0.032,0.453-0.116,0.908-0.255,1.353    c-0.135,0.438-0.174,0.994-0.591,1.288c-0.395,0.293-0.9,0.504-1.581,0.361l-0.129-0.152c-0.053-0.685,0.02-1.074,0.132-1.438    c0.094-0.361,0.5-0.51,0.752-0.805c0.246-0.289,0.489-0.6,0.726-0.932c0.253-0.326,0.461-0.686,0.682-1.056L36.424,28.722z"/>
	</g>
	<g>
		<path fill="#FFC107" d="M31.424,26.014c0.092,0.449,0.081,0.894,0.067,1.353c-0.032,0.453-0.116,0.908-0.255,1.353    c-0.135,0.438-0.174,0.994-0.591,1.288c-0.395,0.293-0.9,0.504-1.581,0.361l-0.129-0.152c-0.053-0.685,0.02-1.074,0.132-1.438    c0.094-0.36,0.5-0.51,0.752-0.805c0.246-0.289,0.489-0.599,0.726-0.931c0.253-0.327,0.461-0.687,0.682-1.057L31.424,26.014z"/>
	</g>
	<g>
		<path fill="#FFC107" d="M28.424,26.014c0.092,0.449,0.081,0.894,0.067,1.353c-0.032,0.453-0.116,0.908-0.255,1.353    c-0.135,0.438-0.174,0.994-0.591,1.288c-0.395,0.293-0.9,0.504-1.581,0.361l-0.129-0.152c-0.053-0.685,0.02-1.074,0.132-1.438    c0.094-0.36,0.5-0.51,0.752-0.805c0.246-0.289,0.489-0.599,0.726-0.931c0.253-0.327,0.461-0.687,0.682-1.057L28.424,26.014z"/>
	</g>
	<g>
		<path fill="#FFC107" d="M26.099,25.722c0.092,0.449,0.081,0.894,0.067,1.353c-0.032,0.453-0.116,0.908-0.255,1.353    c-0.135,0.438-0.174,0.994-0.591,1.288c-0.395,0.293-0.9,0.504-1.581,0.361l-0.129-0.152c-0.053-0.685,0.02-1.074,0.132-1.438    c0.094-0.361,0.5-0.51,0.752-0.805c0.246-0.289,0.489-0.6,0.726-0.932c0.253-0.326,0.461-0.686,0.682-1.056L26.099,25.722z"/>
	</g>
	<g>
		<path fill="#FFC107" d="M34.607,23.97c-0.038-0.429-0.071-0.843-0.159-1.247c-0.071-0.4-0.156-0.785-0.254-1.152    c-0.101-0.375-0.403-0.684-0.332-1.051c0.056-0.375,0.157-0.758,0.499-1.354l0.184-0.082c0.675,0.164,1.041,0.572,1.271,1.008    c0.249,0.443,0.046,0.962-0.022,1.416c-0.065,0.461-0.185,0.908-0.352,1.331c-0.186,0.42-0.367,0.825-0.643,1.191L34.607,23.97z"/>
	</g>
	<g>
		<path fill="#FFC107" d="M31.154,23.97c-0.038-0.429-0.071-0.843-0.159-1.247c-0.071-0.4-0.156-0.785-0.254-1.152    c-0.101-0.375-0.403-0.684-0.332-1.051c0.056-0.375,0.157-0.758,0.499-1.354l0.184-0.082c0.675,0.164,1.041,0.572,1.271,1.008    c0.249,0.443,0.046,0.962-0.022,1.416c-0.065,0.461-0.185,0.908-0.352,1.331c-0.186,0.42-0.367,0.825-0.643,1.191L31.154,23.97z"/>
	</g>
	<g>
		<path fill="#FFC107" d="M28.154,23.845c-0.038-0.429-0.071-0.843-0.159-1.247c-0.071-0.4-0.156-0.785-0.254-1.152    c-0.101-0.375-0.403-0.684-0.332-1.051c0.056-0.375,0.157-0.758,0.499-1.354l0.184-0.082c0.675,0.164,1.041,0.572,1.271,1.008    c0.249,0.443,0.046,0.962-0.022,1.416c-0.065,0.461-0.185,0.907-0.352,1.331c-0.186,0.42-0.367,0.825-0.643,1.191L28.154,23.845z"/>
	</g>
	<g>
		<path fill="#FFC107" d="M25.607,22.845c-0.038-0.429-0.071-0.843-0.159-1.247c-0.071-0.4-0.156-0.785-0.254-1.152    c-0.101-0.375-0.403-0.684-0.332-1.051c0.056-0.375,0.157-0.758,0.499-1.354l0.184-0.082c0.675,0.164,1.041,0.572,1.271,1.008    c0.249,0.443,0.046,0.962-0.022,1.416c-0.065,0.461-0.185,0.907-0.352,1.331c-0.186,0.42-0.367,0.825-0.643,1.191L25.607,22.845z"/>
	</g>
	<g>
		<path fill="#FFC107" d="M23.154,21.845c-0.038-0.429-0.071-0.843-0.159-1.247c-0.071-0.4-0.156-0.785-0.254-1.152    c-0.101-0.375-0.403-0.684-0.332-1.051c0.056-0.375,0.157-0.758,0.499-1.354l0.184-0.082c0.675,0.164,1.041,0.572,1.271,1.008    c0.249,0.443,0.046,0.962-0.022,1.416c-0.065,0.461-0.185,0.907-0.352,1.331c-0.186,0.42-0.367,0.825-0.643,1.191L23.154,21.845z"/>
	</g>
	<g>
		<path fill="#FFC107" d="M37.607,22.97c-0.038-0.429-0.071-0.843-0.159-1.247c-0.071-0.4-0.156-0.785-0.254-1.152    c-0.101-0.375-0.403-0.684-0.332-1.051c0.056-0.375,0.157-0.758,0.499-1.354l0.184-0.082c0.675,0.164,1.041,0.572,1.271,1.008    c0.249,0.443,0.046,0.962-0.022,1.416c-0.065,0.461-0.185,0.908-0.352,1.331c-0.186,0.42-0.367,0.825-0.643,1.191L37.607,22.97z"/>
	</g>
	<g>
		<path fill="#FFC107" d="M40.154,20.845c-0.038-0.429-0.071-0.843-0.159-1.247c-0.071-0.4-0.156-0.785-0.254-1.152    c-0.101-0.375-0.403-0.684-0.332-1.051c0.056-0.375,0.157-0.758,0.499-1.354l0.184-0.082c0.675,0.164,1.041,0.572,1.271,1.008    c0.249,0.443,0.046,0.962-0.022,1.416c-0.065,0.461-0.185,0.907-0.352,1.331c-0.186,0.42-0.367,0.825-0.643,1.191L40.154,20.845z"/>
	</g>
</g>
<path fill="#63560A" d="M10,42c0,0-4-7-3-21S17,7,19,7s8,2,10,2s8-1,9-1s5-1,5,5v4c0,0-3,3-7,3s-15,0-15,0l-2,4c0,0,1,13,11,18H10z"/>
<path fill="#FF1744" d="M36,31c-8-3-12-5-14-6s-3-1-1-4c0,0-3,2-7,2c2,3,3,1,8,4c4.176,2.506,12.533,5.01,15.176,5.768  C37.696,31.851,36,31,36,31z"/>
<path fill="#D50000" d="M14,23c-0.563,0.141-1.257,0.26-2,0.373v2.023c0.816-0.118,1.58-0.245,2.245-0.398  c2.28-0.041,4.246-0.633,5.649-1.211C19.902,23.002,20.193,22.075,21,21C21,21,18,23,14,23z"/>
<path fill="#827717" d="M38,8c-1,0-7,1-9,1c-1.289,0-4.232-0.827-6.703-1.417C18.637,5.466,17,6,17,6s-5,0-5,6c0,2-1,3-1,3s-2,2-2,7  c0,4,1,6,1,6s1,3,4,4l19,3c0,0,4,1,5-2c0,0-11-3-16-6s-6-1-8-4c4,0,7-2,7-2s7,0,12,0c7,0,10-4,10-4c0-0.474,0-1.58,0-4  C43,7,39,8,38,8z"/>
<path fill="#423603" d="M22,27c-3.09-1.854-4.651-1.806-5.866-2.203c-0.263-0.119-0.593-0.25-0.938-0.473  c-0.129-0.095-0.256-0.197-0.386-0.324c-0.012,0-0.022,0-0.034,0c-0.271-0.244-0.539-0.56-0.775-1c0,0-1,0-2-1  c-0.06-0.06-0.132-0.132-0.197-0.197c-0.421,0.773,0.235,1.863,0.459,2.197c-0.001,0-0.002,0-0.002,0  c0.011,0.016,0.017,0.024,0.025,0.037c0.014,0.02,0.016,0.023,0.024,0.035c0.016,0.022,0.026,0.037,0.026,0.037  c0.172,0.258,0.342,0.482,0.512,0.693l0,0c1.336,1.653,2.615,1.938,3.855,2.207c0.995,0.216,2.233,0.484,4.268,1.705  c4.379,2.627,12.824,5.166,15.63,5.969C37.199,34.361,37.719,33.842,38,33C38,33,27,30,22,27z"/>
<g>
	<path fill="#544B09" d="M14,12c0-2.209,1.237-4,4-4c4,0,7,4,7,4s-2,5-7,5C15.237,17,14,14.209,14,12z"/>
	<path fill="#544B09" d="M43,14c0,0-1.75,2.688-4.324,3.785C37.328,18.439,35.461,19,33,19H21h-0.605l-0.504,0.336   C19.865,19.353,16.99,21.243,14,21c-1.106-0.09-1.847,0.386-2.197,0.803C11.868,21.868,11.94,21.94,12,22c1,1,2,1,2,1c4,0,7-2,7-2   s7,0,12,0c0.412,0,0.809-0.016,1.193-0.043c0.129-0.008,0.249-0.023,0.375-0.035c0.251-0.022,0.5-0.047,0.739-0.08   c0.14-0.019,0.273-0.042,0.409-0.064c0.213-0.035,0.424-0.072,0.627-0.113c0.135-0.029,0.267-0.059,0.396-0.09   c0.192-0.045,0.38-0.094,0.563-0.145c0.124-0.035,0.248-0.069,0.367-0.106c0.181-0.056,0.354-0.114,0.523-0.175   c0.107-0.038,0.218-0.075,0.321-0.115c0.181-0.068,0.353-0.142,0.522-0.215c0.08-0.035,0.165-0.068,0.243-0.104   c0.238-0.109,0.466-0.221,0.68-0.334c0.056-0.03,0.104-0.061,0.158-0.09c0.157-0.088,0.313-0.174,0.456-0.262   c0.08-0.049,0.152-0.098,0.229-0.146c0.107-0.068,0.215-0.137,0.314-0.205c0.076-0.053,0.146-0.104,0.218-0.155   c0.088-0.063,0.174-0.127,0.255-0.188c0.066-0.051,0.13-0.102,0.191-0.15c0.074-0.061,0.145-0.118,0.211-0.175   c0.056-0.047,0.111-0.095,0.162-0.139c0.062-0.056,0.119-0.108,0.174-0.159c0.043-0.04,0.089-0.082,0.127-0.119   c0.054-0.053,0.1-0.1,0.146-0.146c0.029-0.029,0.063-0.063,0.089-0.09c0.063-0.065,0.115-0.125,0.159-0.174   c-0.011,0.008-0.019,0.012-0.021,0.012C42.815,17.193,43,17,43,17S43.031,15.875,43,14z"/>
</g>
<g>
	<polygon fill="#282302" points="21,34 18,34 18,36 20,38 22,37  "/>
	<polygon fill="#282302" points="23,38 21,39 21,41 24,41 24,39  "/>
	<polygon fill="#282302" points="17,34 17,36 15,37 13,35 14,33  "/>
	<polygon fill="#282302" points="18,37 16,38 17,41 20,41 20,39  "/>
	<polygon fill="#282302" points="13,33 12,35 10,33 11,31  "/>
	<polygon fill="#282302" points="15,38 13,40 14,41 16,41  "/>
	<polygon fill="#282302" points="13,36 14,38 12,38  "/>
	<polygon fill="#282302" points="25,39 25,41 27,41  "/>
</g>
<g>
	<polygon fill="#9E9D24" points="24,9 26,11 27,10  "/>
	<polygon fill="#9E9D24" points="27,11 28,10 31,10 31,12  "/>
	<polygon fill="#9E9D24" points="32,10 32,12 36,11 37,9  "/>
</g>
<path fill="#FFEB3B" d="M22,12c0,0-2,2-4,2s-2-2-2-2s0-2,2-2S22,12,22,12z"/>
<path fill="#263238" d="M19,12c0,1.104-0.5,2-0.5,2S18,13.104,18,12s0.5-2,0.5-2S19,10.896,19,12z"/>
<path fill="#282302" d="M39.083,10.118c0.764,0.323,1.918,2.884,1.918,2.884s-2.318,0.202-3.082-0.118  c-0.764-0.322-1.122-1.201-0.801-1.965C37.44,10.155,38.32,9.797,39.083,10.118z"/>
</svg>