<?xml version="1.0" encoding="utf-8"?><!-- Generator: Adobe Illustrator 15.0.0, SVG Export Plug-In . SVG Version: 6.00 Build 0)  --><!DOCTYPE svg PUBLIC "-//W3C//DTD SVG 1.1//EN" "http://www.w3.org/Graphics/SVG/1.1/DTD/svg11.dtd"><svg xmlns="http://www.w3.org/2000/svg" xmlns:xlink="http://www.w3.org/1999/xlink" version="1.1" x="0px" y="0px" width="500" height="500" viewBox="0 0 48 48" enable-background="new 0 0 48 48" xml:space="preserve">
<path fill="#3949AB" d="M20.018,8.259c-0.487-0.313-1.158-0.684-2.035-1.035c-1.067,0.753-2.073,1.583-2.981,2.535  c-0.642,0.673-1.208,1.386-1.741,2.114c0.368,0.734,0.623,1.574,0.703,2.527C15.418,12.031,17.381,9.896,20.018,8.259z"/>
<g>
	<path fill="#7986CB" d="M40,12c0,3.865-2,6-8,6c-3.865,0-7-2.135-7-6s3.135-7,7-7C36,5,40,8.135,40,12z"/>
	<path fill="#7986CB" d="M33,18c0,0-16-3-19,16l-2,4l-2-4c0-3-3.244-29.005,23-29V18z"/>
	<path fill="#7986CB" d="M24,16c0,1.104,4.478,2,10,2s10,0,10-2s-4.478-4-10-4S24,14.896,24,16z"/>
</g>
<path fill="#9FA8DA" d="M24,16c-6,2-12,7-14,18l2,4l2-4c3-17,18.504-16.01,18.749-16.018C32.787,17.983,33.662,18,34,18  c4.747,0,8.713-0.004,9.736-1.273L44,16C44,16,32.591,13.137,24,16z"/>
<g>
	<circle fill="#3949AB" cx="5" cy="40" r="1"/>
	<circle fill="#3949AB" cx="19" cy="40" r="1"/>
	<path fill="#3949AB" d="M13.896,13.843c1.427-2.191,3.342-4.177,5.923-5.708C18.365,7.249,15.521,6,11,6c-1,0-2,0-2,1   C9,7.918,13.208,9.688,13.896,13.843z"/>
	<path fill="#3949AB" d="M4,40c0,0,0.586,1.414,2,0c1-1,6,0,6-2l-2-4C10,34,4,36,4,40z"/>
	<path fill="#3949AB" d="M14,34l-2,4c0,2,5,1,6,2c1.414,1.414,2,0,2,0C20,36,14,34,14,34z"/>
	<path fill="#3949AB" d="M32.953,16.234c0,0-0.953,4.109-6.72,7.204c-0.881,0.473-1.825,0.817-2.233-0.095   c-0.358-0.799,2.207-2.497,1.06-6.857c-0.164-0.623-0.106-1.033,0.894-2.033c2.547-1,6.031-0.031,6.031-0.031L32.953,16.234z"/>
	<circle fill="#3949AB" cx="26.5" cy="15.844" r="1.5"/>
	<circle fill="#3949AB" cx="31.5" cy="15.844" r="1.5"/>
</g>
<circle cx="36" cy="11" r="1"/>
</svg>