<?xml version="1.0" encoding="utf-8"?><!-- Generator: Adobe Illustrator 15.0.0, SVG Export Plug-In . SVG Version: 6.00 Build 0)  --><!DOCTYPE svg PUBLIC "-//W3C//DTD SVG 1.1//EN" "http://www.w3.org/Graphics/SVG/1.1/DTD/svg11.dtd"><svg xmlns="http://www.w3.org/2000/svg" xmlns:xlink="http://www.w3.org/1999/xlink" version="1.1" x="0px" y="0px" width="500" height="500" viewBox="0 0 48 48" enable-background="new 0 0 48 48" xml:space="preserve">
<g>
	<path fill="#42A5F5" d="M9,13h14v2h-1h-5H7c0,0-2.231,0.375-3.973,1.119c0.002,0.014,0.012,0.023,0.014,0.037H3.035   C3.024,16.104,3,16.056,3,16C3,14,9,13,9,13z"/>
	<path fill="#42A5F5" d="M10,22.43l13-8v2c0,0-0.901,0.604-1.881,1.641L9.16,25.43c0,0-1.298,1.3-2.23,2.787   C6.276,26.162,10,22.43,10,22.43z"/>
	<path fill="#42A5F5" d="M39,13H25v2h1h5h10c0,0,2.231,0.375,3.973,1.119c-0.002,0.014-0.012,0.023-0.014,0.037h0.006   C44.976,16.104,45,16.056,45,16C45,14,39,13,39,13z"/>
	<path fill="#42A5F5" d="M38,22.43l-13-8v2c0,0,0.901,0.604,1.881,1.641L38.84,25.43c0,0,1.298,1.3,2.23,2.787   C41.724,26.162,38,22.43,38,22.43z"/>
</g>
<g>
	<path fill="#90CAF9" d="M3.027,16.119C4.769,15.375,7,15,7,15h15v0.412C21.986,15.418,15.708,18,13,18   C10.063,18,3.312,17.995,3.027,16.119z"/>
	<path fill="#90CAF9" d="M21.119,18.07c-1.202,1.159-2.014,3.042-2.119,3.359c-1,3-10.735,9.53-12,7   c-0.033-0.066-0.048-0.141-0.07-0.213c0.933-1.487,2.23-2.787,2.23-2.787L21.119,18.07z"/>
	<path fill="#90CAF9" d="M44.973,16.119C43.231,15.375,41,15,41,15H26v0.412C26.014,15.418,32.291,18,35,18   C37.937,18,44.688,17.995,44.973,16.119z"/>
	<path fill="#90CAF9" d="M26.881,18.07c1.202,1.159,2.014,3.042,2.119,3.359c1,3,10.735,9.53,12,7   c0.033-0.066,0.048-0.141,0.07-0.213c-0.933-1.487-2.23-2.787-2.23-2.787L26.881,18.07z"/>
</g>
<path fill="#9FA8DA" d="M25,41c0,1.104-1,1-1,1s-1,0.104-1-1l-1-19c0-1.104,0.895-2,2-2l0,0c1.105,0,2,0.896,2,2L25,41z"/>
<path fill="#004D40" d="M26,8c0,1.104-0.896,4-2,4s-2-2.896-2-4s0.896-2,2-2S26,6.896,26,8z"/>
<g>
	<path fill="#4CAF50" d="M24,7.512C23.581,7.195,23.065,7,22.5,7C21.119,7,20,8.119,20,9.5s1.119,2.5,2.5,2.5c0.565,0,1.5,0,1.5,0   C22.844,10.344,23.396,7.968,24,7.512z"/>
	<path fill="#4CAF50" d="M25.5,7c-0.565,0-1.081,0.195-1.5,0.512c0.604,0.456,1.156,2.973,0,4.488c0,0,0.935,0,1.5,0   c1.381,0,2.5-1.119,2.5-2.5S26.881,7,25.5,7z"/>
</g>
<path fill="#311B92" d="M24,20c-1.105,0-2,0.896-2,2l0.105,2h3.789L26,22C26,20.896,25.105,20,24,20z"/>
<polygon fill="#3949AB" points="22.368,29 25.632,29 25.842,25 22.158,25 "/>
<g>
	<path fill="#283593" d="M27,15c0,2-1,5-3,5s-3-3-3-5c0-1.656,0-3,3-3S27,13.344,27,15z"/>
	<path fill="#283593" d="M24,20c-1.105,0-2,0.896-2,2l0.158,3h3.684L26,22C26,20.896,25.105,20,24,20z"/>
</g>
<polygon fill="#5C6BC0" points="22.579,33 25.421,33 25.632,29 22.368,29 "/>
<polygon fill="#7986CB" points="22.789,37 25.211,37 25.421,33 22.579,33 "/>
</svg>