<?xml version="1.0" encoding="utf-8"?><!-- Generator: Adobe Illustrator 15.0.0, SVG Export Plug-In . SVG Version: 6.00 Build 0)  --><!DOCTYPE svg PUBLIC "-//W3C//DTD SVG 1.1//EN" "http://www.w3.org/Graphics/SVG/1.1/DTD/svg11.dtd"><svg xmlns="http://www.w3.org/2000/svg" xmlns:xlink="http://www.w3.org/1999/xlink" version="1.1" x="0px" y="0px" width="500" height="500" viewBox="0 0 48 48" enable-background="new 0 0 48 48" xml:space="preserve">
<g>
	
		<line fill="#DD2C00" stroke="#DD2C00" stroke-width="2" stroke-linecap="round" stroke-linejoin="round" x1="25" y1="29.063" x2="26" y2="37"/>
	<path fill="#DD2C00" d="M33,38c-1,0-2,1-2,2l-4.5-1C26,39,25,38.328,25,37.5l0,0c0-0.828,0.672-1.5,1.5-1.5H32C31,37,33,38,33,38z"/>
</g>
<g>
	
		<line fill="none" stroke="#FF3D00" stroke-width="2" stroke-linecap="round" stroke-linejoin="round" x1="23" y1="31.063" x2="24" y2="39"/>
	<path fill="#FF3D00" d="M31,40c-1,0-2,1-2,2l-4.5-1C24,41,23,40.328,23,39.5l0,0c0-0.828,0.672-1.5,1.5-1.5H30C29,39,31,40,31,40z"/>
</g>
<path fill="#BCAAA4" d="M35,17.002c0,0,7,2.998,7,7.998c0,0,1,8.002-13,9.002s-14-2-15-3C13,30,8,24.688,8,24.688  S19.001,19,28,19.002C32,19.002,35,17.002,35,17.002z"/>
<path fill="#795548" d="M42,25c0-5-7-7.998-7-7.998s-2.999,1.998-6.997,2C28.043,19.043,35,22,32,26c4,1.438,5.188,3.5,5.981,5.609  C42.482,28.916,42,25,42,25z"/>
<g>
	<path fill="#4E342E" d="M12,29l2,2.002c0,0,0-1.002,1-2.002S12,29,12,29z"/>
	<path fill="#4E342E" d="M28.003,19.002c0.07,0,0.138-0.005,0.208-0.006c-0.071,0.001-0.14,0.006-0.211,0.006   c-8.999-0.002-23,5-23,5s2.5,3.186,5.551,2.208c4.821-1.544,12.562-3.243,21.624-4.003C30.918,20.264,28.028,19.028,28.003,19.002z   "/>
</g>
<g>
	<circle fill="#4CAF50" cx="32.5" cy="10.5" r="4.5"/>
	<path fill="#4CAF50" d="M28,10.002c0,0-1,4,0,9c5,2,7-2,7-2s-2-1,1-4L28,10.002z"/>
</g>
<path fill="#EFEBE9" d="M36.047,17.523C35.419,17.182,35,17.002,35,17.002s-0.383-0.192-0.563-0.658  c-1.016,0.973-3.159,2.167-6.775,0.314c0.07,0.746,0.175,1.527,0.337,2.339c1.169,0.447,2.218,0.63,3.149,0.63  C33.543,19.627,35.16,18.435,36.047,17.523z"/>
<g>
	<path fill="#FBC02D" d="M43,13c0,0.552-0.5,0.859-1,1c-0.532,0.149-1-0.448-1-1s0.447-1,1-1S43,12.448,43,13z"/>
	<path fill="#FBC02D" d="M37,10.002c0,0,1.656,2,5,2c1,0,0,2,0,2s-4.063,1.295-7.063,0.295C36.656,13.125,37,11.002,37,10.002z"/>
</g>
<path fill="#004D40" d="M34.707,9.293C35.098,9.684,35,11,35,11s-1.316,0.098-1.707-0.293S33,9,33,9S34.316,8.902,34.707,9.293z"/>
<ellipse transform="matrix(0.9683 0.2497 -0.2497 0.9683 4.2172 -9.1451)" fill="#6B4C07" cx="38.152" cy="12.049" rx="0.512" ry="0.256"/>
<path fill="#A1887F" d="M32.034,21.999C32.021,21.999,32.013,22,32,22c-8.999,0-25.016,5-25.016,5s2.266,3.188,5.215,2.771  C17.39,29.039,25.626,27.912,32,26C33.139,24.481,32.842,23.114,32.034,21.999z"/>
</svg>