<?xml version="1.0" encoding="iso-8859-1"?><!-- Generator: Adobe Illustrator 19.1.1, SVG Export Plug-In . SVG Version: 6.00 Build 0)  --><svg xmlns="http://www.w3.org/2000/svg" xmlns:xlink="http://www.w3.org/1999/xlink" version="1.1" id="Layer_1" x="0px" y="0px" viewBox="0 0 48 48" enable-background="new 0 0 48 48" xml:space="preserve" width="500" height="500">
<path fill="#78909C" d="M44,16.5C44,10.701,39.299,6,33.5,6c-2.598,0-4.971,0.948-6.804,2.511C24.924,7.919,21.459,7,17,7  C17,7,4,6.688,4,20c0,5.921,1.559,9.448,2,12c0.51,2.951,0.924,10.083,0.924,10.083C6.967,42.601,7.4,43,7.92,43H15V33  c0,0,1.38,1,3,1c1.62,0,3-1,3-1v9c0,0.552,0.448,1,1,1h7c0,0,0.512-9.438,1-12c0.488-2.562,2-6,2-6c8.063,0,8,6,8,6v1  c0,1.103-0.897,2-2,2s-2-0.897-2-2h-4c0,3.309,2.691,6,6,6s6-2.691,6-6v-1V18v-1h-0.03C43.983,16.835,44,16.672,44,16.5z"/>
<circle fill="#37474F" cx="38" cy="17" r="1"/>
<path fill="#B0BEC5" d="M19,15c0,5.33,2.689,10.61,8,13c0,0,2.149-10.725,3-14c0,0,1-0.829,1-2.5C31,8.462,28.538,6,25.5,6  S19,9.079,19,15z"/>
<path fill="#EFEBE9" d="M43.604,26.938c-0.251-0.036-0.607-0.088-1.022-0.208c-0.208-0.051-0.432-0.107-0.661-0.198  c-0.229-0.088-0.475-0.154-0.712-0.275c-0.483-0.213-0.979-0.472-1.438-0.784c-0.929-0.607-1.716-1.378-2.222-2.004  c-0.258-0.309-0.446-0.582-0.569-0.77c-0.126-0.193-0.157-0.267-0.171-0.285l-0.014,0.01C36.614,22.174,36.333,22,36,22  c-0.552,0-1,0.448-1,1c0,0.219,0.085,0.411,0.204,0.576l-0.014,0.01c-0.007-0.009,0.026,0.029,0.085,0.094  c0.012,0.013,0.023,0.027,0.036,0.039c0.054,0.058,0.12,0.128,0.2,0.206c0.204,0.199,0.495,0.469,0.867,0.758  c0.733,0.587,1.795,1.246,2.938,1.68c0.566,0.226,1.153,0.386,1.705,0.498c0.272,0.07,0.547,0.086,0.799,0.124  c0.252,0.041,0.494,0.048,0.716,0.054c0.442,0.03,0.809,0.003,1.064-0.015C43.855,27.009,44,27,44,27S43.856,26.977,43.604,26.938z"/>
<path fill="#546E7A" d="M29,43h-7c-0.493,0-0.884-0.364-0.966-0.833C21.204,40.395,22.684,39,24.5,39c0.539,0,1.044,0.133,1.5,0.351  C26.456,39.133,26.961,39,27.5,39c0.626,0,1.206,0.179,1.715,0.468C29.084,41.462,29,43,29,43z M9,42.5c0-0.828,0.672-1.5,1.5-1.5  s1.5,0.672,1.5,1.5c0-0.828,0.672-1.5,1.5-1.5s1.5,0.672,1.5,1.5v-3.149C14.544,39.133,14.039,39,13.5,39  c-0.536,0-1.045,0.121-1.5,0.338C11.545,39.121,11.036,39,10.5,39c-1.894,0-3.433,1.515-3.489,3.395C7.165,42.751,7.512,43,7.92,43  H9V42.5z M26.304,27.653C21.458,25.127,19,20.09,19,15c0-3.617,1.295-6.168,2.993-7.61c-0.777-0.121-1.611-0.224-2.505-0.293  C18.001,8.947,17,11.595,17,15c0,6.32,3.987,10.122,9.302,12.671L26.304,27.653z M15,32v1c0,0,1.38,1,3,1c1.62,0,3-1,3-1v-4  C21,29,20.336,32,15,32z M29,13c-0.552,0-1,0.448-1,1s1,4,1,4s1-3.448,1-4S29.552,13,29,13z M30.388,8.986  c0.015,0.03,0.029,0.061,0.044,0.091c0.071,0.144,0.136,0.291,0.195,0.442c0.021,0.053,0.04,0.106,0.059,0.16  c0.047,0.133,0.088,0.269,0.125,0.407c0.017,0.063,0.034,0.126,0.049,0.19c0.032,0.139,0.056,0.281,0.077,0.424  c0.009,0.061,0.021,0.12,0.028,0.182C30.986,11.084,31,11.29,31,11.5c0,0.132-0.016,0.249-0.027,0.37  c0.545-1.532,0.988-3.661,0.288-5.62C30.4,6.439,29.578,6.729,28.81,7.115c0,0,0,0,0.001,0C29.467,7.612,30.008,8.249,30.388,8.986z  "/>
<path fill="#CFD8DC" d="M9,42.5c0-0.828,0.672-1.5,1.5-1.5s1.5,0.672,1.5,1.5V43H9V42.5z M12,43h3v-0.5c0-0.828-0.672-1.5-1.5-1.5  S12,41.672,12,42.5V43z M23,43h3v-0.5c0-0.828-0.672-1.5-1.5-1.5S23,41.672,23,42.5V43z M26,43h3v-0.5c0-0.828-0.672-1.5-1.5-1.5  S26,41.672,26,42.5V43z"/>
</svg>