<?xml version="1.0" encoding="utf-8"?><!-- Generator: Adobe Illustrator 15.0.0, SVG Export Plug-In . SVG Version: 6.00 Build 0)  --><!DOCTYPE svg PUBLIC "-//W3C//DTD SVG 1.1//EN" "http://www.w3.org/Graphics/SVG/1.1/DTD/svg11.dtd"><svg xmlns="http://www.w3.org/2000/svg" xmlns:xlink="http://www.w3.org/1999/xlink" version="1.1" x="0px" y="0px" width="500" height="500" viewBox="0 0 48 48" enable-background="new 0 0 48 48" xml:space="preserve">
<g>
	<g>
		<path fill="#6D4C41" d="M26,24c1.421-0.072,2.702,0.008,3.96,0.109c1.252,0.107,2.462,0.248,3.654,0.383    c1.193,0.135,2.364,0.271,3.559,0.365c1.201,0.1,2.4,0.152,3.827,0.143c-0.881,1.145-2.221,1.832-3.576,2.203    c-1.369,0.367-2.789,0.428-4.152,0.269c-1.367-0.159-2.688-0.534-3.922-1.093C28.122,25.805,26.95,25.077,26,24z"/>
	</g>
	<g>
		<path fill="#6D4C41" d="M25,23c1.711-0.416,3.353-0.627,4.979-0.807c1.624-0.17,3.225-0.291,4.804-0.413    c1.578-0.128,3.137-0.241,4.666-0.456C40.983,21.088,42.472,20.859,44,20c-0.261,0.862-0.886,1.588-1.57,2.188    c-0.701,0.592-1.501,1.045-2.32,1.402c-1.648,0.705-3.382,1.047-5.096,1.181c-1.718,0.13-3.428,0.044-5.107-0.228    C28.23,24.256,26.57,23.817,25,23z"/>
	</g>
	<g>
		<path fill="#6D4C41" d="M22,24c-0.95,1.077-2.122,1.805-3.35,2.379c-1.234,0.559-2.555,0.934-3.922,1.093    c-1.363,0.159-2.783,0.099-4.152-0.269C9.221,26.832,7.881,26.145,7,25c1.427,0.01,2.626-0.043,3.827-0.143    c1.194-0.094,2.365-0.23,3.559-0.365c1.192-0.135,2.402-0.275,3.654-0.383C19.298,24.008,20.579,23.928,22,24z"/>
	</g>
	<g>
		<path fill="#6D4C41" d="M23,23c-1.57,0.817-3.23,1.256-4.906,1.543c-1.68,0.271-3.39,0.357-5.107,0.228    c-1.714-0.134-3.447-0.476-5.096-1.181c-0.819-0.357-1.619-0.811-2.32-1.402C4.886,21.588,4.261,20.862,4,20    c1.528,0.859,3.017,1.088,4.551,1.324c1.529,0.215,3.088,0.328,4.666,0.456c1.579,0.122,3.18,0.243,4.804,0.413    C19.647,22.373,21.289,22.584,23,23z"/>
	</g>
</g>
<g>
	<g>
		<path fill="#8D6E63" d="M24,22c2.028-0.646,4.008-1.117,5.97-1.582c1.96-0.457,3.896-0.893,5.792-1.377    c1.893-0.491,3.755-1.014,5.508-1.74c1.748-0.74,3.406-1.622,4.73-3.301c-0.045,1.081-0.53,2.135-1.174,3.05    c-0.658,0.911-1.501,1.675-2.403,2.309c-1.819,1.267-3.863,2.06-5.919,2.588c-2.063,0.523-4.161,0.776-6.255,0.806    C28.155,22.765,26.056,22.595,24,22z"/>
	</g>
	<g>
		<path fill="#8D6E63" d="M24,22c-2.056,0.595-4.155,0.765-6.249,0.752c-2.094-0.029-4.192-0.282-6.255-0.806    c-2.056-0.528-4.1-1.321-5.919-2.588c-0.902-0.634-1.745-1.397-2.403-2.309C2.53,16.135,2.045,15.081,2,14    c1.324,1.679,2.982,2.561,4.73,3.301c1.753,0.727,3.615,1.249,5.508,1.74c1.896,0.484,3.832,0.92,5.792,1.377    C19.992,20.883,21.972,21.354,24,22z"/>
	</g>
	<g>
		<path fill="#8D6E63" d="M24,32.002c0.621,0.582,0.943,1.166,1.176,1.75c0.22,0.582,0.322,1.166,0.324,1.75    c0.002,0.582-0.101,1.166-0.32,1.75c-0.231,0.582-0.555,1.166-1.18,1.75c-0.625-0.584-0.948-1.168-1.18-1.75    c-0.22-0.584-0.322-1.168-0.32-1.75c0.002-0.584,0.104-1.168,0.324-1.75C23.057,33.168,23.379,32.584,24,32.002z"/>
	</g>
	<g>
		<path fill="#8D6E63" d="M24,31c0.331,0.885,0.383,1.664,0.351,2.413c-0.044,0.743-0.198,1.446-0.446,2.114    c-0.248,0.667-0.594,1.298-1.05,1.889C22.388,38,21.835,38.554,21,39.002c-0.335-0.887-0.388-1.668-0.354-2.416    c0.044-0.743,0.198-1.445,0.45-2.111s0.598-1.297,1.054-1.887C22.617,32.002,23.169,31.449,24,31z"/>
	</g>
	<g>
		<path fill="#8D6E63" d="M18,37.002c0.103-0.895,0.396-1.559,0.748-2.154c0.358-0.586,0.793-1.08,1.292-1.498    c0.498-0.419,1.064-0.757,1.705-1.005c0.647-0.239,1.354-0.407,2.255-0.343c-0.1,0.896-0.393,1.561-0.745,2.155    c-0.359,0.585-0.793,1.081-1.295,1.495c-0.501,0.416-1.066,0.754-1.708,1.002C19.604,36.893,18.897,37.061,18,37.002z"/>
	</g>
	<g>
		<path fill="#8D6E63" d="M24,31c0.831,0.449,1.383,1.002,1.851,1.588c0.456,0.59,0.802,1.221,1.054,1.887s0.406,1.368,0.45,2.111    c0.033,0.748-0.02,1.529-0.354,2.416c-0.835-0.448-1.388-1.002-1.854-1.586c-0.456-0.591-0.802-1.222-1.05-1.889    c-0.248-0.668-0.402-1.371-0.446-2.114C23.617,32.664,23.669,31.885,24,31z"/>
	</g>
	<g>
		<path fill="#8D6E63" d="M30,37.002c-0.897,0.061-1.604-0.109-2.253-0.347c-0.641-0.248-1.206-0.586-1.707-1.001    c-0.502-0.415-0.936-0.911-1.295-1.496c-0.352-0.595-0.645-1.26-0.745-2.156c0.9-0.063,1.606,0.105,2.255,0.344    c0.641,0.248,1.207,0.586,1.705,1.004c0.499,0.418,0.934,0.914,1.293,1.499C29.604,35.444,29.897,36.108,30,37.002z"/>
	</g>
</g>
<g>
	<g>
		<path fill="#5D4037" d="M27,27c0.773,0.154,1.28,0.43,1.711,0.742c0.419,0.318,0.736,0.684,0.971,1.092    c0.235,0.406,0.382,0.856,0.442,1.359C30.187,30.711,30.132,31.231,30,32c-0.806,0.063-1.396-0.238-1.863-0.535    c-0.464-0.318-0.813-0.707-1.061-1.146c-0.248-0.438-0.399-0.927-0.439-1.468C26.609,28.304,26.665,27.715,27,27z"/>
	</g>
	<g>
		<path fill="#5D4037" d="M21,27c0.335,0.715,0.391,1.304,0.363,1.851c-0.04,0.541-0.191,1.029-0.439,1.468    c-0.248,0.439-0.597,0.828-1.061,1.146C19.396,31.762,18.806,32.063,18,32c-0.132-0.769-0.187-1.289-0.124-1.807    c0.061-0.503,0.207-0.953,0.442-1.359c0.234-0.408,0.552-0.773,0.971-1.092C19.72,27.43,20.227,27.154,21,27z"/>
	</g>
	<g>
		<path fill="#5D4037" d="M21,25c-0.001,0.998-0.392,1.828-0.896,2.537c-0.519,0.703-1.198,1.277-1.977,1.684    c-0.777,0.406-1.659,0.638-2.553,0.636C14.683,29.848,13.772,29.621,13,29c0.767-0.631,1.396-1.039,1.996-1.43    c0.6-0.379,1.161-0.71,1.751-1.012c0.588-0.305,1.199-0.582,1.878-0.848C19.313,25.447,20.041,25.205,21,25z"/>
	</g>
	<g>
		<path fill="#5D4037" d="M27,25c0.959,0.205,1.688,0.447,2.375,0.711c0.679,0.266,1.29,0.543,1.878,0.848    c0.59,0.302,1.151,0.633,1.751,1.012c0.6,0.391,1.229,0.799,1.996,1.43c-0.772,0.621-1.683,0.848-2.575,0.856    c-0.894,0.002-1.775-0.229-2.553-0.636c-0.778-0.406-1.458-0.98-1.977-1.684C27.392,26.828,27.001,25.998,27,25z"/>
	</g>
</g>
<g>
	<g>
		<path fill="#BCAAA4" d="M25,20c1.031-0.643,1.978-1.09,2.895-1.514l2.598-1.178c0.815-0.39,1.567-0.775,2.291-1.264    C33.515,15.559,34.206,14.938,35,14c0.455,1.142,0.228,2.506-0.441,3.598c-0.668,1.099-1.699,1.916-2.785,2.422    c-1.093,0.513-2.254,0.753-3.4,0.768C27.228,20.785,26.075,20.599,25,20z"/>
	</g>
	<g>
		<path fill="#BCAAA4" d="M23,20c-1.075,0.599-2.228,0.785-3.373,0.787c-1.146-0.015-2.308-0.255-3.4-0.768    c-1.086-0.506-2.117-1.323-2.785-2.422C12.772,16.506,12.545,15.142,13,14c0.794,0.938,1.485,1.559,2.217,2.045    c0.724,0.488,1.476,0.874,2.291,1.264l2.598,1.178C21.022,18.91,21.969,19.357,23,20z"/>
	</g>
</g>
<g>
	<g>
		<path fill="#A1887F" d="M24,22c1.077-0.435,2.047-0.668,3.009-0.848c0.959-0.17,1.893-0.273,2.827-0.322    c0.935-0.053,1.867-0.048,2.832,0.014c0.97,0.072,1.955,0.176,3.083,0.49c-0.767,0.883-1.711,1.439-2.693,1.836    c-0.986,0.389-2.024,0.602-3.065,0.654s-2.089-0.05-3.105-0.324C25.874,23.213,24.87,22.791,24,22z"/>
	</g>
	<g>
		<path fill="#A1887F" d="M26.334,22.668c0.838-0.148,1.455-0.17,2.036-0.141c0.572,0.038,1.082,0.127,1.568,0.277    c0.488,0.146,0.95,0.354,1.438,0.637c0.489,0.294,0.996,0.637,1.624,1.227c-0.553,0.658-1.233,0.968-1.917,1.114    c-0.687,0.136-1.384,0.089-2.027-0.11c-0.643-0.201-1.236-0.547-1.725-1.035C26.854,24.143,26.442,23.525,26.334,22.668z"/>
	</g>
	<g>
		<path fill="#A1887F" d="M26.667,23.418c0.788,0.108,1.32,0.334,1.783,0.6c0.452,0.27,0.81,0.588,1.097,0.949    c0.289,0.361,0.5,0.769,0.652,1.24c0.154,0.486,0.229,0.999,0.302,1.793c-0.771,0.248-1.445,0.086-1.99-0.146    c-0.548-0.246-0.986-0.604-1.319-1.03c-0.333-0.426-0.565-0.92-0.681-1.477C26.407,24.784,26.393,24.168,26.667,23.418z"/>
	</g>
	<g>
		<path fill="#A1887F" d="M23,22c2.153-1.098,4.296-2.01,6.42-2.936c2.125-0.912,4.23-1.805,6.295-2.742    c2.063-0.941,4.088-1.914,6.01-3.051C43.645,12.127,45.458,10.859,47,9c-0.398,2.438-2.063,4.547-3.877,6.171    c-1.855,1.634-3.975,2.888-6.169,3.884c-2.199,0.993-4.487,1.733-6.818,2.248C27.8,21.795,25.424,22.123,23,22z"/>
	</g>
	<g>
		<path fill="#A1887F" d="M24,22c-0.87,0.791-1.874,1.213-2.887,1.5c-1.017,0.274-2.064,0.377-3.105,0.324s-2.079-0.266-3.065-0.654    c-0.982-0.396-1.927-0.953-2.693-1.836c1.128-0.314,2.113-0.418,3.083-0.49c0.965-0.062,1.897-0.066,2.832-0.014    c0.935,0.049,1.868,0.152,2.827,0.322C21.953,21.332,22.923,21.565,24,22z"/>
	</g>
	<g>
		<path fill="#A1887F" d="M21.666,22.668c-0.108,0.857-0.521,1.475-0.998,1.969c-0.488,0.488-1.082,0.834-1.725,1.035    c-0.644,0.199-1.341,0.246-2.027,0.11c-0.684-0.146-1.364-0.456-1.917-1.114c0.628-0.59,1.135-0.933,1.624-1.227    c0.488-0.283,0.95-0.49,1.438-0.637c0.486-0.15,0.996-0.239,1.568-0.277C20.211,22.498,20.828,22.52,21.666,22.668z"/>
	</g>
	<g>
		<path fill="#A1887F" d="M21.333,23.418c0.274,0.75,0.26,1.366,0.156,1.929c-0.115,0.557-0.348,1.051-0.681,1.477    c-0.333,0.427-0.771,0.784-1.319,1.03c-0.545,0.232-1.22,0.395-1.99,0.146c0.072-0.794,0.147-1.307,0.302-1.793    c0.152-0.472,0.363-0.879,0.652-1.24c0.287-0.361,0.645-0.68,1.097-0.949C20.013,23.752,20.545,23.526,21.333,23.418z"/>
	</g>
	<g>
		<path fill="#A1887F" d="M25,22c-2.424,0.123-4.8-0.205-7.136-0.697c-2.331-0.515-4.619-1.255-6.818-2.248    c-2.194-0.996-4.313-2.25-6.169-3.884C3.063,13.547,1.398,11.438,1,9c1.542,1.859,3.355,3.127,5.275,4.271    c1.922,1.137,3.947,2.109,6.01,3.051c2.064,0.938,4.17,1.83,6.295,2.742C20.704,19.99,22.847,20.902,25,22z"/>
	</g>
</g>
<path fill="#6D4C41" d="M28,26c0,4.909-2,8-4,8c-2,0.002-4-3.091-4-8s1.791-10,4-10S28,21.091,28,26z"/>
<path fill="#4E342E" d="M26,17.997c0,1.104-0.896-0.001-2-0.001l0,0c-1.104,0-2,1.105-2,0.001v-0.999c0-1.104,0.896-2,2-2l0,0  c1.104,0,2,0.896,2,2V17.997z"/>
<path fill="#FFEB3B" d="M25,17.998c0,0.553-1,2-1,2s-1-1.447-1-2s0.447-1,1-1S25,17.445,25,17.998z"/>
</svg>