<?xml version="1.0" encoding="utf-8"?><!-- Generator: Adobe Illustrator 15.0.0, SVG Export Plug-In . SVG Version: 6.00 Build 0)  --><!DOCTYPE svg PUBLIC "-//W3C//DTD SVG 1.1//EN" "http://www.w3.org/Graphics/SVG/1.1/DTD/svg11.dtd"><svg xmlns="http://www.w3.org/2000/svg" xmlns:xlink="http://www.w3.org/1999/xlink" version="1.1" x="0px" y="0px" width="500" height="500" viewBox="0 0 48 48" enable-background="new 0 0 48 48" xml:space="preserve">
<g>
	<path fill="#5C6BC0" d="M12.493,25.113C12.532,24.076,12.038,23,11,23c-3,0-5-6-5-6s-1.256,1.682-2.143,3.951   c1.875,1.635,5.042,3.826,8.641,4.02C12.499,25.019,12.495,25.066,12.493,25.113z"/>
	<path fill="#5C6BC0" d="M6,33c0,0,2-6,5-6c0.96,0,1.454-0.922,1.493-1.881c-3.174,0.758-6.614,2.659-8.644,3.909   C4.736,31.309,6,33,6,33z"/>
</g>
<path fill="#1A237E" d="M12.498,24.971c-3.6-0.193-6.767-2.385-8.641-4.02c0,0.002-0.001,0.004-0.002,0.008  c-0.117,0.301-0.229,0.612-0.329,0.932c-0.002,0.008-0.005,0.015-0.007,0.022c-0.099,0.315-0.187,0.639-0.262,0.967  c-0.008,0.036-0.014,0.071-0.021,0.106c-0.059,0.271-0.106,0.545-0.144,0.82c-0.011,0.08-0.022,0.16-0.031,0.24  C3.024,24.363,3,24.682,3,25c0,0.316,0.024,0.633,0.059,0.947c0.009,0.082,0.02,0.162,0.031,0.243  c0.037,0.27,0.083,0.538,0.14,0.802c0.009,0.041,0.016,0.082,0.025,0.122c0.074,0.325,0.161,0.647,0.259,0.961  c0,0.003,0.001,0.005,0.002,0.009c0.101,0.32,0.212,0.635,0.331,0.939c0,0.002,0.001,0.004,0.001,0.004  c2.03-1.249,5.47-3.15,8.644-3.908c0,0,0-0.004,0-0.006C12.495,25.066,12.499,25.019,12.498,24.971z"/>
<path fill="#F9A825" d="M35.166,13.834C35.166,13.834,28,9,19,9c-8,0-8.25,3.688-8,5c0.187,0.982,3,7,0,9L35.166,13.834z"/>
<g>
	<path fill="#FFC107" d="M11,25c3,2,0.135,8.009,0,9c-0.188,1.375,0,5,8,5c9,0,16.166-4.832,16.166-4.832L11,25z"/>
	<g>
		<path fill="#FFC107" d="M44.707,24.93c0,0-3.86-1.652-5.729-5.824C37.521,14.866,34.404,12,29,12c-10,0-15,9-18,11    c0,0-1,0.976-1,2c0,0.771,1,2,1,2c3,2,7,10,15,10c12.084,0,18.707-10.656,18.707-10.656C45.098,25.953,45.098,25.32,44.707,24.93z    "/>
		<path fill="#FFC107" d="M44.707,24.93c0,0-3.86-1.652-5.729-5.824C37.521,14.866,34.404,12,29,12c-10,0-15,9-18,11    c0,0-1,0.976-1,2c0,0.771,1,2,1,2c3,2,7,10,15,10c12.084,0,18.707-10.656,18.707-10.656C45.098,25.953,45.098,25.32,44.707,24.93z    "/>
	</g>
</g>
<g>
	<path fill="#3F51B5" d="M13.268,33.246c0.036-0.78,0.249-2.332,0.06-4.013c-0.352-0.391-0.688-0.755-1.01-1.083   C12.277,30.563,11.026,33.348,11,34c-0.063,1.563,0,5,8,5c0.147,0,0.289-0.012,0.435-0.014C14.02,38.836,13.188,35,13.268,33.246z"/>
	<path fill="#3F51B5" d="M11,23c0.693-0.462,1.5-1.307,2.444-2.319c1.019-1.984,0.476-4.277,0.181-5.244   c-0.688-2.25,0.608-6.248,5.882-6.421C19.337,9.014,19.171,9,19,9c-8,0-8.375,3.625-8,5C11.263,14.965,14,21,11,23z"/>
	<path fill="#3F51B5" d="M43.063,23.953c-0.859-0.547-3.516-3.923-5.855-3.923C34,20.03,33,26,33,26s2.813,4.828,3.547,8.047   c1.718-1.105,2.078-1.281,2.813-1.938C39.602,31.021,39.828,26.188,43.063,23.953z"/>
</g>
<circle cx="39" cy="24" r="1"/>
<g>
	<path fill="#FF9100" d="M16.866,32.967L16,22l-0.739,9.366C15.764,31.902,16.297,32.441,16.866,32.967z"/>
	<path fill="#FF9100" d="M20.219,35.445L19,20l-1.095,13.865C18.621,34.447,19.391,34.982,20.219,35.445z"/>
	<path fill="#FF9100" d="M22,18.668l-1.344,17.023c0.856,0.438,1.779,0.779,2.768,1.006L22,18.668z"/>
	<path fill="#FF9100" d="M26.501,36.986c1.033-0.025,2.026-0.125,2.978-0.293L28,16L26.501,36.986z"/>
	<path fill="#FF9100" d="M25,17l-1.479,19.717C24.305,36.89,25.125,37,26,37c0.169,0,0.332-0.01,0.499-0.014L25,17z"/>
	<path fill="#FF9100" d="M31,15l-1.5,21.668h0.118c0.989-0.182,1.935-0.431,2.831-0.734L31,15z"/>
</g>
</svg>