<?xml version="1.0" encoding="utf-8"?><!-- Generator: Adobe Illustrator 15.0.0, SVG Export Plug-In . SVG Version: 6.00 Build 0)  --><!DOCTYPE svg PUBLIC "-//W3C//DTD SVG 1.1//EN" "http://www.w3.org/Graphics/SVG/1.1/DTD/svg11.dtd"><svg xmlns="http://www.w3.org/2000/svg" xmlns:xlink="http://www.w3.org/1999/xlink" version="1.1" x="0px" y="0px" width="500" height="500" viewBox="0 0 48 48" enable-background="new 0 0 48 48" xml:space="preserve">
<path fill="#00695C" d="M29.424,35.437C27.499,33.429,26.889,32,26.889,32s-1.845-2.781-0.193-4.773l-5.398-0.009  C22.961,29.211,21.111,32,21.111,32s-0.615,1.441-2.56,3.463c-0.071-0.299,0.157,0.71,0.433,1.537c1,3,3,4,5,4s4-1,5-4  C29.262,36.169,29.493,35.143,29.424,35.437z"/>
<g>
	<polyline fill="none" stroke="#455A64" stroke-width="2" stroke-linecap="round" points="28,22 37,26 41,32  "/>
	<polyline fill="none" stroke="#455A64" stroke-width="2" stroke-linecap="round" points="29,16 33,12 34,5  "/>
	<polyline fill="none" stroke="#455A64" stroke-width="2" stroke-linecap="round" points="28,21 35,20 37,14 42,9  "/>
	<polyline fill="none" stroke="#455A64" stroke-width="2" stroke-linecap="round" points="20,22 11,26 7,32  "/>
	<polyline fill="none" stroke="#455A64" stroke-width="2" stroke-linecap="round" points="19,16 15,12 14,5  "/>
	<polyline fill="none" stroke="#455A64" stroke-width="2" stroke-linecap="round" points="20,21 13,20 11,14 6,9  "/>
</g>
<path fill="#90CAF9" d="M29,16.668c0,0,9.076,11.041,11,16.812c2,6,1,10-2,8C28.984,37,26.889,32,26.889,32s-2-3,0-5 M19,16.668  c0,0-9.076,11.041-11,16.812c-2,6-1,10,2,8C19.016,37,21.111,32,21.111,32s2-3,0-5"/>
<path fill="#00796B" d="M29,24c-1,3-3,6-5,6s-4-3-5-6s-1.014-5.99-1.014-5.99S18.381,14,23,14c0.354,0,1.686,0,2,0  c4.598,0,5.016,4,5.016,4S30,21,29,24z"/>
<g>
	<path fill="#004D40" d="M18.261,34.011c0.109,0.663,0.26,1.389,0.466,2.136c1.658,0.37,3.417,0.588,5.255,0.588   c1.84,0,3.599-0.219,5.259-0.588c0.205-0.747,0.356-1.474,0.465-2.137c-1.764,0.464-3.695,0.725-5.724,0.725   C21.955,34.734,20.025,34.474,18.261,34.011z"/>
	<path fill="#004D40" d="M18.857,23.545C18.903,23.696,18.949,23.848,19,24c0.161,0.482,0.35,0.964,0.559,1.434   C20.963,25.156,22.452,25,24,25c1.549,0,3.037,0.156,4.441,0.434C28.65,24.964,28.839,24.482,29,24   c0.051-0.152,0.098-0.304,0.143-0.455C27.519,23.195,25.793,23,24,23C22.207,23,20.481,23.195,18.857,23.545z"/>
	<path fill="#004D40" d="M18.017,18.75c0.031,0.484,0.092,1.176,0.215,1.984C20.008,20.264,21.955,20,24,20s3.992,0.264,5.768,0.734   c0.123-0.807,0.186-1.498,0.217-1.984C28.119,18.273,26.108,18,24,18C21.892,18,19.881,18.273,18.017,18.75z"/>
	<path fill="#004D40" d="M26.017,29.057c0.012-0.011,0.022-0.024,0.033-0.035C25.395,29.626,24.698,30,24,30   s-1.395-0.374-2.049-0.979c0.011,0.011,0.021,0.025,0.033,0.035c0.041,1.066-0.395,2.063-0.665,2.577C22.199,31.874,23.11,32,24,32   c0.951,0,1.837-0.146,2.65-0.425C26.379,31.045,25.978,30.084,26.017,29.057z"/>
	<path fill="#004D40" d="M29,12c0,1-3,2-5,2s-5-1-5-2v0.002c0-1.658,1.343-3,3-3h4c1.656,0,3,1.342,3,3V12z"/>
	<circle fill="#004D40" cx="24" cy="10" r="3"/>
</g>
<g>
	<path fill="#42A5F5" d="M20.647,27.449c-2.416,1.041-2.677,3.561-2.677,3.561s0.011,2.047,0.581,4.453   c1.945-2.021,2.56-3.463,2.56-3.463s0.931-1.412,0.873-2.943C21.511,28.628,21.061,28.078,20.647,27.449z"/>
	<path fill="#42A5F5" d="M27.344,27.463c-0.411,0.624-0.858,1.169-1.327,1.594C25.958,30.589,26.889,32,26.889,32   s0.61,1.429,2.535,3.437C29.988,33.039,30,31,30,31S29.726,28.51,27.344,27.463z"/>
</g>
<g>
	<path fill="#F44336" d="M28.969,10.969C28.797,9.877,28.104,9,27,9c-0.045,0-0.088,0.01-0.132,0.012C25.828,9.072,25,9.941,25,11   c0,1.046,0.625,2.227,1.936,2.484C28.088,13.102,29,12.551,29,12h0.011C29.035,11.704,29.032,11.375,28.969,10.969z"/>
	<path fill="#F44336" d="M19.031,10.969c0.171-1.092,0.864-1.98,1.969-1.98c0.045,0,0.087,0.01,0.132,0.012   C22.172,9.061,23,9.941,23,11c0,1.046-0.625,2.227-1.935,2.484C19.913,13.102,19,12.551,19,12h-0.011   C18.965,11.704,18.968,11.375,19.031,10.969z"/>
</g>
</svg>