<?xml version="1.0" encoding="utf-8"?><!-- Generator: Adobe Illustrator 15.0.0, SVG Export Plug-In . SVG Version: 6.00 Build 0)  --><!DOCTYPE svg PUBLIC "-//W3C//DTD SVG 1.1//EN" "http://www.w3.org/Graphics/SVG/1.1/DTD/svg11.dtd"><svg xmlns="http://www.w3.org/2000/svg" xmlns:xlink="http://www.w3.org/1999/xlink" version="1.1" x="0px" y="0px" width="500" height="500" viewBox="0 0 48 48" enable-background="new 0 0 48 48" xml:space="preserve">
<path fill="#DCE775" d="M43,16h-7c-0.553,0-1,0.447-1,1c0,0,0,15-16,15h-1v3h3c0,0,17,0,17-16c0,0,3-1,5-1c0.553,0,1-0.447,1-1  S43.553,16,43,16z"/>
<g>
	<path fill="none" stroke="#7CB342" stroke-width="2" stroke-linecap="round" d="M33,37c0,0,4.5-2,7.5,0"/>
	<path fill="#7CB342" d="M34,9c-4,0-10,5-10,5s-9,0-13,3S3,28,3,29s0,4,5,4l10-1h1c16,0,16-15,16-15c0-0.553,0.447-1,1-1h7h1   c0.553,0,1-0.447,1-1C45,15,45,9,34,9z"/>
	<path fill="#7CB342" d="M32.246,37.652c0,0-3.799-4.758-4.246-5.652c-1-2-1-5-1-5l6-4l-1,7l3,6C35,36,33.246,36.652,32.246,37.652z   "/>
	<path fill="#7CB342" d="M27.055,36.168c-0.828-0.552-2.15-0.843-3.676-0.971C19.753,34.398,14.341,34,11.667,34   C7.432,34,4,34.896,4,36s3.432,2,7.667,2c0.101,0,0.188-0.007,0.287-0.008C11.97,37.992,11.984,38,12,38   c0.055,0,0.111-0.005,0.168-0.016c2.769-0.053,4.737-0.517,6.757-0.791c3.062-0.188,5.927-0.09,7.021,0.639   c0.462,0.307,1.082,0.182,1.388-0.277S27.516,36.475,27.055,36.168z"/>
</g>
<circle fill="#CFD8DC" cx="34.5" cy="11.5" r="3.5"/>
<circle fill="#37474F" cx="36.5" cy="11.5" r="1.5"/>
<g>
	<path fill="#558B2F" d="M33,11.5c0-1.584,1.059-2.905,2.5-3.338C35.182,8.066,34.85,8,34.5,8C32.566,8,31,9.566,31,11.5   s1.566,3.5,3.5,3.5c0.35,0,0.682-0.066,1-0.162C34.059,14.405,33,13.084,33,11.5z"/>
	<circle fill="#558B2F" cx="40.5" cy="36.5" r="1.5"/>
	<path fill="#558B2F" d="M42.707,12.293C43.098,12.684,43,14,43,14s-1.316,0.098-1.707-0.293s-0.391-1.023,0-1.414   S42.316,11.902,42.707,12.293z"/>
	<circle fill="#558B2F" cx="26.5" cy="36.5" r="1.5"/>
	<circle fill="#558B2F" cx="23.5" cy="36.5" r="1.5"/>
	<path fill="#558B2F" d="M11.667,34c1.648,0,4.334,0.152,7.002,0.455C22.449,32.486,25,29.859,25,28c0-3-3.315-4-8.84-3   C9.659,26.177,4.005,33,4.005,35c0,0-0.131,0.375,0.031,0.814C4.395,34.797,7.672,34,11.667,34z"/>
</g>
<g>
	<g>
		<path fill="none" stroke="#689F38" stroke-width="2" stroke-linecap="round" d="M6,29c0,0,0.414-1.137,1.273-2.713"/>
		<path fill="none" stroke="#689F38" stroke-width="2" stroke-linecap="round" stroke-dasharray="7.5275,2.5092" d="M8.579,24.146    c1.461-2.15,3.563-4.508,6.363-5.925"/>
		<path fill="none" stroke="#689F38" stroke-width="2" stroke-linecap="round" d="M16.09,17.71c0.905-0.348,1.874-0.595,2.91-0.71"/>
	</g>
</g>
</svg>