<?xml version="1.0" encoding="utf-8"?><!-- Generator: Adobe Illustrator 15.0.0, SVG Export Plug-In . SVG Version: 6.00 Build 0)  --><!DOCTYPE svg PUBLIC "-//W3C//DTD SVG 1.1//EN" "http://www.w3.org/Graphics/SVG/1.1/DTD/svg11.dtd"><svg xmlns="http://www.w3.org/2000/svg" xmlns:xlink="http://www.w3.org/1999/xlink" version="1.1" x="0px" y="0px" width="500" height="500" viewBox="0 0 48 48" enable-background="new 0 0 48 48" xml:space="preserve">
<g>
	<circle fill="#795548" cx="20" cy="7" r="2"/>
	<circle fill="#795548" cx="28" cy="7" r="2"/>
</g>
<path fill="#FFC67B" d="M32,18c0,0-3-2-3-5c0-1.09,0.25-3.844,0.938-5.5L26,6.875c-0.156,2.156-0.744,4.852-2,4.852  s-1.844-2.695-2-4.852L18.063,7.5C18.75,9.156,19,11.91,19,13c0,3-3,5-3,5c-2,1-2,2-2,3c3,3,3,11,3,11c0,4,2.896,5,4,5h3h3  c1.104,0,4-1,4-5c0,0,0-8,3-11C34,20,34,19,32,18z"/>
<path fill="#B76113" d="M24,33c-2.761,0-4,1.238-4,4c0,2.763,1,6,4,6s4-3.237,4-6C28,34.238,26.762,33,24,33z"/>
<g>
	<path fill="#FF8F00" d="M16.979,17.854c-8,0-11-6-11-9c3-1,9,0,10,2s1,3,1,3l2,1L16.979,17.854z"/>
	<path fill="#FF8F00" d="M31,18c8,0,11-6,11-9c-3-1-9,0-10,2s-1,3-1,3l-2,1L31,18z"/>
	<path fill="#FF8F00" d="M29,13c0-1.09,0.25-3.844,0.938-5.5L26,6.875c-0.156,2.156-0.744,4.852-2,4.852s-1.844-2.695-2-4.852   L18.063,7.5C18.75,9.156,19,11.91,19,13c0,3-3,5-3,5c4,1,5,6,5,10s-2,4-2,8l5,1l5-1c0-4-2-4-2-8s1-9,5-10C32,18,29,16,29,13z"/>
	<path fill="#FF8F00" d="M24,31c-2.761,0-5,2.238-5,5c0,2.763,2,5,5,5s5-2.237,5-5C29,33.238,26.762,31,24,31z"/>
</g>
<g>
	<path fill="#844807" d="M23,35.5c0,0.828,0,2.5,0,2.5s-3-1.672-3-2.5s0.671-1.5,1.5-1.5S23,34.672,23,35.5z"/>
	<path fill="#844807" d="M25,35.5c0,0.828,0,2.5,0,2.5s3-1.672,3-2.5S27.328,34,26.5,34S25,34.672,25,35.5z"/>
</g>
<g>
	<path fill="#B76113" d="M17.753,16.312l-2.885-1.11c0,0,0.277-2.223-0.663-3.423c-0.365-0.44-2.429-1.257-5.073-1.308   c0.308,1.121,1.104,3.516,2.596,5.008c1.634,1.634,3.684,2.267,4.38,2.443C16.374,17.729,17.095,17.165,17.753,16.312z"/>
	<path fill="#B76113" d="M33.773,11.925c-0.939,1.2-0.663,3.423-0.663,3.423l-2.779,1.069C31.133,17.418,32,18,32,18   c-0.133,0.033-0.254,0.082-0.38,0.124c0.001,0,0.005,0.001,0.005,0.001s2.625-0.5,4.625-2.5c1.492-1.492,2.288-3.887,2.596-5.008   C36.202,10.668,34.139,11.484,33.773,11.925z"/>
	<path fill="#B76113" d="M26,8.5c0-0.359-0.023-0.705-0.059-1.041c-0.217,1.868-0.803,4.268-1.941,4.268s-1.725-2.399-1.941-4.268   C22.023,7.795,22,8.141,22,8.5c0,2.485,0.896,5.5,2,5.5S26,10.985,26,8.5z"/>
</g>
<g>
	<path fill="#795548" d="M33.081,21.321c-0.877,0.369-2.149,1.082-2.745,2.272c0.762,1.214,1.455,1.379,1.624,1.402   C31.974,24.996,31.986,25,32,25c1.104,0,2-0.896,2-2C34,22.295,33.633,21.678,33.081,21.321z"/>
	<path fill="#795548" d="M14.921,21.321c0.877,0.369,2.149,1.082,2.745,2.272c-0.762,1.215-1.455,1.379-1.624,1.402   c-0.014,0-0.026,0.004-0.04,0.004c-1.104,0-2-0.896-2-2C14.002,22.295,14.37,21.678,14.921,21.321z"/>
</g>
<g>
	<path fill="#5D4037" d="M34.011,21.499c-0.241-0.069-0.462-0.172-0.682-0.277c-0.545,0.209-1.331,0.577-2.002,1.148l0.231,0.082   c0.478,0.129,0.846,0.147,1.259,0.158c0.4,0.003,0.796-0.034,1.178-0.111c0.765-0.151,1.465-0.487,2.005-0.943   C35.307,21.714,34.623,21.677,34.011,21.499z"/>
	<path fill="#5D4037" d="M13.992,21.499c0.241-0.069,0.462-0.172,0.682-0.277c0.545,0.209,1.331,0.577,2.002,1.148l-0.231,0.082   c-0.478,0.129-0.846,0.147-1.259,0.158c-0.4,0.003-0.796-0.034-1.178-0.111c-0.765-0.151-1.465-0.487-2.005-0.943   C12.696,21.714,13.379,21.677,13.992,21.499z"/>
</g>
</svg>