<?xml version="1.0" encoding="utf-8"?><!-- Generator: Adobe Illustrator 15.0.0, SVG Export Plug-In . SVG Version: 6.00 Build 0)  --><!DOCTYPE svg PUBLIC "-//W3C//DTD SVG 1.1//EN" "http://www.w3.org/Graphics/SVG/1.1/DTD/svg11.dtd"><svg xmlns="http://www.w3.org/2000/svg" xmlns:xlink="http://www.w3.org/1999/xlink" version="1.1" x="0px" y="0px" width="500" height="500" viewBox="0 0 48 48" enable-background="new 0 0 48 48" xml:space="preserve">
<g>
	<path fill="#8D6E63" d="M40.652,37.149c-0.419-2.842-0.933-3.541-1.819-5.173c0.729-3.343-0.466-6.709-1.772-7.968   c1.102-3.553-0.99-5.429-3.896-6.49c-0.065-0.024-0.91-0.309-0.977-0.331c-0.563,1.548-2.575,6.811-2.141,8.797   c0,0.793,0.004,3.467,0.883,5.385c0.229,0.502,0.517,0.955,0.883,1.306c0.167,2.424,1.14,4.56,3.285,5.957   c0.303,0.671,0.043,1.319-0.238,1.448C36,40,37,38,35,38s-2.06,1.004-1.987,2.004c0.071,0.996,0.712,1.988,2.431,1.98h4.677   c1.321,0,1.927-0.626,1.927-1.605C42.044,39.106,41.584,37.802,40.652,37.149z"/>
	<path fill="#8D6E63" d="M12.658,38.273c1.382-0.517,1.996-2.676,1.888-3.347c0.469,0.264,2.565,0.491,3.3,0.305   C17.883,35.206,21,35,21,35l-6-10l-1.72-0.345c-0.08-0.009-0.155-0.024-0.232-0.036c-0.103,0.002-0.271,0.017-0.708,0.03   c-2.16,0.152-4.317,2.285-3.698,5.083c-1.424,1.731-2.311,4.018-1.481,7.712c-0.586,0.346-1.156,1.328-1.156,1.965   c0,1.707,0.698,2.512,1.78,2.543C9.517,42.004,12.448,42,13.557,42c1.107,0,1.036-0.851,1.036-1.237   C14.593,39.854,13.799,38.997,12.658,38.273z"/>
</g>
<g>
	<path fill="#6D4C41" d="M34.313,38.031c0,0,1.078,0.734,1.078,1.766s-0.989,2.121-1.53,1.775c-0.434-0.277-0.83-0.753-0.848-1.568   C32.969,38.016,33.938,38.078,34.313,38.031z"/>
	<path fill="#6D4C41" d="M13.557,42c1.107,0,1.036-0.851,1.036-1.237c0-0.892-0.768-1.734-1.876-2.45   c-3.273,2.329-5.557-0.868-5.557-0.868c-0.586,0.346-1.156,1.328-1.156,1.965c0,1.707,0.698,2.512,1.78,2.543   C9.517,42.004,12.448,42,13.557,42z"/>
	<path fill="#6D4C41" d="M32.212,17.232c0.866-0.692,0.416-2.367-0.191-3.212c0.149-0.486,0.382-1.119,0.271-1.521   c0.455-0.324,0.442-0.79,0.247-1.433C31.735,8.45,29.549,6,28.141,6c-7.216,0-8.421,6.342-8.612,8.36   c-7.512,0.771-7.729,5.466-6.083,8.548c-1.153,5.51,3.371,7.967,3.555,8.094c-0.291,2.498,2.091,6.834,3.066,7.713   c0.236,0.133,1.305,0.79,1.277,1.842c-0.02,0.742-0.094,1.434-0.34,1.441c0.009,0,0.016,0.002,0.023,0.002h4.677   c1.321,0,1.927-0.625,1.927-1.605c0-1.261-0.457-2.554-1.374-3.211c0.113-0.861,0.178-1.938,0.062-3.091   c0.859-0.302,1.745-0.708,2.054-0.854c0,0.004,0.001,0.008,0.001,0.013c5.587-3.064,6.197-5.354,6.523-7.418   C35.959,19.104,32.212,17.232,32.212,17.232z M30.004,17.815c-1.342,0-1.467-1.909-1.083-2.336   c-2.512-1.968-1.321-3.071-0.161-2.859c0.542,0.099,2.283,0.437,3.065,0.369c0.171,0.283,0.104,0.804,0.023,1.227   c0.189,0.181,0.514,0.593,0.449,1.371C32.26,16.054,31.671,17.815,30.004,17.815z"/>
</g>
<g>
	<path fill="#3E2723" d="M20.016,38.688c0,0,1.469,0.359,1.469,1.766C21.484,41.594,21.25,42,21,42c-1.313,0-1.982-1.021-2-1.609   C18.956,38.953,19.641,38.721,20.016,38.688z"/>
	<path fill="#3E2723" d="M28.686,15.547c-3.133-2.453-1.648-3.83-0.201-3.566c0.676,0.123,2.849,0.545,3.823,0.461   c0.214,0.354,0.131,1.002,0.03,1.53c0.236,0.226,0.641,0.739,0.56,1.71c-0.048,0.582-0.781,2.779-2.86,2.779   C28.363,18.461,28.207,16.08,28.686,15.547z"/>
	<path fill="#3E2723" d="M27.378,6.043c-6.524,0.439-7.665,6.375-7.85,8.317c0,0,3.139,2.14,3.639,2.349   C23.167,16.709,21.418,6.868,27.378,6.043z"/>
	<path fill="#3E2723" d="M26.292,28.5c0.793-2.052-0.784-5.99-3.826-7.692c2.069,2.337,2.666,4.878,1.881,8.429   c1.298,1.545,1.812,3.273,1.972,4.856c0.859-0.302,1.745-0.708,2.054-0.854C28.222,31.489,27.784,30.289,26.292,28.5z"/>
</g>
<g>
	<path fill="#A1887F" d="M31.674,13.312c0.099,0.025,0.18,0.102,0.18,0.209c0,0.127-0.103,0.228-0.229,0.228   c-0.127,0-0.229-0.101-0.229-0.228c0-0.047,0.025-0.084,0.051-0.12c-0.139,0.053-0.269,0.098-0.364,0.098   c-0.101,0-0.217-0.025-0.336-0.057c0.016,0.031,0.042,0.061,0.042,0.1c0,0.127-0.103,0.229-0.229,0.229   c-0.127,0-0.229-0.102-0.229-0.229c0-0.088,0.059-0.15,0.131-0.188c-0.548-0.189-1.13-0.45-1.208,0.014   c-0.055,0.321,0.362,0.784,0.985,1.021c0,0,0.233-0.392,0.909-0.348c0.521-0.065,0.797,0.168,0.797,0.168   c0.284-0.296,0.326-0.704,0.313-0.842C32.23,13.119,31.962,13.198,31.674,13.312z"/>
	<path fill="#A1887F" d="M30.924,15.396c0,0-0.497-0.189-0.497-0.437c0-0.197,0.089-0.361,0.377-0.382   c0.288-0.021,0.403,0.117,0.71,0.124c0.211,0.007,0.378-0.306,0.586-0.152c0.18,0.133,0.003,0.51-0.104,0.66   c-0.26,0.02,0.103-0.464-0.094-0.402c-0.088,0.026-0.155,0.159-0.366,0.175c-0.464,0.032-0.794-0.264-0.807-0.016   C30.714,15.22,31.204,15.168,30.924,15.396z"/>
	<path fill="#A1887F" d="M32.518,15.76c0,0-1.851-0.283-2.896,1.021c0,0.479,0.393,0.696,0.393,0.696S30.427,15.956,32.518,15.76z"/>
</g>
</svg>