<?xml version="1.0" encoding="utf-8"?><!-- Generator: Adobe Illustrator 15.0.0, SVG Export Plug-In . SVG Version: 6.00 Build 0)  --><!DOCTYPE svg PUBLIC "-//W3C//DTD SVG 1.1//EN" "http://www.w3.org/Graphics/SVG/1.1/DTD/svg11.dtd"><svg xmlns="http://www.w3.org/2000/svg" xmlns:xlink="http://www.w3.org/1999/xlink" version="1.1" x="0px" y="0px" width="500" height="500" viewBox="0 0 48 48" enable-background="new 0 0 48 48" xml:space="preserve">
<g>
	<path fill="#C0CA33" d="M37,14l-4.954,3.138C32.416,18.233,35.07,26,36,26c1,0,2-1,2-1c2-2,2-9,2-9C40,12,37,14,37,14z"/>
	<path fill="#CDDC39" d="M8,37c0,0,14,1,24-10c0,0,2.875-4.503,1.35-10.688L7,33L8,37z"/>
</g>
<g>
	<path fill="#AFB42B" d="M14.284,28.387l-1.779,1.127l1.762,7.018c0.625-0.109,1.278-0.239,1.961-0.4L14.284,28.387z"/>
	<path fill="#AFB42B" d="M10.222,36.989c0.582-0.027,1.259-0.078,2.02-0.164l-1.548-6.165l-1.779,1.126L10.222,36.989z"/>
	<path fill="#AFB42B" d="M25.014,21.591l-1.778,1.127l2.399,9.558c0.592-0.363,1.182-0.756,1.768-1.178L25.014,21.591z"/>
	<path fill="#AFB42B" d="M21.438,23.855l-1.779,1.127l2.316,9.223c0.608-0.27,1.222-0.568,1.838-0.891L21.438,23.855z"/>
	<path fill="#AFB42B" d="M17.857,26.125l-1.779,1.125l2.099,8.355c0.621-0.186,1.256-0.396,1.902-0.635L17.857,26.125z"/>
</g>
<circle fill="#6D4C41" cx="37" cy="18" r="1"/>
<g>
	<path fill="#9E9D24" d="M44.316,10.051c-0.529-0.177-1.09,0.109-1.266,0.632c-0.537,1.614-2.166,2.939-3.309,3.706   C39.9,14.767,40,15.284,40,16c0,0-0.001,0.227-0.012,0.597c1.205-0.701,4.066-2.599,4.96-5.28   C45.123,10.792,44.84,10.226,44.316,10.051z"/>
	<path fill="#9E9D24" d="M33.35,16.313l-6.537,4.14l2.33,9.279C30.119,28.913,31.078,28.016,32,27C32,27,34.875,22.497,33.35,16.313   z"/>
	<path fill="#9E9D24" d="M22,34.193c2.658-1.18,5.416-2.848,8-5.196V24l-8,6V34.193z"/>
	<path fill="none" stroke="#9E9D24" stroke-width="2" stroke-linecap="round" stroke-linejoin="round" d="M41,8c0,3-2,6-2,6"/>
</g>
<g>
	<path fill="#827717" d="M4,36c0,0,1,1,4,1l-0.786-3.143L4,36z"/>
	<path fill="#827717" d="M34.773,24.222C35.268,25.268,35.715,26,36,26c1,0,2-1,2-1c0.773-0.774,1.537-3.875,1.537-3.875   C36.75,24.084,34.773,24.222,34.773,24.222z"/>
	<path fill="#827717" d="M23.427,30L10.686,16.271c-0.402-0.377-1.034-0.358-1.414,0.043c-0.379,0.402-0.359,1.035,0.042,1.414   L20,33.641c0.112,0.129,0.248,0.26,0.39,0.366c1.106,0.839,2.684,0.621,3.522-0.485C24.751,32.416,24.534,30.837,23.427,30z"/>
	<polyline fill="none" stroke="#827717" stroke-width="2" stroke-linecap="round" stroke-linejoin="round" points="30,29 34,32    35,38 37,38  "/>
	<polyline fill="none" stroke="#827717" stroke-width="2" stroke-linecap="round" stroke-linejoin="round" points="28,30 26,33    26,38 23,39  "/>
	<polyline fill="none" stroke="#827717" stroke-width="2" stroke-linecap="round" stroke-linejoin="round" points="10,17 16,39    13,39  "/>
</g>
</svg>