<?xml version="1.0" encoding="iso-8859-1"?><!-- Generator: Adobe Illustrator 19.1.1, SVG Export Plug-In . SVG Version: 6.00 Build 0)  --><svg xmlns="http://www.w3.org/2000/svg" xmlns:xlink="http://www.w3.org/1999/xlink" version="1.1" id="Layer_1" x="0px" y="0px" viewBox="0 0 48 48" enable-background="new 0 0 48 48" xml:space="preserve" width="500" height="500">
<polyline fill="none" stroke="#5D4037" stroke-width="2" stroke-linecap="round" points="14.875,10.079 18,12.079 18,15.079   23.875,18.079 24,18 30,15 30,12 33,10 "/>
<path fill="none" stroke="#795548" stroke-width="2" stroke-linecap="round" stroke-linejoin="round" stroke-miterlimit="10" d="  M12,26l4-1l5-5l3,1c0,0,3-1,3-1l5,5l4,1 M34,37l-4-5v-4l-4-4c0,0-2,0-2,0h-2l-4,4v4l-4,5"/>
<path fill="#5D4037" d="M28,27c0,2.485-1.25,14-4,14s-4-11.515-4-14s1.042-5,4-5S28,24.515,28,27z"/>
<g>
	<path fill="#FFC107" d="M26.884,35.613c0.166-0.735,0.312-1.495,0.44-2.251C26.447,33.707,25.329,34,24,34   s-2.447-0.293-3.323-0.638c0.128,0.756,0.274,1.517,0.44,2.251C21.961,35.841,22.922,36,24,36S26.039,35.841,26.884,35.613z"/>
	<path fill="#FFC107" d="M27.79,25.167C26.867,25.59,25.576,26,24,26s-2.867-0.41-3.79-0.833C20.065,25.753,20,26.378,20,27   c0,0.075,0.001,0.16,0.004,0.251C21.068,27.663,22.411,28,24,28s2.932-0.337,3.996-0.749C27.999,27.16,28,27.075,28,27   C28,26.378,27.935,25.753,27.79,25.167z"/>
	<path fill="#FFC107" d="M24,30c-1.62,0-2.946-0.432-3.874-0.868c0.061,0.674,0.145,1.44,0.253,2.252C21.38,31.731,22.591,32,24,32   s2.62-0.269,3.621-0.616c0.107-0.812,0.191-1.578,0.253-2.252C26.946,29.568,25.62,30,24,30z"/>
</g>
<path fill="#90CAF9" d="M35,22c-4.637,0-8.872-0.971-9-1c-0.516-0.117-0.022-3.186,0.209-3.34C26.53,17.448,34.98,12,44.15,12  c0.89,0,1.85,0.665,1.85,1.738C46,16.918,41.966,22,35,22z M2,13.738C2,12.665,2.96,12,3.85,12c9.17,0,16.837,5.008,17.158,5.221  C21.239,17.374,22.516,20.883,22,21c-0.128,0.029-4.363,1-9,1C6.034,22,2,16.918,2,13.738z"/>
<path fill="#42A5F5" d="M25.899,20.856c-0.159-0.667,0.886-3.498,1.093-3.636C27.313,17.008,34.98,12,44.15,12  c-9.17,0-16.829,7.787-17.15,8C26.816,20.122,25.981,20.603,25.899,20.856z M22.101,20.856c0.159-0.667-0.886-3.498-1.093-3.636  C20.687,17.008,13.02,12,3.85,12c9.17,0,16.829,7.787,17.15,8C21.184,20.122,22.019,20.603,22.101,20.856z"/>
<path fill="#795548" d="M28,18c0,2.833-1.791,5-4,5s-4-2.167-4-5c0-1.657,1.791-3,4-3S28,16.343,28,18z"/>
<path fill="#8D6E63" d="M27,14c0,1.105-1.343,2-3,2s-3-0.895-3-2s1.343-4,3-4S27,12.895,27,14z"/>
<path fill="none" stroke="#795548" stroke-width="2" stroke-linecap="round" stroke-linejoin="round" stroke-miterlimit="10" d="  M25,11c0,0,0.333-1,3-3 M23,11c0,0-0.5-1.083-3-3"/>
</svg>