<?xml version="1.0" encoding="utf-8"?><!-- Generator: Adobe Illustrator 15.0.0, SVG Export Plug-In . SVG Version: 6.00 Build 0)  --><!DOCTYPE svg PUBLIC "-//W3C//DTD SVG 1.1//EN" "http://www.w3.org/Graphics/SVG/1.1/DTD/svg11.dtd"><svg xmlns="http://www.w3.org/2000/svg" xmlns:xlink="http://www.w3.org/1999/xlink" version="1.1" x="0px" y="0px" width="500" height="500" viewBox="0 0 48 48" enable-background="new 0 0 48 48" xml:space="preserve">
<g>
	<path fill="#546E7A" d="M34,20c0,5,0,13,0,13l3,7h-2l-3-6l-1-5l-1-2"/>
	<path fill="#546E7A" d="M14,21c0,0,0,2,3,5c1.581,1.581-1,7-1,7l3,7h2l-2-7c0,0,5-5,5-10"/>
	<path fill="#546E7A" d="M39.875,9.823C41.493,8.279,40.89,7,40.89,7s-0.338,0.941-1.617,1.544s-1.618,1.544-1.618,1.544   l-0.338,0.941"/>
</g>
<g>
	<polygon fill="#37474F" points="21,40 22,42 19,42 19,41 20,40  "/>
	<polygon fill="#37474F" points="37,40 38,42 35,42 35,41 36,40  "/>
	<polygon fill="#37474F" points="40.828,34.707 40.121,36.828 38,34.707 39,34 40.121,34  "/>
	<polygon fill="#37474F" points="17,40 18,42 15,42 15,41 16,40  "/>
</g>
<g>
	<circle fill="#90A4AE" cx="15.5" cy="20.5" r="5.5"/>
	<path fill="#90A4AE" d="M10,21c0,0,0,2,3,5c1.581,1.581-1,7-1,7l3,7h2l-2-7c0,0,5-5,5-10"/>
	<path fill="#90A4AE" d="M42,11c-0.633-1.265-2-2-4-2c-6,0-7,6-9,7c-4.472,2.236-11-1-13-1c-9,0,3,10,3,10s3,4,8,4c0,0,4,0,7-2   c0,0,4-2,3-9c0,0,0-2,0-3c0,0,1,2,2,2s3,2,3,2s0,1,1,1s2-1,2-2s-3-6-3-6V11z"/>
	<path fill="#90A4AE" d="M34,24c5,1,8,2,8,2s-1,6-1,8h-2v-6c0,0-5,0-7,0s-2-2-2-2L34,24z"/>
	<path fill="#90A4AE" d="M37,11v-1c0,0,0-1,1-2s1-2,1-2s1,1,0,3c0,0,0,1,1,2H37z"/>
</g>
<g>
	<path fill="#78909C" d="M32,28c-3-1-3-4-3-4c0,0.071-1,3,0.596,4.706c0.753-0.147,1.601-0.371,2.454-0.706   C32.034,28,32.015,28.005,32,28z"/>
	<path fill="#78909C" d="M17,20c0,3.359,1.451,6.446,1.917,7.351c0.253-0.548,0.479-1.116,0.656-1.699C19.83,25.918,17,22.588,17,20   z"/>
</g>
<path fill="#37474F" d="M44.962,18.313C44.889,18.13,44.71,18,44.5,18c-0.276,0-0.5,0.224-0.5,0.5c0,0.186,0,0.791,0,1.173  C44.48,19.358,44.854,18.854,44.962,18.313z"/>
<circle fill="#263238" cx="41.5" cy="13.5" r="0.5"/>
<g>
	<path fill="#37474F" d="M4,24c0,6,6,8,2,11c0,0,4,0,4-4c0-3.501-2.748-12.24,0.573-12.933c0.189-0.382,0.416-0.742,0.685-1.067H11   C11,17,4,16,4,24z"/>
	<path fill="#37474F" d="M39.347,8.029C39.278,8.324,39.18,8.64,39,9c0,0,0.001,0.246,0.122,0.614C39.592,9.901,40.588,10.588,42,12   l1-1.999C43,10.001,42.062,8.184,39.347,8.029z"/>
	<path fill="#37474F" d="M37,10c0,0,0.005-0.967,0.956-1.95c-7.123,0.503-9.002,6.059-9.956,8.325C27,18.75,28,21,28,21c1-3,7-3,8-8   c0.197-0.988,0.579-1.837,1-2.559V10z"/>
</g>
</svg>