<?xml version="1.0" encoding="utf-8"?><!-- Generator: Adobe Illustrator 15.0.0, SVG Export Plug-In . SVG Version: 6.00 Build 0)  --><!DOCTYPE svg PUBLIC "-//W3C//DTD SVG 1.1//EN" "http://www.w3.org/Graphics/SVG/1.1/DTD/svg11.dtd"><svg xmlns="http://www.w3.org/2000/svg" xmlns:xlink="http://www.w3.org/1999/xlink" version="1.1" x="0px" y="0px" width="500" height="500" viewBox="0 0 48 48" enable-background="new 0 0 48 48" xml:space="preserve">
<path fill="#9B0D54" d="M33.046,15.909c0,0-13.144-10.783-22.753-8.623C8.137,7.876,16.762,15.297,25,20  C29.51,17.842,33.046,15.909,33.046,15.909z"/>
<g>
	<path fill="#FF4081" d="M34.608,14.816c0.015-0.229,0.042-0.456,0.085-0.681c0.415-2.17,2.415-3.141,3.307-5.035   c0,0-4-2-6.945-0.688c-2.221,0.99-1.502,3.335-2.182,5.215c-0.766,2.119-2.247,2.529-2.873,5.973   c-0.653,3.594-0.453,9.107-0.235,12.498C25.88,33.898,26,35.101,26,35.101s8.996-9.996,9-15.498   C35.001,18.026,34.505,16.397,34.608,14.816z"/>
	<path fill="#FF4081" d="M28.238,15.249c0,0-15.238-8.148-24.238-4.148c-2,1,10,9,19,12C27,20.101,28.238,15.249,28.238,15.249z"/>
</g>
<path fill="#C51162" d="M34.608,14.816c0.011-0.164,0.036-0.326,0.062-0.488c-2.065-1.072-4.515-1.192-5.646-1.219  c-0.042,0.176-0.089,0.35-0.15,0.519c-0.221,0.612-0.502,1.08-0.805,1.521c1.41,0.747,5.643,3.411,5.902,8.382  c0.628-1.418,1.028-2.773,1.029-3.929C35.001,18.026,34.505,16.397,34.608,14.816z"/>
<circle cx="33" cy="10.101" r="1"/>
<g>
	<path fill="#37474F" d="M27,18.101c0,0-8.283-8.143-16.999-8.12C7.845,9.986,5.785,10.308,4,11.101c-2,1,10,9,19,12   C26,22.101,27,18.101,27,18.101z"/>
	<path fill="#37474F" d="M26,35.101L24,41c0,0,1.072,2,4,2c3,0,4-2,4-2l-4.385-7.804C26.658,34.368,26,35.101,26,35.101z"/>
</g>
<g>
	<path fill="#546E7A" d="M20.854,22.313c1.953-1.363,4.667-3.221,6.1-4.048C26.984,18.161,27,18.101,27,18.101   s-1.194-1.172-3.147-2.623c-2.408,0.505-6.538,1.587-9.966,3.539c0.705,0.384,1.423,0.761,2.15,1.125   c3.095-1.512,6.596-2.371,8.559-2.77c-1.902,1.218-4.422,2.971-5.919,4.023C19.408,21.723,20.135,22.028,20.854,22.313z"/>
	<path fill="#546E7A" d="M20.375,13.194L20,12.978c-1.384-0.775-2.906-1.486-4.515-2.025c-2.855,0.067-6.692,0.512-10.546,2.097   c0.471,0.44,1.068,0.933,1.771,1.459c5.458-1.949,10.745-1.575,12.574-1.447C19.618,13.085,20.236,13.194,20.375,13.194z"/>
	<path fill="#546E7A" d="M23.828,15.476L23,14.862c-0.644-0.452-1.348-0.916-2.105-1.371c-0.148-0.09-0.299-0.179-0.451-0.268   c-2.91,0.234-7.707,0.93-11.331,2.955c0.624,0.406,1.284,0.82,1.975,1.236C16.032,15.146,22.891,14.991,23.828,15.476z"/>
	<g>
		<path fill="#607D8B" d="M25.25,42.234c0.116,0.075,0.24,0.146,0.375,0.215C25.491,42.381,25.365,42.309,25.25,42.234z"/>
		<path fill="#607D8B" d="M26.502,42.784c-0.295-0.082-0.561-0.183-0.798-0.298C25.941,42.603,26.207,42.701,26.502,42.784z"/>
		<path fill="#607D8B" d="M27.19,42.932c-0.182-0.025-0.351-0.062-0.514-0.101C26.841,42.871,27.009,42.906,27.19,42.932z"/>
		<path fill="#607D8B" d="M27.615,33.196c-0.718,0.879-1.268,1.511-1.497,1.771C26.348,34.707,26.897,34.075,27.615,33.196    L27.615,33.196z"/>
		<path fill="#607D8B" d="M25.857,35.521L26,35.101L24,41c0,0,0.376,0.668,1.247,1.232L25.857,35.521z"/>
		<path fill="#607D8B" d="M30.693,42.293c-0.1,0.06-0.209,0.117-0.322,0.172C30.484,42.408,30.595,42.354,30.693,42.293z"/>
		<path fill="#607D8B" d="M30.191,42.549c-0.278,0.122-0.59,0.23-0.943,0.309C29.603,42.779,29.914,42.674,30.191,42.549z"/>
		<path fill="#607D8B" d="M27.635,38.065l-0.442,4.866C27.448,42.967,27.708,43,28,43c0.463,0,0.862-0.059,1.233-0.139    L27.635,38.065z"/>
		<path fill="#607D8B" d="M28.676,35.083l0.178,0.317l2.213,6.639c-0.023,0.018-0.053,0.035-0.076,0.053C31.704,41.563,32,41,32,41    L28.676,35.083z"/>
	</g>
</g>
<path fill="#263238" d="M35.626,9.851c0,0,0.548-1.07,0.977-1.289s0.859-0.396,1.308-0.57c0.885-0.328,1.785-0.561,2.69-0.718  C42.41,6.958,44.227,6.938,46,7.101c-1.773,0.169-3.519,0.527-5.139,1.139c-0.81,0.303-1.586,0.672-2.306,1.105  c-0.433,0.262-0.879,0.571-1.258,0.889C37.067,10.428,35.626,9.851,35.626,9.851z"/>
</svg>