<?xml version="1.0" encoding="utf-8"?><!-- Generator: Adobe Illustrator 19.1.1, SVG Export Plug-In . SVG Version: 6.00 Build 0)  --><svg xmlns="http://www.w3.org/2000/svg" xmlns:xlink="http://www.w3.org/1999/xlink" version="1.1" x="0px" y="0px" viewBox="0 0 48 48" enable-background="new 0 0 48 48" xml:space="preserve" width="500" height="500">
<path fill="#E65100" d="M37,7c0.8,0.4,1.1,1.5,0,2c1.4-0.6,1.7-0.8,3-1c-0.2-0.2-0.2-0.7-0.7-1.6C38.5,4.9,35.5,4,35,4  C35.6,5.6,35.6,6.3,37,7z"/>
<path fill="#F57C00" d="M46.7,13.9c-0.4-0.6-1.8-2-2.2-2.5c-0.2-0.3-0.7-1.2-1.5-1.9C41.9,8.6,41,8,40,8c0,0-0.2,0-0.4,0  C37.2,5.1,33,5,33,5s0.8,3.5,4.1,3.9C37.1,9,37,9,37,9c-1.5,0.7-1,4-4,4c0,0-7.1-5-11-5c-9.8,0-10.5,12.9-11,16S8.3,35,5,35  c-2.5,0-4-3-4-3s1.9,5,5,5s7-3.8,9-11c0.8-2.8,1-4,1-4s3.3,3.3,3,6c-0.3,2.7-4,5.6-4,7c0,1.4,3,7,3,7s0.6,1.9,3,2c2.4,0.1,1-2,1-2  s-3-5.3-3-6s6-7,6-7s2.4-1.8,3.5-4.2C29,24.9,29.6,25,30,25c0.7,0,1.4-0.1,1.9-0.2l1.1,2.4c0,0.2-0.1,0.4-0.2,0.6  C32.6,27.9,32.4,28,32,28c-0.6,0-1,0.4-1,1s0.4,1,1,1c1.2,0,1.9-0.5,2.3-0.9C35,28.3,35,27.2,35,27v-3.7c1.1-0.7,2.5-1.5,3-2.3  c0.9-1.4,1-4,1-4s0.2-0.4,0.6-0.8c1.2,1.2,3.2,0.6,3.8,0.5l2.1,0.3c0.4,0.1,0.8-0.1,1-0.5C46.7,16.2,47.4,15.1,46.7,13.9z"/>
<path fill="#FFA726" d="M31.9,24.8C31.4,24.9,30.8,25,30,25c-0.4,0-1-0.1-1.5-0.2c1-2.3,0.8-5.1-3.5-7.8c0,0,1.9-0.4,4.6,2.1  c1.5,1.4,2.9,1.5,3.3,1.4l-1.5,1.1c-0.4,0.3-0.5,0.8-0.3,1.2L31.9,24.8z M15,26c0.8-2.8,1-4,1-4s3.3,3.3,3,6c-0.1,1.3-1.1,2.7-2,3.9  h0c1.2-1.6,5-5,3-9.9c-1.3-3.1-5.7-5.5-6-3c-1.8,16.9-8,18-8,18C9.1,37,13,33.2,15,26z"/>
<path fill="#4E342E" d="M43,11c0,0.6-0.7,1-1.5,1S40,11.6,40,11H43z"/>
<path fill="#795548" d="M22,42c0,0,1.4,2.1-1,2c-2.4-0.1-3-2-3-2s-0.5-0.9-1-2h3.9C21.5,41.1,22,42,22,42z M32.9,27l0.1,0.2  c0,0.2-0.1,0.4-0.2,0.6C32.6,27.9,32.4,28,32,28c-0.6,0-1,0.4-1,1s0.4,1,1,1c1.2,0,1.9-0.4,2.3-0.8c0.9-1,0.7-1.9,0.7-2.2H32.9z   M45,15c0,0.8,0.5,1.5,1.2,1.8c0.1-0.1,0.2-0.2,0.3-0.3c0.2-0.3,1-1.4,0.2-2.6c-0.1-0.2-0.3-0.4-0.6-0.7C45.5,13.6,45,14.2,45,15z"/>
</svg>