<?xml version="1.0" encoding="utf-8"?><!-- Generator: Adobe Illustrator 15.0.0, SVG Export Plug-In . SVG Version: 6.00 Build 0)  --><!DOCTYPE svg PUBLIC "-//W3C//DTD SVG 1.1//EN" "http://www.w3.org/Graphics/SVG/1.1/DTD/svg11.dtd"><svg xmlns="http://www.w3.org/2000/svg" xmlns:xlink="http://www.w3.org/1999/xlink" version="1.1" x="0px" y="0px" width="500" height="500" viewBox="0 0 48 48" enable-background="new 0 0 48 48" xml:space="preserve">
<g>
	<path fill="#996704" d="M32.286,9.002h3c0,0,4.182-5.084,8-2c4.521,3.651-1,12-4,11.998C37.05,19,32.286,9.002,32.286,9.002z"/>
	<path fill="#996704" d="M15.661,9.002h-3c0,0-4.182-5.084-8-2c-4.521,3.651,1,12,4,11.998C10.897,19,15.661,9.002,15.661,9.002z"/>
</g>
<g>
	<ellipse fill="#FFC107" cx="24" cy="40" rx="6" ry="4"/>
	<path fill="#FFC107" d="M41,27.25C41,32.221,33,40,28,40c-3,0-4-2-4-2s-1,2-4,2c-5,0-13-7.779-13-12.75L8,18c0-4.971,5-9,9-11   c0,0,2-1,4-1s4,0,6,0s4,1,4,1c3,1,9,6.029,9,11L41,27.25z"/>
</g>
<path fill="#D69107" d="M30,28c-2-2-2-4-2-4s0-7,5-7c6,0,7,0,7,0c0-3-6-11-13-11c-2,0-3,0-3,0s-1,0-3,0C14,6,8,14,8,17c0,0,1,0,7,0  c5,0,5,7,5,7s0,2-2,4s-5,4-5,6s1,6,7,6c3,0,4-2,4-2s1,2,4,2c6,0,7-4,7-6S32,30,30,28z"/>
<g>
	<path fill="#5D4037" d="M12,19c0,0,0,5,4.083,5C17.693,24,19,24,19,24s0-5-3.5-5C13.891,19,12,19,12,19z"/>
	<path fill="#5D4037" d="M36,19c0,0,0,5-4.083,5C30.307,24,29,24,29,24s0-5,3.5-5C34.109,19,36,19,36,19z"/>
</g>
<g>
	<circle fill="#EEFF41" cx="16" cy="20" r="2"/>
	<circle fill="#EEFF41" cx="32" cy="20" r="2"/>
</g>
<g>
	<circle fill="#212121" cx="16" cy="20" r="1"/>
	<circle fill="#212121" cx="32" cy="20" r="1"/>
</g>
<g>
	<path fill="#3E2723" d="M11.116,10.271l0.4,0.486c0.582-0.614,1.22-1.206,1.909-1.756h-0.764c0,0-2.462-2.994-5.332-2.994   c-0.871,0-1.779,0.275-2.668,0.994c-1.009,0.814-1.516,1.863-1.664,3c0.001,0,0.002,0,0.003-0.002c2-2,3.83-1.992,4.328-1.992   C8.877,8.008,10.629,9.688,11.116,10.271z"/>
	<path fill="#3E2723" d="M43.286,7.002c-0.889-0.719-1.797-0.994-2.668-0.994c-2.87,0-5.332,2.994-5.332,2.994h-0.712   c0.679,0.541,1.308,1.122,1.882,1.726l0.375-0.457c0.487-0.583,2.239-2.264,3.788-2.264c0.498,0,2.328-0.008,4.328,1.992   c0.001,0.002,0.002,0.002,0.003,0.002C44.802,8.865,44.295,7.816,43.286,7.002z"/>
	<path fill="#3E2723" d="M28,34c0,2.209-4,2-4,4c0-2-4-1.791-4-4s1.791,0,4,0S28,31.791,28,34z"/>
	<path fill="none" stroke="#3E2723" stroke-width="2" d="M12,18c0,0,1.891,0,3.5,0c3.5,0,3.5,4.666,3.5,4.666V24"/>
	<path fill="none" stroke="#3E2723" stroke-width="2" d="M36,18c0,0-1.891,0-3.5,0C29,18,29,22.666,29,22.666V24"/>
	<circle fill="#3E2723" cx="18.5" cy="36.5" r="0.5"/>
	<circle fill="#3E2723" cx="17.5" cy="34.5" r="0.5"/>
	<circle fill="#3E2723" cx="18.5" cy="38.5" r="0.5"/>
	<circle fill="#3E2723" cx="16.5" cy="37.5" r="0.5"/>
	<circle fill="#3E2723" cx="15.5" cy="35.5" r="0.5"/>
	<circle fill="#3E2723" cx="20.5" cy="37.5" r="0.5"/>
	<circle fill="#3E2723" cx="29.5" cy="36.5" r="0.5"/>
	<circle fill="#3E2723" cx="30.5" cy="34.5" r="0.5"/>
	<circle fill="#3E2723" cx="29.5" cy="38.5" r="0.5"/>
	<circle fill="#3E2723" cx="31.5" cy="37.5" r="0.5"/>
	<circle fill="#3E2723" cx="32.5" cy="35.5" r="0.5"/>
	<circle fill="#3E2723" cx="27.5" cy="37.5" r="0.5"/>
	<circle fill="#3E2723" cx="24" cy="14" r="2"/>
	<circle fill="#3E2723" cx="24" cy="19" r="1"/>
	<path fill="#3E2723" d="M21.184,6C21.072,6.314,21,6.647,21,7c0,1.656,1.343,3,3,3s3-1.344,3-3c0-0.353-0.072-0.686-0.184-1H21.184   z"/>
	<circle fill="#3E2723" cx="31" cy="10" r="2"/>
	<circle fill="#3E2723" cx="17" cy="10" r="2"/>
</g>
<g>
	<path fill="#A36B07" d="M39,24.5c0,0.828,0.672,1.5,1.5,1.5c0.125,0,0.244-0.02,0.359-0.049l-0.318-2.947   C40.527,23.004,40.514,23,40.5,23C39.672,23,39,23.672,39,24.5z"/>
	<path fill="#A36B07" d="M39,27c-1.656,0-3,1.344-3,3c0,1.514,1.127,2.754,2.584,2.959c1.318-1.77,2.213-3.609,2.369-5.219   C40.428,27.285,39.75,27,39,27z"/>
	<path fill="#A36B07" d="M7.5,26C8.328,26,9,25.328,9,24.5S8.328,23,7.5,23c-0.014,0-0.027,0.004-0.041,0.004l-0.318,2.947   C7.256,25.98,7.375,26,7.5,26z"/>
	<path fill="#A36B07" d="M9,27c-0.75,0-1.428,0.285-1.953,0.74c0.156,1.609,1.051,3.449,2.369,5.219C10.873,32.754,12,31.514,12,30   C12,28.344,10.656,27,9,27z"/>
	<path fill="#996704" d="M28,40c-3,0-4-2-4-2s-1,2-4,2c-2.016,0-3.458-0.457-4.497-1.133c1.212,1.405,2.778,3.075,3.186,2.991   C19.135,41.943,19.574,42,20,42c1.712,0,3.037-0.512,4-1.166C24.963,41.488,26.288,42,28,42c0.426,0,0.865-0.057,1.311-0.142   c0.407,0.084,1.974-1.586,3.186-2.991C31.458,39.543,30.016,40,28,40z"/>
</g>
</svg>