<?xml version="1.0" encoding="iso-8859-1"?><!-- Generator: Adobe Illustrator 19.1.1, SVG Export Plug-In . SVG Version: 6.00 Build 0)  --><svg xmlns="http://www.w3.org/2000/svg" xmlns:xlink="http://www.w3.org/1999/xlink" version="1.1" x="0px" y="0px" viewBox="0 0 48 48" style="enable-background:new 0 0 48 48;" xml:space="preserve" width="500" height="500">
<path style="fill:#BF360C;" d="M30,5c-3.033,0-6,1-6,1s-2.967-1-6-1C14.967,5,6,5.834,6,16c0,10.166,6,14,6,14h12h12  c0,0,6-3.834,6-14C42,5.834,33.033,5,30,5z"/>
<path style="fill:#E65100;" d="M18,19v24c0,0-11-6.311-11-14s5-10,5-10H18z M30,19v24c0,0,11-6.311,11-14s-5-10-5-10H30z"/>
<path style="fill:#BF360C;" d="M24,22l-10-2c0,7.667-0.438,12.938,2,18c2.156,4.478,8,7,8,7s5.844-2.522,8-7  c2.438-5.063,2-10.333,2-18L24,22z"/>
<ellipse style="fill:#FFCC80;" cx="24" cy="34" rx="4" ry="3"/>
<path style="fill:#F57F17;" d="M31,15c1.102,0,1.805-1,3-1c1.936,0,3,1.252,3,3c0,2.642-4,5-4,5L31,15z M17,15c-1.102,0-1.805-1-3-1  c-1.936,0-3,1.252-3,3c0,2.642,4,5,4,5L17,15z"/>
<path style="fill:#FB8C00;" d="M29,14c-3.486,0-5,2-5,2s-1.514-2-5-2c-3.486,0-5,5.355-5,7c0,1.645,4,8,4,8h6h6c0,0,4-6.355,4-8  C34,19.355,32.486,14,29,14z"/>
<path style="fill:#5D4037;" d="M18.5,17c3.5,0,3.5,5,3.5,5s-1.307,0-2.917,0C15,22,15,17,15,17S16.891,17,18.5,17z M29.5,17  C26,17,26,22,26,22s1.307,0,2.917,0C33,22,33,17,33,17S31.109,17,29.5,17z"/>
<path style="fill:#EEFF41;" d="M19,17c1.104,0,2,0.896,2,2s-0.896,2-2,2c-1.105,0-2-0.896-2-2S17.895,17,19,17z M29,17  c-1.104,0-2,0.896-2,2s0.896,2,2,2c1.105,0,2-0.896,2-2S30.105,17,29,17z"/>
<path style="fill:#212121;" d="M19,18c0.552,0,1,0.447,1,1s-0.448,1-1,1c-0.552,0-1-0.447-1-1S18.448,18,19,18z M29,18  c-0.552,0-1,0.447-1,1s0.448,1,1,1c0.552,0,1-0.447,1-1S29.552,18,29,18z"/>
<path style="fill:#FFB74D;" d="M34,21c0-1.645-0.917-7-5-7c-3.486,0-5,2-5,2s-1.514-2-5-2c-3.833,0-5,5.355-5,7  c0-1.938,4.719-5.063,7-1c0,4.469-2.156,5.625-3.525,8.146C17.182,28.703,17,29.327,17,30c0,2.209,1.791,4,4,4  c1.202,0,2.267-0.541,3-1.38c0.733,0.839,1.798,1.38,3,1.38c2.209,0,4-1.791,4-4c0-0.673-0.182-1.297-0.475-1.854  C29.156,25.625,27,24.469,27,20C29.281,15.938,34,19.063,34,21z"/>
<path style="fill:#5D4037;" d="M27.788,34.92C27.53,34.962,27.27,35,27,35c-1.087,0-2.138-0.363-3-1.018  C23.138,34.637,22.087,35,21,35c-0.27,0-0.53-0.038-0.788-0.08C20.086,34.629,20,34.323,20,34c0-0.047,0.015-0.09,0.018-0.136  C20.334,33.944,20.659,34,21,34c1.202,0,2.267-0.541,3-1.38c0.733,0.839,1.798,1.38,3,1.38c0.341,0,0.666-0.056,0.982-0.136  C27.985,33.91,28,33.953,28,34C28,34.323,27.914,34.629,27.788,34.92z M24,29c-2.209,0-4-2.209-4,0s4,2,4,4c0-2,4-1.791,4-4  S26.209,29,24,29z"/>
</svg>