<?xml version="1.0" encoding="utf-8"?><!-- Generator: Adobe Illustrator 15.0.0, SVG Export Plug-In . SVG Version: 6.00 Build 0)  --><!DOCTYPE svg PUBLIC "-//W3C//DTD SVG 1.1//EN" "http://www.w3.org/Graphics/SVG/1.1/DTD/svg11.dtd"><svg xmlns="http://www.w3.org/2000/svg" xmlns:xlink="http://www.w3.org/1999/xlink" version="1.1" x="0px" y="0px" width="500" height="500" viewBox="0 0 48 48" enable-background="new 0 0 48 48" xml:space="preserve">
<g>
	<path fill="#BCAAA4" d="M31,27c-0.014,0-0.027-0.004-0.041-0.004c-0.168-0.023-0.861-0.188-1.623-1.402   c0.596-1.19,4.039-3.094,4.039-3.094c0-2.485-2.015-4.5-4.5-4.5H23v24h2c3.267,0.002,4.609-1.239,6-4   C32.963,34.104,33.926,28.17,31,27z"/>
	<path fill="#BCAAA4" d="M15,27c0.014,0,0.027-0.004,0.041-0.004c0.169-0.023,0.862-0.188,1.624-1.402   c-0.596-1.19-4.04-3.094-4.04-3.094c0-2.485,2.015-4.5,4.5-4.5H23v24h-2c-3.267,0.002-4.609-1.239-6-4   C13.038,34.104,12.074,28.17,15,27z"/>
	<path fill="#BCAAA4" d="M31,19l-2-2c-2-3-3.344-2.998-5-2.998h-1h-1c-1.657,0-3-0.002-5,2.998l-1.664,2H31z"/>
</g>
<g>
	<path fill="#4E342E" d="M32.081,23.321c-0.876,0.369-2.149,1.082-2.745,2.272c0.762,1.215,1.455,1.379,1.623,1.402   C30.973,26.996,30.986,27,31,27c1.104,0,2-0.896,2-2C33,24.295,32.633,23.678,32.081,23.321z"/>
	<path fill="#4E342E" d="M13.919,23.321c0.876,0.369,2.149,1.082,2.746,2.272c-0.762,1.215-1.455,1.379-1.624,1.402   C15.027,26.996,15.014,27,15,27c-1.104,0-2-0.896-2-2C13,24.295,13.367,23.678,13.919,23.321z"/>
</g>
<g>
	<path fill="#5D4037" d="M33.559,23.288c-0.204-0.153-0.388-0.32-0.543-0.496c-0.016-0.018-0.032-0.039-0.048-0.058   c-0.385,0.225-0.99,0.592-1.607,1.015c0.357,0.212,0.639,0.286,0.953,0.368c0.32,0.075,0.637,0.113,0.945,0.125   C33.877,24.257,34.462,24.166,35,24C34.462,23.833,33.969,23.588,33.559,23.288z"/>
	<path fill="#5D4037" d="M14.64,23.75c-0.617-0.423-1.223-0.791-1.607-1.016c-0.016,0.019-0.032,0.04-0.048,0.058   c-0.156,0.176-0.339,0.343-0.543,0.496C12.031,23.588,11.539,23.833,11,24c0.538,0.166,1.123,0.257,1.742,0.242   c0.309-0.011,0.625-0.049,0.945-0.125C14,24.035,14.281,23.961,14.64,23.75z"/>
</g>
<path fill="#795548" d="M27,39c0-2.209-1.791-2-4-2s-4-0.209-4,2s1.791,4,4,4S27,41.209,27,39z"/>
<path fill="#3E2723" d="M26,38c-1,1-1.343,3-3,3s-2-2-3-3c-1.171-1.171,1.343-3,3-3S27.172,36.829,26,38z"/>
<rect x="21" y="35" fill="#EFEBE9" width="4" height="4"/>
<g>
	<path fill="#8D6E63" d="M29,37c0,1-1.447,2-2,2c0,0-4,0-4-2c0,2-4,2-4,2c-0.552,0-2-1-2-2c0-5,3-5,3-11c0-2,0.448-2,1-2h4   c0.553,0,1,0,1,2C26,32,29,32,29,37z"/>
	<circle fill="#8D6E63" cx="23" cy="25" r="3"/>
</g>
<g>
	<path fill="#6D4C41" d="M13,20.741c0.551-1.279,1.669-2.256,3.048-2.597L17,17c0.477-0.714,0.915-1.254,1.33-1.669   C17.098,13.972,14.788,10.694,17,7c1.833-3.062-3.042-1.748-3.042-1.748S9,7,10,12s3,6,3,7C13,19.902,13,19.997,13,20.741z"/>
	<path fill="#6D4C41" d="M33.008,20.769c-0.551-1.279-1.669-2.256-3.048-2.597l-0.952-1.144c-0.477-0.714-0.915-1.254-1.329-1.669   C28.91,14,31.22,10.722,29.008,7.028C27.175,3.967,32.05,5.28,32.05,5.28s4.958,1.748,3.958,6.748s-3,6-3,7   C33.008,19.931,33.008,20.025,33.008,20.769z"/>
	<path fill="#6D4C41" d="M23,31.5C22.5,31,22,31,22,33c0,5-0.438,5.084-1.333,5.834C21.25,38.729,22,38.385,22,38.385   c0.573-0.297,1-0.732,1-1.385V31.5z"/>
	<path fill="#6D4C41" d="M23,31.5c0.5-0.5,1-0.5,1,1.5c0,5,0.438,5.084,1.333,5.834C24.75,38.729,24,38.385,24,38.385   c-0.573-0.297-1-0.732-1-1.385V31.5z"/>
	<path fill="#6D4C41" d="M22.001,33.002C22,33,22,33,22,33c-2.772,0-3,0-3,0s0-1.328,0-1.521c0-1,0.716-1.308,1.6-1.308H23v2.83   H22.001z"/>
	<path fill="#6D4C41" d="M23.999,33.002C24,33,24,33,24,33c2.772,0,3,0,3,0s0-1.328,0-1.521c0-1-0.717-1.308-1.6-1.308H23v2.83   H23.999z"/>
</g>
<g>
	<path fill="#A1887F" d="M16.048,18.144L17,17c0.477-0.714,0.915-1.254,1.33-1.669C17.098,13.972,14.788,10.694,17,7   c-4.724,3.781-3.042,7.962-1.987,11.549C15.338,18.375,15.682,18.235,16.048,18.144z"/>
	<path fill="#A1887F" d="M29.96,18.172l-0.952-1.144c-0.477-0.714-0.915-1.254-1.329-1.669C28.91,14,31.22,10.722,29.008,7.028   c4.724,3.781,3.042,7.962,1.987,11.549C30.67,18.403,30.326,18.263,29.96,18.172z"/>
</g>
<g>
	<path fill="#3E2723" d="M15.014,18.557c-0.621-2.115-1.454-4.436-1.073-6.761c-2.043,2.296-1.109,5.657-0.166,7.73   C14.127,19.134,14.545,18.807,15.014,18.557z"/>
	<path fill="#3E2723" d="M30.993,18.585c0.621-2.115,1.454-4.436,1.073-6.761c2.043,2.296,1.109,5.657,0.166,7.73   C31.881,19.162,31.463,18.835,30.993,18.585z"/>
</g>
<g>
	<path d="M27,33c0,0-1.447,1-2,1c-0.552,0-1-0.448-1-1s0.448-1,1-1C25.553,32,27,33,27,33z"/>
	<path d="M19,33c0,0,1.448,1,2,1s1-0.448,1-1s-0.448-1-1-1S19,33,19,33z"/>
</g>
</svg>