<?xml version="1.0" encoding="utf-8"?><!-- Generator: Adobe Illustrator 15.0.0, SVG Export Plug-In . SVG Version: 6.00 Build 0)  --><!DOCTYPE svg PUBLIC "-//W3C//DTD SVG 1.1//EN" "http://www.w3.org/Graphics/SVG/1.1/DTD/svg11.dtd"><svg xmlns="http://www.w3.org/2000/svg" xmlns:xlink="http://www.w3.org/1999/xlink" version="1.1" x="0px" y="0px" width="500" height="500" viewBox="0 0 48 48" enable-background="new 0 0 48 48" xml:space="preserve">
<g>
	<path fill="none" stroke="#6D4C41" stroke-width="2" stroke-linecap="round" d="M27,15.002c0,0,10,4,14-2"/>
	<path fill="none" stroke="#6D4C41" stroke-width="2" stroke-linecap="round" d="M28,16.641c0,0,6,6.361,13,4.361"/>
	<path fill="none" stroke="#6D4C41" stroke-width="2" stroke-linecap="round" d="M27,13.002c0,0,8,1,11-4L34,5"/>
	<path fill="none" stroke="#6D4C41" stroke-width="2" stroke-linecap="round" d="M28,19.002c0,0,15,9.998,4,22.998"/>
	<path fill="none" stroke="#6D4C41" stroke-width="2" stroke-linecap="round" d="M21,15.002c0,0-10,4-14-2"/>
	<path fill="none" stroke="#6D4C41" stroke-width="2" stroke-linecap="round" d="M20,16.641c0,0-6,6.361-13,4.361"/>
	<path fill="none" stroke="#6D4C41" stroke-width="2" stroke-linecap="round" d="M21,13.002c0,0-8,1-11-4L14,5"/>
	<path fill="none" stroke="#6D4C41" stroke-width="2" stroke-linecap="round" d="M20,19.002C20,19.002,5,29,16,42"/>
	<path fill="#6D4C41" d="M25,4.306v4.389c0,0.552-0.448,1-1,1s-1-0.448-1-1V4.306C21.837,4.995,21,6.827,21,9   c0,2.761,0,3.694,0,3.694h6c0,0,0-0.934,0-3.694C27,6.827,26.162,4.995,25,4.306z"/>
</g>
<path fill="#FF3D00" d="M27.063,12h-6.125C16.292,15.291,15,25.829,15,30c0,4.972,4.029,9,9,9c4.971,0,9-4.028,9-9  C33,25.829,31.709,15.291,27.063,12z"/>
<g>
	<line fill="none" stroke="#C61700" stroke-width="2" stroke-linecap="round" x1="24" y1="30.002" x2="24" y2="36.002"/>
	<path fill="none" stroke="#C61700" stroke-width="2" stroke-linecap="round" d="M28,18.002c0,0,3,8.998,1,14.998"/>
	<path fill="none" stroke="#C61700" stroke-width="2" stroke-linecap="round" d="M20,18.002c0,0-3,8.998-1,14.998"/>
</g>
<path fill="#4E342E" d="M21.06,12C19.235,14.51,18,18.755,18,21c0,3.312,2.687,6,6,6s6-2.688,6-6c0-2.245-1.234-6.49-3.061-9H21.06z  "/>
</svg>