<?xml version="1.0" encoding="utf-8"?><!-- Generator: Adobe Illustrator 15.0.0, SVG Export Plug-In . SVG Version: 6.00 Build 0)  --><!DOCTYPE svg PUBLIC "-//W3C//DTD SVG 1.1//EN" "http://www.w3.org/Graphics/SVG/1.1/DTD/svg11.dtd"><svg xmlns="http://www.w3.org/2000/svg" xmlns:xlink="http://www.w3.org/1999/xlink" version="1.1" x="0px" y="0px" width="500" height="500" viewBox="0 0 48 48" enable-background="new 0 0 48 48" xml:space="preserve">
<g>
	<path fill="#90CAF9" d="M25,18c0,0,19,17,19,9c0-5-4-7-4-7l-15-4V18z"/>
	<path fill="#90CAF9" d="M23,18c0,0-19,17-19,9c0-5,4-7,4-7l15-4V18z"/>
</g>
<g>
	<path fill="#42A5F5" d="M44,27c0-5-4-7-4-7l-15-4v2c0,0,0.042,0.037,0.108,0.097l14.138,3.772C39.824,22.221,44,23.758,44,27z"/>
	<path fill="#42A5F5" d="M4,27c0-5,4-7,4-7l15-4v2c0,0-0.042,0.037-0.108,0.097L8.754,21.869C8.176,22.221,4,23.758,4,27z"/>
</g>
<g>
	<path fill="none" stroke="#795548" stroke-width="2" stroke-linecap="round" stroke-linejoin="round" stroke-miterlimit="10" d="   M26.077,15.691C28.016,15.691,32,14,32,14l-2-3c0,0,2.568-2.753,7-4"/>
	<path fill="none" stroke="#795548" stroke-width="2" stroke-linecap="round" stroke-linejoin="round" stroke-miterlimit="10" d="   M21.923,15.691C19.985,15.691,16,14,16,14l2-3c0,0-2.569-2.753-7-4"/>
	<g>
		<polygon fill="#795548" points="23,14.002 24,4.002 25,14.002   "/>
	</g>
	<path fill="#795548" d="M27,29c0,2.209-0.791,12-3,12s-3-9.791-3-12s-1-10,3-10S27,26.791,27,29z"/>
</g>
<g>
	<path fill="#5D4037" d="M21.093,31h5.813C26.971,30.135,27,29.426,27,29h-6C21,29.426,21.03,30.135,21.093,31z"/>
	<path fill="#5D4037" d="M20.925,27h6.15c0.024-0.617,0.042-1.297,0.031-2h-6.213C20.883,25.703,20.9,26.383,20.925,27z"/>
	<path fill="#5D4037" d="M25.563,39c0.203-0.588,0.383-1.27,0.539-2h-4.203c0.156,0.73,0.335,1.412,0.539,2H25.563z"/>
	<path fill="#5D4037" d="M21.489,21c-0.227,0.595-0.374,1.279-0.464,2h5.95c-0.09-0.721-0.236-1.405-0.464-2H21.489z"/>
	<path fill="#5D4037" d="M21.277,33c0.071,0.649,0.158,1.326,0.26,2h4.925c0.102-0.674,0.188-1.351,0.26-2H21.277z"/>
</g>
<g>
	<path fill="#8D6E63" d="M12.712,26.028l-0.603,2.412L6.36,33.231c-0.424,0.354-0.481,0.984-0.128,1.409C6.43,34.878,6.714,35,7,35   c0.226,0,0.453-0.076,0.64-0.231l6-5c0.163-0.136,0.278-0.32,0.33-0.526l1.238-4.952C14.385,24.891,13.545,25.479,12.712,26.028z"/>
	<path fill="#8D6E63" d="M35.936,28.478l-0.319-2.236c-0.744-0.481-1.495-0.997-2.239-1.529l0.633,4.43   c0.035,0.245,0.16,0.468,0.35,0.627l6,5C40.547,34.924,40.773,35,40.999,35c0.287,0,0.571-0.122,0.77-0.359   c0.354-0.425,0.296-1.056-0.128-1.409L35.936,28.478z"/>
	<path fill="#8D6E63" d="M21.113,22.392c-1.621,2.073-3.721,3.813-3.748,3.836c-0.156,0.128-0.27,0.3-0.326,0.494   c-0.052,0.18-1.234,4.304-1.062,7.948c-0.874,1.065-3.863,4.687-5.706,6.645c-0.378,0.402-0.359,1.035,0.043,1.414   C10.508,42.91,10.754,43,11,43c0.266,0,0.532-0.105,0.729-0.314c2.214-2.354,5.891-6.863,6.047-7.054   c0.162-0.199,0.241-0.453,0.222-0.709c-0.221-2.865,0.621-6.353,0.886-7.359c0.379-0.326,1.148-1.016,2.007-1.898   C20.882,24.59,20.928,23.435,21.113,22.392z"/>
	<path fill="#8D6E63" d="M37.729,41.314c-1.842-1.958-4.832-5.579-5.706-6.645c0.173-3.645-1.01-7.769-1.063-7.948   c-0.056-0.194-0.17-0.366-0.325-0.494c-0.027-0.023-2.126-1.76-3.748-3.834c0.186,1.042,0.231,2.197,0.223,3.271   c0.859,0.884,1.628,1.573,2.008,1.899c0.265,1.008,1.106,4.495,0.886,7.359c-0.02,0.256,0.06,0.51,0.222,0.709   c0.155,0.19,3.833,4.7,6.047,7.054C36.469,42.895,36.734,43,37,43c0.246,0,0.492-0.09,0.686-0.271   C38.088,42.35,38.106,41.717,37.729,41.314z"/>
	<path fill="#8D6E63" d="M24,19c1.063,0,1.766,0.56,2.235,1.41C27.262,18.997,28,17.006,28,16c0-2-2.344-2.998-4-2.998S20,14,20,16   c0,1.006,0.738,2.997,1.765,4.41C22.234,19.56,22.937,19,24,19z"/>
</g>
<g>
	<circle fill="#37474F" cx="22.5" cy="12.502" r="1.5"/>
	<circle fill="#37474F" cx="25.5" cy="12.502" r="1.5"/>
</g>
</svg>