<?xml version="1.0" encoding="utf-8"?><!-- Generator: Adobe Illustrator 15.0.0, SVG Export Plug-In . SVG Version: 6.00 Build 0)  --><!DOCTYPE svg PUBLIC "-//W3C//DTD SVG 1.1//EN" "http://www.w3.org/Graphics/SVG/1.1/DTD/svg11.dtd"><svg xmlns="http://www.w3.org/2000/svg" xmlns:xlink="http://www.w3.org/1999/xlink" version="1.1" x="0px" y="0px" width="500" height="500" viewBox="0 0 48 48" enable-background="new 0 0 48 48" xml:space="preserve">
<g>
	<path fill="#673AB7" d="M29.279,37.078C28.867,35.984,29,35,29,35s7.229,5.373,12.909-1.92c-0.146,0.332-0.317,0.658-0.507,0.975   c0.581-0.953,0.959-2,1.121-3.021c0.219-1.318,0.146-2.59-0.08-3.78c-0.115-0.597-0.269-1.176-0.457-1.736   c-0.098-0.295-0.186-0.527-0.317-0.859c-0.091-0.207-0.243-0.553-0.386-0.822c-0.564-1.063-1.203-1.906-1.686-2.727   c-0.242-0.41-0.445-0.809-0.59-1.212c-0.147-0.394-0.213-0.737-0.195-1.147c0.032-0.825,0.391-1.646,0.949-2.539   c0.27-0.457,0.556-0.947,0.771-1.504c0.168-0.494,0.386-0.977,0.502-1.603c0.172-1.229-0.265-2.292-0.691-3.253   C39.902,8.883,39.363,7.986,39,7c0.212,1.032,0.617,2.021,0.899,3.018c0.284,0.982,0.484,2.031,0.211,2.881   c-0.132,0.395-0.413,0.847-0.663,1.311c-0.232,0.393-0.537,0.771-0.87,1.17c-0.679,0.781-1.435,1.82-1.696,3.092   c-0.143,0.627-0.134,1.35-0.008,1.967c0.11,0.614,0.299,1.193,0.509,1.729c0.421,1.069,0.911,2.004,1.191,2.859   c0.514,1.656,0.606,3.676,0.087,5.11c-0.253,0.731-0.65,1.308-1.143,1.737c-0.51,0.439-1.148,0.76-1.784,0.914   c-1.269,0.314-2.595-0.076-3.483-0.867c-0.438-0.383-0.799-0.912-0.982-1.387c-0.251-0.592-0.297-1.061-0.297-1.727   c0.006-1.309,0.521-3.1,0.986-5.381l0.028-0.139c0.046-0.234,0.071-0.477,0.075-0.725c0.031-2.221-1.744-4.047-3.965-4.078   c-2.222-0.032-4.048,1.743-4.08,3.965c-0.026,1.865-0.446,4.231,0.005,7.121c0.224,1.414,0.799,2.997,1.627,4.205   C26.529,35.105,28,36,28.952,36.914C29.023,36.982,28.952,36.914,29.279,37.078z"/>
	<path fill="#673AB7" d="M33,11c0,4.971-4.029,17-9,17s-9-12.029-9-17s4.029-9,9-9S33,6.029,33,11z"/>
	<path fill="#673AB7" d="M24.393,25.564c-0.069-1.085-0.128-2.073-0.171-3.104c-0.008-0.171-0.028-0.366-0.059-0.54   c-0.392-2.182-2.477-3.632-4.657-3.24c-2.181,0.391-3.632,2.477-3.24,4.656l0.014,0.08c0.376,2.101,1.004,4.453,1.048,5.533   l0.005,0.258v0.008c0.009-0.061-0.019,0.146,0.02-0.133l-0.001,0.025l-0.003,0.049l-0.006,0.1l-0.013,0.197   c-0.033,0.258,0.036,0.072,0.001,0.27c-0.023,0.232-0.074,0.479-0.18,0.73c-0.202,0.504-0.582,1.04-1.08,1.486   c-0.26,0.221-0.495,0.424-0.824,0.578c-0.07,0.06-0.405,0.188-0.697,0.239c-0.623,0.126-1.428,0.101-2.214-0.052l-0.292-0.062   l-0.143-0.035l-0.071-0.018l-0.018-0.005c0.034,0.014-0.09-0.033,0.075,0.031l-0.012-0.004l-0.047-0.016l-0.341-0.109   c-0.042-0.018-0.071-0.014-0.132-0.037c-0.26-0.1-0.487-0.229-0.705-0.411c-0.435-0.356-0.832-0.985-1.113-1.797   c-0.574-1.462-0.434-3.292,0.113-5.154l0.098-0.329l0.117-0.338c0.068-0.195,0.167-0.434,0.264-0.658l0.649-1.475   c0.429-1.031,0.865-2.318,0.606-3.693c-0.239-1.289-0.969-2.348-1.664-3.146c-0.337-0.403-0.648-0.781-0.89-1.18   c-0.238-0.424-0.538-0.934-0.685-1.314c-0.311-0.847-0.179-1.902,0.055-2.902C8.43,9.041,8.791,8.035,9,7   C8.637,7.99,8.136,8.912,7.74,9.908c-0.384,0.986-0.748,2.079-0.524,3.296c0.149,0.632,0.333,1.063,0.525,1.595   c0.222,0.549,0.513,1.037,0.782,1.492c0.552,0.88,0.89,1.721,0.905,2.538c0.019,0.743-0.345,1.522-0.859,2.344l-0.846,1.304   c-0.151,0.239-0.295,0.468-0.45,0.749l-0.206,0.382L6.872,24.01c-0.491,1.033-0.908,2.14-1.155,3.35   c-0.123,0.604-0.202,1.234-0.216,1.885c-0.006,0.317,0.002,0.655,0.039,1.037l0.04,0.405l0.082,0.511   c0.122,0.698,0.333,1.443,0.658,2.184c-0.038-0.086-0.078-0.171-0.112-0.256C11.873,40.225,19.139,35,19.139,35   s0.083,1.045-0.313,2.125c0.168-0.084,0.341-0.16,0.501-0.252c1.254-0.715,2.403-1.689,3.326-2.965   c0.462-0.634,0.851-1.354,1.146-2.121c0.14-0.299,0.316-1.002,0.382-1.258l0.049-0.192l0.024-0.097l0.012-0.047l0.006-0.024   l0.024-0.174l0.079-0.527c0.095-0.716,0.117-1.472,0.102-2.126C24.463,26.684,24.426,26.109,24.393,25.564z"/>
	<g>
		<path fill="#673AB7" d="M30.393,29.008c-0.092,0.214-0.227,0.563-0.266,0.619c-0.062,0.094-0.129,0.266-0.195,0.457    c-0.131,0.365-0.244,0.764-0.338,1.184c-0.189,0.838-0.316,1.744-0.375,2.668c-0.062,0.922-0.066,1.867-0.003,2.789l0.011,0.173    l0.002,0.021v0.005c0.004,0.016-0.031-0.109-0.016-0.054l0.001,0.013l0.007,0.049l0.012,0.098l0.049,0.385    c0.021,0.17,0.027,0.338,0.074,0.547c0.074,0.398,0.177,0.795,0.324,1.176c0.553,1.539,1.775,2.923,3.469,3.813    c1.686,0.895,3.754,1.301,5.852,1.219c-1.968,0.729-4.188,1.062-6.467,0.686c-2.261-0.361-4.604-1.572-6.239-3.585    c-0.414-0.493-0.776-1.03-1.099-1.591c-0.161-0.268-0.316-0.592-0.468-0.912l-0.173-0.363l-0.042-0.089l-0.021-0.044l-0.005-0.012    l-0.022-0.072l-0.01-0.025l-0.084-0.205c-0.45-1.092-0.813-2.197-1.112-3.338c-0.3-1.139-0.527-2.313-0.661-3.551    c-0.067-0.619-0.105-1.258-0.106-1.922c0-0.324,0.005-0.668,0.046-1.082l0.071-0.902l0.005-0.062    c0.177-2.234,2.132-3.901,4.366-3.724c2.234,0.176,3.901,2.131,3.725,4.364C30.668,28.183,30.555,28.619,30.393,29.008z"/>
	</g>
	<g>
		<path fill="#673AB7" d="M25.477,27.16l0.072,0.902c0.04,0.414,0.046,0.758,0.045,1.082c0,0.664-0.038,1.303-0.105,1.922    c-0.134,1.238-0.36,2.412-0.661,3.551c-0.3,1.141-0.662,2.246-1.112,3.338l-0.084,0.205l-0.01,0.025l-0.022,0.072l-0.005,0.012    l-0.021,0.044l-0.042,0.089l-0.173,0.363c-0.151,0.32-0.307,0.645-0.468,0.912c-0.321,0.561-0.684,1.098-1.098,1.591    c-1.635,2.013-3.979,3.224-6.24,3.585c-2.279,0.376-4.499,0.044-6.466-0.686c2.098,0.082,4.166-0.324,5.852-1.219    c1.692-0.89,2.916-2.273,3.469-3.813c0.147-0.381,0.25-0.777,0.324-1.176c0.046-0.209,0.053-0.377,0.074-0.547l0.049-0.385    l0.012-0.098l0.006-0.049l0.001-0.013c0.015-0.056-0.02,0.069-0.016,0.054l0-0.005l0.001-0.021l0.011-0.173    c0.063-0.922,0.059-1.867-0.003-2.789c-0.059-0.924-0.186-1.83-0.375-2.668c-0.094-0.42-0.208-0.818-0.338-1.184    c-0.066-0.191-0.134-0.363-0.195-0.457c-0.04-0.057-0.174-0.405-0.265-0.619c-0.877-2.063,0.083-4.445,2.145-5.322    c2.063-0.878,4.445,0.082,5.322,2.145c0.175,0.409,0.276,0.83,0.312,1.251L25.477,27.16z"/>
	</g>
	<path fill="#673AB7" d="M33,18.5c0,3.5-6.619,9.5-8,9.5h-2c-1.381,0-8-6-8-9.5l0,0c0-1.381,1.119-2.5,2.5-2.5h13   C31.881,16,33,17.119,33,18.5L33,18.5z"/>
</g>
<g>
	<circle fill="#7E57C2" cx="25" cy="6" r="2"/>
	<circle fill="#7E57C2" cx="21" cy="6" r="1"/>
	<circle fill="#7E57C2" cx="29.5" cy="8.5" r="1.5"/>
	<circle fill="#7E57C2" cx="30" cy="12" r="1"/>
</g>
<g>
	<circle fill="#B39DDB" cx="23" cy="10" r="1"/>
	<circle fill="#B39DDB" cx="18.5" cy="8.5" r="0.5"/>
	<circle fill="#B39DDB" cx="26.5" cy="10.5" r="0.5"/>
</g>
<g>
	<path fill="#FFEB3B" stroke="#311B92" stroke-width="2" stroke-linecap="round" d="M21.039,20.205   c1.003-1.003-0.812-0.813-1.815-1.815c-1.003-1.004-0.813-2.818-1.815-1.815"/>
	<path fill="#FFEB3B" stroke="#311B92" stroke-width="2" stroke-linecap="round" d="M26.514,20.205   c-1.004-1.003,0.812-0.813,1.815-1.815c1.003-1.004,0.813-2.818,1.815-1.815"/>
	<path fill="#311B92" d="M24,31c0,0-1.799,12.765-8.791,13.896c0.114-0.015,0.228-0.023,0.342-0.043   c2.261-0.361,4.605-1.572,6.24-3.585c0.414-0.493,0.777-1.03,1.098-1.591c0.162-0.268,0.317-0.592,0.468-0.912l0.173-0.363   l0.042-0.089l0.021-0.044l0.005-0.012l0.022-0.072l0.01-0.025l0.084-0.205c0.12-0.291,0.219-0.588,0.327-0.882   c0.108,0.294,0.207,0.591,0.327,0.882l0.084,0.205l0.01,0.025l0.022,0.072l0.005,0.012l0.021,0.044l0.042,0.089l0.173,0.363   c0.151,0.32,0.307,0.645,0.468,0.912c0.322,0.561,0.685,1.098,1.099,1.591c1.615,1.989,3.923,3.191,6.159,3.568   C25.74,43.42,24,31,24,31z"/>
</g>
<g>
	<g>
		<path fill="#FFEB3B" d="M20.383,20.924c1.003-1.003-0.812-0.813-1.815-1.815c-1.003-1.004-0.813-2.818-1.815-1.815    c-1.003,1.003-1.003,2.628,0,3.631S19.381,21.927,20.383,20.924z"/>
	</g>
	<path fill="#FFEB3B" d="M27.086,20.914C26.027,19.855,27.941,20.057,29,19c1.057-1.059,0.856-2.973,1.914-1.914   c1.057,1.057,1.057,2.77,0,3.828C29.855,21.971,28.143,21.971,27.086,20.914z"/>
</g>
<g>
	<path fill="#263238" d="M28.189,19.554C28.369,19.816,28.657,20,29,20c0.553,0,1-0.448,1-1c0-0.342-0.184-0.63-0.446-0.811   C29.414,18.475,29.24,18.76,29,19C28.759,19.24,28.474,19.414,28.189,19.554z"/>
	<path fill="#263238" d="M19.381,19.656c-0.285-0.136-0.573-0.307-0.814-0.548s-0.412-0.529-0.548-0.813   c-0.266,0.18-0.452,0.469-0.452,0.813c0,0.552,0.448,1,1,1C18.912,20.108,19.202,19.923,19.381,19.656z"/>
</g>
<g>
	<g>
		<path fill="#FF80AB" d="M29.211,36.867c0.001,0.002,0.002,0.005,0.003,0.007C29.209,36.86,29.208,36.854,29.211,36.867z"/>
		<path fill="#FF80AB" d="M29.178,35.123c-0.007,0.536,0.001,1.072,0.037,1.602l0.012,0.173l0.001,0.021    c0.018,0.054,0.031,0.105,0.052,0.16c8.055,3.88,12.408-3.099,12.63-3.998C36.751,39.702,30.317,35.882,29.178,35.123z"/>
	</g>
	<path fill="#FF80AB" d="M18.813,37.131c0.004-0.002,0.008-0.004,0.013-0.006c0.009-0.025,0.015-0.05,0.024-0.075l0.002-0.021   l0.012-0.098l0.006-0.049l0.001-0.013c0.015-0.056-0.02,0.069-0.016,0.055l0-0.006l0.001-0.021l0.011-0.174   c0.036-0.519,0.045-1.045,0.039-1.571c-1.269,0.804-7.625,4.333-12.701-2.027C9.083,39.458,16.188,38.521,18.813,37.131z"/>
</g>
</svg>