<?xml version="1.0" encoding="iso-8859-1"?><!-- Generator: Adobe Illustrator 19.1.1, SVG Export Plug-In . SVG Version: 6.00 Build 0)  --><svg xmlns="http://www.w3.org/2000/svg" xmlns:xlink="http://www.w3.org/1999/xlink" version="1.1" id="Layer_1" x="0px" y="0px" viewBox="0 0 48 48" style="enable-background:new 0 0 48 48;" xml:space="preserve" width="500" height="500">
<path style="fill:#FF80AB;" d="M34.695,20c0,0,10.617-2.25,4.305-15c-1.822,2.277-5.392,4.016-7,6.988  c-0.856,1.584-1.321,3.801-0.303,6.012C31.697,18,30.823,20.992,34.695,20z"/>
<path style="fill:#FF80AB;" d="M13.309,20c0,0-10.617-2.25-4.305-15c1.822,2.277,5.392,4.016,7,6.988  c0.856,1.584,1.321,3.801,0.303,6.012C16.307,18,17.181,20.992,13.309,20z"/>
<path style="fill:#880E4F;" d="M33,17c0,0.551,2.125-1,3-1c0.553,0,1-0.447,1-1c0-0.551-0.447-1-1-1C35.063,14,33,16.449,33,17z"/>
<path style="fill:#880E4F;" d="M15,17c0,0.551-1.938-1-3-1c-0.553,0-1-0.447-1-1c0-0.551,0.447-1,1-1C13,14,15,16.449,15,17z"/>
<ellipse style="fill:#F8BBD0;" cx="24" cy="22.5" rx="11" ry="13.5"/>
<ellipse style="fill:#F8BBD0;" cx="24" cy="30" rx="16" ry="12"/>
<ellipse style="fill:#F8BBD0;" cx="24" cy="40" rx="5" ry="3"/>
<path style="fill:#FCE4EC;" d="M31,26c0,2.761-3.134,4-7,4s-7-1.239-7-4s3.134-6,7-6S31,23.239,31,26z"/>
<circle style="fill:#263238;" cx="28" cy="20" r="1"/>
<path style="fill:#B71C1C;" d="M15.818,33c0,0,3.174,4.909,8.182,4.909S32,33,32,33H15.818z"/>
<path style="fill:#D50000;" d="M26,31c-1.253,0-2,1-2,1s-0.747-1-2-1c-2.193,0-3.341,2-6.182,2c0,0,3.55,1,8.182,1s8.182-1,8.182-1  C29.341,33,28.193,31,26,31z"/>
<circle style="fill:#212121;" cx="28" cy="20" r="1"/>
<circle style="fill:#212121;" cx="20" cy="19.962" r="1"/>
<ellipse style="fill:#880E4F;" cx="21" cy="25.5" rx="1" ry="1.5"/>
<ellipse style="fill:#880E4F;" cx="27" cy="25.5" rx="1" ry="1.5"/>
</svg>