<?xml version="1.0" encoding="utf-8"?><!-- Generator: Adobe Illustrator 15.0.0, SVG Export Plug-In . SVG Version: 6.00 Build 0)  --><!DOCTYPE svg PUBLIC "-//W3C//DTD SVG 1.1//EN" "http://www.w3.org/Graphics/SVG/1.1/DTD/svg11.dtd"><svg xmlns="http://www.w3.org/2000/svg" xmlns:xlink="http://www.w3.org/1999/xlink" version="1.1" x="0px" y="0px" width="500" height="500" viewBox="0 0 48 48" enable-background="new 0 0 48 48" xml:space="preserve">
<g>
	<path fill="#F48FB1" d="M47,25c-7.417,9.75-13.538,8-23,8C9.5,33,8,28.008,8,20C8,7.429,24.062,8,25,8c17,0,16,12,20,13"/>
	<path fill="#F48FB1" d="M8,18c0,9,2,12,2,12l-2,2v8h4c0-2,0-5,0-5s7-1,8-5V18L8,18z"/>
	<polygon fill="#F48FB1" points="34,27 32,37 32,38 28,38 27,29  "/>
	<line fill="none" stroke="#F48FB1" stroke-width="2" x1="11" y1="17" x2="8" y2="17"/>
	<g>
		<path fill="#F48FB1" d="M8.523,17.975l-0.139,0.008H8.134C7.97,17.974,7.839,17.957,7.7,17.926    c-0.273-0.059-0.521-0.152-0.746-0.263c-0.446-0.227-0.81-0.515-1.121-0.826c-0.619-0.63-1.073-1.341-1.377-2.159    c-0.143-0.404-0.261-0.871-0.228-1.371c0.038-0.519,0.195-0.951,0.452-1.361c0.256-0.395,0.645-0.79,1.226-0.926    c0.603-0.137,1.153,0.137,1.494,0.462c0.365,0.319,0.591,0.858,0.578,1.321c0.003,0.47-0.14,0.888-0.336,1.256    c-0.199,0.367-0.458,0.693-0.778,0.96c-0.32,0.274-0.729,0.451-1.123,0.52c-0.796,0.144-1.592-0.001-2.281-0.333    C2.776,14.88,2.169,14.298,2,13.564c0.253,0.708,0.89,1.18,1.557,1.411c0.672,0.236,1.418,0.275,2.065,0.078    c0.655-0.178,1.091-0.711,1.343-1.316c0.251-0.609,0.195-1.246-0.224-1.502c-0.457-0.306-0.707-0.146-0.981,0.342    c-0.237,0.514-0.204,0.969,0.083,1.529c0.272,0.544,0.697,1.064,1.166,1.436c0.485,0.381,0.964,0.559,1.302,0.445L8.523,17.975z"/>
	</g>
</g>
<circle cx="39" cy="21" r="1"/>
<ellipse fill="#EC407A" cx="44.5" cy="24" rx="2.5" ry="3"/>
<g>
	<ellipse fill="#880E4F" cx="43.5" cy="24" rx="0.5" ry="1"/>
	<ellipse fill="#880E4F" cx="45.5" cy="24" rx="0.5" ry="1"/>
</g>
<g>
	<path fill="#F06292" d="M41.385,16.427C42.864,15.583,45,13.58,45,9c-2.351,1.175-5.384,1.324-7.492,2.66   C39.314,13.139,40.476,14.861,41.385,16.427z"/>
	<path fill="#F06292" d="M18.106,32.633c-1.628,1.24-3.838,1.887-5.106,2.173V40h4c0-2,0-5,0-5s3.231-0.465,5.617-2.017   C20.922,32.943,19.433,32.822,18.106,32.633z"/>
	<path fill="#F06292" d="M32.785,33.073L32,37v1h3v-1l0.853-4.264C34.856,32.925,33.835,33.021,32.785,33.073z"/>
	<path fill="#F06292" d="M33.5,15.334c0,0,5-1,5-8c-4,2-10,1-10,8C28.5,15.334,29.565,14.612,33.5,15.334z"/>
</g>
<g>
	<polygon fill="#5D4037" points="31,38 35,37 36,40 31,40  "/>
	<polygon fill="#5D4037" points="13,38 17,37 18,40 13,40  "/>
</g>
<g>
	<polygon fill="#795548" points="8,38 12,37 13,40 8,40  "/>
	<polygon fill="#795548" points="28,38 32,37 33,40 28,40  "/>
</g>
</svg>