<?xml version="1.0" encoding="utf-8"?><!-- Generator: Adobe Illustrator 15.0.0, SVG Export Plug-In . SVG Version: 6.00 Build 0)  --><!DOCTYPE svg PUBLIC "-//W3C//DTD SVG 1.1//EN" "http://www.w3.org/Graphics/SVG/1.1/DTD/svg11.dtd"><svg xmlns="http://www.w3.org/2000/svg" xmlns:xlink="http://www.w3.org/1999/xlink" version="1.1" x="0px" y="0px" width="500" height="500" viewBox="0 0 48 48" enable-background="new 0 0 48 48" xml:space="preserve">
<path fill="#546E7A" d="M13,32.827c-1.344-0.115-2.891-0.246-3-0.246c-0.87,0-1.694-0.174-2.44-0.479  c-0.641-0.262-1.222-0.624-1.721-1.064c-0.323,0.695-0.434,1.492-0.238,2.293c1.009,4.12,4.382,5.409,7.399,5.628V32.827z"/>
<path fill="#CFD8DC" d="M35,31.002C31.78,36.152,26.075,41,20,41S9,36.075,9,30s4.925-11,11-11c0.7,0,4.159,0.002,6,0.002  c0.918,0,2-1,2-2.002C42.667,16.752,39,24.002,35,31.002z"/>
<g>
	<path fill="#78909C" d="M31,13c-5.524-2.763-15.654-2.004-15.749-2.014c-1.374-0.137-2.376-1.361-2.239-2.736   c0.138-1.373,1.365-2.373,2.736-2.238c0.427,0.042,10.511-0.389,16.869,4.251c2.383,1.739,1.736,2.119,1.118,3.354   C33.297,14.493,31.359,13.18,31,13z"/>
	<path fill="#78909C" d="M44,20c0,3.313-6.687,3-10,3s-6-2.687-6-6s2.687-6,6-6S44,14,44,20z"/>
</g>
<path fill="#B0BEC5" d="M30.553,12.094C23.485,8.744,13.875,9.95,13.449,9.96c-1.377,0.029-2.477,1.17-2.449,2.55  c0.028,1.381,1.17,2.478,2.551,2.449c0.09-0.002,8.996-1.756,14.882-0.191C28.869,13.684,29.61,12.757,30.553,12.094z"/>
<g>
	<path fill="#90A4AE" d="M37,39V27.286c-0.589,1.218-1.288,2.471-2,3.716c-0.827,1.323-1.82,2.625-2.94,3.831L33,40.005   c0,0,0,1.995,2,1.995c1.115,0,4,0,4,0v-1C39,41,39,39,37,39z"/>
	<path fill="#90A4AE" d="M25,32.5C25,41,15,39,12,39c0,0,0-1,0-6.5c0-3.59,2.91-6.5,6.5-6.5S25,28.91,25,32.5z"/>
	<path fill="#90A4AE" d="M27,39H14h-2v3h17v-1C29,39.896,28.104,39,27,39z"/>
</g>
<path fill="#455A64" d="M40,17c0,0-1.594,0-2.422,0c-2,0-2.578-3-2.578-3s1.625,0,2.453,0C39.453,14,40,17,40,17z"/>
<circle cx="37.5" cy="15.5" r="1.5"/>
</svg>