<?xml version="1.0" encoding="iso-8859-1"?><!-- Generator: Adobe Illustrator 19.1.1, SVG Export Plug-In . SVG Version: 6.00 Build 0)  --><svg xmlns="http://www.w3.org/2000/svg" xmlns:xlink="http://www.w3.org/1999/xlink" version="1.1" id="Layer_1" x="0px" y="0px" viewBox="0 0 48 48" style="enable-background:new 0 0 48 48;" xml:space="preserve" width="500" height="500">
<path style="fill:#78909C;" d="M37.985,33l-4-6l-1-2l-4-2c0,0-5-0.118-5-3c0-4.449-4-6-4-6L15,12c0,0-1.456-2-4-2s-6,3-6,3v29  c0,0,3.342-0.954,5.684-3.629C11.315,38.721,12.1,39,13,39c2.081,0,4.433-2.388,5-3c2.053,2.057,5.513,5,9.985,5  C30.887,41,33,39,33,39l1.985,2C38.391,38.672,37.985,33,37.985,33z"/>
<path style="fill:#78909C;" d="M17,5c0,0,4,1.792,4,5s-2,6-2,6s-5-0.208-5-4C14,9.375,17,7.708,17,5z"/>
<path style="fill:#546E7A;" d="M27,28c0,1.105-0.895,2-2,2s-2-0.895-2-2s0.895-2,2-2S27,26.895,27,28z M13.362,30.585  c-0.108-0.231-0.196-0.431-0.262-0.588C11.661,26.606,9,24,9,24s3,5.271,3,9c0,3.75-1.204,5.204-1.316,5.371  C11.315,38.721,12.1,39,13,39c2.081,0,4.433-2.388,5-3c-1.333-1.375-2-4-2-4S14.589,32.337,13.362,30.585z M28,36  c0,2.583,2.157,3.304,2.81,4.381C32.158,39.794,33,39,33,39C31.375,37.417,29.583,38.292,28,36z M12.005,10.115  C12.065,15.333,16,17,16,17s-1.982-2.851-1.999-5.961C13.507,10.667,12.835,10.296,12.005,10.115z"/>
<path style="fill:#B0BEC5;" d="M41,16c0,0,2,3.248,2,8s-5,9-5,9c-2.353-1.409-4-2.975-4-6C34,27,41,25.514,41,16z M33,25  c1.957-2.366,0-7,0-7s-1.802,3.569-4,5C29,23,29.945,25,33,25z"/>
<circle cx="25" cy="28" r="1"/>
<path style="fill:none;stroke:#455A64;stroke-width:2;stroke-linecap:round;stroke-miterlimit:10;" d="M32,35c0,0,0.75,1,2,1"/>
<path style="fill:#37474F;" d="M35,36c0,0.552-0.448,1-1,1s-1-0.448-1-1s0.448-1,1-1S35,35.448,35,36z M17,12c-0.552,0-1,0.448-1,1  s1,3,1,3s1-2.448,1-3S17.552,12,17,12z"/>
</svg>