<?xml version="1.0" encoding="utf-8"?><!-- Generator: Adobe Illustrator 15.0.0, SVG Export Plug-In . SVG Version: 6.00 Build 0)  --><!DOCTYPE svg PUBLIC "-//W3C//DTD SVG 1.1//EN" "http://www.w3.org/Graphics/SVG/1.1/DTD/svg11.dtd"><svg xmlns="http://www.w3.org/2000/svg" xmlns:xlink="http://www.w3.org/1999/xlink" version="1.1" x="0px" y="0px" width="500" height="500" viewBox="0 0 48 48" enable-background="new 0 0 48 48" xml:space="preserve">
<g>
	<path fill="#FFC107" d="M22,39c-0.085,1.057,0.108,1.83,0.766,2.639c0.651,0.789,1.632,1.324,2.715,1.424   c0.998,0.117,2.049-0.288,2.744-1.111c0.346-0.405,0.595-0.902,0.713-1.441c0.059-0.291,0.086-0.516,0.068-0.847   c0.005-0.181-0.067-0.495-0.152-0.728c-0.362-1.008-1.396-1.789-2.608-1.77c-0.487,0.001-1.083,0.229-1.482,0.635   c-0.415,0.4-0.672,0.986-0.692,1.58c-0.024,0.586,0.258,1.178,0.752,1.552c0.479,0.368,1.206,0.523,1.776,0.274   c0.593-0.237,1.033-0.87,1.014-1.566c-0.001-0.672-0.605-1.33-1.354-1.357c0.74-0.058,1.502,0.529,1.604,1.344   c0.112,0.774-0.305,1.629-1.041,2.029c-0.756,0.419-1.673,0.327-2.411-0.097c-0.736-0.426-1.269-1.242-1.339-2.128   c-0.182-1.752,1.165-3.54,3.097-3.764c1.732-0.24,3.665,0.744,4.502,2.432c0.21,0.436,0.37,0.827,0.45,1.377   c0.069,0.396,0.089,0.909,0.043,1.346c-0.085,0.912-0.399,1.814-0.915,2.594c-1.009,1.573-2.885,2.627-4.826,2.646   c-1.853,0.061-3.763-0.655-5.157-1.972c-0.7-0.654-1.279-1.451-1.688-2.34c-0.204-0.444-0.365-0.91-0.48-1.39   c-0.058-0.242-0.102-0.478-0.138-0.731l-0.066-0.682L22,39z"/>
	<g>
		<path fill="#FFC107" d="M24,12c0-1.021,0.979-7.824,0.969-7.734C24.506,4.105,24.018,4,23.5,4c-1.752,0-3.253,1.012-3.997,2.473    C19.58,6.235,19,8.234,19,10c0,4,3,8,3,13s-1.531,5.563-4,11c0,0-1.406,3.844,0.75,8.031L22,39c0,0,0-4,3-6    c2.027-1.352,8-3.747,8-10C33,16,24,14,24,12z"/>
		<path fill="#FFC107" d="M24,12c0-1.021,0.979-7.824,0.969-7.734C24.506,4.105,24.018,4,23.5,4c-1.752,0-3.253,1.012-3.997,2.473    C19.58,6.235,19,8.234,19,10c0,4,3,8,3,13s-1.531,5.563-4,11c0,0-1.406,3.844,0.75,8.031L22,39c0,0,0-4,3-6    c2.027-1.352,8-3.747,8-10C33,16,24,14,24,12z"/>
	</g>
	<circle fill="#FFC107" cx="24" cy="8" r="4"/>
	<path fill="#FFC107" d="M34.553,14.895C34.553,14.895,28,11,24,12l4-5c0,2,7.447,6.105,7.447,6.105L34.553,14.895z"/>
	<path fill="#FFC107" d="M28.637,6.163c0.307,0.77,0.676,3.5-0.094,3.808s-2.385-1.924-2.692-2.692   c-0.308-0.77,0.066-1.643,0.836-1.95C27.455,5.021,28.328,5.396,28.637,6.163z"/>
	<path fill="#FFC107" d="M35.561,14.561c-0.586,0.586-1.311,0.939-2.477-0.728c-0.476-0.679-0.447-2.113,0.332-1.833   c1.562,0.561,1.559-0.146,2.145,0.439S36.146,13.975,35.561,14.561z"/>
	<path fill="#FFC107" d="M17.227,17.583C16.784,17.137,16.369,16.615,16,16c0,0-5,6,0,13c0.373-0.622,0.793-1.15,1.242-1.601   C15.07,23.224,16.21,19.568,17.227,17.583z"/>
</g>
<g>
	<path fill="#FF9800" d="M20.191,29.738c-0.292,0.529-0.613,1.104-0.965,1.77c1.487,0.571,3.444,1.412,4.836,2.275   C24.337,33.501,24.646,33.236,25,33c0.216-0.145,0.484-0.303,0.777-0.475C24.194,31.4,21.835,30.379,20.191,29.738z"/>
	<path fill="#FF9800" d="M21.979,22.426C21.988,22.617,22,22.807,22,23c0,0.535-0.021,1.01-0.055,1.455   c2.667,0.468,6.619,1.328,9.995,2.717c0.313-0.565,0.57-1.181,0.753-1.854C28.984,23.793,24.73,22.893,21.979,22.426z"/>
	<path fill="#FF9800" d="M22.167,37.592c0.118-0.593,0.326-1.313,0.675-2.039c-1.481-1.1-3.371-1.828-4.535-2.208   C18.206,33.559,18.105,33.77,18,34c0,0-0.168,0.471-0.3,1.252C18.891,35.642,20.929,36.435,22.167,37.592z"/>
	<path fill="#FF9800" d="M21.75,20.443c3.31,0.459,8.049,1.303,11.244,2.666C32.994,23.072,33,23.038,33,23   c0-0.783-0.127-1.495-0.326-2.16c-3.632-1.317-8.359-2.09-11.438-2.488C21.438,19.031,21.616,19.729,21.75,20.443z"/>
	<path fill="#FF9800" d="M21.618,26.479c-0.179,0.679-0.417,1.284-0.712,1.897c1.916,0.411,4.877,1.183,7.608,2.447   c0.572-0.409,1.145-0.874,1.684-1.401C27.191,27.889,23.839,26.97,21.618,26.479z"/>
	<path fill="#FF9800" d="M19.284,12.284c1.514,0.315,3.96,0.84,6.272,1.393C24.634,13.058,24,12,24,12s-4-2-4.992-1.814   C19.024,10.883,19.123,11.58,19.284,12.284z"/>
	<path fill="#FF9800" d="M28.389,15.549c-3.324-0.666-6.617-1.114-8.555-1.349c0.228,0.692,0.479,1.394,0.731,2.11   c2.734,0.355,7.092,1.008,10.752,1.949C30.48,17.183,29.437,16.295,28.389,15.549z"/>
	<g>
		<path fill="#FFC107" d="M23.5,4c0.518,0,1.006,0.105,1.469,0.266C24.979,4.176,24.991,4.084,25,4V2c0,0-4.058,0.011-5.497,4.473    C20.247,5.012,21.748,4,23.5,4z"/>
		<path fill="#FF9800" d="M23.5,4c0.518,0,1.006,0.105,1.469,0.266C24.979,4.176,24.991,4.084,25,4V2c0,0-4.058,0.011-5.497,4.473    C20.247,5.012,21.748,4,23.5,4z"/>
	</g>
	<path fill="#FF9800" d="M21.632,19.876c-1.424-0.284-3.064-0.932-4.43-2.321c0.009,0.009,0.016,0.02,0.025,0.028   c-1.016,1.985-2.156,5.641,0.016,9.816c-0.129,0.13-0.25,0.28-0.374,0.423c1.504-1.733,3.416-2.463,5.013-2.739   C21.957,24.473,22,23.797,22,23C22,21.914,21.854,20.878,21.632,19.876z"/>
</g>
<circle fill="#795548" cx="27" cy="7" r="1"/>
</svg>