<?xml version="1.0" encoding="utf-8"?><!-- Generator: Adobe Illustrator 15.0.0, SVG Export Plug-In . SVG Version: 6.00 Build 0)  --><!DOCTYPE svg PUBLIC "-//W3C//DTD SVG 1.1//EN" "http://www.w3.org/Graphics/SVG/1.1/DTD/svg11.dtd"><svg xmlns="http://www.w3.org/2000/svg" xmlns:xlink="http://www.w3.org/1999/xlink" version="1.1" x="0px" y="0px" width="500" height="500" viewBox="0 0 48 48" enable-background="new 0 0 48 48" xml:space="preserve">
<path fill="#3949AB" d="M37,35C36,11,11,6,11,6s1.374,3.537,2.295,8.432L18,16h-4.435c0.138,0.878,0.258,1.785,0.349,2.718L20,21  h-5.924c0.204,4.772-0.453,9.878-3.076,14C11,35,36,35,37,35z"/>
<path fill="#1A237E" d="M33,34l-22,1c0,0,25,0,26,0C36,11,11,6,11,6s0.335,0.865,0.786,2.328c0.587,0.146,1.323,0.349,2.28,0.656  C20.352,11.217,31.313,18.609,33,34z"/>
<path fill="#90CAF9" d="M44,34c-3,0-4-2-4-2s-1,2-4,2s-4-2-4-2s-1,2-4,2s-4-2-4-2s-1,2-4,2s-4-2-4-2s-1,2-4,2s-4-2-4-2s-1,2-4,2v8h4  h32h4V34z"/>
<path fill="#2196F3" d="M44,38c-3,0-4-2-4-2s-1,2-4,2s-4-2-4-2s-1,2-4,2s-4-2-4-2s-1,2-4,2s-4-2-4-2s-1,2-4,2s-4-2-4-2s-1,2-4,2v4h4  h32h4V38z"/>
</svg>