<?xml version="1.0" encoding="utf-8"?><!-- Generator: Adobe Illustrator 15.0.0, SVG Export Plug-In . SVG Version: 6.00 Build 0)  --><!DOCTYPE svg PUBLIC "-//W3C//DTD SVG 1.1//EN" "http://www.w3.org/Graphics/SVG/1.1/DTD/svg11.dtd"><svg xmlns="http://www.w3.org/2000/svg" xmlns:xlink="http://www.w3.org/1999/xlink" version="1.1" x="0px" y="0px" width="500" height="500" viewBox="0 0 48 48" enable-background="new 0 0 48 48" xml:space="preserve">
<g>
	<circle fill="#B0BEC5" cx="11" cy="27" r="4"/>
	<circle fill="#B0BEC5" cx="22" cy="31" r="4"/>
	<circle fill="#B0BEC5" cx="16" cy="30" r="4"/>
	<circle fill="#B0BEC5" cx="28" cy="30" r="4"/>
</g>
<g>
	<circle fill="#CFD8DC" cx="9" cy="25" r="2"/>
	<circle fill="#CFD8DC" cx="14" cy="26" r="4"/>
	<circle fill="#CFD8DC" cx="20" cy="27" r="4"/>
	<circle fill="#CFD8DC" cx="27" cy="27" r="4"/>
	<path fill="#CFD8DC" d="M36,24c0,0-0.073,0.002-0.178,0.021C35.415,22.848,34.312,22,33,22c-0.343,0-0.667,0.07-0.974,0.176   c0.45-0.418,0.778-0.965,0.908-1.585C31.779,21.292,31,22.55,31,24c0,2.209,1.791,4,4,4s4-1.791,4-4   c0-0.03-0.008-0.058-0.009-0.087C37.673,24,36.443,24,36,24z"/>
	<path fill="#CFD8DC" d="M35,15c0-0.753-0.288-1.434-0.747-1.961c0.774,0.052,1.716,0.186,2.703,0.527   C36.737,11.564,35.061,10,33,10c-2.209,0-4,1.791-4,4c0,2.013,1.493,3.663,3.429,3.942C33.879,17.732,35,16.508,35,15z"/>
	<circle fill="#CFD8DC" cx="30" cy="20" r="3"/>
	<circle fill="#CFD8DC" cx="33" cy="25" r="3"/>
	<circle fill="#CFD8DC" cx="32" cy="15" r="3"/>
	<circle fill="#CFD8DC" cx="11" cy="16" r="4"/>
	<circle fill="#CFD8DC" cx="28" cy="11" r="4"/>
	<circle fill="#CFD8DC" cx="33" cy="27" r="4"/>
	<circle fill="#CFD8DC" cx="9" cy="21" r="4"/>
	<circle fill="#CFD8DC" cx="16" cy="12" r="4"/>
	<circle fill="#CFD8DC" cx="22" cy="10" r="4"/>
	<polygon fill="#CFD8DC" points="10,16 10,24 20,29 37,22 37,17 19,10  "/>
</g>
<g>
	<path fill="#8D6E63" d="M14,30c-1.162,0-2.196-0.505-2.924-1.298c0.427,3.802,0.691,9.496,1.169,11.857   c0.292,1.521,0.635,1.449,0.962,1.449c0.344,0,0.532,0,0.802,0c0.633,0,0.604-2.091,0.604-2.091s0.129-4.702,0.864-10.218   C15.021,29.889,14.525,30,14,30z"/>
	<path fill="#8D6E63" d="M29.422,30.16C28.751,30.682,27.916,31,27,31c-0.614,0-1.189-0.146-1.707-0.395   c0.267,3.873,0.967,8.637,1.299,10.34c0.205,1.098,0.486,1.05,0.763,1.05c0.292,0,0.811,0,1.036,0c0.521,0,0.561-1.521,0.561-1.521   S28.9,34.359,29.422,30.16z"/>
</g>
<path fill="#795548" d="M43.75,20.002c0,0-3.75-5-5.75-6c-1.355-0.678-2.703-0.893-3.747-0.963C34.712,13.566,35,14.247,35,15  c0,1.586-1.236,2.873-2.796,2.979C32.693,18.513,33,19.219,33,20c0,0.866-0.385,1.629-0.974,2.176C32.333,22.07,32.657,22,33,22  c1.312,0,2.415,0.848,2.822,2.021C35.927,24.002,36,24,36,24c1,0,6,0,7-1C45,20.998,43.75,20.002,43.75,20.002z"/>
<circle fill="#4E342E" cx="37" cy="17" r="2"/>
<path fill="#FFC107" d="M36.092,17C36.036,17.157,36,17.324,36,17.5c0,0.829,0.671,1.5,1.5,1.5s1.5-0.671,1.5-1.5  c0-0.176-0.036-0.343-0.092-0.5H36.092z"/>
<path d="M37.5,18c0.553,0,1-0.447,1-1h-2C36.5,17.553,36.947,18,37.5,18z"/>
<g>
	<path fill="#5D4037" d="M33.951,30.873C33.646,30.949,33.33,31,33,31c-0.344,0-0.672-0.057-0.99-0.139   c-0.04,0.012-0.08,0.026-0.12,0.037c-0.211,0.916-0.739,1.703-1.46,2.259c0.569,3.379,1.243,6.052,1.68,7.7   c0.316,1.195,0.594,1.138,0.87,1.138c0.291,0,0.81,0,1.037,0c0.522,0,0.423-1.647,0.423-1.647S33.875,35.258,33.951,30.873z"/>
	<path fill="#5D4037" d="M32,13c0,0-5.243-0.16-5.875,0.473C25.494,14.105,27.389,16,29.285,16c1.896,0,1.45-1,2.715-1"/>
	<path fill="#5D4037" d="M18.927,33.532c-0.131-0.16-0.251-0.326-0.357-0.505C17.874,33.622,16.988,34,16,34   c-0.095,0-0.185-0.021-0.278-0.028c0.654,2.899,1.438,5.403,1.802,6.823c0.317,1.278,0.595,1.211,0.871,1.211   c0.277,0,1.003,0,1.216,0c0.307,0,0.215-1.488,0.215-1.488S19.034,37.465,18.927,33.532z"/>
	<path fill="#5D4037" d="M7,25c0-0.179,0.031-0.349,0.075-0.514c-0.139-0.077-0.275-0.153-0.403-0.245   c-0.705,1.386-2.374,2.488-3.121,2.865c-0.493,0.248-0.692,0.849-0.444,1.342C3.283,28.798,3.635,29,4.001,29   c0.15,0,0.302-0.034,0.446-0.105c0.099-0.049,1.379-0.707,2.558-1.845C7.005,27.032,7,27.017,7,27c0-0.41,0.068-0.802,0.184-1.173   C7.068,25.574,7,25.296,7,25z"/>
	<g>
		<path fill="#5D4037" d="M31,14c0-0.553,0.447-1,1-1l0,0c0.553,0,1,0.447,1,1l0,0c0,0.553-0.447,1-1,1l0,0    C31.447,15,31,14.553,31,14L31,14z"/>
	</g>
</g>
</svg>