<?xml version="1.0" encoding="utf-8"?><!-- Generator: Adobe Illustrator 15.0.0, SVG Export Plug-In . SVG Version: 6.00 Build 0)  --><!DOCTYPE svg PUBLIC "-//W3C//DTD SVG 1.1//EN" "http://www.w3.org/Graphics/SVG/1.1/DTD/svg11.dtd"><svg xmlns="http://www.w3.org/2000/svg" xmlns:xlink="http://www.w3.org/1999/xlink" version="1.1" x="0px" y="0px" width="500" height="500" viewBox="0 0 48 48" enable-background="new 0 0 48 48" xml:space="preserve">
<g>
	<path fill="#795548" d="M37.953,13.886l-0.013,0.002c-0.282-1.649-1.71-2.908-3.44-2.908c-1.933,0-3.5,1.567-3.5,3.5   c0,0.214,0.026,0.422,0.063,0.625l0,0l0.001,0.006c0.008,0.042,0.014,0.083,0.023,0.124C34.018,30.101,26.977,30.983,19,31.981   c-11.094,1.386-13,7-13,7s0,2,2,2s20-0.002,20-0.002s12,0.002,12-11.998C40,21.981,38.953,20.887,37.953,13.886z"/>
	<line fill="none" stroke="#795548" stroke-width="2" x1="36" y1="11.981" x2="41" y2="5.981"/>
	<line fill="none" stroke="#795548" stroke-width="2" x1="33" y1="12.981" x2="28" y2="5.981"/>
</g>
<g>
	<circle fill="#5D4037" cx="40" cy="6.981" r="2"/>
	<circle fill="#5D4037" cx="29" cy="6.981" r="2"/>
</g>
<path fill="#BCAAA4" d="M38.006,14.233c-0.302-0.731-1.037-1.254-2.006-1.254c-1.104,0-2,0.896-2,2c0,0.323,2.486,13.028,0,18  c-3,6-7,6-9,6c-1.515,0-13.342,0-19,0v0.002c0,0,0,2,2,2s20-0.002,20-0.002s13,1,13-11C41,23.102,39,21.979,38.006,14.233z"/>
<g>
	<path fill="#4E342E" d="M31.75,19.938c-0.017-0.021-0.022-0.043-0.036-0.066C32.361,30.301,26.048,31.1,19,31.981   c-2.547,0.317-4.59,0.864-6.256,1.509c-0.437,0.305-0.745,0.445-0.874,0.361c-0.001,0.001-0.003,0.002-0.005,0.002   c-0.368,0.164-0.717,0.332-1.045,0.504c-0.008,0.004-0.015,0.008-0.022,0.012c-0.321,0.169-0.624,0.34-0.903,0.514   c-0.001,0-0.002,0.002-0.004,0.002c1.825,1.4,3.973,2.4,6.318,2.845c0.29,0.054,0.631,0.104,1.007,0.154   c0.108,0.013,0.215,0.032,0.324,0.042c0.642,0.074,1.37,0.127,2.154,0.127c0.658,0,1.304-0.037,1.918-0.111l0.425-0.051l0.367-0.22   c1.153-0.692,2.197-1.501,3.101-2.404c0.8-0.8,1.473-1.692,2.037-2.64c2.995-0.711,6.333-2.49,6.45-6.136   C33.999,26.295,34.313,23.438,31.75,19.938z"/>
</g>
<path fill="#FF9800" d="M6,23c0-3.334,1.256-6.375,3.32-8.676C11.7,11.67,15.155,10,19,10c7.18,0,13,5.82,13,13  c0,0.143,0.188,1.875-0.188,3.438C30.688,31.5,25,31,25,31s-3.127,5-6,5C11.82,36,6,30.18,6,23z"/>
<g>
	<path fill="#FFB74D" d="M17.38,16.031C17.585,16.016,17.791,16,18,16c0.521,0,1.031,0.054,1.525,0.149   c0.564-1.343,1.261-3.542,1.143-6.03C20.121,10.049,19.566,10,19,10c-0.116,0-0.228,0.016-0.343,0.019   C18.833,12.7,17.848,15.072,17.38,16.031z"/>
	<path fill="#FFB74D" d="M14.467,16.83c0.657-0.324,1.363-0.562,2.106-0.695c0.162-1.672,0.11-3.774-0.677-5.748   c-0.653,0.16-1.285,0.371-1.896,0.626C14.834,13.013,14.713,15.281,14.467,16.83z"/>
	<path fill="#FFB74D" d="M22.595,17.457c0.81-1.273,1.986-3.463,2.405-5.982c-0.607-0.317-1.242-0.586-1.901-0.805   c-0.286,2.451-1.524,4.682-2.281,5.85C21.452,16.76,22.049,17.073,22.595,17.457z"/>
	<path fill="#FFB74D" d="M9.449,23.836l0.562,0.373C10.009,24.139,10,24.07,10,24c0-0.692,0.098-1.359,0.263-2   c-0.597-0.322-2.085-0.981-4.114-0.873C6.06,21.74,6,22.362,6,23c0,0.048,0.007,0.094,0.007,0.142   C8.02,22.951,9.355,23.774,9.449,23.836z"/>
	<path fill="#FFB74D" d="M10.17,19.558l0.553,0.829l0.216-0.145c0.688-1.289,1.721-2.361,2.973-3.109   c-0.255-1.459-1.108-3.229-2.516-4.67c-0.544,0.394-1.048,0.835-1.523,1.306C11.275,15.164,12,16.957,12,18v0.697l-0.168-0.252   c-0.067-0.101-1.245-1.814-3.546-2.785c-0.38,0.553-0.722,1.133-1.014,1.744C9.146,18.102,10.109,19.469,10.17,19.558z"/>
	<path fill="#FFB74D" d="M10.058,24.927l-0.374,0.125c-0.096,0.032-1.672,0.576-3.031,1.998c0.236,0.724,0.53,1.419,0.885,2.081   c1.057-1.562,2.733-2.166,2.782-2.184l0.222-0.074C10.303,26.258,10.137,25.605,10.058,24.927z"/>
	<path fill="#FFB74D" d="M25.667,22.057l0.663,1.888c1.455-0.509,3.837-2.103,5.019-4.993c-0.329-1.005-0.782-1.951-1.333-2.832   C29.563,20.59,25.85,21.991,25.667,22.057z"/>
	<path fill="#FFB74D" d="M24.447,19.895c0.15-0.075,3.059-1.579,4.146-5.645c-0.525-0.576-1.1-1.104-1.719-1.576   c-0.596,3.947-3.179,5.356-3.326,5.434l-0.891,0.445L24.447,19.895z"/>
	<path fill="#FFB74D" d="M26.164,28.986c1.513-0.252,4-1.255,5.795-3.389C32.122,24.311,32,23.117,32,23   c0-0.548-0.045-1.084-0.111-1.615c-1.123,4.705-5.844,5.592-6.056,5.629l-0.655,2.137L26.164,28.986z"/>
</g>
<path fill="#CE630B" d="M24.092,17.73c-1.76-1.761-4.101-2.73-6.59-2.73s-4.83,0.97-6.591,2.73c-2.984,2.984-2.984,7.842,0,10.827  c2.464,2.465,6.477,2.466,8.944-0.001c0.994-0.993,1.541-2.314,1.541-3.72s-0.548-2.726-1.541-3.718  c-0.832-0.833-1.939-1.292-3.117-1.292s-2.285,0.459-3.117,1.292c-1.453,1.453-1.453,3.816,0,5.27c1.243,1.24,3.261,1.238,4.5,0  c0.391-0.391,0.391-1.023,0-1.414s-1.023-0.391-1.414,0c-0.461,0.461-1.211,0.461-1.672,0c-0.673-0.673-0.673-1.769,0-2.441  c0.91-0.91,2.496-0.911,3.406,0.001c0.616,0.614,0.955,1.433,0.955,2.303c0,0.872-0.339,1.689-0.955,2.306  c-1.688,1.688-4.431,1.687-6.116,0.001c-2.205-2.206-2.205-5.794,0-7.999C13.708,17.762,15.547,17,17.502,17  s3.793,0.762,5.176,2.145c3.665,3.665,3.665,9.628,0,13.293c-1.729,1.729-3.893,2.859-6.244,3.302  c1.078,0.205,2.959,0.454,4.941,0.217c0.975-0.585,1.892-1.28,2.717-2.104C28.536,29.407,28.536,22.175,24.092,17.73z"/>
</svg>