<?xml version="1.0" encoding="utf-8"?><!-- Generator: Adobe Illustrator 15.0.0, SVG Export Plug-In . SVG Version: 6.00 Build 0)  --><!DOCTYPE svg PUBLIC "-//W3C//DTD SVG 1.1//EN" "http://www.w3.org/Graphics/SVG/1.1/DTD/svg11.dtd"><svg xmlns="http://www.w3.org/2000/svg" xmlns:xlink="http://www.w3.org/1999/xlink" version="1.1" x="0px" y="0px" width="500" height="500" viewBox="0 0 48 48" enable-background="new 0 0 48 48" xml:space="preserve">
<g>
	<polyline fill="none" stroke="#A1887F" stroke-width="2" stroke-linecap="round" points="21,21 17,19 16,15 12,6  "/>
	<path fill="none" stroke="#A1887F" stroke-width="2" stroke-linecap="round" d="M20,23l-5-1c0,0-8-8-9-9"/>
	<polyline fill="none" stroke="#A1887F" stroke-width="2" stroke-linecap="round" points="20,25 15,28 7,28  "/>
	<polyline fill="none" stroke="#A1887F" stroke-width="2" stroke-linecap="round" points="21,26 16,32 13,42  "/>
	<polyline fill="none" stroke="#A1887F" stroke-width="2" stroke-linecap="round" points="27,21 31,19 32,15 36,6  "/>
	<path fill="none" stroke="#A1887F" stroke-width="2" stroke-linecap="round" d="M28,23l5-1c0,0,8-8,9-9"/>
	<polyline fill="none" stroke="#A1887F" stroke-width="2" stroke-linecap="round" points="28,25 33,28 41,28  "/>
	<polyline fill="none" stroke="#A1887F" stroke-width="2" stroke-linecap="round" points="27,26 32,32 35,42  "/>
</g>
<circle fill="#795548" cx="24" cy="24" r="5"/>
<path fill="#8D6E63" d="M28,18.285C28,20.652,27.199,21,24,21s-4-0.348-4-2.715S21.791,14,24,14S28,15.918,28,18.285z"/>
<g>
	<path fill="#4E342E" d="M27.368,27.674C26.479,28.49,25.303,29,24,29s-2.479-0.51-3.369-1.326C19.043,29.338,18,31.936,18,34   c0,3.313,2.687,6,6,6s6-2.687,6-6C30,31.936,28.956,29.338,27.368,27.674z"/>
	<g>
		<path fill="#4E342E" d="M21.104,16.443c-0.155-0.527-0.212-0.958-0.271-1.428c-0.052-0.461-0.077-0.916-0.079-1.368    C20.748,12.744,20.834,11.855,21,11c0.168,0.855,0.415,1.68,0.735,2.457c0.16,0.389,0.338,0.765,0.533,1.125    c0.192,0.348,0.419,0.727,0.628,0.975c0.366,0.435,0.311,1.084-0.123,1.449c-0.435,0.367-1.084,0.312-1.449-0.123    c-0.095-0.111-0.16-0.236-0.199-0.367L21.104,16.443z"/>
	</g>
	<g>
		<path fill="#4E342E" d="M25.104,15.557c0.209-0.248,0.436-0.627,0.628-0.975c0.195-0.36,0.373-0.736,0.533-1.125    C26.585,12.68,26.832,11.855,27,11c0.166,0.855,0.252,1.744,0.246,2.647c-0.002,0.452-0.027,0.907-0.079,1.368    c-0.059,0.47-0.115,0.9-0.271,1.428l-0.02,0.066c-0.16,0.546-0.732,0.857-1.277,0.697s-0.857-0.732-0.696-1.277    C24.944,15.79,25.016,15.662,25.104,15.557z"/>
	</g>
</g>
</svg>