<?xml version="1.0" encoding="utf-8"?><!-- Generator: Adobe Illustrator 15.0.0, SVG Export Plug-In . SVG Version: 6.00 Build 0)  --><!DOCTYPE svg PUBLIC "-//W3C//DTD SVG 1.1//EN" "http://www.w3.org/Graphics/SVG/1.1/DTD/svg11.dtd"><svg xmlns="http://www.w3.org/2000/svg" xmlns:xlink="http://www.w3.org/1999/xlink" version="1.1" x="0px" y="0px" width="500" height="500" viewBox="0 0 48 48" enable-background="new 0 0 48 48" xml:space="preserve">
<g>
	<polyline fill="none" stroke="#FF3D00" stroke-width="2" stroke-linecap="round" stroke-miterlimit="10" points="20,29 20,35    22,42  "/>
	<path fill="none" stroke="#FF3D00" stroke-width="2" stroke-linecap="round" stroke-miterlimit="10" d="M19,43c0,0,0.738-1,3-1   c2.261,0,4,1,4,1"/>
	<circle fill="#FF3D00" cx="20.5" cy="35.5" r="1.5"/>
	<path fill="#FF3D00" d="M30,6c0,0,7.898,0.966,9,3H27l1-2L30,6z"/>
</g>
<g>
	<path fill="none" stroke="#B0BEC5" stroke-width="2" d="M25,6c0,3,3.375,6.625,4.375,8.625s3.083,6.711-4,11"/>
	<path fill="#B0BEC5" d="M25.656,10.625C25.656,10.625,30,19,27,19c-2,0-13.969-1.125-18,12c0,0,3.611,1.015,8,1   c1.066-0.004,2.201-0.085,3.375-0.28c6-1,11-8.095,11-13.095S25.656,10.625,25.656,10.625z"/>
	<path fill="#B0BEC5" d="M28,7l1.938-0.969c0-1.64-1.329-2.969-2.969-2.969S24,4.392,24,6.031S25.329,9,26.969,9   c0.012,0,0.021-0.003,0.033-0.003L28,7z"/>
</g>
<path fill="#455A64" d="M12,32c10-3,14-9,14-9c-1,1-6,3-11,2c0.667-3,4-5,4-5s-8.563,0.875-10.563,9.875C8,32,8,35,8,35  C9,33,12,32,12,32z"/>
<ellipse fill="#37474F" cx="26.999" cy="5.5" rx="1" ry="0.5"/>
</svg>