<?xml version="1.0" encoding="utf-8"?><!-- Generator: Adobe Illustrator 15.0.0, SVG Export Plug-In . SVG Version: 6.00 Build 0)  --><!DOCTYPE svg PUBLIC "-//W3C//DTD SVG 1.1//EN" "http://www.w3.org/Graphics/SVG/1.1/DTD/svg11.dtd"><svg xmlns="http://www.w3.org/2000/svg" xmlns:xlink="http://www.w3.org/1999/xlink" version="1.1" x="0px" y="0px" width="500" height="500" viewBox="0 0 48 48" enable-background="new 0 0 48 48" xml:space="preserve">
<g>
	<path fill="#8BC34A" d="M26.646,31.354c-2.209,0-4-1.791-4-4s1.794-3.877,4-4C33,23,37.322,21.996,38.711,15.638   c0.936-4.284,4.762-3.676,6.936-3.284c2.174,0.396,1.33,2.542,0.936,4.716C44.858,26.548,40,31,26.646,31.354z"/>
	<g>
		<path fill="#8BC34A" d="M7.469,27.303c-0.314,0.821-0.677,1.444-1.104,2.1c-0.424,0.638-0.911,1.232-1.461,1.756    C3.815,32.213,2.395,32.924,1,33c1.281-0.578,2.169-1.61,2.707-2.745c0.272-0.57,0.471-1.169,0.608-1.778    c0.133-0.593,0.229-1.266,0.216-1.779c-0.021-0.85,0.649-1.556,1.499-1.577c0.85-0.021,1.556,0.649,1.577,1.498    c0.005,0.205-0.03,0.401-0.098,0.582L7.469,27.303z"/>
	</g>
</g>
<path fill="#C0CA33" d="M6,30c0,1.656,1.343,3,3,3h22c1.656,0,3-1.178,3.25-3H6z"/>
<g>
	<circle fill="#558B2F" cx="42" cy="15" r="2"/>
	<path fill="none" stroke="#558B2F" stroke-width="4" stroke-linecap="round" d="M24,28c0,0,9,0,9,1c0,3-3,7-3,7"/>
	<path fill="none" stroke="#558B2F" stroke-width="4" stroke-linecap="round" d="M9,28l-2,4c0,0,1,4,8,4"/>
</g>
<path fill="#795548" d="M24,30l0.699-0.232c4.401-1.86,8.092-4.779,10.619-8.376C33.34,14.803,27.233,10,20,10  c-8.836,0-16,7.164-16,16v1l6,3H24z"/>
<path fill="#8D6E63" d="M20,10c-7.376,0-13.571,5-15.421,11.789L9,24l6,1h6l5-2l4-3l3.131-3.131C30.242,12.719,25.441,10,20,10z"/>
<path fill="#5D4037" d="M32.523,16.063l-2.467,2.467l-4.887-5.7l0.749-1.685c-0.618-0.247-1.252-0.465-1.907-0.634l-0.827,1.86  l-4.462,3.569l-5.243-0.874l-2.369-2.369c-0.56,0.375-1.087,0.793-1.595,1.234l2.266,2.266l-3.23,6.461l-3.678-1.84  c-0.219,0.639-0.413,1.289-0.55,1.962l4.229,2.114C8.6,24.918,8.651,24.914,8.7,24.93c0.047,0.016,0.086,0.049,0.135,0.057l6,1  C14.89,25.995,14.945,26,15,26h6c0.126,0,0.252-0.023,0.372-0.071l5-2c0.082-0.033,0.158-0.076,0.229-0.129l4-3  c0.02-0.015,0.029-0.036,0.047-0.052c0.019-0.017,0.043-0.023,0.061-0.041l2.978-2.978C33.332,17.148,32.943,16.593,32.523,16.063z   M15.083,24L10.5,23.236l3.064-6.129l4.625,0.771L19.719,24H15.083z M25.506,22.121l-3.813,1.525l-1.566-6.267l3.744-2.995  l4.676,5.456L25.506,22.121z"/>
<path fill="#4E342E" d="M28.321,25.761l-1.084-2.438l2.517-1.888l2.383,3.572c0.503-0.464,0.978-0.953,1.434-1.455l-2.283-3.425  l2.397-2.397c-0.353-0.581-0.741-1.137-1.161-1.667l-3.18,3.18l-3.837,2.877L20.807,24h-5.724l-5.769-0.961l-4.439-2.22  c-0.219,0.64-0.412,1.289-0.55,1.961l3.511,1.756l-0.974,3.895l1.961,0.98l0.948-4.269L14,25.847V30h2v-4h4.105l0.444,4h2.013  l-0.484-4.354l3.398-1.359l1.858,4.18c0.591-0.33,1.167-0.677,1.724-1.047L28.321,25.761z"/>
<circle cx="42.646" cy="14.354" r="1"/>
</svg>