<?xml version="1.0" encoding="utf-8"?><!-- Generator: Adobe Illustrator 15.0.0, SVG Export Plug-In . SVG Version: 6.00 Build 0)  --><!DOCTYPE svg PUBLIC "-//W3C//DTD SVG 1.1//EN" "http://www.w3.org/Graphics/SVG/1.1/DTD/svg11.dtd"><svg xmlns="http://www.w3.org/2000/svg" xmlns:xlink="http://www.w3.org/1999/xlink" version="1.1" x="0px" y="0px" width="500" height="500" viewBox="0 0 48 48" enable-background="new 0 0 48 48" xml:space="preserve">
<g>
	<path fill="#FFC107" d="M27.107,25c3.036,0-3,16,14.893,11.779C30.107,47,21.107,40,18.611,36.168   C15.957,32.094,15.107,25,20,22.779C22.036,21.855,24.107,25,27.107,25z"/>
	<path fill="#FFC107" d="M36.318,21.152c0.771,0.359,0.811-2.27-0.365-4.998c0,0-0.846-0.154-1.846,1.846   C34.107,18,35.107,19,36.318,21.152z"/>
</g>
<g>
	<g>
		<path fill="#4E342E" d="M35.361,40.953c-0.026-0.144-0.034-0.291-0.066-0.434c-0.211-0.932-0.578-1.861-1.188-2.52    c0.15,0.878-0.037,1.699-0.312,2.461c-0.141,0.381-0.309,0.749-0.498,1.103c-0.014,0.025-0.03,0.052-0.044,0.077    C33.939,41.468,34.642,41.241,35.361,40.953z"/>
		<path fill="#4E342E" d="M19.683,29.221c2.195,0.176,4.42,0.012,6.425-0.658c-2.113,0.006-4.117-0.514-5.966-1.289    c-0.926-0.387-1.815-0.847-2.667-1.353c-0.114-0.069-0.229-0.142-0.344-0.214c-0.406,0.92-0.619,1.949-0.652,3.027    C17.541,28.967,18.611,29.137,19.683,29.221z"/>
		<path fill="#4E342E" d="M30.107,38c-0.345,1.144-1.061,2.019-1.845,2.77c-0.396,0.371-0.815,0.711-1.251,1.021    c0.912,0.197,1.88,0.306,2.902,0.296c0.033-0.117,0.072-0.234,0.102-0.354C30.322,40.49,30.441,39.156,30.107,38z"/>
		<path fill="#4E342E" d="M24.68,39.645c0.75-0.642,1.455-1.34,2.059-2.114c0.602-0.771,1.104-1.628,1.369-2.53    c-1.152,1.492-2.801,2.31-4.452,2.927c-0.835,0.302-1.689,0.543-2.552,0.737c-0.069,0.016-0.143,0.027-0.213,0.041    c0.761,0.656,1.656,1.286,2.675,1.824C23.945,40.246,24.318,39.952,24.68,39.645z"/>
		<path fill="#4E342E" d="M26.107,32c-1.675,0.955-3.507,1.387-5.296,1.448c-0.896,0.034-1.786-0.025-2.655-0.151    c-0.324-0.049-0.658-0.111-0.987-0.182c0.368,1.106,0.857,2.154,1.442,3.053c0.008,0.013,0.019,0.025,0.026,0.039    c0.897-0.207,1.776-0.465,2.616-0.809C23.152,34.633,24.866,33.469,26.107,32z"/>
	</g>
	<path fill="#4E342E" d="M27.107,25c-0.371,0-0.728-0.049-1.072-0.131c0.963,1.032,2.071,2.735,0.072,3.693c0,0,2,1.438,0,3.438   c0,0,3,0,2,3c0,0,3,0,2,3c0,0,2-1,4,0c0,0,3.625-0.9,3.966,1.611c1.27-0.746,2.578-1.673,3.927-2.832   C24.107,41,30.144,25,27.107,25z"/>
</g>
<path fill="#42A5F5" d="M27.548,21.011L27.559,21c0,0-6.745-13.732-9.691-14.883c-1.862-0.728-3.477,6.157-0.842,10.407  c2.236,3.605,9.082,5.788,9.082,5.788l0.015-0.014c0.066,0.049,0.127,0.103,0.207,0.134c0.515,0.2,1.094-0.054,1.295-0.567  C27.738,21.572,27.693,21.265,27.548,21.011z"/>
<g>
	<path fill="#5D4037" d="M31.107,25c-2.08,2.081-5,0-6-1c-2-2-3.846-3.688-1.767-5.766c2.08-2.081,4.7-1.328,6.779,0.753   C32.201,21.068,33.187,22.922,31.107,25z"/>
	<polyline fill="none" stroke="#5D4037" stroke-width="2" stroke-linecap="round" points="33.107,13.002 34.107,11.002    39.107,10.002  "/>
	<polyline fill="none" stroke="#5D4037" stroke-width="2" stroke-linecap="round" points="31.107,12.002 30.107,9.002 36.107,7.002     "/>
</g>
<path fill="#8D6E63" d="M34.107,18c0.999-1.999,1.845-1.846,1.846-1.846c-0.805-1.867-2.178-3.778-4.278-4.802  c-1.953-0.951-4.283,0.009-5.162,2.06c-0.878,2.051,0.011,4.449,1.98,5.368C31.107,20,35.107,20,36.107,21  c0.076,0.076,0.146,0.122,0.211,0.152C35.107,19,34.107,18,34.107,18z"/>
<g>
	<path fill="#3E2723" d="M30.594,19.469c-0.769-0.229-1.433-0.377-2.101-0.688c-0.8-0.373-1.409-0.996-1.807-1.735   c-0.7-0.104-2.235,0.018-2.923,0.861c0.551,1.398,0.802,3.537,2.281,4.094c2.906,1.094,5.002,0.715,6.143,0.016   C31.938,21,31.213,20.215,30.594,19.469z"/>
	<path fill="#3E2723" d="M33.98,16.578c-0.457,0.745-1.408-0.502-2.873-1.578s-2.891-1.574-2.434-2.32   c0.456-0.744,2.017-0.476,3.481,0.601S34.438,15.832,33.98,16.578z"/>
</g>
<path fill="#90CAF9" d="M26.726,20.232l0.007-0.014C26.732,20.219,10.27,6,7.107,6c-2,0-1,7,3,10  c3.395,2.546,15.75,5.969,15.75,5.969l0.009-0.018C25.945,21.972,26.021,22,26.107,22c0.553,0,1-0.447,1-1  C27.107,20.686,26.953,20.416,26.726,20.232z"/>
</svg>