<?xml version="1.0" encoding="utf-8"?><!-- Generator: Adobe Illustrator 19.1.1, SVG Export Plug-In . SVG Version: 6.00 Build 0)  --><svg xmlns="http://www.w3.org/2000/svg" xmlns:xlink="http://www.w3.org/1999/xlink" version="1.1" x="0px" y="0px" viewBox="0 0 48 48" enable-background="new 0 0 48 48" xml:space="preserve" width="500" height="500">
<path fill="#1A237E" d="M7.1,28L5,36c0,0,7.4,0.5,9.4-5.7S7.1,28,7.1,28z"/>
<path fill="#9FA8DA" d="M0,17c0.8,4.7,4.3,17,18,17c-1.2-7-4-12-4-12s-9.2-2.7-12.8-5.7C0.8,15.9,0,15.9,0,17z"/>
<path fill="#7986CB" d="M7.7,21.1c0.8,0.4,1.9-0.1,2.6,0.2c0.4,0.1,0,0.4,0.6,1.2c1.2,1.6,2.9,3.1,5.2,3.5c0.2,0.6,0.4,1.3,0.6,2.1  C12,27.6,9.1,23.8,7.7,21.1z M17.6,32c-0.1-0.7-0.3-1.4-0.4-2C9.2,29.5,6,23,4.8,19.3C4,18.7,3.1,18,2.2,17.2  C2.6,19.1,5.4,31.7,17.6,32z"/>
<path fill="#303F9F" d="M38.1,11.9c0,0,0.8-3.8-7.1-7.9c-3.3,6.1,4.2,9.2,4,12c-0.2,2.8-5,3-5,3c-3.1-0.5-8.1-11-13-11S1.9,9.4,1,12  c-0.9,2.6,0,4,0,4s8.1,6.2,12,6c2.9-0.2,7,21,7,21s5.2-1.6,5.5-9.8C36.4,30,38,18,38,18c0.5-5,6.9,3,10-4  C39.6,8.8,38.1,11.9,38.1,11.9z"/>
<path fill="#5C6BC0" d="M23,27c0,0,1.6-0.4,2,1c2.3,12.8-5,16-5,16s-4.1-22.2-7-22c2.3,0.8,3,4.7,6.1,5.2L23,27z M15,20  c1.1,0,2-0.9,2-2s-0.9-2-2-2s-2,0.9-2,2S13.9,20,15,20z"/>
<path fill="#263238" d="M20,23.4c-0.1,0-1.8,1-3,1c-0.8,0-1.7-0.1-2.7-1.3c-0.3-0.3-0.9-0.4-1.8-0.5c-2.2-0.4-5.3-1-10.7-5.8  C1.3,16.3,1,16,1,16s-0.7-1.1-0.3-3c6.5,6.6,9.7,7.3,12.1,7.7c1.1,0.2,2.1,0.3,2.9,1l0.1,0.1C16.9,23.2,20,23.4,20,23.4z M14,17  c-0.5,0-1,0.4-1,1s0.4,1,1,1s1-0.4,1-1S14.5,17,14,17z"/>
</svg>