<?xml version="1.0" encoding="utf-8"?><!-- Generator: Adobe Illustrator 19.1.1, SVG Export Plug-In . SVG Version: 6.00 Build 0)  --><svg xmlns="http://www.w3.org/2000/svg" xmlns:xlink="http://www.w3.org/1999/xlink" version="1.1" x="0px" y="0px" viewBox="0 0 48 48" enable-background="new 0 0 48 48" xml:space="preserve" width="500" height="500">
<path fill="#6D4C41" d="M43,22c0,0-1.3-2.8-3.8-5.9c0.4-1.5,1.1-4.4,0.6-7.9c-0.5-3.6-2-4.2-3-4.2c-0.6,0-1,0.2-1,0.2L30,9.1  C28.2,8.4,26.2,8,24,8s-4.2,0.4-6,1.1l-5.9-4.9c0,0-0.4-0.2-1-0.2c-1,0-2.6,0.6-3,4.2c-0.5,3.5,0.2,6.4,0.6,7.9C6.3,19.2,5,22,5,22  h3l-2,4l4.9-0.2L24,25l13.1,0.8L42,26l-2-4H43z"/>
<path fill="#A1887F" d="M33.1,10.6L36.8,6c0,0,0,0,0,0c0.4,0,0.8,0.8,1,2.5c0.3,2.4,0,4.4-0.3,5.8C36.3,13,34.8,11.7,33.1,10.6z   M14.9,10.6L11.2,6c0,0,0,0,0,0c-0.4,0-0.8,0.8-1,2.5c-0.3,2.4,0,4.4,0.3,5.8C11.7,13,13.2,11.7,14.9,10.6z"/>
<path fill="#BCAAA4" d="M30,20c-4.1,0-6,3-6,3s-1.9-3-6-3S8,25.8,7,30c0,0,6.4,0.1,8,2s3,9,3,9s0.6,3,6,3s6-3,6-3s1.4-7.1,3-9  s8-2,8-2C40,25.8,34.1,20,30,20z"/>
<rect x="23" y="41" fill="#6D4C41" width="2" height="2"/>
<path fill="#5D4037" d="M21,29c0,0-2.7,0-4,0c-3.2,0-2.9-5-2.9-5s2.6,0,3.9,0C21.2,24,21,29,21,29z M27,29c0,0,2.7,0,4,0  c3.2,0,2.9-5,2.9-5s-2.6,0-3.9,0C26.8,24,27,29,27,29z"/>
<path fill="#3E2723" d="M28.6,42.9C27.8,44.1,26.1,45,24,45c-2.1,0-3.8-0.9-4.6-2.1c0.2,0.1,0.4,0.1,0.6,0.1h8  C28.2,43,28.4,42.9,28.6,42.9z M27,38c0-0.6-0.4-1-1-1h-4c-0.6,0-1,0.4-1,1v2c0,0.6,1.4,2,2,2h2c0.6,0,2-1.4,2-2V38z"/>
<path fill="#EEFF41" d="M19.7,27.1c-0.4,0.5-1,0.9-1.7,0.9c-1.1,0-2-0.9-2-2c0-0.5,0.2-1,0.6-1.4C17.9,25.2,18.9,26.2,19.7,27.1z   M28.3,27.1c0.4,0.5,1,0.9,1.7,0.9c1.1,0,2-0.9,2-2c0-0.5-0.2-1-0.6-1.4C30.1,25.2,29.1,26.2,28.3,27.1z"/>
<path fill="#212121" d="M18.9,26.3C18.8,26.7,18.4,27,18,27c-0.6,0-1-0.4-1-1c0-0.4,0.2-0.7,0.5-0.9C18,25.5,18.5,25.9,18.9,26.3z   M30.5,25.1c-0.5,0.4-1,0.8-1.4,1.2c0.1,0.4,0.5,0.7,0.9,0.7c0.6,0,1-0.4,1-1C31,25.6,30.8,25.3,30.5,25.1z"/>
</svg>